<svg id="surface1" xmlns="http://www.w3.org/2000/svg" width="56.318" height="67.84" viewBox="0 0 56.318 67.84">
  <path id="Path_157" data-name="Path 157" d="M10.594.856C7.047,6.964,3.547,13.112,0,19.217v.078Q14.066,43.932,28.081,68.618,42.208,43.946,56.318,19.269C52.746,13.093,49.141,6.951,45.569.777H10.645a.073.073,0,0,0-.051.079" transform="translate(0 -0.777)" fill="#fff" fill-rule="evenodd"/>
  <path id="Path_158" data-name="Path 158" d="M10.645.8H45.569c3.572,6.174,7.177,12.312,10.749,18.49q-14.1,24.7-28.237,49.346Q14.025,44,0,19.316v-.078C3.545,13.133,7.047,6.984,10.594.877A.07.07,0,0,1,10.645.8M.463,19.29c9.236,16.14,18.38,32.382,27.644,48.5,9.212-16.2,18.536-32.3,27.721-48.525-3.272-5.641-6.552-11.227-9.847-16.921-.111-.192-.546-1.106-.75-1.106H10.877C7.381,7.23,3.936,13.273.463,19.29" transform="translate(0 -0.798)" fill="#010101" fill-rule="evenodd"/>
  <path id="Path_159" data-name="Path 159" d="M15.066,5.219H49.378c.2,0,.633.914.744,1.105,3.29,5.684,6.566,11.26,9.834,16.895-9.177,16.2-18.484,32.274-27.683,48.45C23.023,55.577,13.892,39.36,4.664,23.244c3.47-6.009,6.911-12.04,10.4-18.026M14.3,8.557c-1.178,2.022-2.343,4.106-3.491,6.11-.106.185-.277.352-.259.515h7.474V6.3c-.746-.059-1.6-.009-2.389-.025-.467.718-.887,1.515-1.335,2.285M18.763,6.35v8.833c2.211.043,4.6.043,6.807,0V6.272H18.79c-.03,0-.028.039-.028.077m7.576,0v8.833H38.131c-.018-2.962.032-5.991-.028-8.91H26.364c-.028,0-.028.039-.025.077m12.586,0v8.833c2.112.04,4.764.043,6.881,0V6.272H38.948c-.028,0-.028.039-.023.077m7.726,0v8.833h7.426c-.809-1.481-1.664-2.985-2.542-4.468s-1.7-3.011-2.625-4.442H46.679c-.032,0-.028.039-.028.077M5.9,23.244c1.3,2.372,2.5,4.609,3.829,6.983.132.241.414.889.615.951a6.83,6.83,0,0,0,1.363,0c3.1,0,6.109-.027,9.4-.027h33.18A19.992,19.992,0,0,0,55.413,29.2c1.1-1.99,2.287-3.932,3.364-5.931-1.285-2.218-2.551-4.416-3.831-6.651-.139-.244-.421-.841-.615-.9a7.1,7.1,0,0,0-1.363,0c-14.214,0-28.707,0-42.755,0Q8.037,19.462,5.9,23.244m4.7,8.55c-.039.007-.018.057,0,.077,2.211,3.858,4.6,7.959,6.858,11.864.164.282.139.4.488.254.141-.185.079-.453.079-.665V31.794Zm8.218.077V44.091a10.089,10.089,0,0,0,0,1.774,3.889,3.889,0,0,0,.386.718c1.92,3.421,3.792,6.66,5.675,10.091.139.252.2.645.541.487.183-.083.141-.111.152-.333.146-2.541-.132-5.006.028-7.448,4.286.062,8.91.009,13.328.028.042,2.005.023,3.946.023,5.981a10.845,10.845,0,0,0,0,1.772c.032.125.009.055.13.129a.245.245,0,0,0,.36-.051,2.446,2.446,0,0,0,.2-.36c1.983-3.53,3.84-6.815,5.832-10.271a3.57,3.57,0,0,0,.411-.744,11,11,0,0,0,0-1.746V31.794H38.9c-.018,3.99.032,7.912.028,11.89-4.445-.018-8.954.032-13.356-.028V31.872c-2.227-.04-4.48-.057-6.728-.077-.03,0-.028.042-.025.077m7.5,0v11.12H38.154c-.018-3.724.032-7.517-.023-11.2H26.339c-.028,0-.025.042-.023.077m20.336,0c.037,4-.065,8.135.055,12.039.411.259.513-.213.638-.434,2.195-3.789,4.362-7.588,6.553-11.323.055-.1.208-.218.153-.359H46.679c-.032,0-.028.042-.028.077M26.417,50.178c.007-.051-.074.007-.079.025v7.961a7.381,7.381,0,0,0,0,1.155,3.636,3.636,0,0,0,.36.642c1.853,3.206,3.734,6.4,5.548,9.527,1.7-2.885,3.439-5.872,5.163-8.808a6.149,6.149,0,0,0,.721-1.282,15.737,15.737,0,0,0,0-2.287V50.178H26.417" transform="translate(-4.167 -4.745)" fill="#fff" fill-rule="evenodd"/>
  <path id="Path_160" data-name="Path 160" d="M69.819,15.858c.852.017,1.779-.036,2.585.029v9.607H64.323c-.02-.177.162-.358.277-.556,1.244-2.168,2.5-4.42,3.777-6.609.482-.831.939-1.692,1.441-2.47m-1.054,2.721c-1.107,1.99-2.323,4.008-3.442,5.942a1.228,1.228,0,0,0-.222.527h6.829V16.331H70.071c-.465.7-.882,1.489-1.306,2.248" transform="translate(-57.467 -14.246)" fill="#010101" fill-rule="evenodd"/>
  <path id="Path_161" data-name="Path 161" d="M147.719,15.906h7.331V25.54c-2.39.046-4.971.046-7.359,0V15.988c0-.038,0-.077.027-.082" transform="translate(-133.271 -14.294)" fill="#010101" fill-rule="evenodd"/>
  <path id="Path_162" data-name="Path 162" d="M224.553,15.906h12.688c.065,3.156.01,6.431.03,9.634H224.523V15.988c0-.038,0-.077.03-.082m.417.555V25.1h11.856V16.377H225c-.035,0-.033.046-.027.084" transform="translate(-202.826 -14.294)" fill="#010101" fill-rule="evenodd"/>
  <path id="Path_163" data-name="Path 163" d="M352.211,15.906h7.414V25.54c-2.288.049-5.156.046-7.439,0V15.988c-.005-.038-.005-.077.025-.082" transform="translate(-317.803 -14.294)" fill="#010101" fill-rule="evenodd"/>
  <path id="Path_164" data-name="Path 164" d="M430.612,15.906h2.413c1,1.547,1.883,3.195,2.838,4.8s1.873,3.229,2.743,4.83h-8.023V15.988c0-.038,0-.077.03-.082m.415.555V25.1h6.829c-.789-1.478-1.7-2.9-2.523-4.358-.839-1.471-1.639-2.958-2.553-4.361h-1.724c-.035,0-.03.046-.03.084" transform="translate(-389.176 -14.294)" fill="#010101" fill-rule="evenodd"/>
  <path id="Path_165" data-name="Path 165" d="M21.48,111.414h42.6a6.422,6.422,0,0,1,1.354,0c.193.064.474.708.617.972,1.275,2.414,2.533,4.793,3.807,7.19-1.063,2.164-2.242,4.264-3.352,6.415a21.05,21.05,0,0,1-1.123,2.111H32.326c-3.276,0-6.273.025-9.364.027a6.41,6.41,0,0,1-1.356,0c-.2-.066-.481-.767-.612-1.028-1.319-2.568-2.516-4.985-3.814-7.551q2.13-4.09,4.3-8.136m8.34,3.3a2.373,2.373,0,0,0-2.327,2.138,2.45,2.45,0,0,0,2.633,2.719,2.9,2.9,0,0,0,1.485-.388v-1c-1.038.877-3.144.684-3.045-1.167a1.721,1.721,0,0,1,2.585-1.305c.2.1.313.29.46.278.051-.278,0-.666.051-.945a3.438,3.438,0,0,0-1.842-.332m6.114.11c-.656,1.5-1.248,3.069-1.867,4.609h1.126c.129-.315.209-.677.359-.972h1.842c.124.33.265.637.384.972h1.2c-.615-1.542-1.243-3.074-1.867-4.609Zm5.605.084v4.5c.923.008,2.157.174,2.814-.3a1.22,1.22,0,0,0,.129-1.806,2.808,2.808,0,0,0-.745-.3.99.99,0,0,0,.869-1.361c-.327-.957-1.85-.808-3.017-.806a.075.075,0,0,0-.051.084m7.317,1.471c.267-1.757-1.694-1.584-3.25-1.555v4.609h1.05v-2.082c.442.671.833,1.394,1.252,2.082h1.2c-.391-.708-.939-1.4-1.275-2.082.539-.161.939-.427,1.022-.972m.87,3.054h1.05v-4.609H49.753c-.064,1.481-.009,3.082-.028,4.609m3.352,0H54.1c.58-1.555,1.206-3.061,1.791-4.609H54.739c-.378,1.218-.856,2.328-1.151,3.637-.285-1.306-.75-2.422-1.128-3.637H51.314c.557,1.565,1.2,3.049,1.763,4.609m3.352-4.609c-.06,1.481-.009,3.082-.028,4.609h2.868v-.859c-.6-.02-1.261.036-1.819-.027v-1.085h1.819v-.86c-.6-.017-1.261.036-1.819-.027a6.526,6.526,0,0,1,.028-.915c.539.064,1.183.01,1.763.027a5.784,5.784,0,0,0,.028-.862Zm-23.154,4.694a.563.563,0,0,0-.384-1.057c-.75.232-.295,1.274.384,1.057m6.114-.555a.6.6,0,0,0,1.151.194.56.56,0,0,0-.718-.7.508.508,0,0,0-.433.5M32.506,122.6a1.756,1.756,0,0,0,.127,2.194,3.739,3.739,0,0,0,3.3.611v-1c-.879.32-2.458.135-2.406-.859.051-.893,1.616-1.2,2.406-.779v-.944a3.626,3.626,0,0,0-3.428.776m4.143,1.639a2.212,2.212,0,0,0,3.814.361,1.922,1.922,0,0,0-2.125-2.859,1.941,1.941,0,0,0-1.69,2.5m6.91-2.276c-.552-.368-1.42-.182-2.15-.251-.12,1.167-.018,2.573-.051,3.832h1v-1.276c.127.184.283.381.46.637.12.174.272.573.463.639.207.074.435-.054.738,0,.018-.166.1-.271.106-.445a11.6,11.6,0,0,1-.844-1.276c.779-.116.871-1.469.281-1.86m3.477.972c.083-1.353-1.386-1.22-2.555-1.223-.06,1.223-.009,2.563-.028,3.832h1V124.3c.129.171.29.357.46.608.124.179.262.571.46.639s.437-.051.741,0c.018-.166.078-.286.1-.445-.281-.433-.612-.812-.87-1.276a.882.882,0,0,0,.691-.888m.488-1.223v3.832H49.8v-.915h-1.28a2.62,2.62,0,0,1,.023-.612H49.7v-.887a9.49,9.49,0,0,0-1.174-.029c.014-.149-.032-.371.023-.473H49.8v-.887c-.52-.062-1.634-.011-2.279-.029m2.61.056v.86h1.151c-.308.563-.663,1.276-1,1.888-.189.352-.456.632-.23,1.028h2.509c.023-.115-.014-.668,0-.915a10.456,10.456,0,0,1-1.2-.029c.285-.535.654-1.26.971-1.86.189-.355.493-.657.18-1.028a20.364,20.364,0,0,0-2.38.056m2.914-.027c0-.067-.069.01-.051.056v3.747h2.279v-.915H54a3.24,3.24,0,0,1,.023-.612h1.156V123.1H54c.018-.149-.032-.371.023-.473h1.257v-.887a17.911,17.911,0,0,0-2.228,0" transform="translate(-15.349 -100.713)" fill="#010101" fill-rule="evenodd"/>
  <path id="Path_166" data-name="Path 166" d="M276.117,151.878v-1.054c.662-.159,1.5.24,1.084.832-.177.25-.694.21-1.084.222" transform="translate(-248.903 -135.998)" fill="#010101" fill-rule="evenodd"/>
  <path id="Path_167" data-name="Path 167" d="M317.285,151.984v-1.165c.769-.164,1.609.279,1.194.943-.175.282-.714.2-1.194.222" transform="translate(-286.018 -135.996)" fill="#010101" fill-rule="evenodd"/>
  <path id="Path_168" data-name="Path 168" d="M207.788,151.891a14.752,14.752,0,0,0,.722,1.944c-.417.063-.952.007-1.416.028a14.307,14.307,0,0,0,.694-1.972" transform="translate(-186.689 -137.006)" fill="#010101" fill-rule="evenodd"/>
  <path id="Path_169" data-name="Path 169" d="M276.117,169.251v-1.223c.812-.156,1.61.3,1.2.944-.19.293-.667.273-1.2.279" transform="translate(-248.908 -151.513)" fill="#010101" fill-rule="evenodd"/>
  <path id="Path_170" data-name="Path 170" d="M273.516,217.009a1.063,1.063,0,0,1,.612.11c.125.366-.25.45-.612.417Zm0,0" transform="translate(-246.538 -195.676)" fill="#010101" fill-rule="evenodd"/>
  <path id="Path_171" data-name="Path 171" d="M305.051,217a.993.993,0,0,1,.609.11c.035.12,0,.138,0,.278a.82.82,0,0,1-.609.139Zm0,0" transform="translate(-274.962 -195.663)" fill="#010101" fill-rule="evenodd"/>
  <path id="Path_172" data-name="Path 172" d="M226.19,217.685c.669-.092,1.426.3,1.276,1.11-.175.94-2.078,1.067-2.221-.056-.08-.622.337-.973.944-1.054" transform="translate(-203.07 -196.306)" fill="#010101" fill-rule="evenodd"/>
  <path id="Path_173" data-name="Path 173" d="M72.679,274.832V287.3c0,.23.07.52-.08.719-.38.155-.352.03-.53-.275-2.438-4.221-5.026-8.656-7.414-12.828-.017-.024-.042-.076,0-.085Zm-7.216.446c-.06.015-.06.042-.03.084,2.281,3.9,4.489,7.877,6.8,11.744v-11.8c-2.2-.064-4.524-.01-6.772-.027" transform="translate(-57.744 -248.254)" fill="#010101" fill-rule="evenodd"/>
  <path id="Path_174" data-name="Path 174" d="M147.824,274.844c2.314.022,4.633.041,6.927.085V287.67c4.526.065,9.169.01,13.744.03,0-4.3-.048-8.542-.029-12.857h7.191V288.17a12.5,12.5,0,0,1,0,1.888,3.926,3.926,0,0,1-.423.8c-2.05,3.737-3.957,7.289-6,11.106a2.721,2.721,0,0,1-.209.39.245.245,0,0,1-.371.055c-.119-.08-.1-.005-.133-.14a12.24,12.24,0,0,1,0-1.913c0-2.2.019-4.3-.024-6.47-4.547-.02-9.307.037-13.72-.03-.162,2.64.124,5.305-.024,8.053-.014.237.029.27-.162.36-.347.17-.411-.255-.552-.525-1.938-3.712-3.864-7.214-5.843-10.913a4.2,4.2,0,0,1-.4-.777,11.452,11.452,0,0,1,0-1.918V274.929c0-.041,0-.08.026-.085M158,290.281a2,2,0,0,0,1.929,2.47,2.017,2.017,0,1,0-.212-4.027A1.939,1.939,0,0,0,158,290.281m7.849-.472c-.014.687.461.954.9,1.194.233.127.68.31.69.555,0,.3-.471.427-.77.28-.2-.1-.224-.257-.29-.447a3.294,3.294,0,0,0-.58.7,1.335,1.335,0,0,0,1.322.664,1.225,1.225,0,0,0,.951-2c-.29-.33-1.308-.579-1.27-.971.048-.473.932-.2.847.109a3.075,3.075,0,0,0,.609-.612,1.325,1.325,0,0,0-2.407.53m-15.965-1.029c-.062,1.231-.007,2.583-.026,3.862H152v-.889a10.439,10.439,0,0,1-1.165-.025c-.019-.866.036-2.036-.026-2.948Zm2.4,0c-.059,1.231-.007,2.583-.026,3.862h.98v-3.862Zm1.748,0c-.171,1.3-.361,2.585-.556,3.862h.923c.119-.729.14-1.559.292-2.251.214.767.459,1.5.687,2.251h.583c.238-.749.454-1.524.713-2.251.09.75.164,1.511.264,2.251a6.12,6.12,0,0,0,.923-.03c-.2-1.259-.388-2.533-.552-3.832h-.951c-.228.719-.442,1.446-.69,2.141-.255-.687-.442-1.444-.687-2.141Zm8.246.085c.067,1.4-.279,3.082.552,3.637a2.2,2.2,0,0,0,2.036.027c.923-.547.528-2.333.609-3.749h-.951c-.167.919.328,2.533-.266,2.948a.674.674,0,0,1-.923-.142c-.371-.577.081-2.176-.133-2.805h-.9c-.019.005-.081.095-.024.085m6.5-.085c-.062,1.231-.009,2.583-.029,3.862h.951v-3.862Zm2.407,0h-.9v3.862h.923v-2.278c.376.51.851,1.149,1.27,1.724.114.155.3.5.447.555.285.09.547-.065.847,0v-3.862h-.923v2.251c-.566-.739-1.075-1.536-1.665-2.251" transform="translate(-133.544 -249.094)" fill="#010101" fill-rule="evenodd"/>
  <path id="Path_175" data-name="Path 175" d="M224.3,274.844h12.743c.07,3.98.01,8.078.03,12.1h-12.8V274.926c0-.039,0-.076.027-.082m.417.527v11.136h11.911c.01-3.872-.01-7.46-.025-11.219H224.748c-.035,0-.032.046-.03.084" transform="translate(-202.604 -248.215)" fill="#010101" fill-rule="evenodd"/>
  <path id="Path_176" data-name="Path 176" d="M430.557,274.844h7.968c.06.154-.1.28-.17.39-2.368,4.039-4.711,8.145-7.079,12.242-.135.242-.245.749-.694.472-.125-4.224-.015-8.689-.05-13.022,0-.039,0-.076.025-.082m.445.527v11.635c2.268-3.807,4.561-7.818,6.774-11.719h-6.744c-.035,0-.035.046-.03.084" transform="translate(-389.121 -248.262)" fill="#010101" fill-rule="evenodd"/>
  <path id="Path_177" data-name="Path 177" d="M258.883,413.535c1.741-.277,1.479,2.723-.195,2.141a1.147,1.147,0,0,1,.195-2.141" transform="translate(-232.635 -372.875)" fill="#010101" fill-rule="evenodd"/>
  <path id="Path_178" data-name="Path 178" d="M237.037,461.184v7.494a17.019,17.019,0,0,1,0,2.473,6.59,6.59,0,0,1-.779,1.386c-1.863,3.175-3.737,6.4-5.582,9.524-1.961-3.377-3.994-6.834-6-10.3a3.844,3.844,0,0,1-.39-.694,7.983,7.983,0,0,1,0-1.249v-8.608c.005-.02.092-.082.085-.025h12.663m-12.3.525v8.081a6.71,6.71,0,0,0,0,1.166,3.609,3.609,0,0,0,.36.637c1.863,3.225,3.767,6.417,5.553,9.579,1.767-2.853,3.451-5.872,5.194-8.83a6.708,6.708,0,0,0,.749-1.276,7.563,7.563,0,0,0,0-1.167v-8.271H224.764c-.035,0-.032.042-.027.08" transform="translate(-202.594 -417.496)" fill="#010101" fill-rule="evenodd"/>
  <path id="Path_179" data-name="Path 179" d="M236.022,288.979l-3.555,2.58,1.361-4.182L230.3,284.8h4.366l1.359-4.159,1.358,4.159h4.371l-3.542,2.574,1.364,4.182Zm0,0" transform="translate(-207.983 -253.402)" fill="#b28c2e"/>
</svg>
