<svg id="Layer_1" data-name="Layer 1" xmlns="http://www.w3.org/2000/svg" xmlns:xlink="http://www.w3.org/1999/xlink" viewBox="0 0 53.66 68.8"><defs><style>.cls-1{fill:#f5c4b3;}.cls-2{fill:url(#linear-gradient);}.cls-3{fill:#3f0f1b;}.cls-4{fill:#561326;}.cls-5{fill:url(#linear-gradient-2);}.cls-6{fill:url(#linear-gradient-3);}.cls-7{fill:#9b1f1f;}.cls-8{fill:#d64747;}.cls-9{fill:#fefefe;}.cls-10{fill:#fff;}.cls-11{fill:url(#linear-gradient-4);}.cls-12{fill:url(#linear-gradient-5);}.cls-13{fill:url(#linear-gradient-6);}.cls-14{fill:#312a07;}.cls-15{fill:url(#linear-gradient-7);}</style><linearGradient id="linear-gradient" x1="-802.58" y1="532.18" x2="-801.58" y2="532.18" gradientTransform="matrix(7.2, 0, 0, -11.93, 5826.21, 6396.55)" gradientUnits="userSpaceOnUse"><stop offset="0" stop-color="#ffaa8b"/><stop offset="1" stop-color="#ffaa8b" stop-opacity="0"/></linearGradient><linearGradient id="linear-gradient-2" x1="-802.75" y1="532.25" x2="-801.75" y2="532.25" gradientTransform="matrix(7.21, 0, 0, -11.95, 5789.03, 6407.57)" gradientUnits="userSpaceOnUse"><stop offset="0" stop-color="#ffaa8b" stop-opacity="0"/><stop offset="1" stop-color="#ffaa8b"/></linearGradient><linearGradient id="linear-gradient-3" x1="-792.73" y1="540.45" x2="-792.73" y2="541.49" gradientTransform="matrix(6.72, 0, 0, -15.05, 5350.45, 8186.91)" gradientUnits="userSpaceOnUse"><stop offset="0" stop-color="#ffaa8b" stop-opacity="0.7"/><stop offset="0.1" stop-color="#ffaa8b" stop-opacity="0.58"/><stop offset="0.29" stop-color="#ffaa8b" stop-opacity="0.38"/><stop offset="0.47" stop-color="#ffaa8b" stop-opacity="0.21"/><stop offset="0.63" stop-color="#ffaa8b" stop-opacity="0.1"/><stop offset="0.77" stop-color="#ffaa8b" stop-opacity="0.03"/><stop offset="0.87" stop-color="#ffaa8b" stop-opacity="0"/></linearGradient><linearGradient id="linear-gradient-4" x1="-590.11" y1="480.4" x2="-591.11" y2="480.4" gradientTransform="matrix(5.37, 0, 0, -5.37, 4082.85, 2620.6)" gradientUnits="userSpaceOnUse"><stop offset="0" stop-color="#248157"/><stop offset="1" stop-color="#24816a" stop-opacity="0"/></linearGradient><linearGradient id="linear-gradient-5" x1="-311.26" y1="403.44" x2="-312.26" y2="403.44" gradientTransform="matrix(2.95, 0, 0, -2.95, 1833.63, 1233.57)" xlink:href="#linear-gradient-4"/><linearGradient id="linear-gradient-6" x1="-815.59" y1="419.73" x2="-814.52" y2="419.73" gradientTransform="matrix(8, 0, 0, -3.26, 6537.61, 1414.05)" xlink:href="#linear-gradient-3"/><linearGradient id="linear-gradient-7" x1="-814.09" y1="420.16" x2="-815.16" y2="420.16" gradientTransform="matrix(7.98, 0, 0, -3.27, 6535.08, 1419.23)" xlink:href="#linear-gradient-3"/></defs><g id="Group_2986" data-name="Group 2986"><path id="Path_5394" data-name="Path 5394" class="cls-1" d="M53.22,47.42c-.62,1.92-5.1,6.36-6.76,3.26l1.07-10.21h0A5.05,5.05,0,0,1,51,39.92a3.07,3.07,0,0,1,.5.2C54.05,41.35,53.94,45.17,53.22,47.42Z"/><path id="Path_5395" data-name="Path 5395" class="cls-2" d="M53.22,47.42c-.62,1.92-5.1,6.36-6.76,3.26l1.07-10.21h0A5.05,5.05,0,0,1,51,39.92a3.07,3.07,0,0,1,.5.2C54.05,41.35,53.94,45.17,53.22,47.42Z"/><path id="Path_5396" data-name="Path 5396" class="cls-1" d="M5.67,32.84s1.7,17.2,2.22,21,4.43,15.38,19.79,15C38.75,68.27,45.79,65,47,49.28s1.22-20.2,1.22-20.2L44.67,18.4l-3.54-5-12.76-1.3-11.07.13L10,13,8.55,17.6Z"/><path id="Path_5397" data-name="Path 5397" class="cls-3" d="M51.05,39.9a5.11,5.11,0,0,0-3.49.55V33.34A9,9,0,0,0,46.41,29L42.06,21.4a13.77,13.77,0,0,0,3-3.66,15.33,15.33,0,0,0,2-6.39,53.91,53.91,0,0,1,6.57,7.9C54,20.69,52.17,35.78,51.05,39.9Z"/><path id="Path_5398" data-name="Path 5398" class="cls-3" d="M47,11.35a15.33,15.33,0,0,1-2,6.39,13.77,13.77,0,0,1-3,3.66h0l-.2-.34h0L41.32,21l-4.66-.65-1-.15c-3.35-.45-7.9-1.06-13.29-1.74-.66.74-1.3,1.39-1.91,2h0l-.66.59c-5.28,4.62-8.72,3.5-12.08,3.13-.3,3-1.22,14.88-1.22,16.23v-.1a4.69,4.69,0,0,0-4-.36,2.56,2.56,0,0,0-.35.22C1.76,37.68-.16,24.27,0,23.44A24.16,24.16,0,0,1,4.35,14.9c-1.71.78-2.11.37-2.11.37s.88-.42,3.75-3.89A20.73,20.73,0,0,1,19,4.06a21.84,21.84,0,0,1,5.71.16A135.19,135.19,0,0,1,42.52,8.47,11.82,11.82,0,0,1,47,11.21Z"/><path id="Path_5399" data-name="Path 5399" class="cls-3" d="M6.45,40.33v.13c-1.89-1.44-4.32,0-4.32,0a1.26,1.26,0,0,0-.06-.38,2.12,2.12,0,0,1,.36-.21,4.67,4.67,0,0,1,4,.36Z"/><path id="Path_5400" data-name="Path 5400" class="cls-3" d="M20.24,10.49s-4.57,6.1,1.88,11.63a12.32,12.32,0,0,0,6.21,2.22,20.65,20.65,0,0,0,8.53-.57c7.55-2.21,11.73-10.9,9.55-18.3A13.46,13.46,0,0,0,45,2.41a7.34,7.34,0,0,1-1.84,4c.4-1.22.56-4.88-.42-6.45A14.11,14.11,0,0,1,32,5.21c1.06-.7,1.38-2.84,1.33-4.11-.48,1.11-7,2.92-8.75,3.2Z"/><path id="Path_5401" data-name="Path 5401" class="cls-4" d="M47,11.35a15.33,15.33,0,0,1-2,6.39,13.77,13.77,0,0,1-3,3.66h0a12.45,12.45,0,0,1-1.75,1.22,14.61,14.61,0,0,1-6.45,2.05,21.07,21.07,0,0,1-3.37,0l-1.68-.21-1.63-.33a8.43,8.43,0,0,1,1.66.11H30.5A24.11,24.11,0,0,0,33.78,24a16,16,0,0,0,6.1-2.12,14,14,0,0,0,1.42-1,14.81,14.81,0,0,0,3.17-3.53A16.77,16.77,0,0,0,46,14.45a15.86,15.86,0,0,0,.65-1.74A11,11,0,0,0,47,11.35Z"/><path id="Path_5402" data-name="Path 5402" class="cls-4" d="M40.53,14.24A16.21,16.21,0,0,1,34.63,22a11.79,11.79,0,0,1-4.58,1.91,11.32,11.32,0,0,1-4.88-.21h1.22a6.22,6.22,0,0,0,1.22,0l1.22-.12L30,23.28a13.13,13.13,0,0,0,4.25-2,20,20,0,0,0,3.53-3.16,28.38,28.38,0,0,0,2.77-3.93Z"/><path id="Path_5403" data-name="Path 5403" class="cls-4" d="M16.35,13.6A9.86,9.86,0,0,0,17,17.8a5.52,5.52,0,0,0,1.12,1.74A12.37,12.37,0,0,0,19.78,21,4.8,4.8,0,0,1,17.69,20a4.61,4.61,0,0,1-1.44-1.88,5.32,5.32,0,0,1-.43-2.3A5.08,5.08,0,0,1,16.35,13.6Z"/><path id="Path_5404" data-name="Path 5404" class="cls-4" d="M19.67,11.65a9.06,9.06,0,0,0-.78,4.45,7.34,7.34,0,0,0,.52,2.16c.11.36.32.7.47,1.06s.39.67.56,1.05a8.82,8.82,0,0,1-.89-.83,5.91,5.91,0,0,1-1.17-5.88A5.11,5.11,0,0,1,19.67,11.65Z"/><path id="Path_5405" data-name="Path 5405" class="cls-1" d="M6.44,40.23a4.72,4.72,0,0,0-4-.37C0,41.08,0,44.94.76,47.18c.61,1.93,5.1,6.35,6.75,3.26"/><path id="Path_5406" data-name="Path 5406" class="cls-5" d="M7.51,50.45c-1.66,3.11-6.1-1.33-6.76-3.26-.7-2.14-.81-5.69,1.3-7.11l.36-.22a4.7,4.7,0,0,1,4,.37v.1Z"/><path id="Path_5407" data-name="Path 5407" class="cls-6" d="M27.55,35.71H25.28c.39,7.31-2.72,11.51-1.93,13.12a3.66,3.66,0,0,0,6.45,0C30.61,47.22,27.55,45.08,27.55,35.71Z"/><path id="Path_5408" data-name="Path 5408" class="cls-3" d="M22.08,30s0,3.15-1.86,3.66-9.67,1.4-10.67,4.26c.55-2.17.74-4.26,2.87-5.22a27.34,27.34,0,0,1,3.39-1.1C18.69,30.78,22.08,30,22.08,30Z"/><path id="Path_5409" data-name="Path 5409" class="cls-3" d="M31.29,30s0,3.15,1.87,3.66,9.67,1.4,10.67,4.26c-.55-2.17-.75-4.26-2.88-5.22A89.83,89.83,0,0,0,31.29,30Z"/><path id="Path_5410" data-name="Path 5410" class="cls-7" d="M35.64,61.4A23.13,23.13,0,0,0,33,60.86,35.3,35.3,0,0,0,22.25,61c-.73.12-1.45.28-2.14.46-.37.09-.6-.51-.36-.88a16.55,16.55,0,0,1,2.15-2.43l.3-.28c2.65-2.35,6.73-4.1,11.55.25A18.36,18.36,0,0,1,36,60.51C36.25,60.85,36,61.49,35.64,61.4Z"/><path id="Path_5411" data-name="Path 5411" class="cls-8" d="M33,60.86A35.3,35.3,0,0,0,22.25,61c1.1-2.44,3.11-4.17,5.42-4.17A6.15,6.15,0,0,1,33,60.86Z"/><path id="Path_5412" data-name="Path 5412" class="cls-9" d="M33.81,58.12h0a21.92,21.92,0,0,0-11.86,0l.3-.28c2.64-2.34,6.73-4.1,11.55.26Z"/><path id="Path_5413" data-name="Path 5413" class="cls-10" d="M19.58,42.73c-1.33-3-5.92-5.56-8.69-.89a1.12,1.12,0,0,0,0,1.22c.78,1.22,3.08,3.73,8.06,1.3a1.22,1.22,0,0,0,.65-1.6l0,0Z"/><path id="Path_5414" data-name="Path 5414" class="cls-11" d="M18.06,42A2.68,2.68,0,1,1,16,39.9,2.69,2.69,0,0,1,18.06,42Z"/><path id="Path_5415" data-name="Path 5415" class="cls-12" d="M16.9,42.29a1.47,1.47,0,1,1-1.69-1.22,1.85,1.85,0,0,1,.47,0A1.51,1.51,0,0,1,16.9,42.29Z"/><path id="Path_5416" data-name="Path 5416" class="cls-10" d="M16.39,42.55a.5.5,0,1,0,1,0,.49.49,0,0,0-.49-.49h0A.5.5,0,0,0,16.39,42.55Z"/><path id="Path_5417" data-name="Path 5417" class="cls-10" d="M14,41.34a1,1,0,1,0,1.91.47,1,1,0,0,0-.72-1.19,1,1,0,0,0-.49,0A1,1,0,0,0,14,41.34Z"/><path id="Path_5418" data-name="Path 5418" class="cls-13" d="M10.83,42.88a4.73,4.73,0,0,0,3.5,2.44,11.83,11.83,0,0,0,4.5-.54,6.82,6.82,0,0,1-2.15,1.09,5.77,5.77,0,0,1-2.44.23A4.24,4.24,0,0,1,12,45a3.4,3.4,0,0,1-1.14-2.13Z"/><path id="Path_5419" data-name="Path 5419" class="cls-3" d="M19.5,43.85a1.54,1.54,0,0,0-.3-1.51,11.16,11.16,0,0,0-1.06-1.22,4.8,4.8,0,0,0-2.75-1.36,3.87,3.87,0,0,0-3,.56,5.32,5.32,0,0,0-1.22,1.1,2.36,2.36,0,0,0-.44.67,1.4,1.4,0,0,0,0,.81,1.42,1.42,0,0,1-.14-.84,4.49,4.49,0,0,1,1.4-2.2A4.12,4.12,0,0,1,15.44,39a4.66,4.66,0,0,1,3.06,1.75,5.77,5.77,0,0,1,.89,1.49A1.62,1.62,0,0,1,19.5,43.85Z"/><path id="Path_5420" data-name="Path 5420" class="cls-10" d="M33.58,42.73c1.34-3,5.93-5.56,8.71-.89a1.16,1.16,0,0,1,0,1.22c-.78,1.22-3.1,3.73-8.07,1.3a1.22,1.22,0,0,1-.65-1.6v0Z"/><path id="Path_5421" data-name="Path 5421" class="cls-14" d="M35.11,42a2.69,2.69,0,1,0,2.11-2.1A2.67,2.67,0,0,0,35.11,42Z"/><path id="Path_6035" data-name="Path 6035" class="cls-14" d="M12.07,42a2.68,2.68,0,1,0,3.16-2.1,2.7,2.7,0,0,0-1.06,0A2.67,2.67,0,0,0,12.07,42Z"/><path id="Path_5422" data-name="Path 5422" class="cls-14" d="M36.25,42.29a1.47,1.47,0,1,0,1.69-1.22,1.85,1.85,0,0,0-.47,0A1.51,1.51,0,0,0,36.25,42.29Z"/><path id="Path_6034" data-name="Path 6034" class="cls-14" d="M13.21,42.29a1.47,1.47,0,1,0,1.69-1.22,1.85,1.85,0,0,0-.47,0A1.5,1.5,0,0,0,13.21,42.29Z"/><path id="Path_5423" data-name="Path 5423" class="cls-10" d="M36.78,42.55a.51.51,0,0,1-.49.5.52.52,0,0,1-.5-.5.51.51,0,0,1,.5-.49.49.49,0,0,1,.49.49Z"/><path id="Path_6036" data-name="Path 6036" class="cls-10" d="M13.74,42.55a.5.5,0,1,1-1,0,.5.5,0,0,1,.5-.49.49.49,0,0,1,.49.49Z"/><path id="Path_5424" data-name="Path 5424" class="cls-10" d="M39.19,41.34A1,1,0,1,1,38,40.62a1,1,0,0,1,1.19.72Z"/><path id="Path_6037" data-name="Path 6037" class="cls-10" d="M16.15,41.34a1,1,0,1,1-1.92.47A1,1,0,0,1,15,40.62a1,1,0,0,1,1.2.72Z"/><path id="Path_5425" data-name="Path 5425" class="cls-15" d="M42.35,42.88A3.43,3.43,0,0,1,41.23,45,4.31,4.31,0,0,1,39,46.11a5.77,5.77,0,0,1-2.44-.23,6.67,6.67,0,0,1-2.14-1.09,11.64,11.64,0,0,0,4.5.54A4.71,4.71,0,0,0,42.35,42.88Z"/><path id="Path_5426" data-name="Path 5426" class="cls-3" d="M33.68,43.85a1.6,1.6,0,0,1,0-1.66,5.72,5.72,0,0,1,.89-1.48A4.63,4.63,0,0,1,37.63,39a4.16,4.16,0,0,1,3.42.88,4.56,4.56,0,0,1,1.4,2.2,1.47,1.47,0,0,1-.15.85,1.43,1.43,0,0,0,0-.82,2.51,2.51,0,0,0-.44-.67,5.12,5.12,0,0,0-1.22-1.1,3.91,3.91,0,0,0-3-.56,4.63,4.63,0,0,0-2.74,1.36,10.18,10.18,0,0,0-1.06,1.22,1.51,1.51,0,0,0-.2,1.54Z"/></g></svg>