<svg id="Layer_1" data-name="Layer 1" xmlns="http://www.w3.org/2000/svg" xmlns:xlink="http://www.w3.org/1999/xlink" viewBox="0 0 53.66 68.8"><defs><style>.cls-1{fill:#f5c4b3;}.cls-2{fill:url(#linear-gradient);}.cls-3{fill:#3f0f1b;}.cls-4{fill:#561326;}.cls-5{fill:url(#linear-gradient-2);}.cls-6{fill:url(#linear-gradient-3);}.cls-7{fill:#9b1f1f;}.cls-8{fill:#d64747;}.cls-9{fill:#fefefe;}.cls-10{opacity:0.26;}.cls-11{fill:url(#linear-gradient-4);}.cls-12{fill:#fff;}.cls-13{fill:url(#linear-gradient-5);}.cls-14{opacity:0.45;}.cls-15{fill:url(#linear-gradient-6);}.cls-16{fill:url(#linear-gradient-7);}.cls-17{fill:url(#linear-gradient-8);}</style><linearGradient id="linear-gradient" x1="-802.89" y1="532.18" x2="-801.89" y2="532.18" gradientTransform="matrix(7.22, 0, 0, -11.93, 5842.2, 6396.55)" gradientUnits="userSpaceOnUse"><stop offset="0" stop-color="#ffaa8b"/><stop offset="1" stop-color="#ffaa8b" stop-opacity="0"/></linearGradient><linearGradient id="linear-gradient-2" x1="-802.62" y1="532.25" x2="-801.62" y2="532.25" gradientTransform="matrix(7.2, 0, 0, -11.95, 5782.13, 6406.99)" gradientUnits="userSpaceOnUse"><stop offset="0" stop-color="#ffaa8b" stop-opacity="0"/><stop offset="1" stop-color="#ffaa8b"/></linearGradient><linearGradient id="linear-gradient-3" x1="-792.44" y1="540.45" x2="-792.44" y2="541.49" gradientTransform="matrix(6.7, 0, 0, -15.05, 5337.82, 8186.91)" gradientUnits="userSpaceOnUse"><stop offset="0" stop-color="#ffaa8b" stop-opacity="0.7"/><stop offset="0.1" stop-color="#ffaa8b" stop-opacity="0.58"/><stop offset="0.29" stop-color="#ffaa8b" stop-opacity="0.38"/><stop offset="0.47" stop-color="#ffaa8b" stop-opacity="0.21"/><stop offset="0.63" stop-color="#ffaa8b" stop-opacity="0.1"/><stop offset="0.77" stop-color="#ffaa8b" stop-opacity="0.03"/><stop offset="0.87" stop-color="#ffaa8b" stop-opacity="0"/></linearGradient><linearGradient id="linear-gradient-4" x1="-809.94" y1="385.97" x2="-808.88" y2="385.97" gradientTransform="matrix(3.77, 0, 0, -2.68, 2623.4, 1077.17)" gradientUnits="userSpaceOnUse"><stop offset="0" stop-color="#fff"/><stop offset="1" stop-color="#00aeef"/></linearGradient><linearGradient id="linear-gradient-5" x1="-721.28" y1="385.96" x2="-720.22" y2="385.96" gradientTransform="matrix(3.77, 0, 0, -2.68, 2592.68, 1077.16)" xlink:href="#linear-gradient-4"/><linearGradient id="linear-gradient-6" x1="-241.75" y1="270.42" x2="-240.12" y2="270.42" gradientTransform="matrix(1.7, 0, 0, -1.66, 660.11, 497.79)" gradientUnits="userSpaceOnUse"><stop offset="0" stop-color="#c1ebfb"/><stop offset="1" stop-color="#00c3ff"/></linearGradient><linearGradient id="linear-gradient-7" x1="-220.26" y1="184.32" x2="-218.59" y2="184.32" gradientTransform="matrix(1.27, 0, 0, -1.29, 264.63, 294.4)" xlink:href="#linear-gradient-6"/><linearGradient id="linear-gradient-8" x1="-247.27" y1="187.42" x2="-245.58" y2="187.42" gradientTransform="matrix(1.26, 0, 0, -1.3, 284.76, 293.16)" xlink:href="#linear-gradient-6"/></defs><g id="Group_2981" data-name="Group 2981"><path id="Path_5351" data-name="Path 5351" class="cls-1" d="M53.19,47.42c-.62,1.92-5.1,6.36-6.75,3.26l1.07-10.21h0A5.05,5.05,0,0,1,51,39.92a3.07,3.07,0,0,1,.5.2C54.05,41.35,53.94,45.17,53.19,47.42Z"/><path id="Path_5352" data-name="Path 5352" class="cls-2" d="M53.19,47.42c-.62,1.92-5.1,6.36-6.75,3.26l1.07-10.21h0A5.05,5.05,0,0,1,51,39.92a3.07,3.07,0,0,1,.5.2C54.05,41.35,53.94,45.17,53.19,47.42Z"/><path id="Path_5353" data-name="Path 5353" class="cls-1" d="M5.63,32.84s1.7,17.2,2.22,21,4.43,15.38,19.79,15C38.72,68.27,45.75,65,46.92,49.28s1.22-20.2,1.22-20.2l-3.48-10.7-3.53-4.95-12.75-1.3-11.08.13L10,13,8.55,17.6Z"/><path id="Path_5354" data-name="Path 5354" class="cls-3" d="M51.05,39.9a5.11,5.11,0,0,0-3.49.55V33.34A9,9,0,0,0,46.34,29L42.06,21.4a13.77,13.77,0,0,0,3-3.66,15.33,15.33,0,0,0,2-6.39,54.62,54.62,0,0,1,6.58,7.9C54,20.69,52.17,35.78,51.05,39.9Z"/><path id="Path_5355" data-name="Path 5355" class="cls-3" d="M47,11.35a15.33,15.33,0,0,1-2,6.39,13.77,13.77,0,0,1-3,3.66h0l-.2-.34h0L41.31,21l-4.66-.65-1-.15c-3.36-.45-7.9-1.06-13.29-1.74-.66.74-1.3,1.39-1.92,2h0l-.66.59c-5.28,4.62-8.72,3.5-12.07,3.13C7.4,27.1,6.48,39,6.48,40.36v-.1a4.7,4.7,0,0,0-4-.36,2.16,2.16,0,0,0-.36.22C1.75,37.68-.18,24.26,0,23.44A23.89,23.89,0,0,1,4.33,14.9c-1.71.78-2.11.37-2.11.37S3.1,14.85,6,11.38a20.68,20.68,0,0,1,13-7.32,21.92,21.92,0,0,1,5.72.16A135.19,135.19,0,0,1,42.51,8.47a12,12,0,0,1,4.43,2.74Z"/><path id="Path_5356" data-name="Path 5356" class="cls-3" d="M6.45,40.33v.13c-1.89-1.44-4.32,0-4.32,0a1.26,1.26,0,0,0-.06-.38,2.6,2.6,0,0,1,.36-.21,4.67,4.67,0,0,1,4,.36Z"/><path id="Path_5357" data-name="Path 5357" class="cls-3" d="M20.27,10.49s-4.58,6.1,1.88,11.63a12.28,12.28,0,0,0,6.2,2.22,20.7,20.7,0,0,0,8.54-.57c7.55-2.21,11.73-10.9,9.55-18.3A13.08,13.08,0,0,0,45,2.41a7.27,7.27,0,0,1-1.84,4c.4-1.22.57-4.88-.41-6.45A14.11,14.11,0,0,1,32,5.21c1.06-.7,1.37-2.84,1.33-4.11-.48,1.11-7,2.92-8.75,3.2Z"/><path id="Path_5358" data-name="Path 5358" class="cls-4" d="M47,11.35a15.33,15.33,0,0,1-2,6.39,13.77,13.77,0,0,1-3,3.66h0a13,13,0,0,1-1.74,1.22,14.61,14.61,0,0,1-6.46,2.05,21.07,21.07,0,0,1-3.37,0l-1.67-.21-1.64-.33a8.38,8.38,0,0,1,1.66.11H30.5A24.15,24.15,0,0,0,33.79,24a16,16,0,0,0,6.1-2.12,13.06,13.06,0,0,0,1.43-1,15.25,15.25,0,0,0,3.17-3.53A16.77,16.77,0,0,0,46,14.45a15.86,15.86,0,0,0,.65-1.74A13,13,0,0,0,47,11.35Z"/><path id="Path_5359" data-name="Path 5359" class="cls-4" d="M40.54,14.24A16.34,16.34,0,0,1,34.64,22,11.76,11.76,0,0,1,30,23.84a11.16,11.16,0,0,1-4.88-.21h1.21a5,5,0,0,0,1.22,0l1.22-.12L30,23.24a13.09,13.09,0,0,0,4.26-1.95,20.28,20.28,0,0,0,3.52-3.15,27.48,27.48,0,0,0,2.73-3.89Z"/><path id="Path_5360" data-name="Path 5360" class="cls-4" d="M16.35,13.6A9.86,9.86,0,0,0,17,17.8a6,6,0,0,0,1.12,1.74A12.37,12.37,0,0,0,19.78,21,4.71,4.71,0,0,1,17.7,20a4.45,4.45,0,0,1-1.44-1.88,5.19,5.19,0,0,1-.44-2.3,5.26,5.26,0,0,1,.53-2.23Z"/><path id="Path_5361" data-name="Path 5361" class="cls-4" d="M19.67,11.65a9.18,9.18,0,0,0-.79,4.45,8.13,8.13,0,0,0,.53,2.16c.11.36.32.7.46,1.06s.39.67.56,1.05a11.65,11.65,0,0,1-.89-.83,7,7,0,0,1-.72-1,5.81,5.81,0,0,1-.45-4.88A5.13,5.13,0,0,1,19.67,11.65Z"/><path id="Path_5362" data-name="Path 5362" class="cls-1" d="M6.44,40.23a4.67,4.67,0,0,0-4-.36C0,41.08,0,44.94.76,47.18c.62,1.93,5.1,6.36,6.75,3.26"/><path id="Path_5363" data-name="Path 5363" class="cls-5" d="M7.51,50.45c-1.66,3.11-6.1-1.33-6.75-3.26-.69-2.14-.82-5.69,1.3-7.11a2.5,2.5,0,0,1,.35-.21,4.66,4.66,0,0,1,4,.36v.1Z"/><path id="Path_5364" data-name="Path 5364" class="cls-6" d="M27.58,35.71H25.34c.38,7.31-2.73,11.51-1.94,13.12a3.66,3.66,0,0,0,6.45,0C30.61,47.22,27.58,45.08,27.58,35.71Z"/><path id="Path_5365" data-name="Path 5365" class="cls-3" d="M22.08,30s0,3.15-1.86,3.66-9.67,1.4-10.67,4.26c.55-2.17.74-4.26,2.88-5.22A89.65,89.65,0,0,1,22.08,30Z"/><path id="Path_5366" data-name="Path 5366" class="cls-3" d="M31.24,30s0,3.15,1.87,3.66,9.67,1.4,10.67,4.26c-.55-2.17-.74-4.26-2.88-5.22A89.83,89.83,0,0,0,31.24,30Z"/><path id="Path_5367" data-name="Path 5367" class="cls-7" d="M36,61.21a2.09,2.09,0,0,1-1.35.85,4.16,4.16,0,0,1-1.22,0h-.47a47.37,47.37,0,0,0-12.7,0h0a5.08,5.08,0,0,1-1.65,0,2,2,0,0,1-1.34-.85c-.62-1.08.13-2.63.8-3.47A8.83,8.83,0,0,1,20,56a9.06,9.06,0,0,1,2-1,16,16,0,0,1,9.3,0,9,9,0,0,1,3.89,2.78C35.8,58.58,36.56,60.13,36,61.21Z"/><path id="Path_5368" data-name="Path 5368" class="cls-8" d="M33.41,62.07H33a47.45,47.45,0,0,0-12.71,0,7.39,7.39,0,0,1,13.17,0Z"/><path id="Path_5369" data-name="Path 5369" class="cls-9" d="M33.36,56.08a25.55,25.55,0,0,1-6.52.75A23.37,23.37,0,0,1,20,56a8.62,8.62,0,0,1,2-1,16,16,0,0,1,9.3,0,8.44,8.44,0,0,1,2.12,1.12Z"/><g id="Group_2871" data-name="Group 2871" class="cls-10"><path id="Path_5370" data-name="Path 5370" class="cls-11" d="M43.74,43.28c-.42-1.22-1.94-1.42-3-1.22a.75.75,0,0,0-.61.37c-.3.67.53,1.31.92,1.56a6.41,6.41,0,0,0,1.05.52,1.69,1.69,0,0,0,.94.15A1,1,0,0,0,43.8,44a1,1,0,0,0-.06-.71Z"/></g><g id="Group_2872" data-name="Group 2872" class="cls-10"><path id="Path_5371" data-name="Path 5371" class="cls-12" d="M43.74,43.28a2.18,2.18,0,0,0-2-1.28,2.16,2.16,0,0,1,1.52,1.1,1,1,0,0,1,.08.58.82.82,0,0,1-.7.55,1.86,1.86,0,0,1-.9-.17,5.76,5.76,0,0,1-1-.5,3.07,3.07,0,0,1-.51-.38,2.89,2.89,0,0,0,.8.76,6,6,0,0,0,1.05.52,1.69,1.69,0,0,0,.94.15,1,1,0,0,0,.77-.67,1.07,1.07,0,0,0-.06-.66Z"/></g><path id="Path_5372" data-name="Path 5372" class="cls-12" d="M43.05,44.17a.31.31,0,0,1-.58-.22.31.31,0,0,1,.38-.18h0a.29.29,0,0,1,.19.38Z"/><path id="Path_5373" data-name="Path 5373" class="cls-12" d="M42.22,43.89a.23.23,0,0,1-.27.19.23.23,0,1,1,.08-.46h0A.23.23,0,0,1,42.22,43.89Z"/><path id="Path_5374" data-name="Path 5374" class="cls-3" d="M41.74,40.39a6.85,6.85,0,0,0-5.35-.57c-1.22.4-3,1.46-3.17,2.85a.32.32,0,0,0,.21.41.34.34,0,0,0,.28,0c1.22-.68,1.73-1.87,3.13-2.3a11.89,11.89,0,0,1,4.79.08.23.23,0,0,0,.24-.22.25.25,0,0,0-.13-.22Z"/><path id="Path_5375" data-name="Path 5375" class="cls-3" d="M41.07,42.45a7,7,0,0,0-4.79-1c-1,.12-2.44.35-3,1.22a.28.28,0,0,0,.09.38.31.31,0,0,0,.23,0c2.44-.79,4.69-1.51,7.18-.2a.27.27,0,0,0,.36-.16.26.26,0,0,0-.08-.31Z"/><g id="Group_2873" data-name="Group 2873" class="cls-10"><path id="Path_5376" data-name="Path 5376" class="cls-13" d="M9.44,43.28c.44-1.22,1.94-1.42,3-1.22a.75.75,0,0,1,.61.37c.3.67-.53,1.31-.92,1.56a6.41,6.41,0,0,1-1.05.52,1.66,1.66,0,0,1-.93.15,1,1,0,0,1-.71-1.38Z"/></g><g id="Group_2874" data-name="Group 2874" class="cls-10"><path id="Path_5377" data-name="Path 5377" class="cls-12" d="M9.44,43.28a2.19,2.19,0,0,1,2-1.28,2.16,2.16,0,0,0-1.52,1.1,1,1,0,0,0-.08.58.83.83,0,0,0,.71.55,1.82,1.82,0,0,0,.89-.17,5.76,5.76,0,0,0,1-.5,3.07,3.07,0,0,0,.51-.38,2.75,2.75,0,0,1-.8.76,6.4,6.4,0,0,1-1.05.52,1.69,1.69,0,0,1-.94.15,1,1,0,0,1-.77-.67A1.07,1.07,0,0,1,9.44,43.28Z"/></g><path id="Path_5378" data-name="Path 5378" class="cls-12" d="M10.13,44.17a.31.31,0,0,0,.58-.22.31.31,0,0,0-.38-.18h0a.3.3,0,0,0-.19.38Z"/><path id="Path_5379" data-name="Path 5379" class="cls-12" d="M11,43.89a.23.23,0,1,0,.4-.24.23.23,0,0,0-.32-.08.13.13,0,0,0-.07.06A.24.24,0,0,0,11,43.89Z"/><path id="Path_5380" data-name="Path 5380" class="cls-3" d="M11.55,40.83a11.71,11.71,0,0,1,4.79-.09c1.4.45,2,1.62,3.14,2.3.28.17.53-.1.5-.38-.21-1.39-1.95-2.43-3.19-2.85a6.89,6.89,0,0,0-5.35.57.24.24,0,0,0-.1.32.21.21,0,0,0,.21.12Z"/><path id="Path_5381" data-name="Path 5381" class="cls-3" d="M12.39,42.93c2.44-1.32,4.73-.59,7.18.2a.29.29,0,0,0,.35-.19.31.31,0,0,0,0-.23c-.57-.91-2-1.14-3-1.22a7,7,0,0,0-4.8,1,.28.28,0,0,0,0,.4.28.28,0,0,0,.31.08Z"/><g id="Group_2875" data-name="Group 2875" class="cls-14"><path id="Path_5382" data-name="Path 5382" class="cls-15" d="M7.88,48.07a.91.91,0,0,1,.5-.22.69.69,0,0,1,.51.21.82.82,0,0,1,.3,1,1,1,0,0,1-.52.4.93.93,0,0,1-1-.47.81.81,0,0,1,0-.61A1.06,1.06,0,0,1,7.88,48.07Z"/></g><g id="Group_2876" data-name="Group 2876" class="cls-10"><path id="Path_5383" data-name="Path 5383" class="cls-12" d="M8,48.16a.62.62,0,0,1,.87,0l0,0a.59.59,0,0,0-.73,0,.82.82,0,0,0-.2.25.48.48,0,0,0,.14.61,1,1,0,0,0,.79.15,2.52,2.52,0,0,1-.46.1.74.74,0,0,1-.46-.1.61.61,0,0,1-.2-.77A.88.88,0,0,1,8,48.16Z"/></g><path id="Path_5384" data-name="Path 5384" class="cls-12" d="M7.89,48.5a.3.3,0,0,0,.17.36.28.28,0,0,0,.36-.18.29.29,0,0,0-.17-.36.26.26,0,0,0-.21,0A.26.26,0,0,0,7.89,48.5Z"/><path id="Path_5385" data-name="Path 5385" class="cls-12" d="M8.39,48.91a.16.16,0,0,0,.06.22.15.15,0,0,0,.22-.06.08.08,0,0,0,0,0,.16.16,0,0,0-.13-.19A.16.16,0,0,0,8.39,48.91Z"/><g id="Group_2877" data-name="Group 2877" class="cls-14"><path id="Path_5386" data-name="Path 5386" class="cls-16" d="M10.7,56.41a.6.6,0,0,1-.3-.29.64.64,0,0,1,0-.43c.1-.28.32-.56.64-.49a.71.71,0,0,1,.43,1.14.55.55,0,0,1-.44.14A.62.62,0,0,1,10.7,56.41Z"/></g><g id="Group_2878" data-name="Group 2878" class="cls-10"><path id="Path_5387" data-name="Path 5387" class="cls-12" d="M10.73,56.33a.47.47,0,0,1-.26-.6l0,0a.44.44,0,0,0,.23.5.53.53,0,0,0,.24.08.39.39,0,0,0,.4-.27.77.77,0,0,0-.11-.61,1.21,1.21,0,0,1,.2.3.53.53,0,0,1,0,.35.44.44,0,0,1-.49.36A.88.88,0,0,1,10.73,56.33Z"/></g><path id="Path_5388" data-name="Path 5388" class="cls-12" d="M11,56.28a.22.22,0,1,0-.22-.22h0a.2.2,0,0,0,.2.21Z"/><path id="Path_5389" data-name="Path 5389" class="cls-12" d="M11.15,55.8a.1.1,0,0,0,.12-.09v0a.12.12,0,0,0-.13-.11.12.12,0,0,0-.12.12h0a.11.11,0,0,0,.11.11Z"/><g id="Group_2879" data-name="Group 2879" class="cls-14"><path id="Path_5390" data-name="Path 5390" class="cls-17" d="M44,49.22a.55.55,0,0,1-.3-.3.61.61,0,0,1,0-.42c.1-.27.33-.56.66-.49a.85.85,0,0,1,.43.25.68.68,0,0,1-.06.88.6.6,0,0,1-.44.16,1,1,0,0,1-.29-.08Z"/></g><g id="Group_2880" data-name="Group 2880" class="cls-10"><path id="Path_5391" data-name="Path 5391" class="cls-12" d="M44,49.15a.49.49,0,0,1-.25-.63v0A.48.48,0,0,0,44,49a.42.42,0,0,0,.24.07.35.35,0,0,0,.4-.27.76.76,0,0,0-.11-.6,2.73,2.73,0,0,1,.21.3.74.74,0,0,1,.06.36.48.48,0,0,1-.5.35A.94.94,0,0,1,44,49.15Z"/></g><path id="Path_5392" data-name="Path 5392" class="cls-12" d="M44.28,49.1a.23.23,0,0,0,.23-.22.21.21,0,0,0-.21-.22h0a.2.2,0,0,0-.21.2v0a.22.22,0,0,0,.22.22Z"/><path id="Path_5393" data-name="Path 5393" class="cls-12" d="M44.45,48.62a.12.12,0,0,0,.12-.13.12.12,0,0,0-.13-.11h0a.12.12,0,0,0-.12.12h0A.12.12,0,0,0,44.45,48.62Z"/></g></svg>