<svg id="Layer_1" data-name="Layer 1" xmlns="http://www.w3.org/2000/svg" xmlns:xlink="http://www.w3.org/1999/xlink" viewBox="0 0 52.85 67.77"><defs><style>.cls-1{fill:#f5c4b3;}.cls-2{fill:url(#linear-gradient);}.cls-3{fill:#3f0f1b;}.cls-4{fill:#561326;}.cls-5{fill:url(#linear-gradient-2);}.cls-6{fill:url(#linear-gradient-3);}.cls-7{opacity:0.26;}.cls-8{fill:url(#linear-gradient-4);}.cls-9{fill:#fff;}.cls-10{fill:url(#linear-gradient-5);}.cls-11{fill:#9b1f1f;}.cls-12{fill:#d64747;}.cls-13{fill:#fefefe;}</style><linearGradient id="linear-gradient" x1="-801.38" y1="531.53" x2="-800.38" y2="531.53" gradientTransform="matrix(7.09, 0, 0, -11.75, 5726.33, 6291.17)" gradientUnits="userSpaceOnUse"><stop offset="0" stop-color="#ffaa8b"/><stop offset="1" stop-color="#ffaa8b" stop-opacity="0"/></linearGradient><linearGradient id="linear-gradient-2" x1="-801.49" y1="531.52" x2="-800.49" y2="531.52" gradientTransform="matrix(7.09, 0, 0, -11.75, 5686.31, 6290.46)" gradientUnits="userSpaceOnUse"><stop offset="0" stop-color="#ffaa8b" stop-opacity="0"/><stop offset="1" stop-color="#ffaa8b"/></linearGradient><linearGradient id="linear-gradient-3" x1="-791.68" y1="539.95" x2="-791.68" y2="540.98" gradientTransform="matrix(6.63, 0, 0, -14.83, 5272.61, 8057.92)" gradientUnits="userSpaceOnUse"><stop offset="0" stop-color="#ffaa8b" stop-opacity="0.7"/><stop offset="0.1" stop-color="#ffaa8b" stop-opacity="0.58"/><stop offset="0.29" stop-color="#ffaa8b" stop-opacity="0.38"/><stop offset="0.47" stop-color="#ffaa8b" stop-opacity="0.21"/><stop offset="0.63" stop-color="#ffaa8b" stop-opacity="0.1"/><stop offset="0.77" stop-color="#ffaa8b" stop-opacity="0.03"/><stop offset="0.87" stop-color="#ffaa8b" stop-opacity="0"/></linearGradient><linearGradient id="linear-gradient-4" x1="-789.63" y1="382.68" x2="-788.57" y2="382.68" gradientTransform="matrix(3.71, 0, 0, -2.63, 2569.52, 1049.96)" gradientUnits="userSpaceOnUse"><stop offset="0" stop-color="#fff"/><stop offset="1" stop-color="#00aeef"/></linearGradient><linearGradient id="linear-gradient-5" x1="-747.62" y1="382.68" x2="-746.56" y2="382.68" gradientTransform="matrix(3.71, 0, 0, -2.63, 2537.68, 1049.96)" xlink:href="#linear-gradient-4"/></defs><g id="Group_2984" data-name="Group 2984"><path id="Path_6743" data-name="Path 6743" class="cls-1" d="M52.38,46.73c-.61,1.9-5,6.25-6.65,3.2l1.06-10.06h0a5.05,5.05,0,0,1,3.43-.54,3,3,0,0,1,.49.2C53.2,40.75,53.09,44.51,52.38,46.73Z"/><path id="Path_6744" data-name="Path 6744" class="cls-2" d="M52.38,46.73c-.61,1.9-5,6.25-6.65,3.2l1.06-10.06h0a5.05,5.05,0,0,1,3.43-.54,3,3,0,0,1,.49.2C53.2,40.75,53.09,44.51,52.38,46.73Z"/><path id="Path_6745" data-name="Path 6745" class="cls-1" d="M5.58,32.37S7.25,49.3,7.77,53s4.35,15.12,19.48,14.74c10.9-.52,17.82-3.72,19-19.21s1.2-19.87,1.2-19.87L44,18.16l-3.48-4.9L27.93,12,17,12.11l-7.2.77L8.41,17.37Z"/><path id="Path_6746" data-name="Path 6746" class="cls-3" d="M50.25,39.27a5,5,0,0,0-3.44.55v-7a8.69,8.69,0,0,0-1.13-4.28L41.45,21a13.32,13.32,0,0,0,2.91-3.6,14.86,14.86,0,0,0,2-6.29,53.43,53.43,0,0,1,6.47,7.78C53.17,20.43,51.35,35.27,50.25,39.27Z"/><path id="Path_6747" data-name="Path 6747" class="cls-3" d="M46.28,11.22a15,15,0,0,1-2,6.29,13.55,13.55,0,0,1-2.92,3.6h0l-.19-.34h0l-.53-.09-4.59-.63-1-.14c-3.3-.45-7.77-1-13.08-1.72-.65.73-1.28,1.38-1.89,1.94h0l-.64.59c-5.2,4.54-8.59,3.43-11.89,3.07-.3,2.93-1.2,14.65-1.2,16v-.11a4.63,4.63,0,0,0-4-.35l-.35.2C1.74,37.12-.16,23.92,0,23.12a23.57,23.57,0,0,1,4.27-8.35c-1.68.76-2.08.36-2.08.36s.87-.42,3.7-3.83a19.1,19.1,0,0,1,18.37-7A131,131,0,0,1,41.85,8.45a11.64,11.64,0,0,1,4.37,2.69Z"/><path id="Path_6748" data-name="Path 6748" class="cls-3" d="M6.35,39.76v.12c-1.86-1.42-4.25,0-4.25,0A2.32,2.32,0,0,0,2,39.5l.35-.2a4.6,4.6,0,0,1,4,.35Z"/><path id="Path_6749" data-name="Path 6749" class="cls-3" d="M19.93,10.37a8.26,8.26,0,0,0,1.84,11.45A12.16,12.16,0,0,0,27.88,24a20.36,20.36,0,0,0,8.4-.56c7.43-2.17,11.55-10.73,9.4-18.06a12.85,12.85,0,0,0-1.39-3,7.18,7.18,0,0,1-1.81,4c.4-1.2.55-4.8-.41-6.36A13.83,13.83,0,0,1,31.5,5.12c1-.68,1.35-2.78,1.3-4C32.34,2.17,25.89,4,24.2,4.25Z"/><path id="Path_6750" data-name="Path 6750" class="cls-4" d="M46.28,11.22a15,15,0,0,1-2,6.29,13.55,13.55,0,0,1-2.92,3.6h0a12.62,12.62,0,0,1-1.72,1.2,14.14,14.14,0,0,1-6.35,2,20.45,20.45,0,0,1-3.32,0,11.61,11.61,0,0,1-1.65-.2c-.54-.07-1.08-.2-1.61-.32.54,0,1.1.06,1.64.11H30a20.56,20.56,0,0,0,3.23-.23,15.69,15.69,0,0,0,6-2.09,15.25,15.25,0,0,0,1.4-1,15.16,15.16,0,0,0,3.12-3.47,16.19,16.19,0,0,0,1.49-2.86,14.93,14.93,0,0,0,.64-1.73A11.75,11.75,0,0,0,46.28,11.22Z"/><path id="Path_6751" data-name="Path 6751" class="cls-4" d="M39.9,14.07a16.11,16.11,0,0,1-5.81,7.61,11.4,11.4,0,0,1-4.52,1.87,11.27,11.27,0,0,1-4.8-.19H26a4.82,4.82,0,0,0,1.2,0l1.2-.12L29.51,23a13.23,13.23,0,0,0,4.19-1.94A19,19,0,0,0,37.17,18,27.63,27.63,0,0,0,39.9,14.07Z"/><path id="Path_6752" data-name="Path 6752" class="cls-4" d="M16.1,13.43a9.73,9.73,0,0,0,.64,4.14,5.35,5.35,0,0,0,1.1,1.7,12.87,12.87,0,0,0,1.62,1.42,4.76,4.76,0,0,1-2.05-1,4.66,4.66,0,0,1-.83-.83,5.42,5.42,0,0,1-.59-1,5.5,5.5,0,0,1-.43-2.27A5.06,5.06,0,0,1,16.1,13.43Z"/><path id="Path_6753" data-name="Path 6753" class="cls-4" d="M19.36,11.52a9.05,9.05,0,0,0-.77,4.38A7.45,7.45,0,0,0,19.11,18c.1.35.31.67.45,1s.39.66.55,1a11,11,0,0,1-.87-.8,6.75,6.75,0,0,1-.71-1,5.7,5.7,0,0,1-.44-4.8,5.07,5.07,0,0,1,1.27-2Z"/><path id="Path_6754" data-name="Path 6754" class="cls-1" d="M6.34,39.65a4.6,4.6,0,0,0-4-.35C0,40.5,0,44.28.74,46.5c.6,1.9,5,6.27,6.65,3.2"/><path id="Path_6755" data-name="Path 6755" class="cls-5" d="M7.39,49.71c-1.63,3.06-6-1.31-6.65-3.2-.68-2.12-.8-5.6,1.29-7a1.68,1.68,0,0,1,.34-.2,4.65,4.65,0,0,1,4,.34v.11Z"/><path id="Path_6756" data-name="Path 6756" class="cls-3" d="M20.63,33.85s.12-2.7-1.2-2.82-9.67-1.67-9.86,5.12C11.27,34.56,13.9,32.89,20.63,33.85Z"/><path id="Path_6757" data-name="Path 6757" class="cls-3" d="M32.34,33.85s-.14-2.7,1.2-2.82,9.67-1.67,9.86,5.12C41.69,34.56,39.06,32.89,32.34,33.85Z"/><path id="Path_6758" data-name="Path 6758" class="cls-6" d="M28.48,35.05H26.26c.39,7.2-2.68,11.32-1.91,12.92a3.61,3.61,0,0,0,4.87,1.49A3.57,3.57,0,0,0,30.71,48C31.53,46.37,28.48,44.27,28.48,35.05Z"/><g id="Group_2975" data-name="Group 2975" class="cls-7"><path id="Path_6307" data-name="Path 6307" class="cls-8" d="M43.64,42.43c-.43-1.2-1.92-1.39-3-1.2a.73.73,0,0,0-.6.35c-.3.66.51,1.3.9,1.54a6.63,6.63,0,0,0,1,.52,1.64,1.64,0,0,0,.92.15,1,1,0,0,0,.76-.66A1.12,1.12,0,0,0,43.64,42.43Z"/></g><g id="Group_2976" data-name="Group 2976" class="cls-7"><path id="Path_6308" data-name="Path 6308" class="cls-9" d="M43.64,42.43a2.2,2.2,0,0,0-1.94-1.2,2.12,2.12,0,0,1,1.5,1.08.94.94,0,0,1,.07.57.8.8,0,0,1-.68.54,1.93,1.93,0,0,1-.89-.16,7.24,7.24,0,0,1-1-.49,4.62,4.62,0,0,1-.5-.37,2.76,2.76,0,0,0,.79.73,7.7,7.7,0,0,0,1,.53,1.74,1.74,0,0,0,.93.14,1,1,0,0,0,.75-.66A1.08,1.08,0,0,0,43.64,42.43Z"/></g><path id="Path_6759" data-name="Path 6759" class="cls-9" d="M43,43.31a.3.3,0,1,1-.19-.38h0A.3.3,0,0,1,43,43.31Z"/><path id="Path_6760" data-name="Path 6760" class="cls-9" d="M42.09,43a.24.24,0,0,1-.28.14.23.23,0,0,1-.15-.3.23.23,0,0,1,.29-.15.24.24,0,0,1,.15.3Z"/><path id="Path_6761" data-name="Path 6761" class="cls-3" d="M41.68,39.6A6.71,6.71,0,0,0,36.42,39c-1.21.4-2.93,1.44-3.13,2.82a.33.33,0,0,0,.26.4.33.33,0,0,0,.22,0c1.2-.68,1.72-1.84,3.09-2.27a11.73,11.73,0,0,1,4.72.07.22.22,0,0,0,.21-.23.21.21,0,0,0-.11-.19Z"/><path id="Path_6762" data-name="Path 6762" class="cls-3" d="M41,41.68a6.85,6.85,0,0,0-4.71-1,4,4,0,0,0-2.95,1.2.28.28,0,0,0,.11.37.31.31,0,0,0,.21,0c2.4-.77,4.63-1.48,7.07-.18a.27.27,0,0,0,.35-.17.27.27,0,0,0-.08-.3Z"/><g id="Group_2977" data-name="Group 2977" class="cls-7"><path id="Path_6313" data-name="Path 6313" class="cls-10" d="M9.86,42.43c.44-1.2,1.91-1.39,3-1.2a.75.75,0,0,1,.6.35c.3.66-.52,1.3-.89,1.54a6.73,6.73,0,0,1-1,.52,1.66,1.66,0,0,1-.93.15.94.94,0,0,1-.74-.66.9.9,0,0,1,0-.7Z"/></g><g id="Group_2978" data-name="Group 2978" class="cls-7"><path id="Path_6314" data-name="Path 6314" class="cls-9" d="M9.87,42.43a2.18,2.18,0,0,1,1.93-1.2,2.08,2.08,0,0,0-1.49,1.08.73.73,0,0,0,.26,1,.74.74,0,0,0,.35.1,1.91,1.91,0,0,0,.88-.15,8.61,8.61,0,0,0,1-.5,4.29,4.29,0,0,0,.5-.37,2.71,2.71,0,0,1-.78.73,7.38,7.38,0,0,1-1,.53,1.83,1.83,0,0,1-.92.15,1,1,0,0,1-.75-.66,1,1,0,0,1,0-.71Z"/></g><path id="Path_6763" data-name="Path 6763" class="cls-9" d="M10.55,43.31a.31.31,0,0,0,.4.18.31.31,0,0,0-.22-.57h0a.32.32,0,0,0-.18.39Z"/><path id="Path_6764" data-name="Path 6764" class="cls-9" d="M11.4,43a.25.25,0,0,0,.29.14.23.23,0,0,0,.14-.3.23.23,0,1,0-.43.15Z"/><path id="Path_6765" data-name="Path 6765" class="cls-3" d="M12,40A11.68,11.68,0,0,1,16.66,40c1.38.43,1.94,1.6,3.08,2.27a.34.34,0,0,0,.46-.13.36.36,0,0,0,0-.25c-.2-1.38-1.92-2.4-3.14-2.82a6.74,6.74,0,0,0-5.27.58.24.24,0,0,0-.07.31A.24.24,0,0,0,12,40Z"/><path id="Path_6766" data-name="Path 6766" class="cls-3" d="M12.77,42.1c2.4-1.3,4.66-.59,7.07.18a.28.28,0,0,0,.34-.2.24.24,0,0,0,0-.2c-.55-.9-2-1.14-2.93-1.2a6.92,6.92,0,0,0-4.73,1,.29.29,0,0,0,0,.39.28.28,0,0,0,.31.07Z"/><path id="Path_6767" data-name="Path 6767" class="cls-11" d="M37.45,54.32a13.28,13.28,0,0,1-2.58,5.84c-1.47,1.68-3.6,2.55-6.71,2.87a8.72,8.72,0,0,1-7.38-2.4A12.34,12.34,0,0,1,17.7,55a.69.69,0,0,1,.47-.85h0l.64-.18a42.33,42.33,0,0,1,17.07-.69,5.63,5.63,0,0,1,1,.16.7.7,0,0,1,.57.81v0Z"/><path id="Path_6768" data-name="Path 6768" class="cls-12" d="M34.87,60.16c-1.47,1.68-3.6,2.55-6.71,2.87a8.72,8.72,0,0,1-7.38-2.4c1.2-1.63,4-2.77,7.2-2.77a9.84,9.84,0,0,1,6.89,2.3Z"/><path id="Path_6769" data-name="Path 6769" class="cls-13" d="M35.89,53.31c-.85.91-4.65,1.6-9.18,1.6A28,28,0,0,1,18.82,54a42.51,42.51,0,0,1,17.07-.68Z"/></g></svg>