<svg id="Layer_1" data-name="Layer 1" xmlns="http://www.w3.org/2000/svg" xmlns:xlink="http://www.w3.org/1999/xlink" viewBox="0 0 52.81 67.77"><defs><style>.cls-1{fill:#f5c4b3;}.cls-2{fill:url(#linear-gradient);}.cls-3{fill:#3f0f1b;}.cls-4{fill:#561326;}.cls-5{fill:url(#linear-gradient-2);}.cls-6{fill:url(#linear-gradient-3);}.cls-17,.cls-7{fill:#fff;}.cls-8{fill:url(#linear-gradient-4);}.cls-9{fill:url(#linear-gradient-5);}.cls-10{fill:url(#linear-gradient-6);}.cls-11{fill:url(#linear-gradient-7);}.cls-12{fill:url(#linear-gradient-8);}.cls-13{fill:url(#linear-gradient-9);}.cls-14{fill:url(#linear-gradient-10);}.cls-15{fill:url(#linear-gradient-11);}.cls-16,.cls-18{opacity:0.45;}.cls-16,.cls-17,.cls-18{isolation:isolate;}.cls-16{fill:url(#linear-gradient-12);}.cls-17{opacity:0.26;}.cls-18{fill:url(#linear-gradient-13);}.cls-19{fill:#f78774;}.cls-20{opacity:0.3;}.cls-21{fill:#f99273;}</style><linearGradient id="linear-gradient" x1="-801.69" y1="531.51" x2="-800.69" y2="531.51" gradientTransform="matrix(7.11, 0, 0, -11.75, 5741.94, 6288.31)" gradientUnits="userSpaceOnUse"><stop offset="0" stop-color="#ffaa8b"/><stop offset="1" stop-color="#ffaa8b" stop-opacity="0"/></linearGradient><linearGradient id="linear-gradient-2" x1="-801.39" y1="531.52" x2="-800.39" y2="531.52" gradientTransform="matrix(7.09, 0, 0, -11.75, 5681.45, 6289.97)" gradientUnits="userSpaceOnUse"><stop offset="0" stop-color="#ffaa8b" stop-opacity="0"/><stop offset="1" stop-color="#ffaa8b"/></linearGradient><linearGradient id="linear-gradient-3" x1="-791.08" y1="539.95" x2="-791.08" y2="540.98" gradientTransform="matrix(6.6, 0, 0, -14.83, 5245.09, 8058.51)" gradientUnits="userSpaceOnUse"><stop offset="0" stop-color="#ffaa8b" stop-opacity="0.7"/><stop offset="0.1" stop-color="#ffaa8b" stop-opacity="0.58"/><stop offset="0.29" stop-color="#ffaa8b" stop-opacity="0.38"/><stop offset="0.47" stop-color="#ffaa8b" stop-opacity="0.21"/><stop offset="0.63" stop-color="#ffaa8b" stop-opacity="0.1"/><stop offset="0.77" stop-color="#ffaa8b" stop-opacity="0.03"/><stop offset="0.87" stop-color="#ffaa8b" stop-opacity="0"/></linearGradient><linearGradient id="linear-gradient-4" x1="-588.16" y1="478.9" x2="-589.16" y2="478.9" gradientTransform="matrix(5.28, 0, 0, -5.28, 4008.91, 2571.46)" gradientUnits="userSpaceOnUse"><stop offset="0" stop-color="#248157"/><stop offset="1" stop-color="#24816a" stop-opacity="0"/></linearGradient><linearGradient id="linear-gradient-5" x1="-311.82" y1="402.04" x2="-312.82" y2="402.04" gradientTransform="matrix(2.93, 0, 0, -2.93, 1813.27, 1218.91)" xlink:href="#linear-gradient-4"/><linearGradient id="linear-gradient-6" x1="-814.37" y1="416.91" x2="-813.31" y2="416.91" gradientTransform="matrix(7.86, 0, 0, -3.2, 6413.22, 1379.57)" xlink:href="#linear-gradient-3"/><linearGradient id="linear-gradient-7" x1="-856" y1="406.2" x2="-857.01" y2="406.2" gradientTransform="matrix(3, 0, 0, -3, 1901.27, 1259.3)" gradientUnits="userSpaceOnUse"><stop offset="0" stop-color="#312a07"/><stop offset="1" stop-color="#24816a" stop-opacity="0"/></linearGradient><linearGradient id="linear-gradient-8" x1="-856" y1="406.2" x2="-857.01" y2="406.2" gradientTransform="matrix(3, 0, 0, -3, 1879.06, 1259.3)" xlink:href="#linear-gradient-7"/><linearGradient id="linear-gradient-9" x1="-846.59" y1="401.1" x2="-847.6" y2="401.1" gradientTransform="matrix(2.91, 0, 0, -2.91, 1820.34, 1209.77)" xlink:href="#linear-gradient-7"/><linearGradient id="linear-gradient-10" x1="-846.59" y1="401.1" x2="-847.6" y2="401.1" gradientTransform="matrix(2.91, 0, 0, -2.91, 1798.14, 1209.77)" xlink:href="#linear-gradient-7"/><linearGradient id="linear-gradient-11" x1="-813.04" y1="418.07" x2="-814.11" y2="418.07" gradientTransform="matrix(7.85, 0, 0, -3.23, 6421.48, 1393.2)" xlink:href="#linear-gradient-3"/><linearGradient id="linear-gradient-12" x1="-783.66" y1="280.03" x2="-783.67" y2="279.37" gradientTransform="matrix(6.27, 0, 0, -1.71, 4927.8, 523.41)" gradientUnits="userSpaceOnUse"><stop offset="0" stop-color="#c1ebfb"/><stop offset="1" stop-color="#00c3ff"/></linearGradient><linearGradient id="linear-gradient-13" x1="-783.64" y1="280.5" x2="-783.65" y2="279.84" gradientTransform="matrix(6.27, 0, 0, -1.71, 4950.05, 523.27)" xlink:href="#linear-gradient-12"/></defs><g id="Group_2985" data-name="Group 2985"><path id="Path_6705" data-name="Path 6705" class="cls-1" d="M52.36,46.73c-.61,1.9-5,6.25-6.65,3.2l1-10.06h0a5,5,0,0,1,3.44-.53,2.92,2.92,0,0,1,.49.19C53.2,40.75,53.09,44.51,52.36,46.73Z"/><path id="Path_6706" data-name="Path 6706" class="cls-2" d="M52.36,46.73c-.61,1.9-5,6.25-6.65,3.2l1-10.06h0a5,5,0,0,1,3.44-.53,2.92,2.92,0,0,1,.49.19C53.2,40.75,53.09,44.51,52.36,46.73Z"/><path id="Path_6707" data-name="Path 6707" class="cls-1" d="M5.55,32.37S7.21,49.3,7.73,53s4.36,15.12,19.48,14.74c10.9-.52,17.83-3.72,19-19.21s1.2-19.87,1.2-19.87L44,18.14l-3.47-4.86L27.93,12,17,12.11l-7.2.78L8.42,17.37Z"/><path id="Path_6708" data-name="Path 6708" class="cls-3" d="M50.25,39.4a5,5,0,0,0-3.44.53v-7a8.81,8.81,0,0,0-1.2-4.28l-4.23-7.5a13.47,13.47,0,0,0,2.91-3.6,15,15,0,0,0,2-6.29A54,54,0,0,1,52.73,19C53.17,20.43,51.35,35.27,50.25,39.4Z"/><path id="Path_6709" data-name="Path 6709" class="cls-3" d="M46.29,11.22a15.15,15.15,0,0,1-2,6.29,13.55,13.55,0,0,1-2.92,3.6h0l-.19-.34h0l-.54-.08-4.59-.64-1-.14c-3.3-.45-7.78-1-13.08-1.71-.65.72-1.29,1.37-1.89,1.93h0l-.64.59c-5.2,4.53-8.59,3.43-11.89,3.07-.3,2.93-1.2,14.64-1.2,16v-.1a4.56,4.56,0,0,0-4-.36l-.35.2C1.73,37.12-.17,23.92,0,23.11a23.25,23.25,0,0,1,4.26-8.34c-1.68.75-2.08.36-2.08.36s.87-.42,3.7-3.83A20.41,20.41,0,0,1,18.64,4.1a20.81,20.81,0,0,1,5.63.16A129.61,129.61,0,0,1,41.86,8.44a11.67,11.67,0,0,1,4.35,2.68Z"/><path id="Path_6710" data-name="Path 6710" class="cls-3" d="M6.35,39.75v.12c-1.86-1.41-4.25,0-4.25,0A2.38,2.38,0,0,0,2,39.5l.35-.2a4.57,4.57,0,0,1,4,.36Z"/><path id="Path_6711" data-name="Path 6711" class="cls-3" d="M20,10.37a8.26,8.26,0,0,0,1.84,11.45A12.25,12.25,0,0,0,27.9,24a20.36,20.36,0,0,0,8.4-.56c7.43-2.17,11.55-10.73,9.4-18.06a12.28,12.28,0,0,0-1.39-3,7.18,7.18,0,0,1-1.81,4c.4-1.2.55-4.8-.41-6.36A13.83,13.83,0,0,1,31.52,5.12c1-.68,1.35-2.78,1.3-4-.46,1.09-6.91,2.89-8.6,3.17Z"/><path id="Path_6712" data-name="Path 6712" class="cls-4" d="M46.29,11.22a15.15,15.15,0,0,1-2,6.29,13.55,13.55,0,0,1-2.92,3.6h0a12,12,0,0,1-1.72,1.2,14.42,14.42,0,0,1-6.35,2,23,23,0,0,1-3.32,0,13.26,13.26,0,0,1-1.65-.2c-.54-.07-1.08-.2-1.6-.32.54,0,1.09.06,1.63.1H30a20.68,20.68,0,0,0,3.24-.22,16,16,0,0,0,6-2.09,13.91,13.91,0,0,0,1.4-1,15,15,0,0,0,3.12-3.49,19.32,19.32,0,0,0,2.14-4.58A12.68,12.68,0,0,0,46.29,11.22Z"/><path id="Path_6713" data-name="Path 6713" class="cls-4" d="M39.9,14.07a16.05,16.05,0,0,1-5.81,7.61,11.55,11.55,0,0,1-4.54,1.87,11.27,11.27,0,0,1-4.8-.19H26a6,6,0,0,0,1.2,0l1.2-.13,1.2-.26A13,13,0,0,0,33.74,21a19,19,0,0,0,3.47-3.11A26.39,26.39,0,0,0,39.9,14.07Z"/><path id="Path_6714" data-name="Path 6714" class="cls-4" d="M16.1,13.44a9.73,9.73,0,0,0,.64,4.14,5.68,5.68,0,0,0,1.11,1.7,11.45,11.45,0,0,0,1.62,1.41,4.78,4.78,0,0,1-2.06-.94,4.66,4.66,0,0,1-.83-.83,5.16,5.16,0,0,1-.58-1,5.38,5.38,0,0,1-.44-2.27A5.2,5.2,0,0,1,16.1,13.44Z"/><path id="Path_6715" data-name="Path 6715" class="cls-4" d="M19.36,11.54a9.21,9.21,0,0,0-.77,4.36A8.17,8.17,0,0,0,19.11,18c.11.36.31.67.46,1s.38.66.55,1a11.13,11.13,0,0,1-.88-.8,7.75,7.75,0,0,1-.71-1A5.79,5.79,0,0,1,17.79,16a5.6,5.6,0,0,1,.3-2.4,5,5,0,0,1,1.27-2.05Z"/><path id="Path_6716" data-name="Path 6716" class="cls-1" d="M6.34,39.66a4.6,4.6,0,0,0-4-.36C0,40.5,0,44.28.74,46.5c.62,1.9,5,6.27,6.65,3.22"/><path id="Path_6717" data-name="Path 6717" class="cls-5" d="M7.39,49.71c-1.63,3.06-6-1.31-6.65-3.2-.67-2.1-.8-5.6,1.29-7l.35-.2a4.57,4.57,0,0,1,4,.36v.1Z"/><path id="Path_6718" data-name="Path 6718" class="cls-6" d="M27.15,35.19H24.94c.38,7.2-2.69,11.33-1.91,12.93a3.59,3.59,0,0,0,6.35,0C30.13,46.52,27.15,44.42,27.15,35.19Z"/><path id="Path_6719" data-name="Path 6719" class="cls-7" d="M19.59,41.86C18.28,38.92,13.75,36.38,11,41a1.22,1.22,0,0,0,0,1.2c.78,1.2,3.05,3.67,8,1.27a1.21,1.21,0,0,0,.62-1.58v0Z"/><path id="Path_6720" data-name="Path 6720" class="cls-8" d="M18.09,41.15A2.64,2.64,0,1,1,15,39.07a2.55,2.55,0,0,1,1,0A2.64,2.64,0,0,1,18.09,41.15Z"/><path id="Path_6721" data-name="Path 6721" class="cls-9" d="M17,41.43a1.46,1.46,0,1,1-1.68-1.21l.16,0A1.47,1.47,0,0,1,17,41.43Z"/><path id="Path_6722" data-name="Path 6722" class="cls-7" d="M16.44,41.69a.5.5,0,0,0,.5.49.49.49,0,0,0,0-1,.48.48,0,0,0-.5.46Z"/><path id="Path_6723" data-name="Path 6723" class="cls-7" d="M14.08,40.49a1,1,0,0,0,.72,1.18,1,1,0,1,0,.46-1.9,1,1,0,0,0-1.18.72Z"/><path id="Path_6724" data-name="Path 6724" class="cls-10" d="M11,42a4.68,4.68,0,0,0,3.45,2.4,11.76,11.76,0,0,0,4.41-.53,6.78,6.78,0,0,1-2.11,1.07,5.56,5.56,0,0,1-2.4.22,4.12,4.12,0,0,1-2.23-1.06A3.38,3.38,0,0,1,11,42Z"/><path id="Path_6726" data-name="Path 6726" class="cls-7" d="M33.37,41.86c1.32-2.94,5.84-5.48,8.56-.88a1.13,1.13,0,0,1,0,1.2c-.78,1.2-3,3.67-8,1.27a1.21,1.21,0,0,1-.62-1.58v0Z"/><path id="Path_6727" data-name="Path 6727" class="cls-11" d="M34.87,41.15a1.5,1.5,0,1,0,.64-2,1.49,1.49,0,0,0-.64,2Z"/><path id="Path_6773" data-name="Path 6773" class="cls-12" d="M12.67,41.15a1.5,1.5,0,1,0,.63-2,1.49,1.49,0,0,0-.63,2Z"/><path id="Path_6728" data-name="Path 6728" class="cls-13" d="M36,41.42a1.46,1.46,0,1,0,1.69-1.18,1.35,1.35,0,0,0-.49,0A1.43,1.43,0,0,0,36,41.42Z"/><path id="Path_6770" data-name="Path 6770" class="cls-14" d="M13.82,41.42a1.46,1.46,0,1,0,1.68-1.18,1.29,1.29,0,0,0-.48,0A1.42,1.42,0,0,0,13.82,41.42Z"/><path id="Path_6729" data-name="Path 6729" class="cls-7" d="M36.51,41.68a.49.49,0,1,1-1-.15.49.49,0,0,1,.56-.41.68.68,0,0,1,.2.07A.5.5,0,0,1,36.51,41.68Z"/><path id="Path_6771" data-name="Path 6771" class="cls-7" d="M14.31,41.68a.49.49,0,0,1-.56.41.48.48,0,0,1-.41-.56.49.49,0,0,1,.56-.41.62.62,0,0,1,.19.07A.51.51,0,0,1,14.31,41.68Z"/><path id="Path_6730" data-name="Path 6730" class="cls-7" d="M38.89,40.49a1,1,0,0,1-.67,1.2,1,1,0,0,1-.53,0,.95.95,0,1,1,.58-1.8.93.93,0,0,1,.61.61Z"/><path id="Path_6772" data-name="Path 6772" class="cls-7" d="M16.68,40.49a1,1,0,0,1-.67,1.2,1,1,0,0,1-.53,0,.95.95,0,0,1,.58-1.8.93.93,0,0,1,.61.61Z"/><path id="Path_6731" data-name="Path 6731" class="cls-15" d="M42,42a3.53,3.53,0,0,1-1.1,2.12,4.19,4.19,0,0,1-2.23,1.06,5.41,5.41,0,0,1-2.4-.22,7,7,0,0,1-2.12-1.06,12,12,0,0,0,4.42.53A4.73,4.73,0,0,0,42,42Z"/><path id="Path_6732" data-name="Path 6732" class="cls-3" d="M33.45,43a1.63,1.63,0,0,1,.06-1.65,6,6,0,0,1,.87-1.46,4.66,4.66,0,0,1,3-1.72,4.07,4.07,0,0,1,3.36.86,4.15,4.15,0,0,1,1.06,1.37,3.81,3.81,0,0,1,.31.79A1.38,1.38,0,0,1,42,42a1.51,1.51,0,0,0,0-.79,2.3,2.3,0,0,0-.44-.63,5.11,5.11,0,0,0-1.2-1.08,3.91,3.91,0,0,0-2.9-.56,4.62,4.62,0,0,0-2.7,1.35,8.52,8.52,0,0,0-1,1.2A1.47,1.47,0,0,0,33.46,43Z"/><path id="Path_6733" data-name="Path 6733" class="cls-3" d="M21.64,28.74s0,3.1-1.83,3.54-9.52,1.38-10.5,4.19c.54-2.14.73-4.19,2.83-5.14a27.67,27.67,0,0,1,3.34-1.08C18.31,29.48,21.64,28.74,21.64,28.74Z"/><path id="Path_6734" data-name="Path 6734" class="cls-3" d="M30.75,28.74s0,3.1,1.84,3.54,9.52,1.38,10.5,4.19c-.54-2.14-.73-4.19-2.83-5.14A86.74,86.74,0,0,0,30.75,28.74Z"/><path id="Path_6735" data-name="Path 6735" class="cls-16" d="M12.09,43.38a.39.39,0,0,1,.44-.28c.27,0,.45.28.7.33a1.54,1.54,0,0,0,.95,0,1.16,1.16,0,0,1,.64,0,2.94,2.94,0,0,1,.64.19,1.37,1.37,0,0,0,.57,0c.18,0,.35-.14.54-.18a1.24,1.24,0,0,1,.59.13,1.57,1.57,0,0,0,.49.07c.15,0,.3-.06.44,0a.36.36,0,0,1,.24.4.79.79,0,0,1-.71.54h-.68a5.65,5.65,0,0,0-.71.17,4.41,4.41,0,0,1-1.45,0,5.6,5.6,0,0,0-.54-.17h-.6c-.34,0-.53-.22-.79-.4s-.39-.22-.58-.34a.66.66,0,0,1-.17-.23A.27.27,0,0,1,12.09,43.38Z"/><path id="Path_6736" data-name="Path 6736" class="cls-17" d="M18.33,43.69a.41.41,0,0,1,0,.22.81.81,0,0,1-.71.53,3.86,3.86,0,0,0-.68,0l-.71.16a3.93,3.93,0,0,1-1.45,0c-.18,0-.35-.13-.54-.15a3,3,0,0,0-.6,0c-.34,0-.53-.24-.79-.41a3.72,3.72,0,0,1-.58-.35.43.43,0,0,1-.17-.21.38.38,0,0,1,0-.15.45.45,0,0,0,.16.2,4.15,4.15,0,0,0,.57.35c.27.17.46.4.79.4h.61c.19,0,.35.13.54.17a4.41,4.41,0,0,0,1.45,0,6,6,0,0,0,.71-.16h.68A.8.8,0,0,0,18.33,43.69Z"/><circle id="Ellipse_113" data-name="Ellipse 113" class="cls-7" cx="13.96" cy="43.91" r="0.26"/><path id="Path_6737" data-name="Path 6737" class="cls-7" d="M15,44a.16.16,0,1,1-.32,0,.18.18,0,0,1,.17-.17A.16.16,0,0,1,15,44Z"/><path id="Path_6738" data-name="Path 6738" class="cls-18" d="M41.18,43.38a.37.37,0,0,0-.43-.28c-.26,0-.44.28-.71.33a1.48,1.48,0,0,1-.93,0,1.2,1.2,0,0,0-.65,0,3.72,3.72,0,0,0-.65.19,1.28,1.28,0,0,1-.55,0c-.19,0-.35-.14-.54-.18a1.11,1.11,0,0,0-.59.13,1.68,1.68,0,0,1-.5.07,1.09,1.09,0,0,0-.44,0A.34.34,0,0,0,35,44a.8.8,0,0,0,.71.54h.7a5.94,5.94,0,0,1,.7.17,4.41,4.41,0,0,0,1.45,0,4.26,4.26,0,0,1,.54-.17h.6c.33,0,.53-.22.79-.4a4.88,4.88,0,0,0,.58-.34.53.53,0,0,0,.16-.23A.27.27,0,0,0,41.18,43.38Z"/><path id="Path_6739" data-name="Path 6739" class="cls-17" d="M34.94,43.69a.41.41,0,0,0,0,.22.81.81,0,0,0,.71.53,3.86,3.86,0,0,1,.68,0l.71.16a3.93,3.93,0,0,0,1.45,0c.18,0,.35-.13.54-.15a3,3,0,0,1,.6,0c.34,0,.53-.24.8-.41a4.15,4.15,0,0,0,.57-.35.43.43,0,0,0,.17-.21.38.38,0,0,0,0-.15h0a.45.45,0,0,1-.16.2,4.15,4.15,0,0,1-.57.35c-.27.17-.46.4-.79.4h-.6c-.2,0-.36.13-.54.17a4.47,4.47,0,0,1-1.46,0,5.47,5.47,0,0,1-.7-.16h-.69A.8.8,0,0,1,34.94,43.69Z"/><path id="Path_6740" data-name="Path 6740" class="cls-7" d="M39.06,43.9a.26.26,0,0,0,.24.27h0a.27.27,0,1,0,0-.53.25.25,0,0,0-.25.25Z"/><path id="Path_6741" data-name="Path 6741" class="cls-7" d="M38.3,44a.16.16,0,0,0,.17.16.16.16,0,0,0,.16-.16.17.17,0,0,0-.16-.17A.18.18,0,0,0,38.3,44Z"/><path id="Path_6742" data-name="Path 6742" class="cls-19" d="M21.07,57.59a9.8,9.8,0,0,1,2.16-.85,6.93,6.93,0,0,1,3.29.25,2.82,2.82,0,0,0,1.44-.1,6.15,6.15,0,0,1,4.8.77c.2.11.45-.18.26-.35A5.57,5.57,0,0,0,30.13,56c-1.45-.13-2.67.59-4.12.3a6,6,0,0,0-5.12,1.07.12.12,0,0,0,0,.18.13.13,0,0,0,.17.05Z"/><g id="Group_2974" data-name="Group 2974" class="cls-20"><path id="Path_6290" data-name="Path 6290" class="cls-21" d="M26.12,59.38a2.73,2.73,0,0,1,1.91,0c.14,0,.25-.19.11-.28a2.28,2.28,0,0,0-2.18,0,.16.16,0,0,0,.16.27Z"/></g><path id="Path_6725" data-name="Path 6725" class="cls-3" d="M19.51,43a1.46,1.46,0,0,0-.32-1.49,9.06,9.06,0,0,0-1-1.2A4.81,4.81,0,0,0,15.46,39a4,4,0,0,0-2.92.56,5.6,5.6,0,0,0-1.2,1.08,2.74,2.74,0,0,0-.43.67,1.33,1.33,0,0,0,0,.79,1.39,1.39,0,0,1-.14-.83,3.81,3.81,0,0,1,.31-.79,4.43,4.43,0,0,1,1.06-1.37,4.1,4.1,0,0,1,3.37-.86,4.58,4.58,0,0,1,3,1.72,5.82,5.82,0,0,1,.87,1.46A1.58,1.58,0,0,1,19.51,43Z"/></g></svg>