<svg id="Layer_1" data-name="Layer 1" xmlns="http://www.w3.org/2000/svg" xmlns:xlink="http://www.w3.org/1999/xlink" viewBox="0 0 53.69 68.86"><defs><style>.cls-1{fill:#f5c4b3;}.cls-2{fill:url(#linear-gradient);}.cls-3{fill:#3f0f1b;}.cls-4{fill:#561326;}.cls-5{fill:url(#linear-gradient-2);}.cls-6{fill:url(#linear-gradient-3);}.cls-7{fill:#fff;}.cls-8{fill:url(#linear-gradient-4);}.cls-9{fill:url(#linear-gradient-5);}.cls-10{fill:url(#linear-gradient-6);}.cls-11{fill:#9b1f1f;}.cls-12{fill:#d64747;}.cls-13{fill:#fefefe;}.cls-14{fill:url(#linear-gradient-7);}.cls-15{fill:url(#linear-gradient-8);}</style><linearGradient id="linear-gradient" x1="-802.58" y1="532.18" x2="-801.58" y2="532.18" gradientTransform="matrix(7.2, 0, 0, -11.93, 5826.21, 6396.68)" gradientUnits="userSpaceOnUse"><stop offset="0" stop-color="#ffaa8b"/><stop offset="1" stop-color="#ffaa8b" stop-opacity="0"/></linearGradient><linearGradient id="linear-gradient-2" x1="-802.75" y1="532.23" x2="-801.75" y2="532.23" gradientTransform="matrix(7.21, 0, 0, -11.95, 5789.03, 6404.65)" gradientUnits="userSpaceOnUse"><stop offset="0" stop-color="#ffaa8b" stop-opacity="0"/><stop offset="1" stop-color="#ffaa8b"/></linearGradient><linearGradient id="linear-gradient-3" x1="-792.73" y1="540.46" x2="-792.73" y2="541.49" gradientTransform="matrix(6.72, 0, 0, -15.06, 5350.45, 8187.56)" gradientUnits="userSpaceOnUse"><stop offset="0" stop-color="#ffaa8b" stop-opacity="0.7"/><stop offset="0.1" stop-color="#ffaa8b" stop-opacity="0.58"/><stop offset="0.29" stop-color="#ffaa8b" stop-opacity="0.38"/><stop offset="0.47" stop-color="#ffaa8b" stop-opacity="0.21"/><stop offset="0.63" stop-color="#ffaa8b" stop-opacity="0.1"/><stop offset="0.77" stop-color="#ffaa8b" stop-opacity="0.03"/><stop offset="0.87" stop-color="#ffaa8b" stop-opacity="0"/></linearGradient><linearGradient id="linear-gradient-4" x1="-590.11" y1="480.4" x2="-591.11" y2="480.4" gradientTransform="matrix(5.37, 0, 0, -5.37, 4083.11, 2620.39)" gradientUnits="userSpaceOnUse"><stop offset="0" stop-color="#248157"/><stop offset="1" stop-color="#24816a" stop-opacity="0"/></linearGradient><linearGradient id="linear-gradient-5" x1="-311.26" y1="403.44" x2="-312.26" y2="403.44" gradientTransform="matrix(2.95, 0, 0, -2.95, 1833.94, 1233.4)" xlink:href="#linear-gradient-4"/><linearGradient id="linear-gradient-6" x1="-816.07" y1="421.67" x2="-815.01" y2="421.67" gradientTransform="matrix(8.04, 0, 0, -3.3, 6568.71, 1437.69)" xlink:href="#linear-gradient-3"/><linearGradient id="linear-gradient-7" x1="-886.65" y1="480.4" x2="-887.65" y2="480.4" gradientTransform="matrix(5.37, 0, 0, -5.37, 4082.85, 2620.39)" gradientUnits="userSpaceOnUse"><stop offset="0" stop-color="#312a01"/><stop offset="1" stop-color="#24816a" stop-opacity="0"/></linearGradient><linearGradient id="linear-gradient-8" x1="-850.55" y1="401.76" x2="-851.55" y2="401.76" gradientTransform="matrix(2.95, 0, 0, -2.92, 1835.65, 1216.88)" xlink:href="#linear-gradient-7"/></defs><g id="Group_2988" data-name="Group 2988"><path id="Path_5323" data-name="Path 5323" class="cls-1" d="M53.22,47.53c-.62,1.93-5.1,6.37-6.76,3.27l1.07-10.22h0A5.17,5.17,0,0,1,51,40a2.75,2.75,0,0,1,.5.2C54.05,41.44,53.94,45.24,53.22,47.53Z"/><path id="Path_5324" data-name="Path 5324" class="cls-2" d="M53.22,47.53c-.62,1.93-5.1,6.37-6.76,3.27l1.07-10.22h0A5.17,5.17,0,0,1,51,40a2.75,2.75,0,0,1,.5.2C54.05,41.44,53.94,45.24,53.22,47.53Z"/><path id="Path_5325" data-name="Path 5325" class="cls-1" d="M5.67,32.9s1.7,17.2,2.22,21,4.43,15.36,19.83,15C38.79,68.34,45.83,65.08,47,49.34s1.22-20.18,1.22-20.18L44.7,18.47l-3.57-5L28.34,12.17l-11.07.13L10,13.08,8.51,17.64Z"/><path id="Path_5326" data-name="Path 5326" class="cls-3" d="M51.05,40a5.17,5.17,0,0,0-3.49.55V33.41a9,9,0,0,0-1.15-4.35l-4.3-7.62a13.77,13.77,0,0,0,3-3.66,15.38,15.38,0,0,0,2-6.39,55.12,55.12,0,0,1,6.57,7.89C54,20.77,52.17,35.85,51.05,40Z"/><path id="Path_5327" data-name="Path 5327" class="cls-3" d="M47,11.43a15.38,15.38,0,0,1-2,6.39,13.57,13.57,0,0,1-3,3.65h0l-.2-.35h0l-.54-.07-4.66-.66-1-.14c-3.35-.45-7.9-1.06-13.29-1.74-.66.73-1.3,1.39-1.91,2h0c-.24.22-.44.42-.66.6-5.28,4.62-8.72,3.49-12.08,3.12-.3,3-1.22,14.9-1.22,16.25v-.1a4.66,4.66,0,0,0-4-.37l-.35.21C1.76,37.74-.16,24.33,0,23.51A24.16,24.16,0,0,1,4.35,15c-1.71.78-2.11.37-2.11.37s.88-.42,3.75-3.89a20.73,20.73,0,0,1,13-7.32,21.42,21.42,0,0,1,5.71.16A133.44,133.44,0,0,1,42.52,8.55,11.63,11.63,0,0,1,47,11.28a.34.34,0,0,1,.06.15Z"/><path id="Path_5328" data-name="Path 5328" class="cls-3" d="M6.45,40.4v.14c-1.89-1.44-4.32,0-4.32,0a1.23,1.23,0,0,0-.06-.39l.36-.21a4.7,4.7,0,0,1,4,.36Z"/><path id="Path_5329" data-name="Path 5329" class="cls-3" d="M20.24,10.56s-4.57,6.1,1.88,11.63a12.49,12.49,0,0,0,6.21,2.18,20.65,20.65,0,0,0,8.53-.58c7.55-2.2,11.73-10.9,9.55-18.29A13,13,0,0,0,45,2.42a7.36,7.36,0,0,1-1.84,4.05c.4-1.22.56-4.82-.41-6.47A14.1,14.1,0,0,1,32,5.22c1.06-.71,1.38-2.84,1.33-4.11-.47,1.11-7,2.93-8.74,3.21Z"/><path id="Path_5330" data-name="Path 5330" class="cls-4" d="M47,11.43a15.38,15.38,0,0,1-2,6.39,13.57,13.57,0,0,1-3,3.65h0a12.11,12.11,0,0,1-1.74,1.22,14.49,14.49,0,0,1-6.5,2.06,21.19,21.19,0,0,1-3.38,0l-1.67-.2-1.64-.33a8.38,8.38,0,0,1,1.66.11h1.66a22.53,22.53,0,0,0,3.28-.25A15.81,15.81,0,0,0,39.83,22a10.72,10.72,0,0,0,1.43-1,15.41,15.41,0,0,0,3.17-3.52A16.44,16.44,0,0,0,46,14.61a13.8,13.8,0,0,0,.66-1.76C46.79,12.36,46.91,11.89,47,11.43Z"/><path id="Path_5331" data-name="Path 5331" class="cls-4" d="M40.53,14.32A16.11,16.11,0,0,1,34.63,22,11.58,11.58,0,0,1,30.05,24a11.32,11.32,0,0,1-4.88-.21h1.22a5,5,0,0,0,1.22,0l1.22-.12L30,23.35a13.13,13.13,0,0,0,4.25-2,19.34,19.34,0,0,0,3.53-3.17,28.19,28.19,0,0,0,2.77-3.91Z"/><path id="Path_5332" data-name="Path 5332" class="cls-4" d="M16.35,13.67A9.93,9.93,0,0,0,17,17.88a5.48,5.48,0,0,0,1.12,1.73A11.84,11.84,0,0,0,19.78,21a4.88,4.88,0,0,1-2.09-1,4.71,4.71,0,0,1-.84-.83,5.4,5.4,0,0,1-.6-1,5.48,5.48,0,0,1-.44-2.3,5.09,5.09,0,0,1,.54-2.23Z"/><path id="Path_5333" data-name="Path 5333" class="cls-4" d="M19.67,11.73a9.1,9.1,0,0,0-.78,4.45,7.34,7.34,0,0,0,.52,2.16,9.88,9.88,0,0,0,.47,1.05c.17.35.39.68.56,1.05a6.92,6.92,0,0,1-.89-.82,6.51,6.51,0,0,1-.72-1,5.8,5.8,0,0,1-.76-2.36,5.61,5.61,0,0,1,.3-2.44,5.21,5.21,0,0,1,1.29-2.09Z"/><path id="Path_5334" data-name="Path 5334" class="cls-1" d="M6.44,40.3a4.72,4.72,0,0,0-4-.36C0,41.16,0,45,.76,47.25c.61,1.94,5.1,6.37,6.75,3.27"/><path id="Path_5335" data-name="Path 5335" class="cls-5" d="M7.51,50.52c-1.66,3.1-6.1-1.33-6.76-3.25-.7-2.15-.81-5.7,1.3-7.13l.36-.2a4.7,4.7,0,0,1,4,.36v.1Z"/><path id="Path_5336" data-name="Path 5336" class="cls-3" d="M20.69,35.78s.8-2.62-.5-3.08-9.12-4.07-11,2.58C11.3,34.12,14.3,33.15,20.69,35.78Z"/><path id="Path_5337" data-name="Path 5337" class="cls-3" d="M33.08,35.67s-.75-2.64.55-3.07,9.21-3.87,11,2.8C42.5,34.22,39.52,33.17,33.08,35.67Z"/><path id="Path_5338" data-name="Path 5338" class="cls-6" d="M27.55,35.78H25.28c.39,7.32-2.72,11.5-1.93,13.12a3.66,3.66,0,0,0,4.95,1.5,3.62,3.62,0,0,0,1.5-1.5C30.61,47.28,27.55,45.1,27.55,35.78Z"/><path id="Path_5339" data-name="Path 5339" class="cls-7" d="M19.9,42.54c-1.33-3-5.93-5.57-8.69-.88a1.12,1.12,0,0,0,0,1.22c.79,1.22,3.1,3.73,8.07,1.3a1.21,1.21,0,0,0,.64-1.6l0,0Z"/><path id="Path_5340" data-name="Path 5340" class="cls-8" d="M18.38,41.82a2.69,2.69,0,1,1-3.15-2.12,2.7,2.7,0,0,1,3.15,2.12Z"/><path id="Path_5341" data-name="Path 5341" class="cls-9" d="M17.22,42.11a1.48,1.48,0,1,1-1.7-1.22,1.29,1.29,0,0,1,.48,0A1.46,1.46,0,0,1,17.22,42.11Z"/><path id="Path_5342" data-name="Path 5342" class="cls-7" d="M16.74,42.36a.5.5,0,1,0,.41-.57.73.73,0,0,0-.19.07A.52.52,0,0,0,16.74,42.36Z"/><path id="Path_5343" data-name="Path 5343" class="cls-7" d="M14.3,41.16A1,1,0,0,0,15,42.38a1,1,0,0,0,.53,0,1,1,0,0,0,.72-.71,1,1,0,0,0-1.93-.49Z"/><path id="Path_5344" data-name="Path 5344" class="cls-10" d="M11.14,42.66a4.76,4.76,0,0,0,3.5,2.44,11.62,11.62,0,0,0,4.54-.49A6.85,6.85,0,0,1,17,45.69a5.46,5.46,0,0,1-2.44.22,4.21,4.21,0,0,1-2.27-1.07A3.47,3.47,0,0,1,11.14,42.66Z"/><path id="Path_5345" data-name="Path 5345" class="cls-3" d="M19.82,43.67a1.49,1.49,0,0,0-.32-1.51,10.22,10.22,0,0,0-1.05-1.22,5,5,0,0,0-2.74-1.37,4,4,0,0,0-3,.56,5.82,5.82,0,0,0-1.22,1.1,2.79,2.79,0,0,0-.44.69,1.59,1.59,0,0,0,0,.81,1.43,1.43,0,0,1-.14-.84,3.58,3.58,0,0,1,.32-.82,4.39,4.39,0,0,1,1.07-1.39,4.2,4.2,0,0,1,3.43-.87,4.74,4.74,0,0,1,3.06,1.74,7,7,0,0,1,.88,1.5,1.6,1.6,0,0,1,.12,1.62Z"/><path id="Path_5346" data-name="Path 5346" class="cls-3" d="M42.11,40.82a6.92,6.92,0,0,0-5.36-.58c-1.22.4-3,1.47-3.18,2.87a.35.35,0,0,0,.26.41.45.45,0,0,0,.23,0c1.22-.7,1.74-1.87,3.15-2.3a11.67,11.67,0,0,1,4.78.07.23.23,0,0,0,.23-.24.26.26,0,0,0-.11-.2Z"/><path id="Path_5347" data-name="Path 5347" class="cls-3" d="M41.44,42.88a7.12,7.12,0,0,0-4.8-1,4,4,0,0,0-3,1.22.27.27,0,0,0,.12.37.34.34,0,0,0,.2,0c2.44-.78,4.69-1.52,7.18-.2a.29.29,0,0,0,.36-.16.28.28,0,0,0-.08-.32Z"/><path id="Path_5348" data-name="Path 5348" class="cls-11" d="M36.26,53.32a11.7,11.7,0,0,1-1.53,6.23A7.76,7.76,0,0,1,29.53,63a9.28,9.28,0,0,1-7-.8,7.18,7.18,0,0,1-2.9-3.8,1,1,0,0,1,.56-1.32,1.14,1.14,0,0,1,.33-.07h.18c2.79.09,9.12-.21,13.54-4l.47-.42a.91.91,0,0,1,1.27.06.88.88,0,0,1,.23.71Z"/><path id="Path_5349" data-name="Path 5349" class="cls-12" d="M34.77,59.55A7.72,7.72,0,0,1,29.57,63a9.23,9.23,0,0,1-7-.79,10.68,10.68,0,0,1,8.11-3.3,12.16,12.16,0,0,1,4.05.67Z"/><path id="Path_5350" data-name="Path 5350" class="cls-13" d="M28.2,58.44c-3.57.88-6.76.23-7.42-1.45,2.79.08,9.12-.21,13.53-4a1.19,1.19,0,0,1,.1.32C34.78,55.19,32,57.51,28.2,58.44Z"/><path id="Path_6026" data-name="Path 6026" class="cls-14" d="M12.82,41.81A2.69,2.69,0,1,0,16,39.7a2.65,2.65,0,0,0-1.05,0A2.68,2.68,0,0,0,12.82,41.81Z"/><path id="Path_6027" data-name="Path 6027" class="cls-15" d="M14,42.1a1.49,1.49,0,0,0,1.22,1.7,1.29,1.29,0,0,0,.48,0,1.5,1.5,0,0,0,1.22-1.22A1.48,1.48,0,0,0,14,42.12Z"/><path id="Path_6028" data-name="Path 6028" class="cls-7" d="M14.49,42.35a.5.5,0,1,1-.41-.57.62.62,0,0,1,.19.07A.49.49,0,0,1,14.49,42.35Z"/><path id="Path_6029" data-name="Path 6029" class="cls-7" d="M16.91,41.15a1,1,0,0,1-.74,1.18A1,1,0,0,1,15,41.59a1,1,0,0,1,.74-1.18,1,1,0,0,1,.48,0A1,1,0,0,1,16.91,41.15Z"/></g></svg>