<svg id="Group_2982" data-name="Group 2982" xmlns="http://www.w3.org/2000/svg" xmlns:xlink="http://www.w3.org/1999/xlink" viewBox="0 0 53.66 68.81"><defs><style>.cls-1{fill:none;}.cls-2{fill:#f5c4b3;}.cls-3{fill:url(#linear-gradient);}.cls-4{fill:#3f0f1b;}.cls-5{fill:#561326;}.cls-6{fill:url(#linear-gradient-2);}.cls-7{fill:url(#linear-gradient-3);}.cls-8{fill:#fff;}.cls-9{fill:url(#linear-gradient-4);}.cls-10{fill:url(#linear-gradient-5);}.cls-11{fill:url(#linear-gradient-6);}.cls-12{fill:url(#linear-gradient-7);}.cls-13{fill:url(#linear-gradient-8);}.cls-14{fill:url(#linear-gradient-9);}.cls-15{fill:url(#linear-gradient-10);}.cls-16{fill:url(#linear-gradient-11);}.cls-17{fill:#832621;}.cls-18{clip-path:url(#clip-path);}.cls-19{fill:#f99273;opacity:0.3;isolation:isolate;}</style><linearGradient id="linear-gradient" x1="-802.89" y1="532.18" x2="-801.89" y2="532.18" gradientTransform="matrix(7.22, 0, 0, -11.93, 5842.2, 6396.56)" gradientUnits="userSpaceOnUse"><stop offset="0" stop-color="#ffaa8b"/><stop offset="1" stop-color="#ffaa8b" stop-opacity="0"/></linearGradient><linearGradient id="linear-gradient-2" x1="-802.62" y1="532.24" x2="-801.62" y2="532.24" gradientTransform="matrix(7.2, 0, 0, -11.95, 5782.13, 6405.16)" gradientUnits="userSpaceOnUse"><stop offset="0" stop-color="#ffaa8b" stop-opacity="0"/><stop offset="1" stop-color="#ffaa8b"/></linearGradient><linearGradient id="linear-gradient-3" x1="-792.44" y1="540.46" x2="-792.44" y2="541.49" gradientTransform="matrix(6.7, 0, 0, -15.06, 5337.82, 8187.49)" gradientUnits="userSpaceOnUse"><stop offset="0" stop-color="#ffaa8b" stop-opacity="0.7"/><stop offset="0.1" stop-color="#ffaa8b" stop-opacity="0.58"/><stop offset="0.29" stop-color="#ffaa8b" stop-opacity="0.38"/><stop offset="0.47" stop-color="#ffaa8b" stop-opacity="0.21"/><stop offset="0.63" stop-color="#ffaa8b" stop-opacity="0.1"/><stop offset="0.77" stop-color="#ffaa8b" stop-opacity="0.03"/><stop offset="0.87" stop-color="#ffaa8b" stop-opacity="0"/></linearGradient><linearGradient id="linear-gradient-4" x1="-590.11" y1="480.4" x2="-591.11" y2="480.4" gradientTransform="matrix(5.37, 0, 0, -5.37, 4083.17, 2620.36)" gradientUnits="userSpaceOnUse"><stop offset="0" stop-color="#248157"/><stop offset="1" stop-color="#24816a" stop-opacity="0"/></linearGradient><linearGradient id="linear-gradient-5" x1="-316.31" y1="403.75" x2="-317.31" y2="403.75" gradientTransform="matrix(2.99, 0, 0, -2.96, 1867.38, 1236.43)" xlink:href="#linear-gradient-4"/><linearGradient id="linear-gradient-6" x1="-815.37" y1="419.63" x2="-814.3" y2="419.63" gradientTransform="matrix(7.99, 0, 0, -3.26, 6523.97, 1412.62)" xlink:href="#linear-gradient-3"/><linearGradient id="linear-gradient-7" x1="-992.43" y1="480.4" x2="-993.44" y2="480.4" gradientTransform="matrix(5.37, 0, 0, -5.37, 4105.48, 2620.36)" gradientUnits="userSpaceOnUse"><stop offset="0" stop-color="#312a07"/><stop offset="1" stop-color="#24816a" stop-opacity="0"/></linearGradient><linearGradient id="linear-gradient-8" x1="-992.43" y1="480.4" x2="-993.44" y2="480.4" gradientTransform="matrix(5.37, 0, 0, -5.37, 4082.89, 2620.36)" xlink:href="#linear-gradient-7"/><linearGradient id="linear-gradient-9" x1="-850.41" y1="403.44" x2="-851.42" y2="403.44" gradientTransform="matrix(2.95, 0, 0, -2.95, 1856.23, 1233.33)" xlink:href="#linear-gradient-7"/><linearGradient id="linear-gradient-10" x1="-850.41" y1="403.44" x2="-851.42" y2="403.44" gradientTransform="matrix(2.95, 0, 0, -2.95, 1833.65, 1233.33)" xlink:href="#linear-gradient-7"/><linearGradient id="linear-gradient-11" x1="-814.1" y1="420.2" x2="-815.17" y2="420.2" gradientTransform="matrix(7.98, 0, 0, -3.27, 6536.34, 1419.55)" xlink:href="#linear-gradient-3"/><clipPath id="clip-path"><path class="cls-1" d="M35.61,56.19c-.29-.3-3.84-.48-8.43-.48s-8.14.18-8.42.48-.82,5.21,8.42,5.21S35.93,56.41,35.61,56.19Z"/></clipPath></defs><path id="Path_5427" data-name="Path 5427" class="cls-2" d="M53.19,47.43c-.62,1.92-5.1,6.36-6.75,3.26l1.07-10.22h0A5.11,5.11,0,0,1,51,39.93a1.94,1.94,0,0,1,.5.2C54.05,41.37,53.94,45.22,53.19,47.43Z"/><path id="Path_5428" data-name="Path 5428" class="cls-3" d="M53.19,47.43c-.62,1.92-5.1,6.36-6.75,3.26l1.07-10.22h0A5.11,5.11,0,0,1,51,39.93a1.94,1.94,0,0,1,.5.2C54.05,41.37,53.94,45.22,53.19,47.43Z"/><path id="Path_5429" data-name="Path 5429" class="cls-2" d="M5.63,32.85s1.7,17.19,2.22,21,4.43,15.37,19.79,15C38.72,68.28,45.75,65,46.92,49.29s1.22-20.18,1.22-20.18L44.66,18.39l-3.53-5-12.75-1.3-11.08.12L10,13,8.55,17.61Z"/><path id="Path_5430" data-name="Path 5430" class="cls-4" d="M51.05,39.91a5.17,5.17,0,0,0-3.49.55V33.35A9,9,0,0,0,46.34,29L42,21.38a13.77,13.77,0,0,0,3-3.66,15.38,15.38,0,0,0,2-6.39,54.08,54.08,0,0,1,6.58,7.9C54,20.71,52.17,35.79,51.05,39.91Z"/><path id="Path_5431" data-name="Path 5431" class="cls-4" d="M47,11.37a15.38,15.38,0,0,1-2,6.39,13.57,13.57,0,0,1-3,3.65h0l-.2-.35h0L41.31,21l-4.66-.65-1-.14c-3.36-.46-7.9-1.07-13.29-1.75-.66.75-1.3,1.39-1.92,2h0l-.66.58c-5.28,4.62-8.72,3.49-12.07,3.14-.3,3-1.22,14.87-1.22,16.23v-.1a4.67,4.67,0,0,0-4-.37,3.13,3.13,0,0,0-.36.22C1.75,37.69-.18,24.28,0,23.45a24,24,0,0,1,4.33-8.54c-1.71.78-2.11.37-2.11.37S3.1,14.86,6,11.39a20.68,20.68,0,0,1,13-7.32,21.49,21.49,0,0,1,5.72.16A137,137,0,0,1,42.52,8.49,12,12,0,0,1,47,11.22,1,1,0,0,1,47,11.37Z"/><path id="Path_5432" data-name="Path 5432" class="cls-4" d="M6.45,40.34v.13c-1.89-1.43-4.32,0-4.32,0a1.19,1.19,0,0,0-.06-.37,1.93,1.93,0,0,1,.36-.22,4.67,4.67,0,0,1,4,.36Z"/><path id="Path_5433" data-name="Path 5433" class="cls-4" d="M20.27,10.5s-4.58,6.1,1.88,11.63a12.38,12.38,0,0,0,6.2,2.22,20.7,20.7,0,0,0,8.54-.57c7.55-2.21,11.73-10.9,9.55-18.29A12.72,12.72,0,0,0,45,2.43a7.27,7.27,0,0,1-1.84,4c.4-1.22.56-4.88-.41-6.46A14.14,14.14,0,0,1,32,5.22c1.06-.71,1.38-2.84,1.33-4.11-.47,1.11-7,2.93-8.74,3.21Z"/><path id="Path_5434" data-name="Path 5434" class="cls-5" d="M47,11.37a15.38,15.38,0,0,1-2,6.39,13.72,13.72,0,0,1-3,3.65h0a12.11,12.11,0,0,1-1.74,1.22,14.48,14.48,0,0,1-6.45,2.05,21.19,21.19,0,0,1-3.38,0l-1.69-.2-1.63-.33a8.43,8.43,0,0,1,1.66.11h1.66A22.66,22.66,0,0,0,33.78,24a16,16,0,0,0,6.1-2.12,13,13,0,0,0,1.43-1,15.46,15.46,0,0,0,3.17-3.53A18.28,18.28,0,0,0,46,14.47a17.61,17.61,0,0,0,.65-1.76A12.68,12.68,0,0,0,47,11.37Z"/><path id="Path_5435" data-name="Path 5435" class="cls-5" d="M40.54,14.26A16.43,16.43,0,0,1,34.64,22a11.82,11.82,0,0,1-4.59,1.9,11.48,11.48,0,0,1-4.88-.21h1.22a6.22,6.22,0,0,0,1.22,0l1.22-.12,1.22-.27a13.13,13.13,0,0,0,4.25-1.95,20,20,0,0,0,3.53-3.16,28,28,0,0,0,2.71-3.93Z"/><path id="Path_5436" data-name="Path 5436" class="cls-5" d="M16.35,13.61A10.09,10.09,0,0,0,17,17.82a6,6,0,0,0,1.12,1.73A13.22,13.22,0,0,0,19.78,21a4.84,4.84,0,0,1-2.08-1,5.63,5.63,0,0,1-.85-.84,6.59,6.59,0,0,1-.6-1,5.35,5.35,0,0,1-.43-2.3A5.09,5.09,0,0,1,16.35,13.61Z"/><path id="Path_5437" data-name="Path 5437" class="cls-5" d="M19.67,11.67a9.22,9.22,0,0,0-.78,4.45,8,8,0,0,0,.52,2.16c.14.36.29.71.46,1s.39.68.56,1.06a8.67,8.67,0,0,1-.89-.83,6.51,6.51,0,0,1-.72-1,5.78,5.78,0,0,1-.75-2.37,5.59,5.59,0,0,1,.3-2.43,5.11,5.11,0,0,1,1.29-2.09Z"/><path id="Path_5438" data-name="Path 5438" class="cls-2" d="M6.44,40.24a4.67,4.67,0,0,0-4-.36C0,41.09,0,45,.76,47.19c.62,1.93,5.1,6.36,6.75,3.26"/><path id="Path_5439" data-name="Path 5439" class="cls-6" d="M7.51,50.46c-1.66,3.1-6.1-1.33-6.75-3.25-.69-2.15-.82-5.7,1.3-7.11a1.86,1.86,0,0,1,.35-.22,4.66,4.66,0,0,1,4,.36v.1Z"/><path id="Path_5440" data-name="Path 5440" class="cls-4" d="M21,34.34s.12-2.73-1.22-2.87-9.83-1.68-10,5.22C11.45,35.06,14.17,33.36,21,34.34Z"/><path id="Path_5441" data-name="Path 5441" class="cls-4" d="M32.85,34.34s-.13-2.73,1.22-2.87,9.84-1.68,10,5.22C42.35,35.06,39.68,33.36,32.85,34.34Z"/><path id="Path_5442" data-name="Path 5442" class="cls-7" d="M27.58,35.72H25.34c.38,7.32-2.73,11.5-1.94,13.12a3.66,3.66,0,0,0,5,1.5,3.62,3.62,0,0,0,1.5-1.5C30.61,47.22,27.58,45.08,27.58,35.72Z"/><path id="Path_5443" data-name="Path 5443" class="cls-8" d="M19.9,42.49c-1.32-3-5.92-5.56-8.69-.89a1.16,1.16,0,0,0,0,1.22c.79,1.21,3.1,3.73,8.07,1.3a1.23,1.23,0,0,0,.64-1.61l0,0Z"/><path id="Path_5444" data-name="Path 5444" class="cls-9" d="M18.38,41.75a2.68,2.68,0,1,1-2.1-2.1A2.7,2.7,0,0,1,18.38,41.75Z"/><path id="Path_5445" data-name="Path 5445" class="cls-10" d="M17.22,42.05A1.49,1.49,0,0,1,16,43.75a1.85,1.85,0,0,1-.47,0,1.48,1.48,0,1,1,.43-2.93H16a1.5,1.5,0,0,1,1.23,1.22Z"/><path id="Path_5446" data-name="Path 5446" class="cls-8" d="M16.71,42.3a.5.5,0,1,0,1,.16.49.49,0,0,0-.41-.57H17.2A.5.5,0,0,0,16.71,42.3Z"/><path id="Path_5447" data-name="Path 5447" class="cls-8" d="M14.3,41.1a1,1,0,0,0,1.92.48,1,1,0,0,0-.72-1.21.85.85,0,0,0-.5,0A1,1,0,0,0,14.3,41.1Z"/><path id="Path_5448" data-name="Path 5448" class="cls-11" d="M11.15,42.63a4.7,4.7,0,0,0,3.5,2.44,11.53,11.53,0,0,0,4.48-.53A6.64,6.64,0,0,1,17,45.62a5.77,5.77,0,0,1-2.44.23,4.23,4.23,0,0,1-2.27-1.08,3.37,3.37,0,0,1-1.13-2.14Z"/><path id="Path_5449" data-name="Path 5449" class="cls-4" d="M19.82,43.61a1.49,1.49,0,0,0-.32-1.51,8.77,8.77,0,0,0-1.05-1.22,4.73,4.73,0,0,0-2.74-1.37,4,4,0,0,0-3,.56,5.46,5.46,0,0,0-1.21,1.09,2.34,2.34,0,0,0-.44.68,1.43,1.43,0,0,0,0,.82,1.38,1.38,0,0,1-.15-.84,3.41,3.41,0,0,1,.32-.82,4.54,4.54,0,0,1,1.07-1.39,4.2,4.2,0,0,1,3.43-.88,4.71,4.71,0,0,1,3.06,1.75A6.42,6.42,0,0,1,19.7,42a1.57,1.57,0,0,1,.12,1.63Z"/><path id="Path_5450" data-name="Path 5450" class="cls-8" d="M33.9,42.49c1.34-3,5.93-5.56,8.7-.89a1.12,1.12,0,0,1,0,1.22c-.8,1.21-3.1,3.73-8.08,1.3a1.22,1.22,0,0,1-.63-1.61v0Z"/><path id="Path_5451" data-name="Path 5451" class="cls-12" d="M35.43,41.75a2.68,2.68,0,1,0,3.16-2.09,2.85,2.85,0,0,0-1.05,0A2.67,2.67,0,0,0,35.43,41.75Z"/><path id="Path_6045" data-name="Path 6045" class="cls-13" d="M12.84,41.75A2.68,2.68,0,1,0,16,39.66a2.85,2.85,0,0,0-1.05,0A2.7,2.7,0,0,0,12.84,41.75Z"/><path id="Path_5452" data-name="Path 5452" class="cls-14" d="M36.6,42.05a1.47,1.47,0,1,0,1.69-1.22,1.24,1.24,0,0,0-.47,0A1.46,1.46,0,0,0,36.6,42.05Z"/><path id="Path_6044" data-name="Path 6044" class="cls-15" d="M14,42.05a1.48,1.48,0,1,0,1.7-1.22,1.29,1.29,0,0,0-.48,0A1.46,1.46,0,0,0,14,42.05Z"/><path id="Path_5453" data-name="Path 5453" class="cls-8" d="M37.1,42.3a.52.52,0,0,1-.42.58.51.51,0,0,1-.57-.42.5.5,0,0,1,.42-.57h.07A.51.51,0,0,1,37.1,42.3Z"/><path id="Path_6042" data-name="Path 6042" class="cls-8" d="M14.51,42.3a.5.5,0,1,1-1,.16.49.49,0,0,1,.41-.57H14A.5.5,0,0,1,14.51,42.3Z"/><path id="Path_5454" data-name="Path 5454" class="cls-8" d="M39.51,41.1a1,1,0,0,1-1.92.48,1,1,0,0,1,.72-1.2,1,1,0,0,1,.48,0,1,1,0,0,1,.72.72Z"/><path id="Path_6043" data-name="Path 6043" class="cls-8" d="M16.93,41.1a1,1,0,0,1-1.92.48,1,1,0,0,1,.72-1.2,1,1,0,0,1,1.2.72Z"/><path id="Path_5455" data-name="Path 5455" class="cls-16" d="M42.67,42.63a3.55,3.55,0,0,1-1.12,2.15,4.34,4.34,0,0,1-2.27,1.08,5.77,5.77,0,0,1-2.44-.23,6.69,6.69,0,0,1-2.15-1.08,11.6,11.6,0,0,0,4.49.53,4.7,4.7,0,0,0,3.49-2.45Z"/><path id="Path_5456" data-name="Path 5456" class="cls-4" d="M34,43.61A1.6,1.6,0,0,1,34.05,42a6.28,6.28,0,0,1,.88-1.5A4.69,4.69,0,0,1,38,38.71a4.15,4.15,0,0,1,3.41.87A4.42,4.42,0,0,1,42.49,41a4.07,4.07,0,0,1,.31.82,1.35,1.35,0,0,1-.13.84,1.59,1.59,0,0,0,0-.81,2.26,2.26,0,0,0-.44-.69A5.23,5.23,0,0,0,41,40.05a3.84,3.84,0,0,0-2.95-.56,4.63,4.63,0,0,0-2.74,1.36,8.21,8.21,0,0,0-1.06,1.22A1.47,1.47,0,0,0,34,43.61Z"/><path id="Path_5457" data-name="Path 5457" class="cls-17" d="M35.61,56.19c-.29-.3-3.84-.48-8.43-.48s-8.14.18-8.42.48-.82,5.21,8.42,5.21S35.93,56.41,35.61,56.19Z"/><g class="cls-18"><g id="Group_2881" data-name="Group 2881"><path id="Path_5458" data-name="Path 5458" class="cls-8" d="M35.82,54.69c-.08,2.58-.71,3.05-.71,3.05-1.38.62-4.76.59-8.22.7-3.22.1-5.73.42-7.56-.7-.42-.24-.48-1.94-.56-2.75a1.11,1.11,0,0,1,.6-.25C25.7,54.4,33,53.87,35.82,54.69Z"/><path id="Path_5459" data-name="Path 5459" class="cls-8" d="M18,62.29c.08-2.57.84-2.85.84-2.85.37-.13.45-.6,1.22-.61,2.17,0,4.51,0,6.88-.06s5.22-.19,7.32-.24a1.86,1.86,0,0,1,1.49.87A10.87,10.87,0,0,1,35.85,62a1.1,1.1,0,0,1-.6.24C28.91,62.53,20.63,63,18,62.29Z"/></g></g><path id="Path_5461" data-name="Path 5461" class="cls-19" d="M30.27,63.29a9.53,9.53,0,0,1-5.47.17c-2.7-.84-.78.48,1.4.87a7.45,7.45,0,0,0,5.32-1.16C32.1,62.55,31.24,63,30.27,63.29Z"/></svg>