<svg id="Group_2989" data-name="Group 2989" xmlns="http://www.w3.org/2000/svg" xmlns:xlink="http://www.w3.org/1999/xlink" viewBox="0 0 53.66 68.86"><defs><style>.cls-1{fill:none;}.cls-2{fill:#f5c4b3;}.cls-3{fill:url(#linear-gradient);}.cls-4{fill:#3f0f1b;}.cls-5{fill:#561326;}.cls-6{fill:url(#linear-gradient-2);}.cls-7{fill:#832621;}.cls-8{clip-path:url(#clip-path);}.cls-9{fill:#d14a4a;}.cls-10{fill:#fff;}.cls-11{fill:url(#linear-gradient-3);}.cls-12{fill:url(#linear-gradient-4);}.cls-13{fill:url(#linear-gradient-5);}.cls-14{fill:url(#linear-gradient-6);}.cls-15{fill:#312a07;}.cls-16{fill:url(#linear-gradient-7);}</style><linearGradient id="linear-gradient" x1="-802.89" y1="532.18" x2="-801.89" y2="532.18" gradientTransform="matrix(7.22, 0, 0, -11.93, 5842.2, 6396.68)" gradientUnits="userSpaceOnUse"><stop offset="0" stop-color="#ffaa8b"/><stop offset="1" stop-color="#ffaa8b" stop-opacity="0"/></linearGradient><linearGradient id="linear-gradient-2" x1="-802.62" y1="532.23" x2="-801.62" y2="532.23" gradientTransform="matrix(7.2, 0, 0, -11.95, 5782.13, 6404.65)" gradientUnits="userSpaceOnUse"><stop offset="0" stop-color="#ffaa8b" stop-opacity="0"/><stop offset="1" stop-color="#ffaa8b"/></linearGradient><clipPath id="clip-path"><path class="cls-1" d="M36.12,55.83c-.32-.34-4.18-.54-9.17-.54s-8.85.2-9.17.54,1.85,8.1,9.17,8.1S36.42,56.07,36.12,55.83Z"/></clipPath><linearGradient id="linear-gradient-3" x1="-792.44" y1="540.46" x2="-792.44" y2="541.49" gradientTransform="matrix(6.7, 0, 0, -15.06, 5337.82, 8187.56)" gradientUnits="userSpaceOnUse"><stop offset="0" stop-color="#ffaa8b" stop-opacity="0.7"/><stop offset="0.1" stop-color="#ffaa8b" stop-opacity="0.58"/><stop offset="0.29" stop-color="#ffaa8b" stop-opacity="0.38"/><stop offset="0.47" stop-color="#ffaa8b" stop-opacity="0.21"/><stop offset="0.63" stop-color="#ffaa8b" stop-opacity="0.1"/><stop offset="0.77" stop-color="#ffaa8b" stop-opacity="0.03"/><stop offset="0.87" stop-color="#ffaa8b" stop-opacity="0"/></linearGradient><linearGradient id="linear-gradient-4" x1="-590.11" y1="480.4" x2="-591.11" y2="480.4" gradientTransform="matrix(5.37, 0, 0, -5.37, 4083.11, 2620.39)" gradientUnits="userSpaceOnUse"><stop offset="0" stop-color="#248157"/><stop offset="1" stop-color="#24816a" stop-opacity="0"/></linearGradient><linearGradient id="linear-gradient-5" x1="-311.26" y1="403.44" x2="-312.26" y2="403.44" gradientTransform="matrix(2.95, 0, 0, -2.95, 1833.94, 1233.4)" xlink:href="#linear-gradient-4"/><linearGradient id="linear-gradient-6" x1="-815.37" y1="419.41" x2="-814.3" y2="419.41" gradientTransform="matrix(7.99, 0, 0, -3.26, 6523.97, 1409.97)" xlink:href="#linear-gradient-3"/><linearGradient id="linear-gradient-7" x1="-814.09" y1="419.92" x2="-815.16" y2="419.92" gradientTransform="matrix(7.98, 0, 0, -3.27, 6535.4, 1416.12)" xlink:href="#linear-gradient-3"/></defs><path id="Path_5289" data-name="Path 5289" class="cls-2" d="M53.19,47.53c-.62,1.93-5.1,6.37-6.75,3.27l1.07-10.22h0A5.17,5.17,0,0,1,51,40a3.07,3.07,0,0,1,.5.2C54.05,41.44,53.94,45.24,53.19,47.53Z"/><path id="Path_5290" data-name="Path 5290" class="cls-3" d="M53.19,47.53c-.62,1.93-5.1,6.37-6.75,3.27l1.07-10.22h0A5.17,5.17,0,0,1,51,40a3.07,3.07,0,0,1,.5.2C54.05,41.44,53.94,45.24,53.19,47.53Z"/><path id="Path_5291" data-name="Path 5291" class="cls-2" d="M5.63,32.9s1.7,17.2,2.22,21,4.43,15.36,19.79,15c11.08-.51,18.11-3.77,19.28-19.51s1.22-20.18,1.22-20.18L44.66,18.45,41.13,13.5,28.34,12.17l-11.07.13L10,13.08,8.51,17.64Z"/><path id="Path_5292" data-name="Path 5292" class="cls-4" d="M51.05,40a5.17,5.17,0,0,0-3.49.55V33.41a9,9,0,0,0-1.22-4.35L42,21.44a13.77,13.77,0,0,0,3-3.66,15.38,15.38,0,0,0,2-6.39,54.53,54.53,0,0,1,6.58,7.89C54,20.77,52.17,35.85,51.05,40Z"/><path id="Path_5293" data-name="Path 5293" class="cls-4" d="M47,11.43a15.38,15.38,0,0,1-2,6.39,13.57,13.57,0,0,1-3,3.65h0l-.2-.35h0l-.55-.07-4.66-.66-1-.14c-3.36-.45-7.9-1.06-13.29-1.74-.66.73-1.3,1.39-1.92,2h0c-.23.22-.44.42-.66.6-5.28,4.62-8.72,3.49-12.07,3.12-.3,3-1.22,14.9-1.22,16.25v-.1a4.67,4.67,0,0,0-4-.37l-.36.21C1.75,37.74-.18,24.33,0,23.51A24.13,24.13,0,0,1,4.33,15c-1.71.78-2.11.37-2.11.37S3.1,14.92,6,11.45a20.68,20.68,0,0,1,13-7.32,21.49,21.49,0,0,1,5.72.16A133.44,133.44,0,0,1,42.52,8.55,11.64,11.64,0,0,1,47,11.28.35.35,0,0,1,47,11.43Z"/><path id="Path_5294" data-name="Path 5294" class="cls-4" d="M6.45,40.4v.14c-1.89-1.44-4.32,0-4.32,0a1.23,1.23,0,0,0-.06-.39l.36-.21a4.7,4.7,0,0,1,4,.36Z"/><path id="Path_5295" data-name="Path 5295" class="cls-4" d="M20.27,10.56s-4.58,6.1,1.88,11.63a12.58,12.58,0,0,0,6.18,2.18,20.65,20.65,0,0,0,8.53-.58c7.55-2.2,11.74-10.9,9.55-18.29A13,13,0,0,0,45,2.42a7.36,7.36,0,0,1-1.84,4.05c.4-1.22.56-4.82-.41-6.47A14.1,14.1,0,0,1,32,5.22c1.06-.71,1.38-2.84,1.33-4.11-.47,1.11-7,2.93-8.74,3.21Z"/><path id="Path_5296" data-name="Path 5296" class="cls-5" d="M47,11.43a15.38,15.38,0,0,1-2,6.39,13.57,13.57,0,0,1-3,3.65h0a12.11,12.11,0,0,1-1.74,1.22,14.36,14.36,0,0,1-6.45,2,21.19,21.19,0,0,1-3.38,0l-1.69-.18-1.63-.33a8.43,8.43,0,0,1,1.66.11h1.66a22.66,22.66,0,0,0,3.29-.24A16,16,0,0,0,39.88,22a11.66,11.66,0,0,0,1.43-1,15.67,15.67,0,0,0,3.17-3.53,19.86,19.86,0,0,0,2.17-4.67A11,11,0,0,0,47,11.43Z"/><path id="Path_5297" data-name="Path 5297" class="cls-5" d="M40.54,14.32A16.23,16.23,0,0,1,34.64,22,11.77,11.77,0,0,1,30,24a11.16,11.16,0,0,1-4.88-.21h1.21a5,5,0,0,0,1.22,0l1.22-.12L30,23.35a13.09,13.09,0,0,0,4.26-2,19.28,19.28,0,0,0,3.52-3.17,26.34,26.34,0,0,0,2.73-3.91Z"/><path id="Path_5298" data-name="Path 5298" class="cls-5" d="M16.35,13.67A10.09,10.09,0,0,0,17,17.88a6,6,0,0,0,1.12,1.73A13.22,13.22,0,0,0,19.78,21a5.2,5.2,0,0,1-2.93-1.8,6.59,6.59,0,0,1-.6-1,5.35,5.35,0,0,1-.43-2.3,5,5,0,0,1,.53-2.23Z"/><path id="Path_5299" data-name="Path 5299" class="cls-5" d="M19.67,11.73a9.22,9.22,0,0,0-.78,4.45,8,8,0,0,0,.52,2.16c.14.36.29.71.46,1.05s.39.68.56,1.05a8.56,8.56,0,0,1-.89-.82,6.51,6.51,0,0,1-.72-1,5.78,5.78,0,0,1-.75-2.37,5.59,5.59,0,0,1,.3-2.43A5.13,5.13,0,0,1,19.67,11.73Z"/><path id="Path_5300" data-name="Path 5300" class="cls-2" d="M6.44,40.3a4.7,4.7,0,0,0-4-.36C0,41.16,0,45,.76,47.25c.62,1.94,5.1,6.37,6.75,3.27"/><path id="Path_5301" data-name="Path 5301" class="cls-6" d="M7.51,50.52c-1.66,3.1-6.1-1.33-6.75-3.25-.69-2.15-.82-5.7,1.3-7.13l.35-.2a4.69,4.69,0,0,1,4,.36v.1Z"/><path id="Path_5302" data-name="Path 5302" class="cls-4" d="M21,34.4s.12-2.73-1.22-2.86-9.83-1.7-10,5.2C11.45,35.12,14.17,33.43,21,34.4Z"/><path id="Path_5303" data-name="Path 5303" class="cls-4" d="M32.85,34.4s-.13-2.73,1.22-2.86,9.84-1.7,10,5.2C42.35,35.12,39.68,33.43,32.85,34.4Z"/><path id="Path_5304" data-name="Path 5304" class="cls-7" d="M36.12,55.83c-.32-.34-4.18-.54-9.17-.54s-8.85.2-9.17.54,1.85,8.1,9.17,8.1S36.43,56.07,36.12,55.83Z"/><g class="cls-8"><g id="Group_2870" data-name="Group 2870"><path id="Path_5305" data-name="Path 5305" class="cls-9" d="M34.9,61.19c-2,3.13-4.95,6.1-8.21,6-3.52-.13-6.1-3-7.69-5.65C21.71,59.1,29,56.36,34.9,61.19Z"/><path id="Path_5306" data-name="Path 5306" class="cls-10" d="M33.82,53.82c-.06,2.2-.55,2.2-.55,2.2-2.05,1-9.89,1.95-12.84,0-.32-.21-.38-1.22-.43-2a.78.78,0,0,1,.45-.21C25.35,53.56,31.6,53.11,33.82,53.82Z"/></g></g><path id="Path_5308" data-name="Path 5308" class="cls-11" d="M27.58,35.78H25.34c.38,7.32-2.73,11.5-1.94,13.12a3.66,3.66,0,0,0,5,1.5,3.62,3.62,0,0,0,1.5-1.5C30.61,47.28,27.58,45.1,27.58,35.78Z"/><path id="Path_5309" data-name="Path 5309" class="cls-10" d="M19.9,42.54c-1.32-3-5.92-5.57-8.69-.88a1.16,1.16,0,0,0,0,1.22c.79,1.22,3.1,3.73,8.07,1.3a1.24,1.24,0,0,0,.65-1.61l0,0Z"/><path id="Path_5310" data-name="Path 5310" class="cls-12" d="M18.38,41.82a2.69,2.69,0,1,1-3.15-2.12,2.7,2.7,0,0,1,3.15,2.12Z"/><path id="Path_5311" data-name="Path 5311" class="cls-13" d="M17.22,42.11a1.47,1.47,0,1,1-1.7-1.22,1.29,1.29,0,0,1,.48,0A1.51,1.51,0,0,1,17.22,42.11Z"/><path id="Path_5312" data-name="Path 5312" class="cls-10" d="M16.71,42.36a.5.5,0,1,0,.41-.57.62.62,0,0,0-.19.07A.5.5,0,0,0,16.71,42.36Z"/><path id="Path_5313" data-name="Path 5313" class="cls-10" d="M14.31,41.15A1,1,0,0,0,15,42.37a.92.92,0,0,0,.57,0,.94.94,0,0,0,.72-.7,1,1,0,0,0-.71-1.22.85.85,0,0,0-.5,0A.94.94,0,0,0,14.31,41.15Z"/><path id="Path_5314" data-name="Path 5314" class="cls-14" d="M11.15,42.66a4.75,4.75,0,0,0,3.5,2.44,11.73,11.73,0,0,0,4.48-.54A6.85,6.85,0,0,1,17,45.64a5.46,5.46,0,0,1-2.44.22,4.14,4.14,0,0,1-2.27-1.07A3.37,3.37,0,0,1,11.15,42.66Z"/><path id="Path_5315" data-name="Path 5315" class="cls-4" d="M19.82,43.67a1.49,1.49,0,0,0-.32-1.51,11.07,11.07,0,0,0-1.05-1.22,5,5,0,0,0-2.74-1.37,4,4,0,0,0-3,.56,5.82,5.82,0,0,0-1.22,1.1,2.49,2.49,0,0,0-.43.69,1.4,1.4,0,0,0,0,.81,1.35,1.35,0,0,1-.15-.84,3.34,3.34,0,0,1,.32-.81,4.28,4.28,0,0,1,1.07-1.39,4.17,4.17,0,0,1,3.43-.88,4.74,4.74,0,0,1,3.06,1.74,6.63,6.63,0,0,1,.88,1.5,1.6,1.6,0,0,1,.12,1.62Z"/><path id="Path_5316" data-name="Path 5316" class="cls-10" d="M33.9,42.54c1.34-3,5.93-5.57,8.7-.88a1.12,1.12,0,0,1,0,1.22c-.8,1.22-3.1,3.73-8.08,1.3a1.21,1.21,0,0,1-.64-1.6l0,0Z"/><g id="Group_2942" data-name="Group 2942"><path id="Path_5317" data-name="Path 5317" class="cls-15" d="M35.42,41.82a2.69,2.69,0,1,0,3.16-2.11,2.65,2.65,0,0,0-1,0A2.69,2.69,0,0,0,35.42,41.82Z"/><path id="Path_5318" data-name="Path 5318" class="cls-15" d="M36.6,42.11a1.47,1.47,0,0,0,1.21,1.7,1.35,1.35,0,0,0,.49,0,1.51,1.51,0,0,0,1.22-1.22,1.48,1.48,0,0,0-2.93-.46Z"/><path id="Path_5319" data-name="Path 5319" class="cls-10" d="M37.1,42.36a.51.51,0,0,1-.58.42.5.5,0,0,1,.16-1,.54.54,0,0,1,.19.07A.51.51,0,0,1,37.1,42.36Z"/><path id="Path_5320" data-name="Path 5320" class="cls-10" d="M39.51,41.16a1,1,0,0,1-.74,1.18,1,1,0,0,1-1.19-.74,1,1,0,0,1,.74-1.18,1,1,0,0,1,.48,0A1,1,0,0,1,39.51,41.16Z"/></g><g id="Group_2943" data-name="Group 2943"><path id="Path_5317-2" data-name="Path 5317-2" class="cls-15" d="M12.64,41.82a2.68,2.68,0,1,0,3.15-2.11,2.6,2.6,0,0,0-1,0A2.67,2.67,0,0,0,12.64,41.82Z"/><path id="Path_5318-2" data-name="Path 5318-2" class="cls-15" d="M13.81,42.11A1.48,1.48,0,0,0,15,43.81a1.35,1.35,0,0,0,.49,0,1.51,1.51,0,0,0,1.22-1.22,1.48,1.48,0,0,0-2.93-.46Z"/><path id="Path_5319-2" data-name="Path 5319-2" class="cls-10" d="M14.31,42.36a.5.5,0,1,1-.42-.57.68.68,0,0,1,.2.07A.52.52,0,0,1,14.31,42.36Z"/><path id="Path_5320-2" data-name="Path 5320-2" class="cls-10" d="M16.72,41.16a1,1,0,1,1-1.18-.74.94.94,0,0,1,.47,0A1,1,0,0,1,16.72,41.16Z"/></g><path id="Path_5321" data-name="Path 5321" class="cls-16" d="M42.67,42.66a3.56,3.56,0,0,1-1.12,2.14,4.23,4.23,0,0,1-2.27,1.08,5.76,5.76,0,0,1-2.44-.22,7,7,0,0,1-2.15-1.09,11.61,11.61,0,0,0,4.49.54A4.75,4.75,0,0,0,42.67,42.66Z"/><path id="Path_5322" data-name="Path 5322" class="cls-4" d="M34,43.67A1.6,1.6,0,0,1,34.05,42a6.28,6.28,0,0,1,.88-1.5A4.69,4.69,0,0,1,38,38.77a4.12,4.12,0,0,1,3.41.88A4.21,4.21,0,0,1,42.49,41a3.77,3.77,0,0,1,.31.81,1.35,1.35,0,0,1-.13.84,1.59,1.59,0,0,0,0-.81,2.26,2.26,0,0,0-.44-.69A5.32,5.32,0,0,0,41,40.09a4,4,0,0,0-2.95-.56,4.85,4.85,0,0,0-2.74,1.37,8.21,8.21,0,0,0-1.06,1.22A1.47,1.47,0,0,0,34,43.67Z"/></svg>