<svg id="Layer_1" data-name="Layer 1" xmlns="http://www.w3.org/2000/svg" xmlns:xlink="http://www.w3.org/1999/xlink" viewBox="0 0 53.69 68.81"><defs><style>.cls-1{fill:#f5c4b3;}.cls-2{fill:url(#linear-gradient);}.cls-3{fill:#3f0f1b;}.cls-4{fill:#561326;}.cls-5{fill:url(#linear-gradient-2);}.cls-6{fill:url(#linear-gradient-3);}.cls-7{fill:#fff;}.cls-8{fill:url(#linear-gradient-4);}.cls-9{fill:url(#linear-gradient-5);}.cls-10{fill:url(#linear-gradient-6);}.cls-11{fill:url(#linear-gradient-7);}.cls-12{fill:url(#linear-gradient-8);}.cls-13{fill:url(#linear-gradient-9);}.cls-14{fill:url(#linear-gradient-10);}.cls-15{fill:url(#linear-gradient-11);}.cls-16{fill:#9b1f1f;}.cls-17{fill:#f99273;opacity:0.3;isolation:isolate;}.cls-18{fill:#d64747;}</style><linearGradient id="linear-gradient" x1="-802.58" y1="532.18" x2="-801.58" y2="532.18" gradientTransform="matrix(7.2, 0, 0, -11.93, 5826.21, 6396.56)" gradientUnits="userSpaceOnUse"><stop offset="0" stop-color="#ffaa8b"/><stop offset="1" stop-color="#ffaa8b" stop-opacity="0"/></linearGradient><linearGradient id="linear-gradient-2" x1="-802.75" y1="532.24" x2="-801.75" y2="532.24" gradientTransform="matrix(7.21, 0, 0, -11.95, 5789.03, 6405.16)" gradientUnits="userSpaceOnUse"><stop offset="0" stop-color="#ffaa8b" stop-opacity="0"/><stop offset="1" stop-color="#ffaa8b"/></linearGradient><linearGradient id="linear-gradient-3" x1="-792.82" y1="540.48" x2="-792.82" y2="541.51" gradientTransform="matrix(6.72, 0, 0, -15.07, 5355.63, 8194.36)" gradientUnits="userSpaceOnUse"><stop offset="0" stop-color="#ffaa8b" stop-opacity="0.7"/><stop offset="0.1" stop-color="#ffaa8b" stop-opacity="0.58"/><stop offset="0.29" stop-color="#ffaa8b" stop-opacity="0.38"/><stop offset="0.47" stop-color="#ffaa8b" stop-opacity="0.21"/><stop offset="0.63" stop-color="#ffaa8b" stop-opacity="0.1"/><stop offset="0.77" stop-color="#ffaa8b" stop-opacity="0.03"/><stop offset="0.87" stop-color="#ffaa8b" stop-opacity="0"/></linearGradient><linearGradient id="linear-gradient-4" x1="-590.11" y1="480.4" x2="-591.11" y2="480.4" gradientTransform="matrix(5.37, 0, 0, -5.37, 4083.17, 2620.36)" gradientUnits="userSpaceOnUse"><stop offset="0" stop-color="#248157"/><stop offset="1" stop-color="#24816a" stop-opacity="0"/></linearGradient><linearGradient id="linear-gradient-5" x1="-316.32" y1="403.75" x2="-317.32" y2="403.75" gradientTransform="matrix(2.99, 0, 0, -2.96, 1867.38, 1236.43)" xlink:href="#linear-gradient-4"/><linearGradient id="linear-gradient-6" x1="-815.36" y1="419.6" x2="-814.29" y2="419.6" gradientTransform="matrix(7.99, 0, 0, -3.26, 6523.03, 1412.21)" xlink:href="#linear-gradient-3"/><linearGradient id="linear-gradient-7" x1="-1055.98" y1="480.4" x2="-1056.99" y2="480.4" gradientTransform="matrix(5.37, 0, 0, -5.37, 4105.48, 2620.36)" gradientUnits="userSpaceOnUse"><stop offset="0" stop-color="#312a07"/><stop offset="1" stop-color="#24816a" stop-opacity="0"/></linearGradient><linearGradient id="linear-gradient-8" x1="-1055.98" y1="480.4" x2="-1056.99" y2="480.4" gradientTransform="matrix(5.37, 0, 0, -5.37, 4082.69, 2620.36)" xlink:href="#linear-gradient-7"/><linearGradient id="linear-gradient-9" x1="-913.74" y1="403.33" x2="-914.75" y2="403.33" gradientTransform="matrix(2.95, 0, 0, -2.95, 1854.36, 1232.18)" xlink:href="#linear-gradient-7"/><linearGradient id="linear-gradient-10" x1="-913.74" y1="403.33" x2="-914.75" y2="403.33" gradientTransform="matrix(2.95, 0, 0, -2.95, 1831.58, 1232.18)" xlink:href="#linear-gradient-7"/><linearGradient id="linear-gradient-11" x1="-814.09" y1="420.16" x2="-815.16" y2="420.16" gradientTransform="matrix(7.98, 0, 0, -3.27, 6535.4, 1418.98)" xlink:href="#linear-gradient-3"/></defs><g id="Group_2983" data-name="Group 2983"><path id="Path_5462" data-name="Path 5462" class="cls-1" d="M53.22,47.43c-.62,1.92-5.1,6.36-6.76,3.26l1.07-10.22h0A5.11,5.11,0,0,1,51,39.93a1.81,1.81,0,0,1,.5.2C54.05,41.37,53.94,45.22,53.22,47.43Z"/><path id="Path_5463" data-name="Path 5463" class="cls-2" d="M53.22,47.43c-.62,1.92-5.1,6.36-6.76,3.26l1.07-10.22h0A5.11,5.11,0,0,1,51,39.93a1.81,1.81,0,0,1,.5.2C54.05,41.37,53.94,45.22,53.22,47.43Z"/><path id="Path_5464" data-name="Path 5464" class="cls-1" d="M5.67,32.85s1.7,17.19,2.22,21,4.43,15.37,19.79,15C38.75,68.28,45.79,65,47,49.29s1.22-20.18,1.22-20.18L44.62,18.39l-3.49-5-12.76-1.3-11.07.12L10,13,8.55,17.61Z"/><path id="Path_5465" data-name="Path 5465" class="cls-3" d="M51.05,39.91a5.17,5.17,0,0,0-3.49.55V33.35A9,9,0,0,0,46.41,29l-4.3-7.62a13.81,13.81,0,0,0,3-3.66,15.67,15.67,0,0,0,2-6.39,54.66,54.66,0,0,1,6.57,7.9C54,20.71,52.17,35.79,51.05,39.91Z"/><path id="Path_5466" data-name="Path 5466" class="cls-3" d="M47,11.37a15.38,15.38,0,0,1-2,6.39,13.57,13.57,0,0,1-3,3.65h0l-.2-.35h0L41.32,21l-4.66-.65-1-.14c-3.35-.46-7.9-1.07-13.29-1.75-.66.75-1.3,1.39-1.91,2h0c-.24.2-.44.4-.66.58-5.28,4.62-8.72,3.49-12.08,3.14-.3,3-1.22,14.87-1.22,16.23v-.1a4.66,4.66,0,0,0-4-.37c-.12.07-.24.14-.35.22C1.76,37.69-.16,24.28,0,23.45a24.16,24.16,0,0,1,4.34-8.54c-1.71.78-2.11.37-2.11.37s.88-.42,3.75-3.89a20.73,20.73,0,0,1,13-7.32,21.42,21.42,0,0,1,5.71.16A133.81,133.81,0,0,1,42.52,8.49,11.75,11.75,0,0,1,47,11.22l.06.14Z"/><path id="Path_5467" data-name="Path 5467" class="cls-3" d="M6.45,40.34v.13c-1.89-1.43-4.32,0-4.32,0a1.19,1.19,0,0,0-.06-.37,1.65,1.65,0,0,1,.36-.22,4.67,4.67,0,0,1,4,.36Z"/><path id="Path_5468" data-name="Path 5468" class="cls-3" d="M20.24,10.5s-4.57,6.1,1.88,11.63a12.41,12.41,0,0,0,6.21,2.22,20.65,20.65,0,0,0,8.53-.57c7.55-2.21,11.73-10.9,9.55-18.29A13.08,13.08,0,0,0,45,2.43a7.34,7.34,0,0,1-1.84,4c.4-1.22.56-4.88-.42-6.46A14.12,14.12,0,0,1,32,5.22c1.06-.71,1.38-2.84,1.33-4.11-.48,1.11-7,2.93-8.75,3.21Z"/><path id="Path_5469" data-name="Path 5469" class="cls-4" d="M47,11.37a15.38,15.38,0,0,1-2,6.39,13.72,13.72,0,0,1-3,3.65h0a11.67,11.67,0,0,1-1.75,1.22,14.48,14.48,0,0,1-6.45,2.05,21.07,21.07,0,0,1-3.37,0l-1.68-.2-1.63-.33a8.43,8.43,0,0,1,1.66.11H30.5A22.62,22.62,0,0,0,33.78,24a16,16,0,0,0,6.1-2.12,12.85,12.85,0,0,0,1.42-1,15,15,0,0,0,3.17-3.53A16.77,16.77,0,0,0,46,14.47a15.44,15.44,0,0,0,.65-1.76A13.86,13.86,0,0,0,47,11.37Z"/><path id="Path_5470" data-name="Path 5470" class="cls-4" d="M40.53,14.26A16.31,16.31,0,0,1,34.63,22a11.78,11.78,0,0,1-4.58,1.9,11.48,11.48,0,0,1-4.88-.21h1.22a6.22,6.22,0,0,0,1.22,0l1.22-.12L30,23.29a13.13,13.13,0,0,0,4.25-1.95,20,20,0,0,0,3.53-3.16,28.31,28.31,0,0,0,2.76-3.93Z"/><path id="Path_5471" data-name="Path 5471" class="cls-4" d="M16.35,13.61A9.93,9.93,0,0,0,17,17.82a5.48,5.48,0,0,0,1.12,1.73A13.22,13.22,0,0,0,19.78,21a4.93,4.93,0,0,1-2.09-1,5.13,5.13,0,0,1-.84-.84,6.59,6.59,0,0,1-.6-1,5.51,5.51,0,0,1-.44-2.3A5.24,5.24,0,0,1,16.35,13.61Z"/><path id="Path_5472" data-name="Path 5472" class="cls-4" d="M19.67,11.67a9.08,9.08,0,0,0-.78,4.45,7.34,7.34,0,0,0,.52,2.16,9.88,9.88,0,0,0,.47,1c.17.35.39.68.56,1.06a7,7,0,0,1-.89-.83,5.39,5.39,0,0,1-.72-1,5.65,5.65,0,0,1-.76-2.37,5.59,5.59,0,0,1,.3-2.43,5.21,5.21,0,0,1,1.29-2.09Z"/><path id="Path_5473" data-name="Path 5473" class="cls-1" d="M6.44,40.24a4.72,4.72,0,0,0-4-.36C0,41.09,0,45,.76,47.19c.61,1.93,5.1,6.36,6.75,3.26"/><path id="Path_5474" data-name="Path 5474" class="cls-5" d="M7.51,50.46c-1.66,3.1-6.1-1.33-6.76-3.25-.7-2.15-.81-5.7,1.3-7.11a1.93,1.93,0,0,1,.36-.22,4.66,4.66,0,0,1,4,.36v.1Z"/><path id="Path_5475" data-name="Path 5475" class="cls-3" d="M21,34.34s.12-2.73-1.22-2.87-9.83-1.68-10,5.22C11.45,35.06,14.12,33.36,21,34.34Z"/><path id="Path_5476" data-name="Path 5476" class="cls-3" d="M32.85,34.34s-.13-2.73,1.22-2.87,9.83-1.68,10,5.22C42.35,35.06,39.68,33.36,32.85,34.34Z"/><path id="Path_5477" data-name="Path 5477" class="cls-6" d="M28.39,36.08H26.14c.38,7.32-2.73,11.5-1.93,13.13a3.66,3.66,0,0,0,6.46,0C31.45,47.58,28.39,45.45,28.39,36.08Z"/><path id="Path_5478" data-name="Path 5478" class="cls-7" d="M19.9,42.49c-1.33-3-5.93-5.56-8.69-.89a1.12,1.12,0,0,0,0,1.22c.79,1.21,3.1,3.73,8.07,1.3a1.22,1.22,0,0,0,.63-1.61v0Z"/><path id="Path_5479" data-name="Path 5479" class="cls-8" d="M18.38,41.75a2.68,2.68,0,1,1-2.1-2.1A2.7,2.7,0,0,1,18.38,41.75Z"/><path id="Path_5480" data-name="Path 5480" class="cls-9" d="M17.22,42.05A1.5,1.5,0,0,1,16,43.75a1.85,1.85,0,0,1-.47,0,1.48,1.48,0,1,1,.43-2.93H16A1.52,1.52,0,0,1,17.22,42.05Z"/><path id="Path_5481" data-name="Path 5481" class="cls-7" d="M16.74,42.3a.5.5,0,1,0,1,.16.5.5,0,0,0-.42-.57h-.08A.5.5,0,0,0,16.74,42.3Z"/><path id="Path_5482" data-name="Path 5482" class="cls-7" d="M14.3,41.1A1,1,0,0,0,15,42.32a1.06,1.06,0,0,0,.5,0,1,1,0,0,0,.72-.72,1,1,0,1,0-1.92-.52v0Z"/><path id="Path_5483" data-name="Path 5483" class="cls-10" d="M11.14,42.63a4.68,4.68,0,0,0,3.5,2.44,11.56,11.56,0,0,0,4.49-.53A6.64,6.64,0,0,1,17,45.62a5.77,5.77,0,0,1-2.44.23,4.37,4.37,0,0,1-2.27-1.08,3.48,3.48,0,0,1-1.14-2.14Z"/><path id="Path_5484" data-name="Path 5484" class="cls-3" d="M19.82,43.61a1.49,1.49,0,0,0-.32-1.51,9.49,9.49,0,0,0-1.05-1.22,4.76,4.76,0,0,0-2.74-1.37,4,4,0,0,0-3,.56,5.51,5.51,0,0,0-1.22,1.09,2.56,2.56,0,0,0-.44.68,1.63,1.63,0,0,0,0,.82,1.43,1.43,0,0,1-.14-.84,3.41,3.41,0,0,1,.32-.82,4.39,4.39,0,0,1,1.07-1.39,4.24,4.24,0,0,1,3.43-.88,4.75,4.75,0,0,1,3.06,1.75,6.06,6.06,0,0,1,.87,1.5A1.57,1.57,0,0,1,19.82,43.61Z"/><path id="Path_5485" data-name="Path 5485" class="cls-7" d="M33.9,42.49c1.34-3,5.93-5.56,8.69-.89a1.12,1.12,0,0,1,0,1.22c-.79,1.21-3.1,3.73-8.07,1.3a1.22,1.22,0,0,1-.63-1.61v0Z"/><path id="Path_5486" data-name="Path 5486" class="cls-11" d="M35.42,41.75a2.68,2.68,0,1,0,3.17-2.09,2.91,2.91,0,0,0-1.06,0A2.7,2.7,0,0,0,35.42,41.75Z"/><path id="Path_6041" data-name="Path 6041" class="cls-12" d="M12.64,41.75a2.68,2.68,0,1,0,3.16-2.09,2.85,2.85,0,0,0-1.05,0A2.7,2.7,0,0,0,12.64,41.75Z"/><path id="Path_5487" data-name="Path 5487" class="cls-13" d="M36.59,42.05a1.48,1.48,0,1,0,1.69-1.23,1.85,1.85,0,0,0-.47,0A1.49,1.49,0,0,0,36.59,42Z"/><path id="Path_6038" data-name="Path 6038" class="cls-14" d="M13.81,42.05a1.48,1.48,0,1,0,1.69-1.23,1.85,1.85,0,0,0-.47,0A1.49,1.49,0,0,0,13.81,42Z"/><path id="Path_5488" data-name="Path 5488" class="cls-7" d="M37.1,42.3a.52.52,0,0,1-.42.58.51.51,0,0,1-.57-.42.49.49,0,0,1,.41-.57h.08A.51.51,0,0,1,37.1,42.3Z"/><path id="Path_6040" data-name="Path 6040" class="cls-7" d="M14.31,42.3a.5.5,0,1,1-1,.16.49.49,0,0,1,.41-.57h.08A.5.5,0,0,1,14.31,42.3Z"/><path id="Path_5489" data-name="Path 5489" class="cls-7" d="M39.51,41.1a1,1,0,0,1-1.92.48,1,1,0,0,1,.72-1.2,1,1,0,0,1,.48,0A1,1,0,0,1,39.51,41.1Z"/><path id="Path_6039" data-name="Path 6039" class="cls-7" d="M16.73,41.1a1,1,0,0,1-1.92.48,1,1,0,0,1,.72-1.2,1,1,0,0,1,1.2.72Z"/><path id="Path_5490" data-name="Path 5490" class="cls-15" d="M42.67,42.63a3.5,3.5,0,0,1-1.12,2.15,4.3,4.3,0,0,1-2.27,1.08,5.77,5.77,0,0,1-2.44-.23,6.64,6.64,0,0,1-2.14-1.08,11.56,11.56,0,0,0,4.49.53A4.68,4.68,0,0,0,42.67,42.63Z"/><path id="Path_5491" data-name="Path 5491" class="cls-3" d="M34,43.61A1.6,1.6,0,0,1,34.05,42a6.6,6.6,0,0,1,.87-1.5A4.74,4.74,0,0,1,38,38.71a4.18,4.18,0,0,1,3.42.87A4.7,4.7,0,0,1,42.49,41a4.07,4.07,0,0,1,.31.82,1.35,1.35,0,0,1-.13.84,1.59,1.59,0,0,0,0-.81,2.26,2.26,0,0,0-.44-.69A5.23,5.23,0,0,0,41,40.05a3.89,3.89,0,0,0-2.95-.56,4.63,4.63,0,0,0-2.74,1.36,8.21,8.21,0,0,0-1.06,1.22A1.47,1.47,0,0,0,34,43.61Z"/><path id="Path_5492" data-name="Path 5492" class="cls-16" d="M29.7,59.28h0A3.23,3.23,0,0,1,26.62,62a2,2,0,0,1-1.74-1.22,3.7,3.7,0,0,1-.4-1.73c0-1.63,1-3,2.2-2.94a3.55,3.55,0,0,1,3,3.16Z"/><path id="Path_5493" data-name="Path 5493" class="cls-17" d="M29.13,62.39a3.26,3.26,0,0,1-3.27,1.07c-1.91-.58-.31.71,1.14.83A3.1,3.1,0,0,0,29.85,62C30,61.18,29.61,61.93,29.13,62.39Z"/><path id="Path_5494" data-name="Path 5494" class="cls-18" d="M29.71,59.32a3.27,3.27,0,0,1-3.09,2.74,2.05,2.05,0,0,1-1.74-1.22,4.34,4.34,0,0,1,3.46-1.7,4,4,0,0,1,1.37.18Z"/></g></svg>