<svg id="Layer_1" data-name="Layer 1" xmlns="http://www.w3.org/2000/svg" xmlns:xlink="http://www.w3.org/1999/xlink" viewBox="0 0 64.62 240.04"><defs><style>.cls-1{fill:#fcc5a7;}.cls-2{fill:#bac2ce;}.cls-3{fill:#10171c;}.cls-4,.cls-9{fill:none;}.cls-4{stroke:#bac2ce;stroke-linecap:round;stroke-linejoin:round;stroke-width:1.39px;}.cls-5{fill:#464646;}.cls-6{fill:#fcd2a4;}.cls-7{fill:#efc99a;}.cls-8{fill:#7a3d14;}.cls-9{stroke:#efc99a;stroke-miterlimit:10;stroke-width:2px;}.cls-10{fill:#5b2b0a;}.cls-11,.cls-15{fill:#ffb495;}.cls-12{fill:#fc9e81;}.cls-13{fill:#f5c4b3;}.cls-14{fill:#dcf5f9;}.cls-15{opacity:0.3;}.cls-15,.cls-17{isolation:isolate;}.cls-16{fill:#183145;}.cls-17{opacity:0.5;}.cls-18{fill:url(#linear-gradient);}.cls-19{fill:#140f0b;}.cls-20{fill:#3f0f1b;}.cls-21{fill:#33271f;}.cls-22{fill:url(#linear-gradient-2);}.cls-23{fill:url(#linear-gradient-3);}.cls-24{fill:#fff;}.cls-25{fill:url(#linear-gradient-4);}.cls-26{fill:url(#linear-gradient-5);}.cls-27{fill:url(#linear-gradient-6);}.cls-28{fill:#9b1f1f;}.cls-29{fill:#d64747;}.cls-30{fill:#fefefe;}.cls-31{fill:url(#linear-gradient-7);}.cls-32{fill:url(#linear-gradient-8);}</style><linearGradient id="linear-gradient" x1="-727.38" y1="606.04" x2="-726.38" y2="606.04" gradientTransform="matrix(4.64, 0, 0, -7.69, 3422.65, 4692.25)" gradientUnits="userSpaceOnUse"><stop offset="0" stop-color="#ffaa8b"/><stop offset="1" stop-color="#ffaa8b" stop-opacity="0"/></linearGradient><linearGradient id="linear-gradient-2" x1="-727.6" y1="606.13" x2="-726.6" y2="606.13" gradientTransform="matrix(4.65, 0, 0, -7.71, 3397.64, 4700.48)" gradientUnits="userSpaceOnUse"><stop offset="0" stop-color="#ffaa8b" stop-opacity="0"/><stop offset="1" stop-color="#ffaa8b"/></linearGradient><linearGradient id="linear-gradient-3" x1="-712.44" y1="616.84" x2="-712.44" y2="617.87" gradientTransform="matrix(4.33, 0, 0, -9.71, 3117.36, 6020.79)" gradientUnits="userSpaceOnUse"><stop offset="0" stop-color="#ffaa8b" stop-opacity="0.7"/><stop offset="0.1" stop-color="#ffaa8b" stop-opacity="0.58"/><stop offset="0.29" stop-color="#ffaa8b" stop-opacity="0.38"/><stop offset="0.47" stop-color="#ffaa8b" stop-opacity="0.21"/><stop offset="0.63" stop-color="#ffaa8b" stop-opacity="0.1"/><stop offset="0.77" stop-color="#ffaa8b" stop-opacity="0.03"/><stop offset="0.87" stop-color="#ffaa8b" stop-opacity="0"/></linearGradient><linearGradient id="linear-gradient-4" x1="-490.9" y1="539.41" x2="-491.89" y2="539.41" gradientTransform="matrix(3.46, 0, 0, -3.46, 2304.41, 1893.85)" gradientUnits="userSpaceOnUse"><stop offset="0" stop-color="#248157"/><stop offset="1" stop-color="#24816a" stop-opacity="0"/></linearGradient><linearGradient id="linear-gradient-5" x1="-134.61" y1="440.22" x2="-135.62" y2="440.22" gradientTransform="matrix(1.9, 0, 0, -1.9, 860.55, 864.67)" xlink:href="#linear-gradient-4"/><linearGradient id="linear-gradient-6" x1="-748.16" y1="463.9" x2="-747.1" y2="463.9" gradientTransform="matrix(5.18, 0, 0, -2.13, 3898.83, 1017.22)" xlink:href="#linear-gradient-3"/><linearGradient id="linear-gradient-7" x1="-787.43" y1="539.41" x2="-788.43" y2="539.41" gradientTransform="matrix(3.46, 0, 0, -3.46, 2304.25, 1893.84)" gradientUnits="userSpaceOnUse"><stop offset="0" stop-color="#312a01"/><stop offset="1" stop-color="#24816a" stop-opacity="0"/></linearGradient><linearGradient id="linear-gradient-8" x1="-674.06" y1="440.45" x2="-675.07" y2="440.45" gradientTransform="matrix(1.9, 0, 0, -1.9, 861.76, 865.99)" xlink:href="#linear-gradient-7"/></defs><g id="Group_2933" data-name="Group 2933"><path id="Path_5948" data-name="Path 5948" class="cls-1" d="M15.83,219.1s.79,8.37.38,9.59c-.15.41-4.81,2.8-4.81,2.8v4.82l9.1-1.7,2.87-1.23.18-1.29a16.36,16.36,0,0,1-.5-3.62c.11-1.08.71-9.37.71-9.37"/><path id="Path_5949" data-name="Path 5949" class="cls-2" d="M23.16,231.4c.79.12.47,1.51.79,3.72a14.84,14.84,0,0,1-.12,3.88c-1.49,1.33-5.46.53-6.1.51-3.81-.14-8.07,1-12.65.34-.9-.12-2.65-.22-3.06-1.91,0-.45,0-.91,0-1.36,0,0,8.8-3.86,11.48-5.34.54-.3,1-1.05,1.42-1.05s.79,1.1,1.14,1.33c1.65,1.17,4.28,1.09,5.87.74C22.62,232.11,22.93,231.36,23.16,231.4Z"/><path id="Path_5950" data-name="Path 5950" class="cls-3" d="M23.16,230.32c.79.13.47,1.51.79,3.72a14.9,14.9,0,0,1,.05,3.89c-1.49,1.33-5.63.53-6.29.51-3.81-.14-8.18.72-12.65.33a3.18,3.18,0,0,1-3-2.19c-.36-1.45,8.32-4.67,11.47-6.42.54-.3,1-1,1.42-1s.79,1.1,1.14,1.33c1.66,1.16,4.28,1.09,5.87.73C22.62,231,22.93,230.28,23.16,230.32Z"/><path id="Path_5951" data-name="Path 5951" class="cls-4" d="M9.1,232.11a2.61,2.61,0,0,1,1.08.78A8.83,8.83,0,0,1,11,234"/><path id="Path_5952" data-name="Path 5952" class="cls-4" d="M11.08,231a3,3,0,0,1,2,2.41"/><path id="Path_5953" data-name="Path 5953" class="cls-4" d="M12.87,230.26a2.52,2.52,0,0,1,1.27,1,4,4,0,0,1,.58,1.57"/><path id="Path_5954" data-name="Path 5954" class="cls-4" d="M14.93,229.12a8.46,8.46,0,0,0,1.13,1.33c1.66,1.16,4.29,1.09,5.87.73.7-.14,1-.9,1.23-.86"/><path id="Path_5955" data-name="Path 5955" class="cls-1" d="M49.15,219.1s-.82,8.37-.38,9.59c.15.41,4.81,2.8,4.81,2.8v4.82l-9.1-1.7-2.86-1.23-.12-1.27a16.44,16.44,0,0,0,.5-3.62c-.1-1.09-.71-9.38-.71-9.38"/><path id="Path_5956" data-name="Path 5956" class="cls-2" d="M41.82,231.4c-.79.12-.47,1.51-.79,3.72a14.84,14.84,0,0,0,.12,3.88c1.49,1.33,5.5.53,6.1.51,3.81-.14,8.07,1,12.65.34.89-.12,2.65-.22,3.06-1.91,0-.45,0-.91,0-1.36,0,0-8.8-3.86-11.48-5.34-.54-.3-1-1.05-1.41-1.05s-.79,1.1-1.15,1.33c-1.65,1.17-4.28,1.09-5.87.74C42.35,232.11,42.05,231.36,41.82,231.4Z"/><path id="Path_5957" data-name="Path 5957" class="cls-3" d="M41.82,230.32c-.79.13-.47,1.51-.79,3.72a15.34,15.34,0,0,0-.05,3.89c1.5,1.33,5.64.53,6.29.51,3.81-.14,8.18.72,12.65.33A3.21,3.21,0,0,0,63,236.58c.35-1.45-8.32-4.67-11.48-6.42-.54-.3-1-1-1.41-1s-.79,1.1-1.14,1.33c-1.66,1.16-4.29,1.09-5.88.73C42.35,231,42.05,230.28,41.82,230.32Z"/><path id="Path_5958" data-name="Path 5958" class="cls-4" d="M55.88,232.11a2.61,2.61,0,0,0-1.08.78,7.66,7.66,0,0,0-.74,1.14"/><path id="Path_5959" data-name="Path 5959" class="cls-4" d="M53.9,231c-.79.05-1.89,1.37-2,2.41"/><path id="Path_5960" data-name="Path 5960" class="cls-4" d="M52.12,230.26a2.5,2.5,0,0,0-1.28,1,4.38,4.38,0,0,0-.58,1.57"/><path id="Path_5961" data-name="Path 5961" class="cls-4" d="M50.06,229.12a9.09,9.09,0,0,1-1.14,1.33c-1.66,1.16-4.28,1.09-5.87.73-.7-.14-1-.9-1.23-.86"/><path id="Path_5962" data-name="Path 5962" class="cls-5" d="M52.93,129.77c0-8.22-2.1-19.56-2.1-19.56s-33.89-9.38-36.18-.63c-2.06,7.77-2.07,14.43-2.36,20.26-.08,1.9,3,97,3,97h8s1.57-12.58,3.14-28.72v-.33c0-.29.05-.57.09-.85s.05-.51.07-.78c.7-8.07.87-18.41.87-18.41C29,167.57,31.81,145,32.67,135.65c0,0,3.15,31.92,4.76,42.09,0,0,.17,10.34.87,18.41,0,.26.06.52.07.78s.06.57.09.85v.33c1.57,16.17,2.91,28.72,2.91,28.72h7.38S52.93,138.81,52.93,129.77Z"/><rect id="Rectangle_820" data-name="Rectangle 820" class="cls-6" x="14.68" y="224.56" width="9.34" height="2.58" rx="0.91"/><rect id="Rectangle_821" data-name="Rectangle 821" class="cls-6" x="40.31" y="224.56" width="9.34" height="2.58" rx="0.91"/><g id="Group_2896" data-name="Group 2896"><path id="Path_5872" data-name="Path 5872" class="cls-7" d="M21.5,110.37a11.53,11.53,0,0,1-3,5.81,11.93,11.93,0,0,1-1.22,1.14,10.16,10.16,0,0,1-1.38.94,9.9,9.9,0,0,1-3.06,1.17,20.61,20.61,0,0,0,2.73-1.68,15.21,15.21,0,0,0,2.36-2.1,17.53,17.53,0,0,0,2-2.49,24.62,24.62,0,0,0,1.57-2.79Z"/></g><g id="Group_2897" data-name="Group 2897"><path id="Path_5873" data-name="Path 5873" class="cls-7" d="M43.56,110.2A24.69,24.69,0,0,0,45.14,113a19.51,19.51,0,0,0,2,2.49,15.21,15.21,0,0,0,2.36,2.1,22.47,22.47,0,0,0,2.73,1.68,10.21,10.21,0,0,1-3.07-1.17,10.71,10.71,0,0,1-1.37-.94A14.68,14.68,0,0,1,46.53,116,11.61,11.61,0,0,1,43.56,110.2Z"/></g><g id="Group_2898" data-name="Group 2898"><path id="Path_5874" data-name="Path 5874" class="cls-7" d="M30.25,122.38c.17,1.14.3,2.27.39,3.41s.17,2.26.29,3.38a7.6,7.6,0,0,0,.28,1.57c.13.55.31,1.08.48,1.62.34,1.07.68,2.16,1,3.27a23.29,23.29,0,0,1-1.58-3.06c-.23-.52-.43-1.06-.62-1.62a8.41,8.41,0,0,1-.34-1.73,34.74,34.74,0,0,1,.1-6.84Z"/></g><path id="Path_5963" data-name="Path 5963" class="cls-8" d="M14,112.38s12.23,1.76,37.25,0a2.47,2.47,0,0,0-.37-2.17c-.79-1-32.51-.92-32.64-.92l-3.8-.26S13.39,111.47,14,112.38Z"/><path id="Path_5964" data-name="Path 5964" class="cls-9" d="M19,109.28a14.38,14.38,0,0,0-.24,4.24"/><path id="Path_5965" data-name="Path 5965" class="cls-9" d="M43.75,109.28a14.73,14.73,0,0,1,.25,4.24"/><rect id="Rectangle_822" data-name="Rectangle 822" class="cls-10" x="28.5" y="109.53" width="7.77" height="4.28" rx="1.2"/><path id="Path_5966" data-name="Path 5966" class="cls-11" d="M39.62,48.17c-.18-.5-.55-2.14-.44-6.9H25.62c.11,4.72-.26,6.4-.44,6.9l-6.43,2.25L32.4,55.84l13.65-5.42Z"/><path id="Path_5967" data-name="Path 5967" class="cls-12" d="M59.47,134a11.88,11.88,0,0,1,.79,2.52,10.52,10.52,0,0,1-.42,2.95c-.26.5-1.82,2.36-2,2.69s-.27,1.11,0,1.2,2.8-2.21,2.8-2.21l1.85-3.94s-.25-2.43-.31-2.59-1.3-2.09-1.3-2.09"/><path id="Path_5968" data-name="Path 5968" class="cls-13" d="M63.18,131c.6,2.61,1.19,6.16,1,7.23a33.85,33.85,0,0,1-1.9,4.63,32.83,32.83,0,0,1-3.55,2.66c-.41.06-.54-1,0-1.63a31.66,31.66,0,0,0,2.16-2.46,25.1,25.1,0,0,0,.4-3.68c0-.5-1.2-2.4-1.94-2.36s-1.16,1.39-1.16,1.93a6.07,6.07,0,0,1-.44,2.19c-.26.41-.95.59-1.22.26a17.45,17.45,0,0,1-.47-3.88c0-.59,1.53-4.31,1.67-5.14s-.87-7.75-.87-7.75l5.93-.63S62.59,128.37,63.18,131Z"/><path id="Path_5969" data-name="Path 5969" class="cls-13" d="M53.19,57.93s3.62-4.07,4.82,1.58c1.12,5.24,4.09,23.91,5.84,34.74A25.74,25.74,0,0,1,64.2,99c-.07,5.4-.37,18.82-1.66,29.88a17.7,17.7,0,0,1-4.93,0s-2.68-22.62-2.68-31.36c0,0-6.42-21.23-6.42-32.24A7.73,7.73,0,0,1,53.19,57.93Z"/><path id="Path_5970" data-name="Path 5970" class="cls-14" d="M42.28,49.09v.17A.49.49,0,0,0,42.28,49.09Z"/><path id="Path_5971" data-name="Path 5971" class="cls-15" d="M25.64,42.74s2.78,3.15,6.62,3.15a12.69,12.69,0,0,0,7.13-2.77l-7.32-.42Z"/><path id="Path_6006" data-name="Path 6006" class="cls-12" d="M4.75,134A12.49,12.49,0,0,0,4,136.47a10.88,10.88,0,0,0,.41,2.95c.27.5,1.84,2.36,2,2.69s.27,1.11,0,1.2-2.8-2.21-2.8-2.21l-1.85-3.94s.25-2.43.31-2.59,1.29-2.09,1.29-2.09"/><path id="Path_6007" data-name="Path 6007" class="cls-13" d="M1,131c-.59,2.61-1.18,6.16-1,7.23a35.17,35.17,0,0,0,1.9,4.63,30.8,30.8,0,0,0,3.56,2.66c.42.06.54-1,0-1.63a31.66,31.66,0,0,1-2.16-2.46,25.48,25.48,0,0,1-.37-3.7c0-.5,1.2-2.4,1.94-2.36s1.16,1.39,1.16,1.93a5.86,5.86,0,0,0,.44,2.19c.27.41,1,.59,1.22.26a17.43,17.43,0,0,0,.47-3.87c0-.59-1.53-4.31-1.68-5.15s.88-7.75.88-7.75l-5.93-.63S1.63,128.37,1,131Z"/><path id="Path_6008" data-name="Path 6008" class="cls-13" d="M11,57.93s-3.61-4.07-4.82,1.58C5.1,64.75,2.13,83.42.37,94.25A27.63,27.63,0,0,0,0,99c.07,5.4.37,18.82,1.67,29.88a17.63,17.63,0,0,0,4.92,0S9.3,106.23,9.3,97.49c0,0,6.42-21.23,6.42-32.24A7.73,7.73,0,0,0,11,57.93Z"/><path id="Path_6009" data-name="Path 6009" class="cls-3" d="M64,84.07c-4.72,1.88-7.56,3.26-11.49,3,0,3.15,0,12.22,1.21,16.11,1.44,4.72,1.93,7.86-3.88,7.28s-31.64,0-33.35,0a6.25,6.25,0,0,1-1.72-.18,4.28,4.28,0,0,1-2.13-1.22c-1.26-1.34-1.57-3.55-.78-6.16,1.18-3.89,1.22-13,1.2-16.11-3.72.24-6.45-1-10.72-2.69l-.79-.32a.9.9,0,0,1-.54-1c2.47-12.5,2.71-22.32,7.2-27.46a12.35,12.35,0,0,1,4-2.63A41.77,41.77,0,0,1,16.84,51l6.69-2.23s-.19,3.61,9.28,3.68h.24a19.69,19.69,0,0,0,6.9-.94c2.2-1.07,2.13-2.45,2.13-2.45l2.75.91,2.26.78,1.69.56c2.52.79,6.87,2.36,8.65,4.34,4.46,5.13,4.72,14.95,7.18,27.41A1,1,0,0,1,64,84.07Z"/><path id="Path_6010" data-name="Path 6010" class="cls-3" d="M23.41,49.09v.17A.49.49,0,0,1,23.41,49.09Z"/><path id="Path_6011" data-name="Path 6011" class="cls-16" d="M24.38,71.94H17.3a.85.85,0,0,1-.84-.84h0a.85.85,0,0,1,.84-.84h7.08a.85.85,0,0,1,.84.84h0A.84.84,0,0,1,24.38,71.94Z"/><path id="Path_6012" data-name="Path 6012" class="cls-17" d="M13.33,75.59,13.1,86.81c-3.71.25-6.45-1-10.72-2.69,2.64.79,7.73,1.58,8.5,1.2C11.86,84.81,13.33,75.59,13.33,75.59Z"/><path id="Path_6013" data-name="Path 6013" class="cls-17" d="M52.33,75.86l.22,11.22c3.72.25,6.45-1,10.72-2.69-2.63.75-7.73,1.57-8.5,1.2C53.8,85.1,52.33,75.86,52.33,75.86Z"/><g id="Group_2935" data-name="Group 2935"><path id="Path_5323" data-name="Path 5323" class="cls-13" d="M49.27,30.65c-.4,1.24-3.29,4.1-4.36,2.11l.69-6.59h0a3.27,3.27,0,0,1,2.25-.35,1.75,1.75,0,0,1,.32.12C49.8,26.72,49.73,29.18,49.27,30.65Z"/><path id="Path_5324" data-name="Path 5324" class="cls-18" d="M49.27,30.65c-.4,1.24-3.29,4.1-4.36,2.11l.69-6.59h0a3.27,3.27,0,0,1,2.25-.35,1.75,1.75,0,0,1,.32.12C49.8,26.72,49.73,29.18,49.27,30.65Z"/><path id="Path_5325" data-name="Path 5325" class="cls-13" d="M18.61,21.22S19.7,32.3,20,34.74s2.85,9.91,12.78,9.66C40,44.07,44.5,42,45.26,31.82s.78-13,.78-13l-2.26-6.89-2.3-3.2-8.26-.86-7.14.08-4.71.5-.93,3Z"/><path id="Path_5326" data-name="Path 5326" class="cls-19" d="M47.87,25.78a3.32,3.32,0,0,0-2.25.35V21.55a5.86,5.86,0,0,0-.74-2.81L42.1,13.83A8.7,8.7,0,0,0,44,11.47,9.89,9.89,0,0,0,45.3,7.35a34.94,34.94,0,0,1,4.24,5.08C49.78,13.39,48.59,23.12,47.87,25.78Z"/><path id="Path_5327" data-name="Path 5327" class="cls-19" d="M45.27,7.37A9.84,9.84,0,0,1,44,11.49a8.7,8.7,0,0,1-1.91,2.36h0l-.13-.23h0l-.34,0-3-.42L38,13.06c-2.17-.29-5.1-.68-8.58-1.12-.42.47-.84.9-1.23,1.26h0c-.15.14-.28.27-.43.39-3.4,3-5.62,2.25-7.78,2-.2,1.92-.79,9.6-.79,10.47V26a3,3,0,0,0-2.6-.23l-.22.13c-.23-1.57-1.48-10.22-1.36-10.75a15.5,15.5,0,0,1,2.8-5.5c-1.1.5-1.36.24-1.36.24a11.52,11.52,0,0,0,2.42-2.51,13.34,13.34,0,0,1,8.35-4.72,13.76,13.76,0,0,1,3.68.1A85.75,85.75,0,0,1,42.37,5.51a7.6,7.6,0,0,1,2.86,1.77.15.15,0,0,1,0,.09Z"/><path id="Path_5328" data-name="Path 5328" class="cls-20" d="M19.11,26.05v.08a2.74,2.74,0,0,0-2.79,0,1.13,1.13,0,0,0,0-.25l.22-.13a3,3,0,0,1,2.6.24Z"/><path id="Path_5329" data-name="Path 5329" class="cls-19" d="M28,6.81a5.42,5.42,0,0,0,1.21,7.5,8.13,8.13,0,0,0,4,1.4,13.26,13.26,0,0,0,5.5-.37c4.87-1.42,7.57-7,6.16-11.8a8.5,8.5,0,0,0-.9-2,4.68,4.68,0,0,1-1.19,2.61A6.84,6.84,0,0,0,42.52,0a9.09,9.09,0,0,1-6.93,3.37c.68-.46.89-1.83.86-2.65-.31.72-4.53,1.89-5.64,2.07Z"/><path id="Path_5330" data-name="Path 5330" class="cls-21" d="M45.27,7.37A9.84,9.84,0,0,1,44,11.49a8.7,8.7,0,0,1-1.91,2.36h0a8.63,8.63,0,0,1-1.12.78A9.31,9.31,0,0,1,36.76,16a13.22,13.22,0,0,1-2.18,0l-1.08-.13-1-.21a5.55,5.55,0,0,1,1.07.07h1.07a15,15,0,0,0,2.11-.16,10.19,10.19,0,0,0,3.93-1.37,8.31,8.31,0,0,0,.92-.63,9.89,9.89,0,0,0,2.05-2.28,10.56,10.56,0,0,0,1-1.83A9.63,9.63,0,0,0,45,8.29C45.13,8,45.2,7.67,45.27,7.37Z"/><path id="Path_5331" data-name="Path 5331" class="cls-21" d="M41.09,9.23a10.45,10.45,0,0,1-3.81,5,7.38,7.38,0,0,1-3,1.23,7.24,7.24,0,0,1-3.14-.13H32a3.39,3.39,0,0,0,.78,0l.79-.08.75-.17A8.43,8.43,0,0,0,37,13.8a12.59,12.59,0,0,0,2.27-2,17.8,17.8,0,0,0,1.79-2.53Z"/><path id="Path_5332" data-name="Path 5332" class="cls-21" d="M25.5,8.81a6.3,6.3,0,0,0,.42,2.72,3.7,3.7,0,0,0,.72,1.12,7.79,7.79,0,0,0,1.07.91,2.93,2.93,0,0,1-1.35-.62,3,3,0,0,1-.54-.53,4,4,0,0,1-.39-.67,3.42,3.42,0,0,1-.28-1.48,3.25,3.25,0,0,1,.35-1.44Z"/><path id="Path_5333" data-name="Path 5333" class="cls-21" d="M27.63,7.56a6,6,0,0,0-.5,2.87,5.21,5.21,0,0,0,.34,1.4c.09.23.19.45.3.67s.25.44.36.68a4.77,4.77,0,0,1-.57-.53,4.21,4.21,0,0,1-.47-.64,3.76,3.76,0,0,1-.48-1.53,3.64,3.64,0,0,1,.2-1.57,3.32,3.32,0,0,1,.83-1.35Z"/><path id="Path_5334" data-name="Path 5334" class="cls-13" d="M19.1,26a3,3,0,0,0-2.6-.24c-1.57.79-1.53,3.28-1.07,4.72.39,1.25,3.29,4.1,4.36,2.11"/><path id="Path_5335" data-name="Path 5335" class="cls-22" d="M19.79,32.58c-1.07,2-3.93-.86-4.35-2.1-.45-1.39-.53-3.67.84-4.59l.22-.14a3,3,0,0,1,2.6.24v.06Z"/><path id="Path_5336" data-name="Path 5336" class="cls-19" d="M28.29,23.07s.52-1.69-.32-2-5.88-2.62-7.07,1.67C22.24,22,24.17,21.37,28.29,23.07Z"/><path id="Path_5337" data-name="Path 5337" class="cls-19" d="M36.28,23s-.48-1.7.36-2,5.93-2.49,7.07,1.81C42.35,22.07,40.44,21.39,36.28,23Z"/><path id="Path_5338" data-name="Path 5338" class="cls-23" d="M32.71,23.07H31.25c.25,4.72-1.75,7.42-1.24,8.46a2.36,2.36,0,0,0,3.19,1,2.38,2.38,0,0,0,1-1C34.69,30.49,32.71,29.08,32.71,23.07Z"/><path id="Path_5339" data-name="Path 5339" class="cls-24" d="M27.78,27.43c-.85-1.92-3.82-3.58-5.6-.56a.73.73,0,0,0,0,.78c.51.79,2,2.41,5.2.84a.79.79,0,0,0,.42-1l0,0Z"/><path id="Path_5340" data-name="Path 5340" class="cls-25" d="M26.8,27a1.73,1.73,0,1,1-2-1.37,1.94,1.94,0,0,1,.68,0A1.74,1.74,0,0,1,26.8,27Z"/><path id="Path_5341" data-name="Path 5341" class="cls-26" d="M26.05,27.15A1,1,0,1,1,25,26.37a.81.81,0,0,1,.31,0A.93.93,0,0,1,26.05,27.15Z"/><path id="Path_5342" data-name="Path 5342" class="cls-24" d="M25.75,27.32a.33.33,0,0,0,.37.27.32.32,0,0,0,.26-.37A.32.32,0,0,0,26,27a.33.33,0,0,0-.26.37Z"/><path id="Path_5343" data-name="Path 5343" class="cls-24" d="M24.17,26.54a.65.65,0,0,0,.44.79.69.69,0,0,0,.35,0,.62.62,0,0,0,.46-.46.64.64,0,1,0-1.24-.31Z"/><path id="Path_5344" data-name="Path 5344" class="cls-27" d="M22.14,27.51a3,3,0,0,0,2.25,1.57,7.46,7.46,0,0,0,2.93-.32,4.14,4.14,0,0,1-1.39.7,3.47,3.47,0,0,1-1.57.15,2.67,2.67,0,0,1-1.46-.7A2.2,2.2,0,0,1,22.14,27.51Z"/><path id="Path_5345" data-name="Path 5345" class="cls-19" d="M27.73,28.16a1,1,0,0,0-.2-1,7.17,7.17,0,0,0-.68-.78,3.21,3.21,0,0,0-1.77-.88,2.53,2.53,0,0,0-1.91.36,3.51,3.51,0,0,0-.78.71,1.6,1.6,0,0,0-.29.44.92.92,0,0,0,0,.52A.9.9,0,0,1,22,27a2.14,2.14,0,0,1,.2-.53,3,3,0,0,1,.69-.9A2.71,2.71,0,0,1,25.11,25a3,3,0,0,1,2,1.12,3.8,3.8,0,0,1,.57,1,1,1,0,0,1,.08,1.05Z"/><path id="Path_5346" data-name="Path 5346" class="cls-19" d="M42.1,26.32A4.42,4.42,0,0,0,38.65,26c-.79.26-1.92.94-2.06,1.85a.22.22,0,0,0,.17.26.2.2,0,0,0,.15,0c.79-.45,1.12-1.2,2-1.48a7.61,7.61,0,0,1,3.08,0,.15.15,0,0,0,.15-.15.15.15,0,0,0-.07-.13Z"/><path id="Path_5347" data-name="Path 5347" class="cls-19" d="M41.67,27.65a4.57,4.57,0,0,0-3.1-.65,2.57,2.57,0,0,0-1.92.79.19.19,0,0,0,.2.26c1.57-.5,3-1,4.63-.13a.17.17,0,0,0,.23-.1.16.16,0,0,0-.05-.2Z"/><path id="Path_5348" data-name="Path 5348" class="cls-28" d="M38.33,34.38a7.53,7.53,0,0,1-1,4A5,5,0,0,1,34,40.61a6,6,0,0,1-4.49-.51,4.69,4.69,0,0,1-1.87-2.46.66.66,0,0,1,.36-.85.79.79,0,0,1,.22,0h.11c1.8.06,5.89-.13,8.73-2.6l.31-.26a.57.57,0,0,1,.82,0,.6.6,0,0,1,.15.46Z"/><path id="Path_5349" data-name="Path 5349" class="cls-29" d="M37.37,38.4A5,5,0,0,1,34,40.61a6,6,0,0,1-4.49-.51A6.87,6.87,0,0,1,34.76,38,7.73,7.73,0,0,1,37.37,38.4Z"/><path id="Path_5350" data-name="Path 5350" class="cls-30" d="M33.14,37.68c-2.3.57-4.37.15-4.79-.93,1.8,0,5.88-.14,8.73-2.6a.66.66,0,0,1,.06.2C37.38,35.59,35.58,37.09,33.14,37.68Z"/><path id="Path_6026" data-name="Path 6026" class="cls-31" d="M23.22,27a1.73,1.73,0,1,0,2-1.36,1.52,1.52,0,0,0-.67,0A1.72,1.72,0,0,0,23.22,27Z"/><path id="Path_6027" data-name="Path 6027" class="cls-32" d="M24,27.15a1,1,0,0,0,.79,1.09.81.81,0,0,0,.31,0,1,1,0,0,0,.78-.79,1,1,0,1,0-1.88-.3Z"/><path id="Path_6028" data-name="Path 6028" class="cls-24" d="M24.3,27.31a.32.32,0,0,1-.37.27.32.32,0,0,1-.27-.37.33.33,0,0,1,.37-.27l.12,0A.33.33,0,0,1,24.3,27.31Z"/><path id="Path_6029" data-name="Path 6029" class="cls-24" d="M25.85,26.53a.64.64,0,1,1-.76-.47.65.65,0,0,1,.31,0A.62.62,0,0,1,25.85,26.53Z"/></g></g></svg>