<svg id="seat" xmlns="http://www.w3.org/2000/svg" viewBox="0 0 35 38"><defs><style>.cls-1{fill:#c03a2b;}.cls-2{fill:#802f34;}.cls-3{fill:#e64c3c;}.cls-4{fill:#d1d4d1;}</style></defs><g id="Group_2847" data-name="Group 2847"><path id="Path_5118" data-name="Path 5118" class="cls-1" d="M30.37,33.87H4.63V29.25a3.06,3.06,0,0,1,3-3.09H27.34a3.06,3.06,0,0,1,3,3.09v4.62Z"/><path id="Path_5119" data-name="Path 5119" class="cls-1" d="M6.68,18.45H.77a.77.77,0,0,0-.77.77v1.54a.77.77,0,0,0,.77.77H6.51Z"/><path id="Path_5120" data-name="Path 5120" class="cls-1" d="M28.32,18.45l.17,3.08h5.74a.77.77,0,0,0,.77-.77V19.22a.77.77,0,0,0-.77-.77Z"/></g><g id="Group_2848" data-name="Group 2848"><path id="Path_5121" data-name="Path 5121" class="cls-2" d="M4.63,29.24a3.07,3.07,0,0,1,1.61-2.69l.27-5h-5v9.26a1.54,1.54,0,0,0,1.54,1.54H4.63Z"/><path id="Path_5122" data-name="Path 5122" class="cls-2" d="M28.49,21.53l.27,5a3.07,3.07,0,0,1,1.61,2.7v3.08h1.54a1.54,1.54,0,0,0,1.55-1.54h0V21.53Z"/></g><path id="Path_5123" data-name="Path 5123" class="cls-3" d="M7.68,26.23H27.32a2.83,2.83,0,0,1,1.44.39L27.62,5.56A5.82,5.82,0,0,0,21.87,0H13.13A5.81,5.81,0,0,0,7.38,5.56L6.23,26.62a2.87,2.87,0,0,1,1.45-.39"/><path id="Path_5124" data-name="Path 5124" class="cls-1" d="M24.75,6.5A.76.76,0,0,1,24,5.77a2,2,0,0,0-2-1.91H13a2,2,0,0,0-2,1.91.77.77,0,0,1-.81.73.78.78,0,0,1-.73-.81A3.58,3.58,0,0,1,13,2.31H22a3.57,3.57,0,0,1,3.56,3.38.76.76,0,0,1-.72.81h-.05"/><g id="Group_2849" data-name="Group 2849"><path id="Path_5125" data-name="Path 5125" class="cls-4" d="M26,38h0c-.86,0-1.55-.26-1.55-.59V33.87h3.09v3.54c0,.33-.69.59-1.55.59"/><path id="Path_5126" data-name="Path 5126" class="cls-4" d="M10.56,37.41V33.87H7.47v3.54c0,.33.69.59,1.55.59s1.54-.26,1.54-.59"/></g></svg>