<svg id="Layer_1" data-name="Layer 1" xmlns="http://www.w3.org/2000/svg" xmlns:xlink="http://www.w3.org/1999/xlink" viewBox="0 0 186.97 140.29"><defs><style>.cls-1{fill:none;}.cls-2{fill:#b5b5b5;}.cls-3{fill:url(#linear-gradient);}.cls-4{fill:#7d9299;}.cls-5{fill:#274a57;}.cls-6{fill:#c6cfd2;}.cls-7{fill:#eceff0;}.cls-8{fill:#776f31;}.cls-9{clip-path:url(#clip-path);}.cls-10{fill:#9bc928;}.cls-11{fill:#eae9e7;}.cls-12{fill:#7a7277;}.cls-13{fill:#96b4ff;}.cls-14{fill:#5569a5;}.cls-15{fill:#4388bd;}.cls-16{fill:#e3ebff;}.cls-17{fill:#b0b3bd;}.cls-18{fill:#bd5005;}.cls-19{fill:#6a6d74;}.cls-20{fill:#de6f6e;}.cls-21{fill:#9f2726;}.cls-22{fill:#d8453b;}.cls-23{fill:#bebabc;}.cls-24{fill:#d8d6d7;}.cls-25{fill:#1b0101;}.cls-26{fill:#301818;}.cls-27{fill:#dee8be;}.cls-28{fill:#edf0cc;}.cls-29{fill:#dedeca;}.cls-30{fill:#9dbdc4;}.cls-31{fill:#c1d4d8;}.cls-32{fill:#e3faff;}.cls-33{fill:#adadad;}.cls-34{fill:#d9d9d9;}.cls-35{fill:#a5abad;}.cls-36{fill:#fff;}.cls-37{fill:#8d9598;}.cls-38{fill:#45636e;}</style><linearGradient id="linear-gradient" x1="-860.7" y1="605.55" x2="-859.7" y2="605.55" gradientTransform="matrix(163.32, 0, 0, -94.66, 140586.17, 57412.99)" gradientUnits="userSpaceOnUse"><stop offset="0.12" stop-color="#879aa0"/><stop offset="0.53" stop-color="#94a5ab"/><stop offset="0.82" stop-color="#a2b1b6"/></linearGradient><clipPath id="clip-path"><path class="cls-1" d="M110.46,82.88l35.92-20.75a3.6,3.6,0,0,0,1.33-4.91,3.64,3.64,0,0,0-1.33-1.34L91.86,24.41a11.25,11.25,0,0,0-11.25,0L44.7,45.15a3.6,3.6,0,0,0,0,6.25L99.22,82.88A11.23,11.23,0,0,0,110.46,82.88Z"/></clipPath></defs><g id="Group_2843" data-name="Group 2843"><path id="Path_2679" data-name="Path 2679" class="cls-2" d="M129.24,133.11l42.47-24.53a12.74,12.74,0,0,0,0-22.09L96.54,43.09a46.36,46.36,0,0,0-46.41,0L7.56,67.67a15,15,0,0,0,0,26l68.18,39.4A53.46,53.46,0,0,0,129.24,133.11Z"/><path id="Path_2680" data-name="Path 2680" class="cls-3" d="M178.18,97.25h-.08A8.69,8.69,0,0,1,174,106l-.18.11-1.07.62-5.21,3-1.25.72-5.21,3-1.25.73-5.21,3-1.25.72-5.16,3-1.25.73-5.21,3-1.25.73-5.21,3-1.25.72-4.16,2.4c-.35.2-.7.4-1.06.59l-1.25.65a39,39,0,0,1-7.57,2.76l-1.25.3a39.67,39.67,0,0,1-9.09.84H108.4A38,38,0,0,1,99.3,135l-1.25-.42a37.85,37.85,0,0,1-6.57-3l-.27-.15L90,130.66l-5.21-3-1.25-.73-5.26-3.07L77,123.12l-5.21-3-1.25-.72-5.21-3-1.25-.73-5.21-3-1.25-.72-5.21-3-1.25-.73-5.21-3-1.25-.72-5.21-3-1.24-.72-5.21-3L31.78,97l-5.21-3-1.25-.72-5.08-2.94-.13-.07a10.74,10.74,0,0,1-1.25-.87,10.56,10.56,0,0,1-4-8.85V61.18l20.28,2L64.32,46.28a32.37,32.37,0,0,1,32.34,0L143.9,73.57l34.29,3.3Z"/><path id="Path_2681" data-name="Path 2681" class="cls-4" d="M185.61,73.33l-14.17-1.58L96.56,28.51a33.15,33.15,0,0,0-33.12,0L18.27,54.58h-.1l-9-1,4,13.39a2.28,2.28,0,0,0,.17.58h0a10.87,10.87,0,0,0,4.91,6l73,42.12a39.36,39.36,0,0,0,39.33,0l45.08-26a9,9,0,0,0,3.85-4.45h0Z"/><path id="Path_2682" data-name="Path 2682" class="cls-5" d="M20,74.57l-1.25-.72L15.38,63l1.26.73Z"/><path id="Path_2683" data-name="Path 2683" class="cls-5" d="M26.47,78.31l-1.26-.73L21.85,66.69l1.25.72Z"/><path id="Path_2684" data-name="Path 2684" class="cls-5" d="M32.93,82l-1.25-.72L28.31,70.41l1.26.73Z"/><path id="Path_2685" data-name="Path 2685" class="cls-5" d="M39.4,85.78l-1.26-.73-3.36-10.9,1.25.72Z"/><path id="Path_2686" data-name="Path 2686" class="cls-5" d="M45.87,89.5l-1.26-.72-3.37-10.9,1.26.73Z"/><path id="Path_2687" data-name="Path 2687" class="cls-5" d="M52.33,93.24l-1.25-.73L47.71,81.62l1.25.72Z"/><path id="Path_2688" data-name="Path 2688" class="cls-5" d="M58.8,97l-1.26-.73L54.17,85.35l1.26.73Z"/><path id="Path_2689" data-name="Path 2689" class="cls-5" d="M65.26,100.71,64,100,60.64,89.07l1.25.74Z"/><path id="Path_2690" data-name="Path 2690" class="cls-5" d="M71.73,104.44l-1.26-.72L67.11,92.81l1.25.73Z"/><path id="Path_2691" data-name="Path 2691" class="cls-5" d="M78.19,108.16l-1.25-.72L73.57,96.55l1.26.72Z"/><path id="Path_2692" data-name="Path 2692" class="cls-5" d="M84.66,111.9l-1.26-.73L80,100.28l1.25.73Z"/><path id="Path_2693" data-name="Path 2693" class="cls-5" d="M91.13,115.64l-1.26-.73L86.5,104l1.26.72Z"/><path id="Path_2694" data-name="Path 2694" class="cls-5" d="M172.75,91.47l1.25-.68,3.37-10.93-1.25.72Z"/><path id="Path_2695" data-name="Path 2695" class="cls-5" d="M166.28,95.17l1.26-.67,3.37-11-1.26.73Z"/><path id="Path_2696" data-name="Path 2696" class="cls-5" d="M159.82,98.86l1.25-.67,3.37-11-1.25.72Z"/><path id="Path_2697" data-name="Path 2697" class="cls-5" d="M153.35,102.59l1.26-.68,3.37-11-1.26.72Z"/><path id="Path_2698" data-name="Path 2698" class="cls-5" d="M146.89,106.33l1.25-.71,3.37-11-1.26.73Z"/><path id="Path_2699" data-name="Path 2699" class="cls-5" d="M140.42,110.06l1.26-.75,3.36-11-1.25.73Z"/><path id="Path_2700" data-name="Path 2700" class="cls-5" d="M134,113.79l1.25-.73,3.37-11-1.26.73Z"/><path id="Path_2701" data-name="Path 2701" class="cls-5" d="M127.49,117.35l1.25-.62,3.37-11-1.25.72Z"/><path id="Path_2702" data-name="Path 2702" class="cls-5" d="M120.62,106.78l-2,13.45,1.24-.27,2-13.44Z"/><path id="Path_2703" data-name="Path 2703" class="cls-5" d="M107.69,108.63l.62,12.61,1.25-.28-.62-12.6Z"/><path id="Path_2704" data-name="Path 2704" class="cls-5" d="M95.86,106.33,98,119.45l1.25-.27L97.11,106Z"/><path id="Path_2705" data-name="Path 2705" class="cls-6" d="M138.12,103.08,180.6,78.54a12.74,12.74,0,0,0,4.66-17.42,12.55,12.55,0,0,0-4.66-4.66l-75.16-43.4a46.36,46.36,0,0,0-46.41,0L16.44,37.64a15,15,0,0,0,0,26l68.25,39.4a53.45,53.45,0,0,0,53.43,0Z"/><path id="Path_2706" data-name="Path 2706" class="cls-7" d="M127.3,92.26l40.75-23.54a8.09,8.09,0,0,0,0-14L96.51,13.41a30,30,0,0,0-30,0L25.77,37a10,10,0,0,0-3.49,13.7,9.89,9.89,0,0,0,3.49,3.49l66,38.1a35.59,35.59,0,0,0,35.53,0Z"/><path id="Path_2707" data-name="Path 2707" class="cls-8" d="M110.46,82.88l35.92-20.75a3.6,3.6,0,0,0,1.33-4.91,3.64,3.64,0,0,0-1.33-1.34L91.86,24.41a11.3,11.3,0,0,0-11.25,0L44.7,45.15a3.6,3.6,0,0,0,0,6.25L99.22,82.88A11.23,11.23,0,0,0,110.46,82.88Z"/><g class="cls-9"><g id="Group_2811" data-name="Group 2811"><path id="Path_2708" data-name="Path 2708" class="cls-10" d="M77.92,38.53l80.71,46.6-45.31,26.16-80.7-46.6Z"/><path id="Path_2709" data-name="Path 2709" class="cls-11" d="M97,33.71l-15.7,9.07V17.72L97,11.39Z"/><path id="Path_2710" data-name="Path 2710" class="cls-12" d="M62.5,31.91,81.33,42.78V17.72L68.27,12.65Z"/><path id="Path_2711" data-name="Path 2711" class="cls-13" d="M95.46,46.23l-1.3.75L82.84,40.45l1.3-.75Z"/><path id="Path_2712" data-name="Path 2712" class="cls-14" d="M82.84,42.2l11.32,6.54V47L82.84,40.45Z"/><path id="Path_2713" data-name="Path 2713" class="cls-15" d="M95.46,48l-1.3.75V47l1.3-.75Z"/><path id="Path_2714" data-name="Path 2714" class="cls-13" d="M96.76,43.73l-1.3.75L84.14,37.94l1.3-.75Z"/><path id="Path_2715" data-name="Path 2715" class="cls-14" d="M84.14,39.7l11.32,6.54V44.47L84.14,37.94Z"/><path id="Path_2716" data-name="Path 2716" class="cls-15" d="M96.76,45.47l-1.3.77V44.48l1.3-.75Z"/><path id="Path_2717" data-name="Path 2717" class="cls-13" d="M98.05,41.21l-1.3.75L85.44,35.44l1.3-.76Z"/><path id="Path_2718" data-name="Path 2718" class="cls-14" d="M85.44,37.19l11.32,6.54V42L85.44,35.44Z"/><path id="Path_2719" data-name="Path 2719" class="cls-15" d="M98.06,43l-1.3.75V42l1.3-.75Z"/><path id="Path_2720" data-name="Path 2720" class="cls-13" d="M99.35,38.72l-1.3.75L86.74,32.93l1.31-.75Z"/><path id="Path_2721" data-name="Path 2721" class="cls-14" d="M86.74,34.68l11.32,6.54V39.47L86.74,32.93Z"/><path id="Path_2722" data-name="Path 2722" class="cls-15" d="M99.35,40.47l-1.3.75V39.47l1.3-.75Z"/><path id="Path_2723" data-name="Path 2723" class="cls-13" d="M100.67,36.2,99.35,37l-11.3-6.53,1.3-.75Z"/><path id="Path_2724" data-name="Path 2724" class="cls-14" d="M88.05,32.18l11.3,6.54V37l-11.3-6.53Z"/><path id="Path_2725" data-name="Path 2725" class="cls-15" d="M100.67,38l-1.32.75V37l1.32-.75Z"/><path id="Path_2726" data-name="Path 2726" class="cls-16" d="M125.56,63.61,105.09,53.3,94.16,47l1.3-.75Z"/><path id="Path_2727" data-name="Path 2727" class="cls-17" d="M94.16,48.74,105.09,55V53.29L94.16,47Z"/><path id="Path_2728" data-name="Path 2728" class="cls-18" d="M125.57,65.36,105.09,55.05V53.3l20.48,10.31Z"/><path id="Path_2729" data-name="Path 2729" class="cls-16" d="M107.69,50l-1.3.75L95.46,44.48l1.3-.75Z"/><path id="Path_2730" data-name="Path 2730" class="cls-17" d="M95.46,46.24l30.1,17.37L106.39,50.79,95.46,44.48Z"/><path id="Path_2731" data-name="Path 2731" class="cls-18" d="M126.86,62.86l-1.3.75L106.39,50.78l1.3-.75Z"/><path id="Path_2732" data-name="Path 2732" class="cls-16" d="M109,47.53l-1.31.75L96.76,42l1.3-.75Z"/><path id="Path_2733" data-name="Path 2733" class="cls-17" d="M96.76,43.73,107.69,50V48.28L96.76,42Z"/><path id="Path_2734" data-name="Path 2734" class="cls-18" d="M109,49.29l-1.31.75V48.29l1.31-.75Z"/><path id="Path_2735" data-name="Path 2735" class="cls-16" d="M110.29,45l-1.3.75-10.94-6.3,1.3-.75Z"/><path id="Path_2736" data-name="Path 2736" class="cls-17" d="M98.05,41.21,109,47.54V45.77l-10.94-6.3Z"/><path id="Path_2737" data-name="Path 2737" class="cls-18" d="M110.3,46.79l-1.3.75V45.77l1.3-.75Z"/><path id="Path_2738" data-name="Path 2738" class="cls-16" d="M111.6,42.51l-1.3.77L99.35,37l1.32-.75Z"/><path id="Path_2739" data-name="Path 2739" class="cls-17" d="M99.35,38.72l11,6.3V43.27L99.35,37Z"/><path id="Path_2740" data-name="Path 2740" class="cls-18" d="M111.6,44.28l-1.3.75V43.28l1.3-.77Z"/><path id="Path_2741" data-name="Path 2741" class="cls-13" d="M149.11,77.21,147.8,78,105.09,53.3l20.48,10.31Z"/><path id="Path_2742" data-name="Path 2742" class="cls-14" d="M105.09,55.05,147.8,79.72V78L105.09,53.3Z"/><path id="Path_2743" data-name="Path 2743" class="cls-15" d="M149.11,79l-1.31.76V78l1.31-.75Z"/><path id="Path_2744" data-name="Path 2744" class="cls-13" d="M150.41,74.69l-1.3.77L106.39,50.78l1.3-.75Z"/><path id="Path_2745" data-name="Path 2745" class="cls-14" d="M125.56,63.61l23.55,13.6V75.46L106.39,50.78Z"/><path id="Path_2746" data-name="Path 2746" class="cls-15" d="M150.41,76.46l-1.3.75V75.46l1.3-.76Z"/><path id="Path_2747" data-name="Path 2747" class="cls-13" d="M151.72,72.2l-1.3.75L107.69,48.29l1.31-.75Z"/><path id="Path_2748" data-name="Path 2748" class="cls-14" d="M107.69,50,150.42,74.7V73L107.69,48.29Z"/><path id="Path_2749" data-name="Path 2749" class="cls-15" d="M151.71,74l-1.3.75V73l1.3-.75Z"/><path id="Path_2750" data-name="Path 2750" class="cls-13" d="M153,69.69l-1.3.75L109,45.77l1.3-.75Z"/><path id="Path_2751" data-name="Path 2751" class="cls-14" d="M109,47.54,151.71,72.2V70.44L109,45.77Z"/><path id="Path_2752" data-name="Path 2752" class="cls-15" d="M153,71.45l-1.3.75V70.44l1.3-.75Z"/><path id="Path_2753" data-name="Path 2753" class="cls-13" d="M154.31,67.19l-1.3.75L110.3,43.28l1.3-.77Z"/><path id="Path_2754" data-name="Path 2754" class="cls-14" d="M110.3,45,153,69.69V67.94L110.3,43.28Z"/><path id="Path_2755" data-name="Path 2755" class="cls-15" d="M154.31,68.94l-1.3.75V67.94l1.3-.75Z"/><path id="Path_2756" data-name="Path 2756" class="cls-13" d="M67,46.52l1.3.75,11.32-6.52L78.29,40Z"/><path id="Path_2757" data-name="Path 2757" class="cls-14" d="M79.59,42.5,68.27,49V47.27l11.32-6.52Z"/><path id="Path_2758" data-name="Path 2758" class="cls-15" d="M67,48.29l1.3.75V47.27L67,46.52Z"/><path id="Path_2759" data-name="Path 2759" class="cls-13" d="M65.67,44l1.3.75,11.32-6.54L77,37.49Z"/><path id="Path_2760" data-name="Path 2760" class="cls-14" d="M78.29,40,67,46.52V44.77l11.32-6.53Z"/><path id="Path_2761" data-name="Path 2761" class="cls-15" d="M65.67,45.77l1.3.75V44.78L65.67,44Z"/><path id="Path_2762" data-name="Path 2762" class="cls-13" d="M64.37,41.51l1.3.75L77,35.73,75.69,35Z"/><path id="Path_2763" data-name="Path 2763" class="cls-14" d="M77,37.49,65.67,44V42.26L77,35.73Z"/><path id="Path_2764" data-name="Path 2764" class="cls-15" d="M64.37,43.28l1.3.75V42.26l-1.3-.75Z"/><path id="Path_2765" data-name="Path 2765" class="cls-13" d="M63.07,39l1.3.75,11.32-6.53-1.3-.76Z"/><path id="Path_2766" data-name="Path 2766" class="cls-14" d="M75.69,35,64.37,41.51V39.76l11.32-6.53Z"/><path id="Path_2767" data-name="Path 2767" class="cls-15" d="M63.07,40.76l1.3.75V39.77L63.07,39Z"/><path id="Path_2768" data-name="Path 2768" class="cls-13" d="M61.78,36.51l1.3.75,11.31-6.54L73.09,30Z"/><path id="Path_2769" data-name="Path 2769" class="cls-14" d="M74.39,32.47,63.07,39V37.25l11.32-6.53Z"/><path id="Path_2770" data-name="Path 2770" class="cls-15" d="M61.78,38.25l1.3.77V37.26l-1.3-.75Z"/><path id="Path_2771" data-name="Path 2771" class="cls-16" d="M56,52.84l1.3.75,10.93-6.32L67,46.52Z"/><path id="Path_2773" data-name="Path 2773" class="cls-18" d="M56,54.59l1.3.75V53.6L56,52.85Z"/><path id="Path_2774" data-name="Path 2774" class="cls-16" d="M54.74,50.33l1.3.75L67,44.78,65.67,44Z"/><path id="Path_2775" data-name="Path 2775" class="cls-17" d="M67,46.52,56,52.85V51.08L67,44.78Z"/><path id="Path_2776" data-name="Path 2776" class="cls-18" d="M54.74,52.08l1.3.77V51.08l-1.3-.75Z"/><path id="Path_2777" data-name="Path 2777" class="cls-16" d="M53.44,47.82l1.3.76,10.93-6.32-1.3-.75Z"/><path id="Path_2778" data-name="Path 2778" class="cls-17" d="M65.67,44l-10.93,6.3V48.58l10.93-6.32Z"/><path id="Path_2779" data-name="Path 2779" class="cls-18" d="M53.44,49.58l1.3.75V48.58l-1.3-.76Z"/><path id="Path_2780" data-name="Path 2780" class="cls-16" d="M52.14,45.33l1.3.75,10.93-6.31L63.07,39Z"/><path id="Path_2781" data-name="Path 2781" class="cls-17" d="M64.37,41.51,53.44,47.82V46.07l10.93-6.31Z"/><path id="Path_2782" data-name="Path 2782" class="cls-18" d="M52.14,47.07l1.3.75V46.07l-1.3-.75Z"/><path id="Path_2783" data-name="Path 2783" class="cls-16" d="M50.84,42.81l1.3.75,10.93-6.3-1.3-.75Z"/><path id="Path_2784" data-name="Path 2784" class="cls-17" d="M63.07,39l-10.93,6.3V43.56l10.93-6.31Z"/><path id="Path_2785" data-name="Path 2785" class="cls-18" d="M50.84,44.58l1.3.75V43.56l-1.3-.75Z"/><path id="Path_2786" data-name="Path 2786" class="cls-13" d="M32.49,66.44l1.31.75L57.34,53.6,56,52.85Z"/><path id="Path_2787" data-name="Path 2787" class="cls-14" d="M57.34,55.34,33.8,68.94V67.19L57.34,53.6Z"/><path id="Path_2788" data-name="Path 2788" class="cls-15" d="M32.49,68.19l1.31.75V67.19l-1.31-.75Z"/><path id="Path_2789" data-name="Path 2789" class="cls-13" d="M31.19,63.93l1.3.75L56,51.08l-1.3-.75Z"/><path id="Path_2790" data-name="Path 2790" class="cls-14" d="M56,52.85,32.49,66.44V64.68L56,51.08Z"/><path id="Path_2791" data-name="Path 2791" class="cls-15" d="M31.19,65.69l1.3.75V64.68l-1.3-.75Z"/><path id="Path_2792" data-name="Path 2792" class="cls-13" d="M29.89,61.43l1.3.75L54.74,48.59l-1.3-.77Z"/><path id="Path_2793" data-name="Path 2793" class="cls-14" d="M54.74,50.33,31.19,63.93V62.18l23.55-13.6Z"/><path id="Path_2794" data-name="Path 2794" class="cls-15" d="M29.89,63.18l1.3.75V62.18l-1.3-.75Z"/><path id="Path_2795" data-name="Path 2795" class="cls-13" d="M28.59,58.92l1.3.75,23.55-13.6-1.3-.75Z"/><path id="Path_2796" data-name="Path 2796" class="cls-14" d="M53.44,47.82,29.89,61.43V59.67l23.55-13.6Z"/><path id="Path_2797" data-name="Path 2797" class="cls-15" d="M28.59,60.67l1.3.76V59.67l-1.3-.75Z"/><path id="Path_2798" data-name="Path 2798" class="cls-13" d="M27.3,56.41l1.3.75,23.54-13.6-1.3-.75Z"/><path id="Path_2799" data-name="Path 2799" class="cls-14" d="M52.14,45.32,28.59,58.92V57.15L52.14,43.56Z"/><path id="Path_2800" data-name="Path 2800" class="cls-15" d="M27.3,58.17l1.3.75V57.16l-1.3-.75Z"/><g id="Group_2808" data-name="Group 2808"><path id="Path_2801" data-name="Path 2801" class="cls-19" d="M81.33,32.88,77,37.49l-2,1.44-34.47,20V56.46Z"/></g><path id="Path_2802" data-name="Path 2802" class="cls-11" d="M139.19,76.46l-1,.57v-2.4l1-.56Z"/><path id="Path_2803" data-name="Path 2803" class="cls-20" d="M139.19,74.07l-1,.56L80.34,41.22l1-.56Z"/><path id="Path_2804" data-name="Path 2804" class="cls-21" d="M80.34,43.63,138.21,77V74.64L80.34,41.23Z"/><path id="Path_2805" data-name="Path 2805" class="cls-11" d="M41.66,66l1,.56v-2.4l-1-.56Z"/><path id="Path_2806" data-name="Path 2806" class="cls-20" d="M41.66,63.56l1,.57L81.33,41.79l-1-.56Z"/><path id="Path_2807" data-name="Path 2807" class="cls-22" d="M81.33,44.19,42.64,66.52v-2.4L81.33,41.79Z"/><path id="Path_2808" data-name="Path 2808" class="cls-13" d="M65.69,36l1.3.75,11.3-6.54L77,29.43Z"/><path id="Path_2809" data-name="Path 2809" class="cls-14" d="M78.29,31.94,67,38.48V36.72l11.3-6.54Z"/><path id="Path_2810" data-name="Path 2810" class="cls-15" d="M65.69,37.73l1.3.75V36.72L65.69,36Z"/><path id="Path_2811" data-name="Path 2811" class="cls-13" d="M64.37,33.47l1.32.75L77,27.69l-1.3-.75Z"/><path id="Path_2812" data-name="Path 2812" class="cls-14" d="M77,29.43,65.69,36V34.22L77,27.68Z"/><path id="Path_2813" data-name="Path 2813" class="cls-15" d="M64.37,35.22l1.32.75V34.22l-1.32-.75Z"/><path id="Path_2814" data-name="Path 2814" class="cls-13" d="M63.07,31l1.3.75,11.32-6.54-1.3-.75Z"/><path id="Path_2815" data-name="Path 2815" class="cls-14" d="M75.69,26.93,64.37,33.47V31.71l11.32-6.54Z"/><path id="Path_2816" data-name="Path 2816" class="cls-15" d="M63.07,32.72l1.3.75V31.71L63.07,31Z"/><path id="Path_2817" data-name="Path 2817" class="cls-13" d="M61.78,28.45l1.3.76,11.31-6.55-1.3-.75Z"/><path id="Path_2818" data-name="Path 2818" class="cls-14" d="M74.39,24.42,63.07,31V29.21l11.32-6.55Z"/><path id="Path_2819" data-name="Path 2819" class="cls-15" d="M61.78,30.21l1.3.75V29.21l-1.3-.76Z"/><path id="Path_2820" data-name="Path 2820" class="cls-13" d="M60.48,26l1.3.75L73.1,20.16l-1.3-.75Z"/><path id="Path_2821" data-name="Path 2821" class="cls-14" d="M73.09,21.91,61.78,28.45V26.7L73.1,20.16Z"/><path id="Path_2822" data-name="Path 2822" class="cls-15" d="M60.48,27.7l1.3.75V26.7L60.48,26Z"/><path id="Path_2823" data-name="Path 2823" class="cls-16" d="M54.74,42.28,56,43,67,36.72,65.69,36Z"/><path id="Path_2824" data-name="Path 2824" class="cls-17" d="M67,38.48,56,44.79V43L67,36.72Z"/><path id="Path_2825" data-name="Path 2825" class="cls-18" d="M54.74,44l1.3.75V43l-1.3-.76Z"/><path id="Path_2826" data-name="Path 2826" class="cls-16" d="M53.44,39.78l1.3.75,10.95-6.31-1.31-.75Z"/><path id="Path_2827" data-name="Path 2827" class="cls-17" d="M65.69,36,54.74,42.28V40.53l10.95-6.31Z"/><path id="Path_2828" data-name="Path 2828" class="cls-18" d="M53.44,41.53l1.3.75V40.53l-1.3-.75Z"/><path id="Path_2829" data-name="Path 2829" class="cls-16" d="M52.14,37.27l1.3.75,10.93-6.31L63.07,31Z"/><path id="Path_2830" data-name="Path 2830" class="cls-17" d="M64.37,33.47,53.44,39.78V38l10.93-6.31Z"/><path id="Path_2831" data-name="Path 2831" class="cls-18" d="M52.14,39l1.3.75V38l-1.3-.75Z"/><path id="Path_2832" data-name="Path 2832" class="cls-16" d="M50.84,34.77l1.3.75,10.93-6.31-1.3-.76Z"/><path id="Path_2833" data-name="Path 2833" class="cls-17" d="M63.07,31,52.14,37.27V35.52l10.93-6.31Z"/><path id="Path_2834" data-name="Path 2834" class="cls-18" d="M50.84,36.52l1.3.75V35.52l-1.3-.75Z"/><path id="Path_2835" data-name="Path 2835" class="cls-16" d="M49.55,32.26l1.3.75L61.78,26.7,60.48,26Z"/><path id="Path_2836" data-name="Path 2836" class="cls-17" d="M61.77,28.45,50.84,34.77V33L61.77,26.7Z"/><path id="Path_2837" data-name="Path 2837" class="cls-18" d="M49.55,34l1.3.75V33l-1.3-.75Z"/><path id="Path_2838" data-name="Path 2838" class="cls-13" d="M31.21,55.88l1.29.75L56,43l-1.3-.76Z"/><path id="Path_2839" data-name="Path 2839" class="cls-14" d="M56,44.79,32.51,58.38V56.63L56,43Z"/><path id="Path_2840" data-name="Path 2840" class="cls-15" d="M31.21,57.63l1.29.75V56.63l-1.29-.75Z"/><path id="Path_2841" data-name="Path 2841" class="cls-13" d="M29.91,53.37l1.3.75L54.74,40.53l-1.3-.75Z"/><path id="Path_2842" data-name="Path 2842" class="cls-14" d="M54.74,42.28,31.21,55.88V54.12L54.74,40.53Z"/><path id="Path_2843" data-name="Path 2843" class="cls-15" d="M29.91,55.13l1.3.75V54.12l-1.3-.75Z"/><path id="Path_2844" data-name="Path 2844" class="cls-13" d="M28.59,50.86l1.32.75L53.44,38l-1.3-.75Z"/><path id="Path_2845" data-name="Path 2845" class="cls-14" d="M53.44,39.78,29.91,53.37V51.61L53.44,38Z"/><path id="Path_2846" data-name="Path 2846" class="cls-15" d="M28.59,52.62l1.32.75V51.61l-1.32-.75Z"/><path id="Path_2847" data-name="Path 2847" class="cls-13" d="M27.3,48.36l1.3.75L52.14,35.52l-1.3-.75Z"/><path id="Path_2848" data-name="Path 2848" class="cls-14" d="M52.14,37.27,28.59,50.86V49.11L52.14,35.52Z"/><path id="Path_2849" data-name="Path 2849" class="cls-15" d="M27.3,50.11l1.3.75V49.11l-1.3-.75Z"/><path id="Path_2850" data-name="Path 2850" class="cls-13" d="M26,45.85l1.3.75L50.84,33l-1.3-.75Z"/><path id="Path_2851" data-name="Path 2851" class="cls-14" d="M50.84,34.77,27.3,48.36V46.6L50.84,33Z"/><path id="Path_2852" data-name="Path 2852" class="cls-15" d="M26,47.61l1.3.75V46.6L26,45.85Z"/><path id="Path_2853" data-name="Path 2853" class="cls-13" d="M96.38,35.39l-1.3.75L83.76,29.61l1.3-.75Z"/><path id="Path_2854" data-name="Path 2854" class="cls-14" d="M83.76,31.36,95.08,37.9V36.14L83.76,29.61Z"/><path id="Path_2855" data-name="Path 2855" class="cls-15" d="M96.38,37.14l-1.3.76V36.14l1.3-.75Z"/><path id="Path_2856" data-name="Path 2856" class="cls-13" d="M97.68,32.88l-1.3.75L85.06,27.1l1.3-.75Z"/><path id="Path_2857" data-name="Path 2857" class="cls-14" d="M85.06,28.86l11.32,6.53V33.63L85.06,27.1Z"/><path id="Path_2858" data-name="Path 2858" class="cls-15" d="M97.68,34.64l-1.3.75V33.63l1.3-.75Z"/><path id="Path_2859" data-name="Path 2859" class="cls-13" d="M99,30.38l-1.3.75L86.36,24.6l1.31-.75Z"/><path id="Path_2860" data-name="Path 2860" class="cls-14" d="M86.36,26.35l11.32,6.53V31.13L86.36,24.6Z"/><path id="Path_2861" data-name="Path 2861" class="cls-15" d="M99,32.13l-1.3.75V31.13l1.3-.75Z"/><path id="Path_2862" data-name="Path 2862" class="cls-13" d="M100.29,27.87,99,28.62,87.67,22.09l1.3-.75Z"/><path id="Path_2863" data-name="Path 2863" class="cls-14" d="M87.67,23.85,99,30.38V28.62L87.67,22.09Z"/><path id="Path_2864" data-name="Path 2864" class="cls-15" d="M100.29,29.62,99,30.38V28.62l1.31-.75Z"/><path id="Path_2865" data-name="Path 2865" class="cls-13" d="M101.59,25.37l-1.3.75L89,19.59l1.3-.75Z"/><path id="Path_2866" data-name="Path 2866" class="cls-14" d="M89,21.34l11.32,6.53V26.12L89,19.59Z"/><path id="Path_2867" data-name="Path 2867" class="cls-15" d="M101.59,27.12l-1.3.75V26.12l1.3-.75Z"/><path id="Path_2868" data-name="Path 2868" class="cls-16" d="M107.31,41.7l-1.3.75L95.08,36.14l1.3-.75Z"/><path id="Path_2869" data-name="Path 2869" class="cls-17" d="M95.08,37.9,106,44.21V42.45L95.08,36.14Z"/><path id="Path_2870" data-name="Path 2870" class="cls-18" d="M107.31,43.46l-1.3.75V42.45l1.3-.75Z"/><path id="Path_2871" data-name="Path 2871" class="cls-16" d="M108.62,39.2l-1.31.75L96.38,33.63l1.3-.75Z"/><path id="Path_2872" data-name="Path 2872" class="cls-17" d="M96.38,35.39l10.93,6.31V40L96.38,33.63Z"/><path id="Path_2873" data-name="Path 2873" class="cls-18" d="M108.62,41l-1.31.75V40l1.31-.75Z"/><path id="Path_2874" data-name="Path 2874" class="cls-16" d="M109.92,36.69l-1.3.75L97.68,31.13l1.3-.75Z"/><path id="Path_2875" data-name="Path 2875" class="cls-17" d="M97.68,32.88l10.94,6.32V37.44L97.68,31.13Z"/><path id="Path_2876" data-name="Path 2876" class="cls-18" d="M109.92,38.44l-1.3.76V37.44l1.3-.75Z"/><path id="Path_2877" data-name="Path 2877" class="cls-16" d="M111.22,34.18l-1.3.75L99,28.62l1.31-.75Z"/><path id="Path_2878" data-name="Path 2878" class="cls-17" d="M99,30.38l10.94,6.31V34.93L99,28.62Z"/><path id="Path_2879" data-name="Path 2879" class="cls-18" d="M111.22,35.94l-1.3.75V34.93l1.3-.75Z"/><path id="Path_2880" data-name="Path 2880" class="cls-16" d="M112.52,31.68l-1.3.75-10.93-6.31,1.3-.75Z"/><path id="Path_2881" data-name="Path 2881" class="cls-17" d="M100.29,27.87l10.93,6.31V32.43l-10.93-6.31Z"/><path id="Path_2882" data-name="Path 2882" class="cls-18" d="M112.52,33.43l-1.3.75V32.43l1.3-.75Z"/><path id="Path_2883" data-name="Path 2883" class="cls-13" d="M150,66.36l-1.3.75L106,42.45l1.3-.75Z"/><path id="Path_2884" data-name="Path 2884" class="cls-14" d="M106,44.21l42.73,24.66V67.11L106,42.45Z"/><path id="Path_2885" data-name="Path 2885" class="cls-15" d="M150,68.13l-1.3.75V67.11l1.3-.75Z"/><path id="Path_2886" data-name="Path 2886" class="cls-13" d="M151.34,63.86l-1.3.75L107.31,40l1.31-.75Z"/><path id="Path_2887" data-name="Path 2887" class="cls-14" d="M107.31,41.7,150,66.36V64.61L107.31,40Z"/><path id="Path_2888" data-name="Path 2888" class="cls-15" d="M151.34,65.61l-1.3.75V64.61l1.3-.75Z"/><path id="Path_2889" data-name="Path 2889" class="cls-13" d="M152.64,61.35l-1.3.75L108.62,37.44l1.3-.75Z"/><path id="Path_2890" data-name="Path 2890" class="cls-14" d="M108.62,39.2l42.72,24.67V62.1L108.62,37.44Z"/><path id="Path_2891" data-name="Path 2891" class="cls-15" d="M152.64,63.12l-1.3.75V62.1l1.3-.75Z"/><path id="Path_2892" data-name="Path 2892" class="cls-13" d="M153.94,58.86l-1.3.75L109.92,34.93l1.3-.75Z"/><path id="Path_2893" data-name="Path 2893" class="cls-14" d="M109.92,36.69l42.72,24.66V59.6L109.92,34.93Z"/><path id="Path_2894" data-name="Path 2894" class="cls-15" d="M153.94,60.6l-1.3.75V59.6l1.3-.75Z"/><path id="Path_2895" data-name="Path 2895" class="cls-13" d="M155.24,56.34l-1.3.75L111.22,32.43l1.3-.75Z"/><path id="Path_2896" data-name="Path 2896" class="cls-14" d="M111.22,34.18l42.72,24.68V57.09L111.22,32.43Z"/><path id="Path_2897" data-name="Path 2897" class="cls-15" d="M155.23,58.09l-1.3.76V57.09l1.3-.75Z"/><g id="Group_2809" data-name="Group 2809"><path id="Path_2898" data-name="Path 2898" class="cls-19" d="M81.33,32.88l6.24,2.29a15.08,15.08,0,0,1,2.08,1.25l28.84,16.82,15.62,9.14,5.35,3.14c.37.22,1.47.62,1.68,1,1.35,2.38-3.33.57-4.07.18l-7.67-4c-6.92-3.62-13.66-7.74-20.46-11.6L85.06,37.58Z"/></g><path id="Path_2899" data-name="Path 2899" class="cls-11" d="M30.29,61.22l1,.56v-2.4l-1-.56Z"/><path id="Path_2900" data-name="Path 2900" class="cls-23" d="M30.29,58.82l1,.56,51-29.46-1-.56Z"/><path id="Path_2901" data-name="Path 2901" class="cls-24" d="M82.31,32.32l-51,29.46v-2.4l51-29.46Z"/><path id="Path_2902" data-name="Path 2902" class="cls-11" d="M144.59,68.27l-1,.57V66.45l1-.57Z"/><path id="Path_2903" data-name="Path 2903" class="cls-23" d="M144.59,65.88l-1,.57L81.33,30.5l1-.58Z"/><path id="Path_2904" data-name="Path 2904" class="cls-12" d="M81.33,32.88l62.27,36V66.45l-62.27-36Z"/><path id="Path_2905" data-name="Path 2905" class="cls-11" d="M100.85,41.8v3.76l1.41.81,2,1.15,1.2.69,2.74,1.59.06,0,1,.56V46.62l-2-1.17-2.79-1.61-1.21-.69-1-.58-1-.57Z"/><path id="Path_2906" data-name="Path 2906" class="cls-25" d="M101.12,45.46h0V42.18l7.9,4.57V50Z"/><path id="Path_2907" data-name="Path 2907" class="cls-26" d="M101.78,42.9v2.32l7,4.05V47Z"/><path id="Path_2908" data-name="Path 2908" class="cls-12" d="M109.21,50.38l.5-.28V46.34l-.5.28Z"/><path id="Path_2909" data-name="Path 2909" class="cls-23" d="M109.21,46.62l.5-.28-8.36-4.83-.5.29Z"/><path id="Path_2910" data-name="Path 2910" class="cls-27" d="M110,104.69H110L44,66.59,81.21,45.11l19.25,11.12,46.77,27Zm-65.4-38.1L110,104.35l36.57-21.14L81.21,45.46Z"/><path id="Path_2911" data-name="Path 2911" class="cls-28" d="M143.08,81,140,79.23l-36.89,21.3,3.07,1.78,8.43-4.88Z"/><path id="Path_2912" data-name="Path 2912" class="cls-28" d="M101,56.72l-3.06-1.78L61.06,76.24,64.12,78l7.42-4.29Z"/><path id="Path_2913" data-name="Path 2913" class="cls-28" d="M50.09,69.91l7.1-4.1L87,48.62l-3.08-1.77L47,68.15Z"/><path id="Path_2914" data-name="Path 2914" class="cls-28" d="M108,60.77,105,59,68.07,80.29l3.06,1.76,7.6-4.38Z"/><path id="Path_2915" data-name="Path 2915" class="cls-28" d="M94,52.67l-3.06-1.78L54,72.19,57.11,74l7.26-4.18Z"/><path id="Path_2916" data-name="Path 2916" class="cls-28" d="M136.07,77,133,75.18,96.12,96.48l3.06,1.78,8.27-4.78Z"/><path id="Path_2917" data-name="Path 2917" class="cls-28" d="M129.05,72.9,126,71.13,89.11,92.43l3.06,1.77,8.1-4.68Z"/><path id="Path_2918" data-name="Path 2918" class="cls-28" d="M122,68.86,119,67.09,82.09,88.39l3.07,1.77,7.92-4.58Z"/><path id="Path_2919" data-name="Path 2919" class="cls-28" d="M115,64.81,112,63,75.08,84.34l3.06,1.76,7.77-4.47Z"/><path id="Path_2920" data-name="Path 2920" class="cls-27" d="M117.49,100.39l-13.35-7.7,22.27-12.87,13.35,7.71Zm-12.75-7.7L117.49,100l21.67-12.49-12.75-7.36Z"/><path id="Path_2921" data-name="Path 2921" class="cls-27" d="M122.12,97.72l-7.06-4.07,13-7.5,7.06,4.07Zm-6.4-4.07,6.46,3.75,12.41-7.17-6.44-3.75Z"/><path id="Path_2922" data-name="Path 2922" class="cls-27" d="M126,97.28l-1.85-1.06,8.42-4.87,1.87,1.07Zm-1.25-1.06,1.25.71,7.82-4.51-1.24-.72Z"/><path id="Path_2923" data-name="Path 2923" class="cls-27" d="M110,104.69l-1.86-1.07.24-.13a3.35,3.35,0,0,1,3-.12l.45.26Zm-1.24-1.06,1.24.71,1.25-.71a3,3,0,0,0-2.48,0Z"/><path id="Path_2924" data-name="Path 2924" class="cls-27" d="M145.38,84.29l-.3-.17a1,1,0,0,1-.56-.85,1.35,1.35,0,0,1,.77-1.08h.07l1.87,1.08Zm-.14-.44.14.09,1.25-.71-1.25-.73a1,1,0,0,0-.55.77.68.68,0,0,0,.42.58Z"/><path id="Path_2925" data-name="Path 2925" class="cls-27" d="M95.73,81.5a16.28,16.28,0,0,1-8-1.92c-2.18-1.25-3.38-2.92-3.38-4.72s1.18-3.43,3.33-4.67h0a17.71,17.71,0,0,1,16,0c2.17,1.24,3.37,2.93,3.37,4.72s-1.25,3.43-3.32,4.67a16.19,16.19,0,0,1-8,1.92Zm-7.93-11c-2,1.25-3.17,2.75-3.17,4.41s1.14,3.26,3.22,4.46a17.29,17.29,0,0,0,15.66,0c2-1.25,3.19-2.75,3.19-4.41s-1.15-3.26-3.24-4.46A17.29,17.29,0,0,0,87.8,70.45Z"/><path id="Path_2926" data-name="Path 2926" class="cls-27" d="M109.85,89.74l-.08-.14c-1-1.9-.21-3.95,2.2-5.35A13.84,13.84,0,0,1,121,83l.4.08Zm8.37-6.69a12.69,12.69,0,0,0-6.13,1.46c-2.18,1.25-3,3.1-2.16,4.8l10.58-6.09a14.62,14.62,0,0,0-2.29-.17Z"/><path id="Path_2927" data-name="Path 2927" class="cls-27" d="M64.84,70,51.48,62.28,73.76,49.41l13.35,7.72ZM52.08,62.28l12.76,7.36L86.5,57.14,73.76,49.77Z"/><path id="Path_2928" data-name="Path 2928" class="cls-27" d="M63.16,63.69,56.1,59.61l13-7.5,7.06,4.07ZM56.7,59.61l6.46,3.75,12.42-7.19-6.44-3.75Z"/><path id="Path_2929" data-name="Path 2929" class="cls-27" d="M58.7,58.45l-1.85-1.07,8.44-4.86,1.84,1.07Zm-1.25-1.07,1.25.73,7.84-4.51-1.25-.73Z"/><path id="Path_2930" data-name="Path 2930" class="cls-27" d="M45.88,67.65,44,66.58l1.85-1.07.29.17a1,1,0,0,1,.57.85A1.35,1.35,0,0,1,46,67.61Zm-1.25-1.07,1.25.71a1,1,0,0,0,.55-.76A.68.68,0,0,0,46,66l-.14-.09Z"/><path id="Path_2931" data-name="Path 2931" class="cls-27" d="M81.14,46.74a2.72,2.72,0,0,1-1.32-.3l-.45-.27,1.85-1.06,1.84,1.08-.22.12a3.49,3.49,0,0,1-1.7.43ZM80,46.17a3,3,0,0,0,2.5,0l-1.25-.71Z"/><path id="Path_2932" data-name="Path 2932" class="cls-27" d="M73,67.05a15.54,15.54,0,0,1-2.72-.24l-.41-.07L81.4,60.07l.08.13c1,1.92.21,4-2.2,5.35A12.89,12.89,0,0,1,73,67.05Zm-2.24-.47a13.43,13.43,0,0,0,8.38-1.25c2.2-1.25,3-3.1,2.17-4.8Z"/><rect id="Rectangle_605" data-name="Rectangle 605" class="cls-27" x="74.35" y="74.79" width="42.59" height="0.3" transform="translate(-24.66 57.86) rotate(-30)"/><path id="Path_2933" data-name="Path 2933" class="cls-29" d="M134.08,92.21v.43l-5.33,0-6,3.61,1.5.72h1.56l.05.35h-1.8L122,96.3l6.8-4.09Z"/><path id="Path_2934" data-name="Path 2934" class="cls-30" d="M134.12,87.31,129.46,90l-3.91,2.27v5l.28.15h0v-5l3.92-2.15,4-2.3v4.6l.29.17.1-.07.21-5.2Z"/><path id="Path_2935" data-name="Path 2935" class="cls-31" d="M125.86,92.31v5.07h0l.29-.16V92.5l7.9-4.57v4.71l.1-.07.21-.12V87.38Z"/><path id="Path_2936" data-name="Path 2936" class="cls-32" d="M125.59,92.26l.27,0,8.54-4.93-.28-.07Z"/><path id="Path_2937" data-name="Path 2937" class="cls-29" d="M58.55,58.87H56l-3-1.5,10-6.19,4.74,2.36-.7.34L65.18,54,58.4,58Z"/><path id="Path_2945" data-name="Path 2945" class="cls-30" d="M67.37,46.37,60.9,50.12l-2.8,1.61v7l.4.23h0V51.81l2.8-1.44,5.57-3.22v6.43l.4.23.14-.08.3-7.28Z"/><path id="Path_2946" data-name="Path 2946" class="cls-31" d="M58.5,51.81v7.1h0l.39-.21V52.07l8.38-4.85v6.59l.14-.08.3-.17V46.45Z"/><path id="Path_2947" data-name="Path 2947" class="cls-32" d="M58.1,51.72l.4.09,9.26-5.36-.39-.08Z"/><g id="Group_2810" data-name="Group 2810"><path id="Path_2955" data-name="Path 2955" class="cls-19" d="M99,96.72a15,15,0,0,1-7.56-2c-1.25-.89-1.25-1.72-1.32-3.16a43.58,43.58,0,0,0-1-7.28,3.29,3.29,0,0,1-.11-.93c.07-1.25,1.37-1.91,2.5-2.39A169.66,169.66,0,0,0,114.12,69.3a70.52,70.52,0,0,0,12.1-8.93,7.57,7.57,0,0,0,1.66-2.07,2.88,2.88,0,0,0,.09-2.5c-.45-.87-1.37-.93-2.18-1.24-1-.45-2-1.12-3-1.65l-3.37-2c-.72-.41-2.39-1.8-3.19-1.8L96.66,38l-9.85-5.56-3.75-1.16-4.62,1.55L40,55.09l-8.62-5L76.18,26.65l14.56-1.74L110.6,36.84,142.51,56c4.75,2.85,12.68,6.34,10.12,13.35-1,2.73-3.49,4.6-5.67,6.53-5,4.39-8.91,9.92-14.46,13.49a40.22,40.22,0,0,1-11.69,4.75A74.87,74.87,0,0,1,99,96.72Z"/></g></g></g><path id="Path_2957" data-name="Path 2957" class="cls-4" d="M44.69,48.81,80.6,28.07a11.25,11.25,0,0,1,11.25,0l54.52,31.47a3.73,3.73,0,0,1,1.31,1.25,3.61,3.61,0,0,0-1.24-4.95l-.07-.05L91.86,24.41a11.25,11.25,0,0,0-11.25,0L44.7,45.15a3.6,3.6,0,0,0-1.3,4.92.56.56,0,0,0,.05.08,3.53,3.53,0,0,1,1.23-1.34Z"/><path id="Path_2958" data-name="Path 2958" class="cls-33" d="M99.47,16.94l.85.44-5.23,4.36-.9-.5v-.45Z"/><path id="Path_2959" data-name="Path 2959" class="cls-34" d="M99.12,16.75l1,.52-5,4-.9-.5Z"/><path id="Path_2960" data-name="Path 2960" class="cls-33" d="M110,15.63l.27.21-7.68.78-1.55,0v-.43Z"/><path id="Path_2961" data-name="Path 2961" class="cls-34" d="M109.07,15.23l.93.4-7.25.66L101,16.22Z"/><path id="Path_2962" data-name="Path 2962" class="cls-35" d="M102.4,5l-.66-.41,6.51,10.85.76.44Z"/><path id="Path_2963" data-name="Path 2963" class="cls-36" d="M102.34,3.6,102.4,5,109,15.88l1-.25Z"/><path id="Path_2964" data-name="Path 2964" class="cls-35" d="M102.26,16.14l.08-12.54-.66-.42-1,.57-1.61,13,1.2.63Z"/><path id="Path_2965" data-name="Path 2965" class="cls-36" d="M102.91,16.57l-.57-13-1,.56-1.07,13.22,2.27-.76Z"/><path id="Path_2966" data-name="Path 2966" class="cls-35" d="M101.39,4.16l-.66-.41-5.64,16.5.62.38Z"/><path id="Path_2967" data-name="Path 2967" class="cls-36" d="M101.39,4.16l0,2-5,14.1-.59.42Z"/><path id="Path_2968" data-name="Path 2968" class="cls-33" d="M114.45,25.59l.84.43-5.22,4.36-.9-.5v-.43Z"/><path id="Path_2969" data-name="Path 2969" class="cls-34" d="M114.1,25.41l1,.5-5,4-.9-.48Z"/><path id="Path_2970" data-name="Path 2970" class="cls-33" d="M125,24.29l.28.21-7.69.76-1.55,0v-.45Z"/><path id="Path_2971" data-name="Path 2971" class="cls-34" d="M124.05,23.88l.93.41-7.25.65L116,24.86Z"/><path id="Path_2972" data-name="Path 2972" class="cls-35" d="M117.19,13.38l-.66-.42,6.7,11.13.78.43Z"/><path id="Path_2973" data-name="Path 2973" class="cls-36" d="M117.32,12.24l.06,1.42L124,24.52l1-.23Z"/><path id="Path_2974" data-name="Path 2974" class="cls-35" d="M117.24,24.8l.08-12.56-.66-.41-.94.56-1.62,13,1.2.61Z"/><path id="Path_2975" data-name="Path 2975" class="cls-36" d="M117.89,25.21l-.57-13-.95.58L115.29,26l2.28-.76Z"/><path id="Path_2976" data-name="Path 2976" class="cls-35" d="M116.37,12.82l-.65-.43-5.65,16.5.61.4Z"/><path id="Path_2977" data-name="Path 2977" class="cls-36" d="M116.37,12.82l0,1.93-5,14.1-.63.45Z"/><path id="Path_2978" data-name="Path 2978" class="cls-33" d="M129.42,34.23l.87.44L125.05,39l-.9-.49v-.45Z"/><path id="Path_2979" data-name="Path 2979" class="cls-34" d="M129.09,34.06l1,.5-5,4-.9-.49Z"/><path id="Path_2980" data-name="Path 2980" class="cls-33" d="M140,32.93l.28.21-7.7.78L131,34v-.45Z"/><path id="Path_2981" data-name="Path 2981" class="cls-34" d="M139,32.52l.93.41-7.25.65L131,33.51Z"/><path id="Path_2982" data-name="Path 2982" class="cls-35" d="M132.36,22.3l-.66-.43,6.51,10.86.77.45Z"/><path id="Path_2983" data-name="Path 2983" class="cls-36" d="M132.3,20.89l.06,1.41L139,33.18l1-.25Z"/><path id="Path_2984" data-name="Path 2984" class="cls-35" d="M132.22,33.44l.08-12.55-.65-.41-1,.56-1.61,13,1.2.61Z"/><path id="Path_2985" data-name="Path 2985" class="cls-36" d="M132.87,33.86l-.57-13-1,.57-1.06,13.21,2.26-.75Z"/><path id="Path_2986" data-name="Path 2986" class="cls-35" d="M131.35,21.46,130.7,21l-5.65,16.51.61.39Z"/><path id="Path_2987" data-name="Path 2987" class="cls-36" d="M131.35,21.46l0,1.94-5,14.07-.66.47Z"/><path id="Path_2988" data-name="Path 2988" class="cls-33" d="M144.4,42.88l.87.45L140,47.67l-.91-.48v-.45Z"/><path id="Path_2989" data-name="Path 2989" class="cls-34" d="M144.07,42.7l1,.5-5,4-.91-.5Z"/><path id="Path_2990" data-name="Path 2990" class="cls-33" d="M154.93,41.58l.29.21-7.7.77-1.54,0v-.45Z"/><path id="Path_2991" data-name="Path 2991" class="cls-34" d="M154,41.18l.92.4-7.24.66-1.7-.09Z"/><path id="Path_2992" data-name="Path 2992" class="cls-35" d="M147.34,31l-.66-.42,6.51,10.86.77.44Z"/><path id="Path_2993" data-name="Path 2993" class="cls-36" d="M147.28,29.55l.06,1.4L154,41.83l1-.25Z"/><path id="Path_2994" data-name="Path 2994" class="cls-35" d="M147.2,42.09l.08-12.54-.65-.43-.95.58-1.61,13,1.2.63Z"/><path id="Path_2995" data-name="Path 2995" class="cls-36" d="M147.85,42.51l-.57-13-.95.56-1.06,13.22,2.26-.77Z"/><path id="Path_2996" data-name="Path 2996" class="cls-35" d="M146.33,30.11l-.65-.41L140,46.2l.6.38Z"/><path id="Path_2997" data-name="Path 2997" class="cls-36" d="M146.33,30.11l0,2-5,14.08-.63.45Z"/><path id="Path_2998" data-name="Path 2998" class="cls-33" d="M159.4,51.53l.84.44-5.81,4.67-.91-.5v-.43Z"/><path id="Path_2999" data-name="Path 2999" class="cls-34" d="M159,51.35l1,.51-5.59,4.33-.91-.48Z"/><path id="Path_3000" data-name="Path 3000" class="cls-33" d="M169.92,50.22l.28.21-8,.68-1.93.86.72-1.16Z"/><path id="Path_3001" data-name="Path 3001" class="cls-34" d="M169,49.82l.91.4-7.11.6H161Z"/><path id="Path_3002" data-name="Path 3002" class="cls-35" d="M162.23,39.47l-.65-.42,6.58,11,.78.44Z"/><path id="Path_3003" data-name="Path 3003" class="cls-36" d="M162.26,38.19l0,1.28,6.71,11,1-.25Z"/><path id="Path_3004" data-name="Path 3004" class="cls-35" d="M162.18,50.74l.08-12.55-.65-.42-1,.57-1.62,13,1.2.62Z"/><path id="Path_3005" data-name="Path 3005" class="cls-36" d="M162.81,50.82l-.55-12.63-.95.56L160.25,52l1.83-1Z"/><path id="Path_3006" data-name="Path 3006" class="cls-35" d="M161.31,38.75l-.65-.41-6.23,16.82.6.4Z"/><path id="Path_3007" data-name="Path 3007" class="cls-36" d="M161.31,38.75l0,2L155.8,55l-.76.57Z"/><path id="Path_3008" data-name="Path 3008" class="cls-33" d="M47.26,19.4v.45l11-1.45,1.69-1Z"/><path id="Path_3009" data-name="Path 3009" class="cls-33" d="M59.74,17.54l-1.49.86,7.11,9,1.48-.82V26.1Z"/><path id="Path_3010" data-name="Path 3010" class="cls-34" d="M48.75,18.54l-1.49.86,11-1.44,1.69-1Z"/><path id="Path_3011" data-name="Path 3011" class="cls-34" d="M59.74,17.1,58.25,18l7.11,9,1.48-.82Z"/><path id="Path_3012" data-name="Path 3012" class="cls-36" d="M58.71,17.89l.64-11.08L60,6.38,61,7l.9,13.4-1.2.62Z"/><path id="Path_3013" data-name="Path 3013" class="cls-36" d="M59.35,6.81,60,6.38,48.45,18.72l-1.19.68Z"/><path id="Path_3014" data-name="Path 3014" class="cls-35" d="M59.35,6.81l-.16,1.46L48.63,19.9l-1.37-.5Z"/><path id="Path_3015" data-name="Path 3015" class="cls-35" d="M58.05,18.33l1.3-11.52.95.56L60.65,21l-2.4-2.57Z"/><path id="Path_3016" data-name="Path 3016" class="cls-36" d="M60.3,7.37,61,7l5.21,19.29-.61.38Z"/><path id="Path_3017" data-name="Path 3017" class="cls-35" d="M60.3,7.37l0,2L64.4,25.37l1.15,1.27Z"/><path id="Path_3018" data-name="Path 3018" class="cls-33" d="M34.28,26.91v.44l9.8-.77,1.71-1Z"/><path id="Path_3019" data-name="Path 3019" class="cls-33" d="M45.58,25.72l-1.5.86,10.36,7.13L56,32.77v-.45Z"/><path id="Path_3020" data-name="Path 3020" class="cls-34" d="M35.78,26.05l-1.5.86,9.8-.76,1.7-1Z"/><path id="Path_3021" data-name="Path 3021" class="cls-34" d="M45.58,25.29l-1.5.86,10.36,7.11L56,32.32Z"/><path id="Path_3022" data-name="Path 3022" class="cls-36" d="M44.55,26.07,45.2,15l.65-.42.95.57,1,12.42-1.2.63Z"/><path id="Path_3023" data-name="Path 3023" class="cls-36" d="M45.2,15l.65-.42L35.47,26.22l-1.19.69Z"/><path id="Path_3024" data-name="Path 3024" class="cls-35" d="M45.2,15,45,16.45l-9.37,11-1.39-.5Z"/><path id="Path_3025" data-name="Path 3025" class="cls-35" d="M43.9,26.5,45.2,15l.95.56.45,12.63-2.46-1.64Z"/><path id="Path_3026" data-name="Path 3026" class="cls-36" d="M46.15,15.55l.65-.41,8.52,17.29-.64.44Z"/><path id="Path_3027" data-name="Path 3027" class="cls-35" d="M46.15,15.55l0,1.95,7.15,14.33,1.35,1Z"/><path id="Path_3028" data-name="Path 3028" class="cls-33" d="M21.31,34.53V35l8.62-.2,1.7-1Z"/><path id="Path_3029" data-name="Path 3029" class="cls-33" d="M31.42,33.91l-1.49.86,13.73,5.4,1.18-.94v-.45Z"/><path id="Path_3030" data-name="Path 3030" class="cls-34" d="M22.8,33.67l-1.49.86,8.62-.2,1.7-1Z"/><path id="Path_3031" data-name="Path 3031" class="cls-34" d="M31.42,33.47l-1.49.86,13.73,5.39,1.18-.94Z"/><path id="Path_3032" data-name="Path 3032" class="cls-36" d="M30.39,34.26,31,23.18l.65-.43.95.58,1.11,11.44-1.2.63Z"/><path id="Path_3033" data-name="Path 3033" class="cls-36" d="M31,23.18l.65-.43L22.5,33.85l-1.19.68Z"/><path id="Path_3034" data-name="Path 3034" class="cls-35" d="M31,23.17l-.17,1.47L22.68,35l-1.37-.5Z"/><path id="Path_3035" data-name="Path 3035" class="cls-35" d="M29.74,34.68,31,23.17l.95.57.56,11.65L30,34.68Z"/><path id="Path_3036" data-name="Path 3036" class="cls-36" d="M32,23.74l.65-.41L44,38.72l-.61.51Z"/><path id="Path_3037" data-name="Path 3037" class="cls-35" d="M32,23.74l0,2L42.6,38.84l.73.39Z"/><path id="Path_3038" data-name="Path 3038" class="cls-33" d="M21.76,48l-.05.89,18.14.31v-.45l-.41-.41Z"/><path id="Path_3039" data-name="Path 3039" class="cls-34" d="M22.31,47.65l-.39,1,17.93.1.1-.92Z"/><path id="Path_3040" data-name="Path 3040" class="cls-33" d="M8.93,52.48v.29l11.69-3.35,1.09-.53.37-1.09Z"/><path id="Path_3041" data-name="Path 3041" class="cls-34" d="M8.94,51.73v.75L19.6,49.55l.81-.86Z"/><path id="Path_3042" data-name="Path 3042" class="cls-35" d="M20.84,38.47,22,37.54,10.24,51.42l-.19.71Z"/><path id="Path_3043" data-name="Path 3043" class="cls-36" d="M21.36,37.06l0,1.26L10.53,52l-1.41.44Z"/><path id="Path_3044" data-name="Path 3044" class="cls-35" d="M20,49.25l1.39-12.19.14-.48.9.05-.09,11-.38,1Z"/><path id="Path_3045" data-name="Path 3045" class="cls-36" d="M19.6,49.55l1.76-12.49.9,0-.34,11.54-1.85.74Z"/><path id="Path_3046" data-name="Path 3046" class="cls-35" d="M22.26,37.1l.14-.47L37.28,48l.17.56Z"/><path id="Path_3047" data-name="Path 3047" class="cls-36" d="M22.26,37.1l-.09.95L36.24,48.58l1.21,0Z"/><path id="Path_3048" data-name="Path 3048" class="cls-33" d="M47.6,53.58V54L32.74,58.6l-1.68-1Z"/><path id="Path_3049" data-name="Path 3049" class="cls-33" d="M31.26,57.74l1.81.76-8,10.19-1.88-1.08v-.45Z"/><path id="Path_3050" data-name="Path 3050" class="cls-34" d="M46.11,52.72l1.49.86L32.74,58.15l-1.68-1Z"/><path id="Path_3051" data-name="Path 3051" class="cls-34" d="M31.26,57.31l1.49.85L25.08,68.25l-1.87-1.09Z"/><path id="Path_3052" data-name="Path 3052" class="cls-36" d="M31.64,47,31,46.58,43.15,54l1.19.68Z"/><path id="Path_3053" data-name="Path 3053" class="cls-36" d="M31.64,47l.16,1.45L43,55.19l1.37-.5Z"/><path id="Path_3054" data-name="Path 3054" class="cls-35" d="M32.28,58.09,31.64,47,31,46.58l-.94.58-.9,13.39,1.2.62Z"/><path id="Path_3055" data-name="Path 3055" class="cls-36" d="M32.94,58.53,31.64,47l-.95.56-.35,13.6,2.4-2.57Z"/><path id="Path_3056" data-name="Path 3056" class="cls-35" d="M30.69,47.57,30,47.16l-6.1,20.13,1,.56Z"/><path id="Path_3057" data-name="Path 3057" class="cls-36" d="M30.69,47.57l0,2L26.08,66.75,25,67.85Z"/><path id="Path_3058" data-name="Path 3058" class="cls-33" d="M61.75,61.78v.45l-14,5-1.7-1Z"/><path id="Path_3059" data-name="Path 3059" class="cls-33" d="M46.23,66.34l1.74.77L39.91,77.26l-1.45-.85V76Z"/><path id="Path_3060" data-name="Path 3060" class="cls-34" d="M60.26,60.93l1.49.85-14,5-1.7-1Z"/><path id="Path_3061" data-name="Path 3061" class="cls-34" d="M46.23,65.89l1.5.86L39.91,76.81,38.46,76Z"/><path id="Path_3062" data-name="Path 3062" class="cls-36" d="M46.13,55.28l.33.21,12.09,7.09L58,62.23Z"/><path id="Path_3063" data-name="Path 3063" class="cls-36" d="M46.62,55.6l.16,1.46,10.7,6.2,1.37-.5Z"/><path id="Path_3064" data-name="Path 3064" class="cls-35" d="M47.27,66.68l-.65-11.09L46,55.18l-.95.56-.9,13.4,1.2.62Z"/><path id="Path_3065" data-name="Path 3065" class="cls-36" d="M47.92,67.11,46.62,55.6l-.95.57-.35,13.59,2.39-2.58Z"/><path id="Path_3066" data-name="Path 3066" class="cls-35" d="M45.67,56.17,45,55.74l-6.1,20.13,1,.56Z"/><path id="Path_3067" data-name="Path 3067" class="cls-36" d="M45.67,56.17l0,1.93L41.06,75.33,40,76.43Z"/><path id="Path_3068" data-name="Path 3068" class="cls-33" d="M75.94,70v.45L62.71,75.78l-1.7-1Z"/><path id="Path_3069" data-name="Path 3069" class="cls-33" d="M61.21,74.92l1.69.78-8,10.18L53.39,85v-.45Z"/><path id="Path_3070" data-name="Path 3070" class="cls-34" d="M74.45,69.09l1.49.86L62.71,75.33l-1.7-1Z"/><path id="Path_3071" data-name="Path 3071" class="cls-34" d="M61.21,74.48l1.54.82L54.87,85.44l-1.48-.85Z"/><path id="Path_3072" data-name="Path 3072" class="cls-36" d="M61.6,64.19l.17,1.45L72,71.3l1.38-.5Z"/><path id="Path_3073" data-name="Path 3073" class="cls-35" d="M62.25,75.27,61.6,64.19,61,63.76l-1,.57-.9,13.4,1.2.62Z"/><path id="Path_3074" data-name="Path 3074" class="cls-36" d="M62.9,75.7,61.6,64.19l-1,.56-.35,13.6,2.36-2.6Z"/><path id="Path_3075" data-name="Path 3075" class="cls-35" d="M60.65,64.75,60,64.34,53.9,84.46l1,.56Z"/><path id="Path_3076" data-name="Path 3076" class="cls-36" d="M60.65,64.75l0,2L56,83.93,54.94,85Z"/><path id="Path_3077" data-name="Path 3077" class="cls-33" d="M90.17,78.17v.44L77.7,84.38l-1.69-1Z"/><path id="Path_3078" data-name="Path 3078" class="cls-33" d="M76.2,83.52l1.68.76L69.81,94.51l-1.44-.93v-.45Z"/><path id="Path_3079" data-name="Path 3079" class="cls-34" d="M88.67,77.31l1.5.86L77.7,83.93,76,83Z"/><path id="Path_3080" data-name="Path 3080" class="cls-34" d="M76.2,83.07l1.49.86L69.81,94.07l-1.44-.95Z"/><path id="Path_3081" data-name="Path 3081" class="cls-36" d="M76.41,72.67l-.32-.21L87,78.34l.59.35Z"/><path id="Path_3082" data-name="Path 3082" class="cls-36" d="M76.58,72.77l.17,1.46,9.76,5.13,1.38-.5Z"/><path id="Path_3083" data-name="Path 3083" class="cls-35" d="M77.23,83.85l-.65-11.08-.65-.41-1,.56-.89,13.4,1.2.61Z"/><path id="Path_3084" data-name="Path 3084" class="cls-36" d="M77.88,84.28l-1.3-11.51-1,.58-.34,13.59,2.33-2.64Z"/><path id="Path_3085" data-name="Path 3085" class="cls-35" d="M75.63,73.35,75,72.92l-6.1,20.13,1,.56Z"/><path id="Path_3086" data-name="Path 3086" class="cls-36" d="M75.63,73.35l0,1.93L71,92.51l-1.11,1.1Z"/><path id="Path_3087" data-name="Path 3087" class="cls-33" d="M105.66,85.8v.45L92.67,93,91,92Z"/><path id="Path_3088" data-name="Path 3088" class="cls-33" d="M91.18,92.1l1.68.76-8,10.37-1.65-.94v-.45Z"/><path id="Path_3089" data-name="Path 3089" class="cls-34" d="M103.14,85.46l2.52.34-13,6.71-1.68-1Z"/><path id="Path_3090" data-name="Path 3090" class="cls-34" d="M91.18,91.65l1.49.86L84.9,102.78l-1.65-.94Z"/><path id="Path_3091" data-name="Path 3091" class="cls-36" d="M91.57,81.36l-.66-.42L102,86.37l1.18.68Z"/><path id="Path_3092" data-name="Path 3092" class="cls-36" d="M91.57,81.37l.16,1.45,10.37,4.82,1.11-.59Z"/><path id="Path_3093" data-name="Path 3093" class="cls-35" d="M91.73,82.82l-.66-.42L100.9,87l1.2.61Z"/><path id="Path_3094" data-name="Path 3094" class="cls-35" d="M92.21,92.45l-.64-11.09-.66-.42-1,.57-.89,13.4,1.2.62Z"/><path id="Path_3095" data-name="Path 3095" class="cls-36" d="M92.86,92.86,91.57,81.37l-1,.56-.34,13.6,2.3-2.66Z"/><path id="Path_3096" data-name="Path 3096" class="cls-35" d="M90.61,81.93,90,81.52l-6.1,20.12,1,.56Z"/><path id="Path_3097" data-name="Path 3097" class="cls-36" d="M90.61,81.93l0,1.95-4.46,16.68-1.22,1.65Z"/><path id="Path_3098" data-name="Path 3098" class="cls-33" d="M171,61.78l0,.87-19.49-.18V62l.79-.89Z"/><path id="Path_3099" data-name="Path 3099" class="cls-34" d="M169.9,61.38l.93,1L151.55,62l.79-.88Z"/><path id="Path_3100" data-name="Path 3100" class="cls-33" d="M182.14,65.39v.29l-9.95-2.9L171,62.65l-.36-1.09Z"/><path id="Path_3101" data-name="Path 3101" class="cls-34" d="M182.13,64.64v.75l-8.88-2.61-.81-.87Z"/><path id="Path_3102" data-name="Path 3102" class="cls-35" d="M173.7,51.77l-1.16-.92,8.3,13.48L181,65Z"/><path id="Path_3103" data-name="Path 3103" class="cls-36" d="M173.19,50.36l0,1.26,7.38,13.27,1.42.44Z"/><path id="Path_3104" data-name="Path 3104" class="cls-35" d="M172.89,62.48l.3-12.12-.51-.66-.92,0L169.9,61.38l.93,1Z"/><path id="Path_3105" data-name="Path 3105" class="cls-36" d="M173.26,62.78l-.07-12.42-.9,0-1.46,12,2,.2Z"/><path id="Path_3106" data-name="Path 3106" class="cls-35" d="M172.29,50.41l-.53-.66-17,11.73-.19.52Z"/><path id="Path_3107" data-name="Path 3107" class="cls-36" d="M172.29,50.41l0,1L155.83,62l-1.27,0Z"/><path id="Path_3108" data-name="Path 3108" class="cls-33" d="M143.55,65.71v.45l17.73,6.62,1.69-1Z"/><path id="Path_3109" data-name="Path 3109" class="cls-33" d="M162.77,71.92l-1.49.86,10.45,10.91,1.6-.9v-.45Z"/><path id="Path_3110" data-name="Path 3110" class="cls-34" d="M145.05,64.85l-1.5.86,17.73,6.64,1.69-1Z"/><path id="Path_3111" data-name="Path 3111" class="cls-34" d="M162.77,71.49l-1.49.86,10.45,10.9,1.6-.91Z"/><path id="Path_3112" data-name="Path 3112" class="cls-36" d="M162.38,61.19l.65-.42-15,5.37-1.18.68Z"/><path id="Path_3113" data-name="Path 3113" class="cls-35" d="M162.38,61.19l-.16,1.45-14,4.68-1.37-.5Z"/><path id="Path_3114" data-name="Path 3114" class="cls-36" d="M161.74,72.27l.64-11.08.65-.42.95.57.9,13.41-1.2.61Z"/><path id="Path_3115" data-name="Path 3115" class="cls-35" d="M161.08,72.71l1.3-11.52,1,.56.35,13.6-2.4-2.57Z"/><path id="Path_3116" data-name="Path 3116" class="cls-36" d="M163.33,61.75l.65-.41,8.48,21-.56.57Z"/><path id="Path_3117" data-name="Path 3117" class="cls-35" d="M163.33,61.75l0,2,7.42,18.15L171.9,83Z"/><path id="Path_3118" data-name="Path 3118" class="cls-33" d="M130.24,73.42v.45L148,80.49l1.69-1Z"/><path id="Path_3119" data-name="Path 3119" class="cls-33" d="M149.45,79.64l-1.5.85L158.4,91.4l1.55-.93V90Z"/><path id="Path_3120" data-name="Path 3120" class="cls-34" d="M131.72,72.56l-1.48.86L148,80.06l1.69-1Z"/><path id="Path_3121" data-name="Path 3121" class="cls-34" d="M149.45,79.19l-1.5.86L158.4,91,160,90Z"/><path id="Path_3122" data-name="Path 3122" class="cls-36" d="M149.07,68.9l.65-.43-15,5.38-1.19.68Z"/><path id="Path_3123" data-name="Path 3123" class="cls-35" d="M149.07,68.9l-.18,1.46-14,4.67-1.38-.5Z"/><path id="Path_3124" data-name="Path 3124" class="cls-36" d="M148.41,80l.65-11.08.65-.43.95.58.89,13.4-1.2.61Z"/><path id="Path_3125" data-name="Path 3125" class="cls-35" d="M147.76,80.42l1.3-11.52.95.56.34,13.6L148,80.46Z"/><path id="Path_3126" data-name="Path 3126" class="cls-36" d="M150,69.46l.65-.41,8.49,21-.58.57Z"/><path id="Path_3127" data-name="Path 3127" class="cls-35" d="M150,69.46l0,2,7.43,18.15,1.1,1.1Z"/><path id="Path_3128" data-name="Path 3128" class="cls-33" d="M116.92,81.13v.45l17.71,6.63,1.69-1Z"/><path id="Path_3129" data-name="Path 3129" class="cls-33" d="M136.12,87.35l-1.49.86,10.45,10.91,1.53-1v-.45Z"/><path id="Path_3130" data-name="Path 3130" class="cls-34" d="M118.41,80.27l-1.49.86,17.71,6.63,1.69-1Z"/><path id="Path_3131" data-name="Path 3131" class="cls-34" d="M136.12,86.9l-1.49.86,10.45,10.91,1.53-1Z"/><path id="Path_3132" data-name="Path 3132" class="cls-36" d="M135.73,76.61l.65-.42-15,5.37-1.18.68Z"/><path id="Path_3133" data-name="Path 3133" class="cls-35" d="M135.73,76.61l-.16,1.46-14,4.67-1.36-.5Z"/><path id="Path_3134" data-name="Path 3134" class="cls-36" d="M135.1,87.69l.63-11.08.65-.41,1,.56.88,13.4-1.2.61Z"/><path id="Path_3135" data-name="Path 3135" class="cls-35" d="M134.43,88.11l1.3-11.5,1,.57L137,90.77l-2.31-2.66Z"/><path id="Path_3136" data-name="Path 3136" class="cls-36" d="M136.68,77.18l.67-.42,8.47,21-.57.57Z"/><path id="Path_3137" data-name="Path 3137" class="cls-35" d="M136.68,77.18l0,1.94,7.42,18.16,1.11,1.09Z"/><path id="Path_3138" data-name="Path 3138" class="cls-33" d="M110.76,84.89l-.05.49,2.5,11.17,2.61,2Z"/><path id="Path_3139" data-name="Path 3139" class="cls-34" d="M111.86,84.89h-1.1l2.6,11.63.64,2.34,1.7-.45Z"/><path id="Path_3140" data-name="Path 3140" class="cls-35" d="M114.81,85.23l.67.23-3.56,1.19-.57,0Z"/><path id="Path_3141" data-name="Path 3141" class="cls-33" d="M115.2,96.47l-2,.08,1.45,11h2l.05-.47Z"/><path id="Path_3142" data-name="Path 3142" class="cls-34" d="M116,98.35l-2,.51.71,8.18h2.05Z"/><path id="Path_3143" data-name="Path 3143" class="cls-35" d="M114.4,84.45l-.14,1.28-2.91,1-.19-.71Z"/><path id="Path_3144" data-name="Path 3144" class="cls-36" d="M114,96.08l.4-11.63.92-.17.36.37L116,98.79l-2,.07Z"/><path id="Path_3145" data-name="Path 3145" class="cls-35" d="M113.18,95.77l1.22-11.32.51.44-.91,14-.64-2.34Z"/><path id="Path_3146" data-name="Path 3146" class="cls-36" d="M114.91,84.89l.77-.24.46,22h-.92Z"/><path id="Path_3147" data-name="Path 3147" class="cls-35" d="M114.91,84.89l-.24,2.37.32,17.38.23,2Z"/><path id="Path_3148" data-name="Path 3148" class="cls-33" d="M80.07,7.18v.49l1.61,4.7,2.56,1.94Z"/><path id="Path_3149" data-name="Path 3149" class="cls-34" d="M80.93,7.18h-.86l1.76,5.16.62,2.3,1.68-.52Z"/><path id="Path_3150" data-name="Path 3150" class="cls-37" d="M82.85.81,83.68,0,81,7.7l-.58.09Z"/><path id="Path_3151" data-name="Path 3151" class="cls-33" d="M83.63,12.21l-1.95.16,1.1,7.68,2-.31,0-.49Z"/><path id="Path_3152" data-name="Path 3152" class="cls-34" d="M84.12,13.79l-2,.15.67,5.62,2-.31Z"/><path id="Path_3153" data-name="Path 3153" class="cls-35" d="M82.85.22,82.66,2l-2.2,5.81-.21-.52Z"/><path id="Path_3154" data-name="Path 3154" class="cls-36" d="M82.85.23l.9-.23.36.36,0,13.43-2,.15Z"/><path id="Path_3155" data-name="Path 3155" class="cls-35" d="M81.28,10.74,82.85.22l.5.43-1.2,13.29-.42-1.88Z"/><path id="Path_3156" data-name="Path 3156" class="cls-36" d="M83.35.65l.76-.29L84.31,19l-1,.12Z"/><path id="Path_3157" data-name="Path 3157" class="cls-35" d="M83.35.65,83.11,3V17.15l.24,2Z"/><path id="Path_3158" data-name="Path 3158" class="cls-38" d="M58.8,97v15.68l-1.26-.74V96.25Z"/><path id="Path_3159" data-name="Path 3159" class="cls-38" d="M65.26,100.71v15.66L64,115.65V100Z"/><path id="Path_3160" data-name="Path 3160" class="cls-38" d="M78.19,108.17v15.67l-1.25-.72V107.44Z"/><path id="Path_3161" data-name="Path 3161" class="cls-38" d="M71.73,104.44v15.67l-1.26-.73V103.72Z"/><path id="Path_3162" data-name="Path 3162" class="cls-38" d="M84.66,111.9v15.67l-1.26-.72V111.18Z"/><path id="Path_3163" data-name="Path 3163" class="cls-38" d="M91.13,115.64v15.68l-1.26-.73V114.91Z"/><path id="Path_3164" data-name="Path 3164" class="cls-38" d="M52.33,93.24v15.68l-1.25-.73V92.51Z"/><path id="Path_3165" data-name="Path 3165" class="cls-38" d="M99.22,119.21v15.68L98,134.48v-15.7Z"/><path id="Path_3166" data-name="Path 3166" class="cls-38" d="M20,74.57V90.24a10,10,0,0,1-1.25-.87V73.85Z"/><path id="Path_3167" data-name="Path 3167" class="cls-38" d="M32.93,82V97.7L31.68,97V81.32Z"/><path id="Path_3168" data-name="Path 3168" class="cls-38" d="M26.47,78.31V94l-1.26-.72V77.58Z"/><path id="Path_3169" data-name="Path 3169" class="cls-38" d="M45.87,89.5v15.68l-1.26-.72V88.78Z"/><path id="Path_3170" data-name="Path 3170" class="cls-38" d="M39.4,85.78v15.67l-1.26-.73V85Z"/><path id="Path_3171" data-name="Path 3171" class="cls-38" d="M109.56,121V136.6h-1.25V120.91Z"/><path id="Path_3172" data-name="Path 3172" class="cls-38" d="M167.54,94.4v15.28l-1.26.72V95.12Z"/><path id="Path_3173" data-name="Path 3173" class="cls-38" d="M161.07,98.13v15.28l-1.25.73V98.86Z"/><path id="Path_3174" data-name="Path 3174" class="cls-38" d="M174,90.71V106l-.17.11-1.08.61V91.39Z"/><path id="Path_3175" data-name="Path 3175" class="cls-38" d="M128.74,116.74v15.31l-1.25.65V117.35Z"/><path id="Path_3176" data-name="Path 3176" class="cls-38" d="M154.61,101.87v15.28l-1.26.72V102.59Z"/><path id="Path_3177" data-name="Path 3177" class="cls-38" d="M135.21,113.06v15.28l-1.25.73V113.79Z"/><path id="Path_3178" data-name="Path 3178" class="cls-38" d="M119.92,120v15.5l-1.25.3V120.23Z"/><path id="Path_3179" data-name="Path 3179" class="cls-38" d="M141.68,109.34v15.28l-1.26.72V110.06Z"/><path id="Path_3180" data-name="Path 3180" class="cls-38" d="M148.14,105.6v15.28l-1.25.73V106.33Z"/></g></svg>