<svg id="Layer_1" data-name="Layer 1" xmlns="http://www.w3.org/2000/svg" viewBox="0 0 315 232"><defs><style>.cls-1{fill:#fff;}.cls-2{fill:#aaa;}.cls-3,.cls-4{fill:#e0e2e4;}.cls-3{opacity:0.99;}.cls-3,.cls-5{isolation:isolate;}.cls-6{fill:#333;}.cls-7{fill:#efaf36;}.cls-8{fill:#c5c8cb;}</style></defs><rect id="Rectangle_720" data-name="Rectangle 720" class="cls-1" x="6" y="7" width="303" height="218" rx="81"/><path class="cls-2" d="M301.9,86H275.32a46.7,46.7,0,0,0-5.13-14.67l26.07-10.56A76.57,76.57,0,0,1,301.9,86Z"/><path class="cls-2" d="M39.78,85.42h0L13.16,85.1A76.5,76.5,0,0,1,17.6,63.75L43.28,74.38a47,47,0,0,0-3.5,11Z"/><path class="cls-2" d="M43.87,73.15h0L18.17,62.21A76.37,76.37,0,0,1,27,45.78L52.13,61.42a47.06,47.06,0,0,0-8.26,11.72Z"/><path class="cls-2" d="M269.47,70.07h0a47.09,47.09,0,0,0-9.94-11.8l24.55-17.66A76.91,76.91,0,0,1,295.8,59.67l-26.33,10.4Z"/><path class="cls-2" d="M53.36,60.19h0L28,44.3A77.42,77.42,0,0,1,43.76,28.42L64.89,52a46.93,46.93,0,0,0-11.53,8.19Z"/><path class="cls-2" d="M258.18,57.15h0a46.82,46.82,0,0,0-11.56-6.74l21.12-24.48A77.32,77.32,0,0,1,283,39.34L258.18,57.15Z"/><path class="cls-2" d="M66.57,51.19h0L45.34,27.27a77.57,77.57,0,0,1,16.14-8.82L75.05,48.28a47.18,47.18,0,0,0-8.48,2.91Z"/><path class="cls-2" d="M245,49.79h0a47,47,0,0,0-10.57-2.48l14.37-30.56a76.69,76.69,0,0,1,17.65,8.35L245,49.79Z"/><path class="cls-2" d="M76.93,47.87h0l-13.86-30A76.75,76.75,0,0,1,87.87,13c.69,6,3.46,31,3.77,33.88V47H86a46.86,46.86,0,0,0-9.07.88Z"/><path class="cls-2" d="M233.19,47.18h0c-1.38-.12-2.79-.18-4.18-.18h-5.9l4.82-33.95a77,77,0,0,1,19.18,3.17Z"/><path class="cls-2" d="M221.41,47H210.68l2.51-34h12.33Z"/><polygon class="cls-2" points="209.28 47 200.37 47 200.37 13 211.48 13 209.28 47"/><rect class="cls-2" x="189.19" y="13" width="9.53" height="34"/><rect class="cls-2" x="177.67" y="13" width="9.5" height="34"/><polygon class="cls-2" points="165.94 47 166.35 13 175.81 13 175.81 47 165.94 47"/><rect class="cls-2" x="154.58" y="13" width="9.47" height="34"/><rect class="cls-2" x="143.01" y="13" width="9.78" height="34"/><rect class="cls-2" x="131.57" y="13" width="9.7" height="34"/><polygon class="cls-2" points="120.04 47 120.63 13 129.7 13 129.7 47 120.04 47"/><rect class="cls-2" x="108.72" y="13" width="9.49" height="34"/><polygon class="cls-2" points="93.51 47 90 13 106.62 13 106.62 47 93.5 47 93.51 47"/><path class="cls-3" d="M39,139.92H13v-8.15H39V138c0,.64,0,1.29,0,1.92Z"/><rect class="cls-3" x="13" y="124.42" width="26" height="6.5"/><rect class="cls-3" x="13" y="117.08" width="26" height="6.5"/><polygon class="cls-3" points="39 116.23 13 116.23 13 108.93 39 108.93 39 116.22 39 116.23"/><rect class="cls-3" x="13" y="101.58" width="26" height="6.5"/><rect class="cls-3" x="13" y="94.23" width="26" height="6.5"/><path class="cls-3" d="M39,93.3H13V90c0-1.33,0-2.68.1-4H39.68A47,47,0,0,0,39,93.29Z"/><path class="cls-3" d="M39.85,85.07H13.16V85h26.7a.64.64,0,0,0,0,.07Z"/><polygon class="cls-4" points="225 219 213.19 219 210.67 185 221.41 185 225.52 219 225 219 225 219"/><polygon class="cls-4" points="211.48 219 200.37 219 200.37 185 209.28 185 211.48 219 211.48 219"/><rect class="cls-4" x="189.19" y="185" width="9.53" height="34"/><rect class="cls-4" x="177.67" y="185" width="9.5" height="34"/><polygon class="cls-4" points="175.81 219 166.35 219 165.94 185 175.81 185 175.81 219"/><rect class="cls-4" x="154.58" y="185" width="9.47" height="34"/><rect class="cls-4" x="143.01" y="185" width="9.78" height="34"/><rect class="cls-4" x="131.56" y="185" width="9.7" height="34"/><polygon class="cls-4" points="129.7 219 120.63 219 120.04 185 129.7 185 129.7 219"/><rect class="cls-4" x="108.71" y="185" width="9.49" height="34"/><polygon class="cls-4" points="106.62 219 90 219 93.51 185 106.62 185 106.62 219"/><path class="cls-4" d="M87.86,219h0a76.69,76.69,0,0,1-24.79-4.81l13.86-30A47.65,47.65,0,0,0,86,185h5.64l0,.52C89.61,203.41,88.29,215.29,87.86,219Z"/><path class="cls-4" d="M227.92,219,223.11,185H229c1.39,0,2.8-.06,4.19-.18l13.92,31A77.09,77.09,0,0,1,227.93,219Z"/><path class="cls-4" d="M248.81,215.25l-14.38-30.56A46.71,46.71,0,0,0,245,182.21l21.45,24.69a76.82,76.82,0,0,1-17.64,8.35Z"/><path class="cls-4" d="M61.48,213.55h0a77.39,77.39,0,0,1-16.15-8.82l21.23-23.92A47.18,47.18,0,0,0,75,183.72L61.48,213.55Z"/><path class="cls-4" d="M267.73,206.06l-21.11-24.47a47,47,0,0,0,11.56-6.74L283,192.66a77.29,77.29,0,0,1-15.26,13.4Z"/><path class="cls-4" d="M43.76,203.58h0A77.17,77.17,0,0,1,28,187.7l25.33-15.89A46.8,46.8,0,0,0,64.89,180Z"/><path class="cls-4" d="M284.08,191.39l-24.55-17.66a46.88,46.88,0,0,0,9.93-11.8l26.34,10.4a77.2,77.2,0,0,1-11.72,19.06Z"/><path class="cls-4" d="M27,186.22h0a76.94,76.94,0,0,1-8.78-16.42l25.7-10.94a47.11,47.11,0,0,0,8.26,11.73L27,186.22Z"/><path class="cls-4" d="M296.25,171.23h0l-26.06-10.57a46.71,46.71,0,0,0,3.91-9.38A47.25,47.25,0,0,0,275.91,141H302v1a76.56,76.56,0,0,1-5.74,29.23Z"/><path class="cls-4" d="M17.59,168.25h0a76.85,76.85,0,0,1-4.44-21.36l26.63-.31a47,47,0,0,0,3.5,11L17.59,168.25Z"/><path class="cls-4" d="M39.6,145.56H13.08C13,144.38,13,143.18,13,142v-1H39.09c.1,1.53.27,3.06.51,4.56Z"/><polygon class="cls-3" points="275 85 301.7 85 301.7 85.03 301.7 85.06 275.01 85.06 275.01 85.03 275 85 275 85"/><path class="cls-3" d="M275.18,86h26.58c.07,1.33.1,2.68.1,4v3.3h-26a47,47,0,0,0-.68-7.29Z"/><rect class="cls-3" x="275.86" y="94.23" width="26" height="6.5"/><rect class="cls-3" x="275.86" y="101.58" width="26" height="6.5"/><polygon class="cls-3" points="275.86 108.93 301.86 108.93 301.86 116.22 275.86 116.22 275.86 108.92 275.86 108.93"/><rect class="cls-3" x="275.86" y="117.08" width="26" height="6.5"/><rect class="cls-3" x="275.86" y="124.42" width="26" height="6.5"/><path class="cls-3" d="M275.86,131.77h26v8.15h-26c0-.62,0-1.26,0-1.92v-6.22Z"/><path class="cls-4" d="M82,146H46.27a47.39,47.39,0,0,1-1-5.45H80A30.16,30.16,0,0,0,82,146Z"/><path class="cls-4" d="M79.59,139H45.16c-.11-1.32-.16-2.65-.16-4v-1.45H79a29.87,29.87,0,0,0,.59,5.42Z"/><polygon class="cls-4" points="79 131.97 45 131.97 45 125.56 79 125.56 79 131.97 79 131.97"/><polygon class="cls-4" points="79 123.97 45 123.97 45 117.55 79 117.55 79 123.97 79 123.97"/><polygon class="cls-4" points="79 115.97 45 115.97 45 110.56 79 110.56 79 115.97 79 115.97"/><polygon class="cls-4" points="79 108.97 45 108.97 45 102.56 79 102.56 79 108.97 79 108.97"/><path class="cls-4" d="M79,101H45V98c0-.81,0-1.64.06-2.44H79.32A31.36,31.36,0,0,0,79,100v1Z"/><path class="cls-4" d="M79.61,94H45.17a49,49,0,0,1,1.2-7.42h35.8A30.06,30.06,0,0,0,79.61,94Z"/><path class="cls-4" d="M234,86.56h35.8A48.71,48.71,0,0,1,271,94H236.57A29.87,29.87,0,0,0,234,86.56Z"/><path class="cls-4" d="M236.85,95.56h34.26c0,.81.06,1.63.06,2.44v3h-34v-1a31.36,31.36,0,0,0-.32-4.44Z"/><polygon class="cls-4" points="237.17 102.56 271.17 102.56 271.17 108.97 237.17 108.97 237.17 102.56 237.17 102.56"/><polygon class="cls-4" points="237.17 110.56 271.17 110.56 271.17 115.97 237.17 115.97 237.17 110.56 237.17 110.56"/><polygon class="cls-4" points="237.17 117.56 271.17 117.56 271.17 123.97 237.17 123.97 237.17 117.56 237.17 117.56"/><polygon class="cls-4" points="237.17 125.56 271.17 125.56 271.17 131.97 237.17 131.97 237.17 125.56 237.17 125.56"/><path class="cls-4" d="M237.17,133.56h34V135c0,1.32-.05,2.66-.16,4H236.58a29.76,29.76,0,0,0,.59-5.41Z"/><path class="cls-4" d="M236.21,140.56h34.65a49.89,49.89,0,0,1-.95,5.44H234.22a30.06,30.06,0,0,0,2-5.44h0Z"/><path class="cls-4" d="M269.49,86h-7.72l7.49-.11v-.76c.09.35.16.62.23.87Z"/><path class="cls-4" d="M82.85,85.29H46.7a47.62,47.62,0,0,1,4.46-10.83A48.42,48.42,0,0,1,58,65.15L85,82a30.2,30.2,0,0,0-2.16,3.3Z"/><path class="cls-4" d="M269.15,84.74H232.84a30.13,30.13,0,0,0-4-5.36l25.33-17.92a48,48,0,0,1,15,23.28Z"/><path class="cls-4" d="M86.14,80.58h0L59.2,63.92a48.33,48.33,0,0,1,10.89-8.11L88.35,78.25a28.33,28.33,0,0,0-2.2,2.32Z"/><path class="cls-4" d="M227.68,78.26h0A31.77,31.77,0,0,0,225,76l15.83-22.5-1-.47a48,48,0,0,1,14,8.2l-2-.92L227.67,78.27h0Z"/><path class="cls-4" d="M88.88,77.76h0L71.21,55.23a47.41,47.41,0,0,1,14.9-4.73l6,24.72a29.22,29.22,0,0,0-3.22,2.54Z"/><path class="cls-4" d="M223.68,75.06h0c-.85-.56-1.72-1.09-2.62-1.57l6.45-23.28a47.76,47.76,0,0,1,11.7,2.6L223.68,75.06Z"/><path class="cls-4" d="M93.09,74.57h0L87.16,50.36A47.56,47.56,0,0,1,93,50h2.58V73.16c-.83.42-1.66.89-2.49,1.4Z"/><path class="cls-4" d="M219.47,72.71h0a29.57,29.57,0,0,0-6.46-2.1V50h10c.83,0,1.7,0,2.56.07l-6.1,22.63Z"/><path class="cls-4" d="M97.49,72.29V50h9.21V70.09a30,30,0,0,0-9.21,2.2Z"/><path class="cls-4" d="M211.47,70.33h0A30.36,30.36,0,0,0,207,70h-6V50h10.47V70.33Z"/><path class="cls-4" d="M108.51,70h0V50h10.41V70H108.51Z"/><rect class="cls-4" x="190.26" y="50" width="9.21" height="20"/><rect class="cls-4" x="178.32" y="50" width="10.41" height="20"/><rect class="cls-4" x="167.32" y="50" width="9.47" height="20"/><rect class="cls-4" x="154.38" y="50" width="11.41" height="20"/><rect class="cls-4" x="143.38" y="50" width="9.47" height="20"/><rect class="cls-4" x="132.39" y="50" width="9.47" height="20"/><rect class="cls-4" x="120.45" y="50" width="10.41" height="20"/><path class="cls-4" d="M223,183H213V162.4a29.76,29.76,0,0,0,6.46-2.1l6.1,22.64C224.7,183,223.84,183,223,183Z"/><path class="cls-4" d="M211.47,183H201V163h6a30.36,30.36,0,0,0,4.47-.33V183Z"/><rect class="cls-4" x="190.26" y="163" width="9.21" height="20"/><polygon class="cls-4" points="188.73 183 178.32 183 178.32 163 188.73 163 188.73 183 188.73 183"/><rect class="cls-4" x="167.32" y="163" width="9.47" height="20"/><polygon class="cls-4" points="165.79 183 154.38 183 154.38 163 165.79 163 165.79 183 165.79 183"/><rect class="cls-4" x="143.39" y="163" width="9.47" height="20"/><rect class="cls-4" x="132.39" y="163" width="9.47" height="20"/><polygon class="cls-4" points="130.85 183 120.44 183 120.44 163 130.85 163 130.85 183 130.85 183"/><path class="cls-4" d="M118.91,183H108.5V163h10.41v20Z"/><path class="cls-4" d="M106.7,183H97.49V160.71a29.53,29.53,0,0,0,9.21,2.2Z"/><path class="cls-4" d="M95.58,183H93a49.61,49.61,0,0,1-5.84-.35l5.93-24.21c.81.5,1.65,1,2.49,1.4V183Z"/><path class="cls-4" d="M227.51,182.79h0l-6.45-23.28a28.64,28.64,0,0,0,2.61-1.57l15.54,22.26a48.43,48.43,0,0,1-11.7,2.6Z"/><path class="cls-4" d="M86.1,182.51h0a47.93,47.93,0,0,1-14.9-4.73l17.67-22.54a29.22,29.22,0,0,0,3.22,2.54Z"/><path class="cls-4" d="M239.87,180h0l1-.46L225,157a30.11,30.11,0,0,0,2.66-2.25l24.22,17.95,2-.93a47.68,47.68,0,0,1-14,8.19Z"/><path class="cls-4" d="M70.08,177.19h0a48.49,48.49,0,0,1-10.88-8.11l26.94-16.65a30.15,30.15,0,0,0,2.2,2.32Z"/><path class="cls-4" d="M254.12,171.54l-25.33-17.92a30.18,30.18,0,0,0,4.05-5.36h36.31a48.09,48.09,0,0,1-15,23.28Z"/><path class="cls-4" d="M58,167.85h0a48.12,48.12,0,0,1-6.84-9.31,47.62,47.62,0,0,1-4.46-10.83H82.85A30.2,30.2,0,0,0,85,151Z"/><path class="cls-4" d="M269.26,147.85h0v-.74l-7.62-.11h7.85c-.09.32-.16.6-.23.85Z"/><rect id="Rectangle_761" data-name="Rectangle 761" class="cls-4" x="98" y="83" width="120" height="63"/><rect id="Rectangle_763" data-name="Rectangle 763" class="cls-1" x="132" width="51" height="13"/><rect id="Rectangle_764" data-name="Rectangle 764" class="cls-1" x="132" y="219" width="51" height="13"/><rect id="Rectangle_765" data-name="Rectangle 765" class="cls-1" x="302" y="91" width="13" height="51"/><rect id="Rectangle_766" data-name="Rectangle 766" class="cls-1" y="91" width="13" height="51"/><g class="cls-5"><path class="cls-6" d="M141,7.56,141.66,4h1l-1.1,5h-1l-.81-3.33L138.93,9h-1l-1.11-5h1l.68,3.54L139.31,4h.87Z"/><path class="cls-6" d="M146.23,6.84h-2V8.18h2.31V9h-3.33V4h3.33v.83h-2.31V6h2Z"/><path class="cls-6" d="M149.76,7.69a.51.51,0,0,0-.21-.44,2.64,2.64,0,0,0-.74-.33,6.26,6.26,0,0,1-.84-.34,1.38,1.38,0,0,1-.85-1.23,1.21,1.21,0,0,1,.23-.72,1.51,1.51,0,0,1,.65-.5A2.42,2.42,0,0,1,149,4a2.24,2.24,0,0,1,.95.19,1.55,1.55,0,0,1,.64.54,1.39,1.39,0,0,1,.23.8h-1a.67.67,0,0,0-.22-.53.85.85,0,0,0-.6-.19,1,1,0,0,0-.59.16.53.53,0,0,0-.2.42.49.49,0,0,0,.24.41,2.5,2.5,0,0,0,.72.3,3.11,3.11,0,0,1,1.27.66,1.28,1.28,0,0,1,.4,1,1.19,1.19,0,0,1-.48,1,2.13,2.13,0,0,1-1.32.37,2.59,2.59,0,0,1-1-.21,1.67,1.67,0,0,1-.72-.58,1.49,1.49,0,0,1-.24-.85h1c0,.55.32.83,1,.83a1,1,0,0,0,.57-.15A.49.49,0,0,0,149.76,7.69Z"/><path class="cls-6" d="M155.22,4.85H153.7V9h-1V4.85h-1.5V4h4.05Z"/><path class="cls-6" d="M159.93,7.69a.51.51,0,0,0-.21-.44,2.5,2.5,0,0,0-.74-.33,6.26,6.26,0,0,1-.84-.34,1.4,1.4,0,0,1-.85-1.23,1.21,1.21,0,0,1,.23-.72,1.51,1.51,0,0,1,.65-.5,2.49,2.49,0,0,1,1-.17,2.24,2.24,0,0,1,1,.19,1.58,1.58,0,0,1,.65.54,1.47,1.47,0,0,1,.23.8h-1a.69.69,0,0,0-.21-.53.89.89,0,0,0-.61-.19,1,1,0,0,0-.58.16.51.51,0,0,0-.21.42.49.49,0,0,0,.24.41,2.64,2.64,0,0,0,.72.3,3.16,3.16,0,0,1,1.28.66,1.32,1.32,0,0,1,.4,1,1.2,1.2,0,0,1-.49,1,2.13,2.13,0,0,1-1.32.37,2.51,2.51,0,0,1-1-.21,1.56,1.56,0,0,1-.72-.58,1.42,1.42,0,0,1-.25-.85h1c0,.55.33.83,1,.83a.92.92,0,0,0,.57-.15A.49.49,0,0,0,159.93,7.69Z"/><path class="cls-6" d="M165.4,4.85h-1.53V9h-1V4.85h-1.51V4h4.06Z"/><path class="cls-6" d="M168.38,8h-1.8l-.34,1h-1.09L167,4H168l1.87,5h-1.09Zm-1.52-.83h1.24l-.62-1.86Z"/><path class="cls-6" d="M174.33,9h-1l-2-3.27V9h-1V4h1l2,3.28V4h1Z"/><path class="cls-6" d="M175.22,9V4h1.53a2.33,2.33,0,0,1,1.18.3,2.18,2.18,0,0,1,.81.84A2.64,2.64,0,0,1,179,6.4v.23a2.6,2.6,0,0,1-.29,1.23,2.09,2.09,0,0,1-.8.84,2.33,2.33,0,0,1-1.18.3Zm1-4.15V8.18h.49a1.11,1.11,0,0,0,.92-.4A1.74,1.74,0,0,0,178,6.66V6.4a1.79,1.79,0,0,0-.32-1.15,1.08,1.08,0,0,0-.92-.4Z"/></g><g class="cls-5"><path class="cls-6" d="M140.82,225.84h-2v1.34h2.31V228h-3.34v-5h3.33v.83h-2.3V225h2Z"/><path class="cls-6" d="M144.57,227h-1.8l-.34,1h-1.09l1.85-5h.95l1.86,5h-1.09Zm-1.52-.83h1.24l-.62-1.86Z"/><path class="cls-6" d="M149.05,226.69a.53.53,0,0,0-.2-.44,2.79,2.79,0,0,0-.74-.33,5.94,5.94,0,0,1-.85-.34,1.39,1.39,0,0,1-.84-1.23,1.2,1.2,0,0,1,.22-.72,1.51,1.51,0,0,1,.65-.5,2.49,2.49,0,0,1,1-.17,2.21,2.21,0,0,1,.95.19,1.58,1.58,0,0,1,.65.54,1.47,1.47,0,0,1,.23.8h-1a.69.69,0,0,0-.21-.53.89.89,0,0,0-.61-.19,1,1,0,0,0-.58.16.51.51,0,0,0-.21.42.49.49,0,0,0,.24.41,2.78,2.78,0,0,0,.72.3,3.16,3.16,0,0,1,1.28.66,1.28,1.28,0,0,1,.4,1,1.18,1.18,0,0,1-.49,1,2.11,2.11,0,0,1-1.32.37,2.51,2.51,0,0,1-1-.21,1.56,1.56,0,0,1-.72-.58,1.42,1.42,0,0,1-.25-.85h1c0,.55.33.83,1,.83a1,1,0,0,0,.58-.15A.5.5,0,0,0,149.05,226.69Z"/><path class="cls-6" d="M154.52,223.85H153V228h-1v-4.15h-1.5V223h4.05Z"/><path class="cls-6" d="M159.22,226.69a.53.53,0,0,0-.2-.44,2.79,2.79,0,0,0-.74-.33,5.94,5.94,0,0,1-.85-.34,1.39,1.39,0,0,1-.84-1.23,1.2,1.2,0,0,1,.22-.72,1.55,1.55,0,0,1,.66-.5,2.4,2.4,0,0,1,.95-.17,2.21,2.21,0,0,1,1,.19,1.52,1.52,0,0,1,.65.54,1.47,1.47,0,0,1,.23.8h-1A.7.7,0,0,0,159,224a.85.85,0,0,0-.6-.19,1,1,0,0,0-.59.16.51.51,0,0,0-.21.42.48.48,0,0,0,.25.41,2.5,2.5,0,0,0,.72.3,3.18,3.18,0,0,1,1.27.66,1.28,1.28,0,0,1,.4,1,1.18,1.18,0,0,1-.49,1,2.08,2.08,0,0,1-1.31.37,2.52,2.52,0,0,1-1-.21,1.67,1.67,0,0,1-.72-.58,1.49,1.49,0,0,1-.25-.85h1c0,.55.33.83,1,.83a1,1,0,0,0,.57-.15A.5.5,0,0,0,159.22,226.69Z"/><path class="cls-6" d="M164.69,223.85h-1.52V228h-1v-4.15h-1.5V223h4.05Z"/><path class="cls-6" d="M167.67,227h-1.79l-.34,1h-1.09l1.85-5h.95l1.86,5H168Zm-1.52-.83h1.25l-.63-1.86Z"/><path class="cls-6" d="M173.62,228h-1l-2-3.27V228h-1v-5h1l2,3.28V223h1Z"/><path class="cls-6" d="M174.52,228v-5h1.53a2.26,2.26,0,0,1,1.17.3,2,2,0,0,1,.81.84,2.52,2.52,0,0,1,.29,1.24v.23a2.59,2.59,0,0,1-.28,1.23,2,2,0,0,1-.81.84,2.29,2.29,0,0,1-1.17.3Zm1-4.15v3.33h.5a1.12,1.12,0,0,0,.92-.4,1.74,1.74,0,0,0,.32-1.12v-.26a1.79,1.79,0,0,0-.31-1.15,1.1,1.1,0,0,0-.92-.4Z"/></g><g class="cls-5"><path class="cls-6" d="M306,96.73v-1l3.27-2H306v-1h5v1l-3.28,2H311v1Z"/><path class="cls-6" d="M308.38,101.72a3.06,3.06,0,0,1-1.29-.26,2,2,0,0,1-.86-.75,2.19,2.19,0,0,1,0-2.21,2,2,0,0,1,.85-.75,2.86,2.86,0,0,1,1.27-.27h.24a3.11,3.11,0,0,1,1.3.26,2.12,2.12,0,0,1,.86,3,1.91,1.91,0,0,1-.86.75,3,3,0,0,1-1.29.27Zm.22-1a2.15,2.15,0,0,0,1.19-.28,1,1,0,0,0,0-1.6,2,2,0,0,0-1.18-.28h-.24a2.12,2.12,0,0,0-1.19.28.89.89,0,0,0-.42.8.92.92,0,0,0,.41.8,2.12,2.12,0,0,0,1.18.28Z"/><path class="cls-6" d="M307.82,104.3v-.81H306v-1h5v1.85a2,2,0,0,1-.4,1.36,1.35,1.35,0,0,1-1.11.48,1.51,1.51,0,0,1-.85-.22,1.6,1.6,0,0,1-.54-.67l-2,1.08H306v-1.1Zm.83-.81v.82a.85.85,0,0,0,.2.6.7.7,0,0,0,.54.21.72.72,0,0,0,.55-.2.79.79,0,0,0,.21-.61v-.82Z"/><path class="cls-6" d="M310.15,110.5V109H306v-1h4.15v-1.5H311v4Z"/><path class="cls-6" d="M306,115.14v-1h2.13v-2H306v-1h5v1h-2v2h2v1Z"/><path class="cls-6" d="M307.31,120.36a.51.51,0,0,0,.44-.21,2.54,2.54,0,0,0,.33-.73,5.94,5.94,0,0,1,.34-.85,1.4,1.4,0,0,1,1.23-.85,1.21,1.21,0,0,1,.72.23,1.51,1.51,0,0,1,.5.65,2.49,2.49,0,0,1,.17,1,2.24,2.24,0,0,1-.19,1,1.58,1.58,0,0,1-.54.65,1.47,1.47,0,0,1-.8.23v-1a.69.69,0,0,0,.53-.21.89.89,0,0,0,.19-.61,1,1,0,0,0-.16-.58.51.51,0,0,0-.42-.21.49.49,0,0,0-.41.24,2.78,2.78,0,0,0-.3.72,3.16,3.16,0,0,1-.66,1.28,1.32,1.32,0,0,1-1,.4,1.2,1.2,0,0,1-1-.49,2.13,2.13,0,0,1-.37-1.32,2.51,2.51,0,0,1,.21-1,1.56,1.56,0,0,1,.58-.72,1.42,1.42,0,0,1,.85-.25v1c-.55,0-.83.33-.83,1a.92.92,0,0,0,.15.57A.49.49,0,0,0,307.31,120.36Z"/><path class="cls-6" d="M310.15,125.83V124.3H306v-1h4.15v-1.51H311v4.06Z"/><path class="cls-6" d="M307,128.81V127l-1-.34v-1.09l5,1.85v.95l-5,1.87v-1.09Zm.83-1.52v1.24l1.86-.62Z"/><path class="cls-6" d="M306,134.76v-1l3.27-2H306v-1h5v1l-3.28,2H311v1Z"/><path class="cls-6" d="M306,135.65h5v1.53a2.33,2.33,0,0,1-.3,1.18,2.18,2.18,0,0,1-.84.81,2.64,2.64,0,0,1-1.24.29h-.23a2.6,2.6,0,0,1-1.23-.29,2.09,2.09,0,0,1-.84-.8,2.32,2.32,0,0,1-.3-1.17Zm4.15,1h-3.33v.49a1.11,1.11,0,0,0,.4.92,1.74,1.74,0,0,0,1.12.33h.26a1.79,1.79,0,0,0,1.15-.32,1.08,1.08,0,0,0,.4-.92Z"/></g><g class="cls-5"><path class="cls-6" d="M7.69,136.57a.53.53,0,0,0-.44.2,2.79,2.79,0,0,0-.33.74,5.94,5.94,0,0,1-.34.85,1.39,1.39,0,0,1-1.23.84,1.2,1.2,0,0,1-.72-.22,1.49,1.49,0,0,1-.5-.66,2.4,2.4,0,0,1-.17-.95,2.21,2.21,0,0,1,.19-1,1.52,1.52,0,0,1,.54-.65,1.47,1.47,0,0,1,.8-.23v1a.69.69,0,0,0-.53.21.88.88,0,0,0-.19.61,1,1,0,0,0,.16.58.51.51,0,0,0,.42.21.48.48,0,0,0,.41-.25,2.5,2.5,0,0,0,.3-.72,3.18,3.18,0,0,1,.66-1.27,1.28,1.28,0,0,1,1-.4,1.18,1.18,0,0,1,1,.49,2.08,2.08,0,0,1,.37,1.31,2.52,2.52,0,0,1-.21,1,1.56,1.56,0,0,1-.58.72,1.42,1.42,0,0,1-.85.25v-1c.55,0,.83-.33.83-1a1,1,0,0,0-.15-.57A.5.5,0,0,0,7.69,136.57Z"/><path class="cls-6" d="M6.62,130.76a2.92,2.92,0,0,1,1.29.26,2,2,0,0,1,.86.74,2.19,2.19,0,0,1,0,2.21,2,2,0,0,1-.85.76,3.16,3.16,0,0,1-1.27.27H6.41a3,3,0,0,1-1.3-.27,2,2,0,0,1-.86-.75,2,2,0,0,1,.86-3,3.09,3.09,0,0,1,1.29-.26Zm-.22,1a2.07,2.07,0,0,0-1.19.28,1,1,0,0,0,0,1.59,2,2,0,0,0,1.18.29h.24a2.2,2.2,0,0,0,1.19-.28.92.92,0,0,0,.42-.81.9.9,0,0,0-.41-.79,2,2,0,0,0-1.18-.28Z"/><path class="cls-6" d="M4,126.25H7.3a1.66,1.66,0,0,1,1.29.51,1.94,1.94,0,0,1,.48,1.39,2,2,0,0,1-.46,1.39,1.67,1.67,0,0,1-1.27.52H4v-1H7.31A.94.94,0,0,0,8,128.8a.88.88,0,0,0,.22-.65q0-.86-.9-.87H4Z"/><path class="cls-6" d="M4.85,121.66v1.52H9v1H4.85v1.5H4v-4Z"/><path class="cls-6" d="M9,117v1H6.87v2H9v1H4v-1H6v-2H4v-1Z"/><path class="cls-6" d="M7.69,111.81a.5.5,0,0,0-.44.2,2.64,2.64,0,0,0-.33.74,5.75,5.75,0,0,1-.34.84,1.38,1.38,0,0,1-1.23.85,1.15,1.15,0,0,1-.72-.23,1.51,1.51,0,0,1-.5-.65,2.4,2.4,0,0,1-.17-1,2.18,2.18,0,0,1,.19-1,1.52,1.52,0,0,1,.54-.65,1.39,1.39,0,0,1,.8-.23v1A.67.67,0,0,0,5,112a.85.85,0,0,0-.19.6,1,1,0,0,0,.16.59.51.51,0,0,0,.42.21.5.5,0,0,0,.41-.25,2.5,2.5,0,0,0,.3-.72,3.11,3.11,0,0,1,.66-1.27,1.28,1.28,0,0,1,1-.4,1.18,1.18,0,0,1,1,.49,2.08,2.08,0,0,1,.37,1.31,2.59,2.59,0,0,1-.21,1,1.67,1.67,0,0,1-.58.72,1.49,1.49,0,0,1-.85.24v-1c.55,0,.83-.33.83-1a1,1,0,0,0-.15-.57A.48.48,0,0,0,7.69,111.81Z"/><path class="cls-6" d="M4.85,106.34v1.52H9v1H4.85v1.5H4v-4Z"/><path class="cls-6" d="M8,103.35v1.8l1,.34v1.09l-5-1.85v-1l5-1.86V103Zm-.83,1.52v-1.24l-1.86.63Z"/><path class="cls-6" d="M9,97.41v1l-3.27,2H9v1H4v-1l3.28-2H4v-1Z"/><path class="cls-6" d="M9,96.51H4V95a2.26,2.26,0,0,1,.3-1.17A2,2,0,0,1,5.16,93a2.52,2.52,0,0,1,1.24-.29h.23A2.59,2.59,0,0,1,7.86,93a2,2,0,0,1,.84.81A2.26,2.26,0,0,1,9,95Zm-4.15-1H8.18V95a1.12,1.12,0,0,0-.4-.92,1.74,1.74,0,0,0-1.12-.32H6.4a1.79,1.79,0,0,0-1.15.31,1.1,1.1,0,0,0-.4.92Z"/></g><path id="Path_5101" data-name="Path 5101" class="cls-7" d="M143.25,13.11h9.43v33.5H142.42Z"/><g class="cls-5"><path class="cls-6" d="M146.9,30h-.84V26.74l-1,.31v-.69l1.76-.63h.09Z"/><path class="cls-6" d="M151.16,28.24a2.17,2.17,0,0,1-.36,1.35,1.31,1.31,0,0,1-1.08.47,1.26,1.26,0,0,1-1.06-.46,2.05,2.05,0,0,1-.38-1.32V27.5a2.12,2.12,0,0,1,.37-1.36,1.47,1.47,0,0,1,2.13,0,2.05,2.05,0,0,1,.38,1.32Zm-.85-.87a1.53,1.53,0,0,0-.14-.77.5.5,0,0,0-.45-.24.48.48,0,0,0-.44.23,1.33,1.33,0,0,0-.15.72v1a1.58,1.58,0,0,0,.14.77.47.47,0,0,0,.45.26.48.48,0,0,0,.45-.25,1.56,1.56,0,0,0,.14-.74Z"/></g><rect id="Rectangle_911" data-name="Rectangle 911" class="cls-8" x="143" y="185" width="10" height="15"/><rect id="Rectangle_912" data-name="Rectangle 912" class="cls-8" x="154" y="185" width="10" height="15"/><rect id="Rectangle_913" data-name="Rectangle 913" class="cls-8" x="166" y="185" width="10" height="15"/><g class="cls-5"><path class="cls-6" d="M27.63,78h-.85V74.74l-1,.31v-.69l1.76-.63h.1Z"/></g><g class="cls-5"><path class="cls-6" d="M34.49,60H31.57v-.58L33,58a3.66,3.66,0,0,0,.42-.54.9.9,0,0,0,.14-.44.64.64,0,0,0-.15-.45.5.5,0,0,0-.41-.16.53.53,0,0,0-.45.2.77.77,0,0,0-.17.52h-.85a1.49,1.49,0,0,1,.19-.72,1.28,1.28,0,0,1,.53-.5,1.59,1.59,0,0,1,.77-.18A1.5,1.5,0,0,1,34,56a1.13,1.13,0,0,1,.36.9,1.41,1.41,0,0,1-.16.64,3.71,3.71,0,0,1-.56.76l-1,1h1.83Z"/></g><g class="cls-5"><path class="cls-6" d="M43.43,42.49h.45a.62.62,0,0,0,.48-.16.61.61,0,0,0,.15-.43.54.54,0,0,0-.15-.4.71.71,0,0,0-.83,0,.43.43,0,0,0-.16.35h-.85a1.06,1.06,0,0,1,.18-.6,1.12,1.12,0,0,1,.5-.41,1.72,1.72,0,0,1,.72-.15A1.58,1.58,0,0,1,45,41a1.12,1.12,0,0,1,.38.89.88.88,0,0,1-.18.54,1.18,1.18,0,0,1-.47.38,1,1,0,0,1,.72,1,1.13,1.13,0,0,1-.42.92,1.69,1.69,0,0,1-1.09.34,1.56,1.56,0,0,1-1.05-.34,1.09,1.09,0,0,1-.4-.89h.84a.48.48,0,0,0,.18.39.64.64,0,0,0,.45.16.68.68,0,0,0,.47-.16.58.58,0,0,0,.17-.43c0-.42-.23-.64-.7-.64h-.45Z"/></g><g class="cls-5"><path class="cls-6" d="M63.07,32.39h.49v.69h-.49V34h-.84v-.92H60.48l0-.54,1.78-2.81h.85Zm-1.79,0h.95v-1.5l-.06.1Z"/></g><g class="cls-5"><path class="cls-6" d="M77.69,27.9l.25-2.17h2.39v.71H78.64l-.11.92a1.29,1.29,0,0,1,.64-.16,1.24,1.24,0,0,1,1,.37,1.54,1.54,0,0,1,.34,1.06,1.61,1.61,0,0,1-.17.74,1.23,1.23,0,0,1-.5.51,1.57,1.57,0,0,1-.77.18,1.58,1.58,0,0,1-.72-.16,1.24,1.24,0,0,1-.52-.44,1.11,1.11,0,0,1-.2-.65h.83a.64.64,0,0,0,.19.42.6.6,0,0,0,.42.15.51.51,0,0,0,.44-.21,1,1,0,0,0,.16-.59.78.78,0,0,0-.18-.55.66.66,0,0,0-.51-.2.78.78,0,0,0-.49.16l-.08.08Z"/></g><g class="cls-5"><path class="cls-6" d="M98.87,25.69v.7h-.09a1.36,1.36,0,0,0-.92.3,1.23,1.23,0,0,0-.42.8,1.15,1.15,0,0,1,.86-.34,1.09,1.09,0,0,1,.88.39,1.77,1.77,0,0,1,.15,1.81,1.28,1.28,0,0,1-.51.52,1.44,1.44,0,0,1-.75.19A1.38,1.38,0,0,1,97,29.59a1.8,1.8,0,0,1-.42-1.25V28a2.77,2.77,0,0,1,.26-1.22,2,2,0,0,1,.76-.83,2.19,2.19,0,0,1,1.14-.29ZM98,27.83a.6.6,0,0,0-.37.11.62.62,0,0,0-.25.28v.26a1.15,1.15,0,0,0,.17.66.57.57,0,0,0,.91,0,1,1,0,0,0,0-1.12A.57.57,0,0,0,98,27.83Z"/></g><g class="cls-5"><path class="cls-6" d="M113.47,26.21,111.82,30h-.89l1.65-3.58h-2.12v-.69h3Z"/></g><g class="cls-5"><path class="cls-6" d="M126.35,26.87a.94.94,0,0,1-.16.55,1,1,0,0,1-.42.38,1.31,1.31,0,0,1,.49.41,1.08,1.08,0,0,1,.18.62,1.12,1.12,0,0,1-.39.9,1.55,1.55,0,0,1-1,.33,1.57,1.57,0,0,1-1-.33,1.12,1.12,0,0,1-.39-.9,1.08,1.08,0,0,1,.18-.62,1.24,1.24,0,0,1,.49-.41,1.06,1.06,0,0,1-.43-.38,1,1,0,0,1-.15-.55A1.11,1.11,0,0,1,124,26a1.68,1.68,0,0,1,2,0A1.07,1.07,0,0,1,126.35,26.87Zm-.76,1.9a.62.62,0,0,0-.16-.45.57.57,0,0,0-.43-.16.6.6,0,0,0-.44.16.65.65,0,0,0-.16.45.64.64,0,0,0,.16.44.59.59,0,0,0,.44.17.55.55,0,0,0,.43-.17A.57.57,0,0,0,125.59,28.77Zm-.09-1.86a.57.57,0,0,0-.13-.4.47.47,0,0,0-.37-.15.5.5,0,0,0-.37.14.71.71,0,0,0,0,.82.47.47,0,0,0,.37.15.45.45,0,0,0,.37-.15A.59.59,0,0,0,125.5,26.91Z"/></g><g class="cls-5"><path class="cls-6" d="M136.55,28.29a1.06,1.06,0,0,1-.77.33,1.15,1.15,0,0,1-.91-.39,1.53,1.53,0,0,1-.34-1.05,1.64,1.64,0,0,1,.18-.76,1.39,1.39,0,0,1,2.51.07,2.21,2.21,0,0,1,.19.91v.31a2.51,2.51,0,0,1-.53,1.68,2.06,2.06,0,0,1-1.51.65h-.2v-.71h.18A1.08,1.08,0,0,0,136.55,28.29ZM136,28a.61.61,0,0,0,.36-.1.68.68,0,0,0,.22-.26v-.35a1.13,1.13,0,0,0-.16-.66.51.51,0,0,0-.44-.24.51.51,0,0,0-.42.23,1.1,1.1,0,0,0,0,1.16A.52.52,0,0,0,136,28Z"/></g><g class="cls-5"><path class="cls-6" d="M157.9,30h-.84V26.74l-1,.31v-.69l1.76-.63h.09Z"/><path class="cls-6" d="M161.35,30h-.85V26.74l-1,.31v-.69l1.77-.63h.09Z"/></g><g class="cls-5"><path class="cls-6" d="M169.9,30h-.84V26.74l-1,.31v-.69l1.76-.63h.09Z"/><path class="cls-6" d="M174.21,30h-2.92v-.58L172.67,28a3.66,3.66,0,0,0,.42-.54.9.9,0,0,0,.14-.44.64.64,0,0,0-.15-.45.5.5,0,0,0-.41-.16.53.53,0,0,0-.45.2.77.77,0,0,0-.17.52h-.84a1.48,1.48,0,0,1,.18-.72,1.34,1.34,0,0,1,.53-.5,1.59,1.59,0,0,1,.77-.18,1.5,1.5,0,0,1,1,.31,1.11,1.11,0,0,1,.37.9,1.43,1.43,0,0,1-.17.64,3.37,3.37,0,0,1-.56.76l-1,1h1.83Z"/></g><g class="cls-5"><path class="cls-6" d="M180.9,30h-.84V26.74l-1,.31v-.69l1.76-.63h.09Z"/><path class="cls-6" d="M183.15,27.49h.45a.56.56,0,0,0,.64-.59.54.54,0,0,0-.16-.4.61.61,0,0,0-.42-.14.63.63,0,0,0-.41.13.43.43,0,0,0-.16.35h-.85a1.06,1.06,0,0,1,.18-.6,1.12,1.12,0,0,1,.5-.41,1.72,1.72,0,0,1,.72-.15,1.58,1.58,0,0,1,1.06.32,1.12,1.12,0,0,1,.38.89.88.88,0,0,1-.18.54,1.18,1.18,0,0,1-.47.38,1,1,0,0,1,.72,1,1.16,1.16,0,0,1-.41.92,1.74,1.74,0,0,1-1.1.34,1.56,1.56,0,0,1-1-.34,1.09,1.09,0,0,1-.4-.89H183a.48.48,0,0,0,.18.39.64.64,0,0,0,.45.16.68.68,0,0,0,.47-.16.54.54,0,0,0,.17-.43c0-.42-.23-.64-.7-.64h-.45Z"/></g><g class="cls-5"><path class="cls-6" d="M191.9,30h-.84V26.74l-1,.31v-.69l1.76-.63h.09Z"/><path class="cls-6" d="M195.79,28.39h.49v.69h-.49V30H195v-.92H193.2l0-.54,1.78-2.81h.85Zm-1.79,0H195v-1.5l-.06.1Z"/></g><g class="cls-5"><path class="cls-6" d="M203.9,30h-.84V26.74l-1,.31v-.69l1.76-.63h.09Z"/><path class="cls-6" d="M205.42,27.9l.24-2.17h2.39v.71h-1.69l-.11.92a1.32,1.32,0,0,1,.64-.16,1.24,1.24,0,0,1,1,.37,1.54,1.54,0,0,1,.34,1.06,1.5,1.5,0,0,1-.17.74,1.23,1.23,0,0,1-.5.51,1.57,1.57,0,0,1-.77.18,1.58,1.58,0,0,1-.72-.16,1.24,1.24,0,0,1-.52-.44,1.19,1.19,0,0,1-.2-.65h.84a.63.63,0,0,0,.18.42.6.6,0,0,0,.42.15.51.51,0,0,0,.44-.21,1,1,0,0,0,.16-.59.78.78,0,0,0-.18-.55.66.66,0,0,0-.51-.2.78.78,0,0,0-.49.16l-.08.08Z"/></g><g class="cls-5"><path class="cls-6" d="M215.9,30h-.84V26.74l-1,.31v-.69l1.76-.63h.09Z"/><path class="cls-6" d="M219.59,25.69v.7h-.09a1.36,1.36,0,0,0-.92.3,1.23,1.23,0,0,0-.42.8,1.15,1.15,0,0,1,.86-.34,1.09,1.09,0,0,1,.88.39,1.77,1.77,0,0,1,.15,1.81,1.28,1.28,0,0,1-.51.52,1.43,1.43,0,0,1-.74.19,1.39,1.39,0,0,1-1.09-.47,1.8,1.8,0,0,1-.42-1.25V28a2.64,2.64,0,0,1,.27-1.22,1.89,1.89,0,0,1,.75-.83,2.22,2.22,0,0,1,1.14-.29Zm-.83,2.14a.6.6,0,0,0-.37.11.68.68,0,0,0-.25.28v.26a1.15,1.15,0,0,0,.17.66.57.57,0,0,0,.91,0,1,1,0,0,0,0-1.12A.57.57,0,0,0,218.76,27.83Z"/></g><g class="cls-5"><path class="cls-6" d="M231.9,30h-.84V26.74l-1,.31v-.69l1.76-.63h.09Z"/><path class="cls-6" d="M236.19,26.21,234.54,30h-.89l1.65-3.58h-2.12v-.69h3Z"/></g><g class="cls-5"><path class="cls-6" d="M247.9,34h-.84V30.74l-1,.31v-.69l1.76-.63h.09Z"/><path class="cls-6" d="M252.07,30.87a1,1,0,0,1-.15.55,1.13,1.13,0,0,1-.43.38,1.31,1.31,0,0,1,.49.41,1.08,1.08,0,0,1,.18.62,1.12,1.12,0,0,1-.39.9,1.54,1.54,0,0,1-1.05.33,1.57,1.57,0,0,1-1.05-.33,1.12,1.12,0,0,1-.39-.9,1.08,1.08,0,0,1,.18-.62,1.24,1.24,0,0,1,.49-.41,1.13,1.13,0,0,1-.43-.38,1,1,0,0,1-.15-.55,1.11,1.11,0,0,1,.36-.87,1.41,1.41,0,0,1,1-.32,1.44,1.44,0,0,1,1,.32A1.1,1.1,0,0,1,252.07,30.87Zm-.76,1.9a.62.62,0,0,0-.16-.45.57.57,0,0,0-.43-.16.56.56,0,0,0-.43.16.61.61,0,0,0-.17.45.64.64,0,0,0,.16.44.6.6,0,0,0,.44.17.59.59,0,0,0,.44-.17A.6.6,0,0,0,251.31,32.77Zm-.09-1.86a.57.57,0,0,0-.13-.4.47.47,0,0,0-.37-.15.5.5,0,0,0-.37.14.71.71,0,0,0,0,.82.47.47,0,0,0,.37.15.45.45,0,0,0,.37-.15A.59.59,0,0,0,251.22,30.91Z"/></g><g class="cls-5"><path class="cls-6" d="M263.9,43h-.84V39.74l-1,.31v-.69l1.76-.63h.09Z"/><path class="cls-6" d="M267.27,41.29a1.06,1.06,0,0,1-.77.33,1.15,1.15,0,0,1-.91-.39,1.58,1.58,0,0,1-.34-1,1.53,1.53,0,0,1,.19-.76,1.29,1.29,0,0,1,.51-.55,1.4,1.4,0,0,1,.73-.19,1.32,1.32,0,0,1,.75.21,1.37,1.37,0,0,1,.51.6,2.06,2.06,0,0,1,.19.91v.31a2.51,2.51,0,0,1-.53,1.68,2,2,0,0,1-1.5.65h-.21v-.71h.19A1.08,1.08,0,0,0,267.27,41.29Zm-.56-.32a.6.6,0,0,0,.35-.1.68.68,0,0,0,.22-.26v-.35a1.13,1.13,0,0,0-.16-.66.51.51,0,0,0-.44-.24.51.51,0,0,0-.42.23,1,1,0,0,0-.16.59.94.94,0,0,0,.16.57A.5.5,0,0,0,266.71,41Z"/></g><g class="cls-5"><path class="cls-6" d="M279.77,57h-2.92v-.58L278.23,55a3.66,3.66,0,0,0,.42-.54.88.88,0,0,0,.13-.44.64.64,0,0,0-.14-.45.51.51,0,0,0-.41-.16.53.53,0,0,0-.45.2.77.77,0,0,0-.17.52h-.85a1.49,1.49,0,0,1,.19-.72,1.32,1.32,0,0,1,.52-.5,1.66,1.66,0,0,1,.78-.18,1.52,1.52,0,0,1,1,.31,1.13,1.13,0,0,1,.36.9,1.41,1.41,0,0,1-.16.64,3.71,3.71,0,0,1-.56.76l-1,1h1.83Z"/><path class="cls-6" d="M283.16,55.24a2.11,2.11,0,0,1-.37,1.35,1.28,1.28,0,0,1-1.07.47,1.26,1.26,0,0,1-1.06-.46,2.05,2.05,0,0,1-.38-1.32V54.5a2.12,2.12,0,0,1,.37-1.36,1.47,1.47,0,0,1,2.13,0,2.05,2.05,0,0,1,.38,1.32Zm-.85-.87a1.53,1.53,0,0,0-.14-.77.5.5,0,0,0-.45-.24.48.48,0,0,0-.44.23,1.42,1.42,0,0,0-.16.72v1a1.56,1.56,0,0,0,.15.77.47.47,0,0,0,.45.26.48.48,0,0,0,.45-.25,1.56,1.56,0,0,0,.14-.74Z"/></g><g class="cls-5"><path class="cls-6" d="M287.77,77h-2.92v-.58L286.23,75a3.66,3.66,0,0,0,.42-.54.88.88,0,0,0,.13-.44.64.64,0,0,0-.14-.45.51.51,0,0,0-.41-.16.53.53,0,0,0-.45.2.77.77,0,0,0-.17.52h-.85a1.49,1.49,0,0,1,.19-.72,1.32,1.32,0,0,1,.52-.5,1.66,1.66,0,0,1,.78-.18,1.52,1.52,0,0,1,1,.31,1.13,1.13,0,0,1,.36.9,1.41,1.41,0,0,1-.16.64,3.71,3.71,0,0,1-.56.76l-1,1h1.83Z"/><path class="cls-6" d="M290.35,77h-.85V73.74l-1,.31v-.69l1.77-.63h.09Z"/></g></svg>