<?xml version="1.0" encoding="utf-8"?>
<!-- Generator: Adobe Illustrator 25.2.0, SVG Export Plug-In . SVG Version: 6.00 Build 0)  -->
<svg version="1.0" id="Layer_1" xmlns="http://www.w3.org/2000/svg" xmlns:xlink="http://www.w3.org/1999/xlink" x="0px" y="0px"
	 viewBox="0 0 40 40" style="enable-background:new 0 0 40 40;" xml:space="preserve">
<style type="text/css">
	.st0{fill:none;}
	.st1{fill:#4285F4;}
	.st2{fill:#34A853;}
	.st3{fill:#FBBC04;}
	.st4{fill:#EA4335;}
</style>
<g id="Group_3038">
	<circle id="Ellipse_4" class="st0" cx="20" cy="19.7" r="20"/>
	<g id="Google_G_Logo">
		<path id="Path_24" class="st1" d="M35.5,20c0-1.1-0.1-2.1-0.3-3.2H20.3v6.1h8.5c-0.4,2-1.5,3.7-3.1,4.8v4h5.1
			C33.9,28.7,35.6,24.4,35.5,20L35.5,20z"/>
		<path id="Path_25" class="st2" d="M20.3,35.5c3.8,0.1,7.6-1.2,10.5-3.8l-5.1-4c-4.4,2.8-10.4,1.6-13.2-2.9c0,0,0,0,0,0
			c-0.4-0.7-0.8-1.4-1-2.1H6.2v4.1C8.9,32.1,14.3,35.5,20.3,35.5z"/>
		<path id="Path_26" class="st3" d="M11.5,22.7c-0.7-1.9-0.7-4.1,0-6v-4.1H6.2C4,17.1,4,22.3,6.2,26.8L11.5,22.7z"/>
		<path id="Path_27" class="st4" d="M20.3,10.2c2.3,0,4.4,0.8,6.1,2.4L30.9,8C28,5.3,24.2,3.9,20.3,3.9c-6,0-11.4,3.4-14.1,8.7
			l5.2,4.1C12.7,12.8,16.3,10.2,20.3,10.2z"/>
	</g>
</g>
</svg>
