<svg id="Capa_1" enable-background="new 0 0 511.984 511.984" height="512" viewBox="0 0 511.984 511.984" width="512" xmlns="http://www.w3.org/2000/svg"><g><path d="m447.992 36.267-22.231-22.231c-5.395-5.395-14.14-5.398-19.535-.003-3.955 3.955-8.513 8.513-12.468 12.468-5.395 5.395-14.14 5.393-19.535-.003l-12.462-12.462c-5.395-5.395-14.142-5.395-19.538 0l-12.463 12.463c-5.395 5.395-14.142 5.395-19.538 0l-12.462-12.463c-5.395-5.395-14.142-5.395-19.538 0l-12.462 12.463c-5.395 5.395-14.142 5.395-19.538 0l-12.463-12.463c-5.395-5.395-14.142-5.395-19.538 0l-12.462 12.463c-5.395 5.395-14.142 5.395-19.538 0l-12.462-12.463c-5.395-5.395-14.142-5.395-19.538 0l-12.463 12.463c-5.395 5.395-14.142 5.395-19.538 0l-12.462-12.463c-5.395-5.395-14.142-5.395-19.538 0l-22.228 22.231v40h384z" fill="#a6de92"/><path d="m63.992 475.716 22.231 22.231c5.395 5.395 14.142 5.395 19.538 0l12.462-12.463c5.395-5.395 14.142-5.395 19.538 0l12.463 12.463c5.395 5.395 14.142 5.395 19.538 0l12.462-12.463c5.395-5.395 14.142-5.395 19.538 0l12.462 12.463c5.395 5.395 14.142 5.395 19.538 0l12.463-12.463c5.395-5.395 14.142-5.395 19.538 0l12.462 12.463c5.395 5.395 14.142 5.395 19.538 0l12.462-12.463c5.395-5.395 14.142-5.395 19.538 0l12.463 12.463c5.395 5.395 14.142 5.395 19.538 0l12.462-12.462c5.395-5.395 14.14-5.398 19.535-.003 3.955 3.955 8.513 8.512 12.468 12.468 5.395 5.395 14.14 5.393 19.535-.003l22.231-22.231v-40h-384v40z" fill="#a6de92"/><path d="m63.992 76.267h384v359.449h-384z" fill="#fff"/><circle cx="255.992" cy="255.992" fill="#f5d996" r="113.73"/><path d="m255.992 369.721c26.387 0 50.674-8.989 69.97-24.068l-35.232-35.232c-19.185-19.185-50.29-19.185-69.475 0l-35.232 35.232c19.295 15.079 43.582 24.068 69.969 24.068z" fill="#b68967"/><path d="m305.982 207.235h-15.355c-19.128 0-34.635 15.506-34.635 34.635v15.355h15.355c19.128 0 34.635-15.506 34.635-34.635z" fill="#a6de92"/><path d="m206.002 207.235h15.355c19.128 0 34.635 15.506 34.635 34.635v15.355h-15.355c-19.128 0-34.635-15.506-34.635-34.635z" fill="#a6de92"/><g><path d="m455.063 29.196-22.231-22.231c-9.286-9.286-24.393-9.287-33.677-.003l-12.468 12.468c-.971.971-2.104 1.116-2.694 1.116-.59 0-1.725-.146-2.698-1.119l-12.463-12.462c-9.286-9.286-24.394-9.286-33.68 0l-12.462 12.462c-1.488 1.488-3.908 1.488-5.396 0l-12.462-12.463c-9.286-9.285-24.395-9.285-33.68 0l-12.462 12.463c-1.488 1.487-3.908 1.488-5.396 0l-12.462-12.463c-9.286-9.285-24.395-9.285-33.68 0l-12.462 12.463c-1.488 1.487-3.908 1.488-5.396 0l-12.462-12.463c-9.286-9.285-24.395-9.285-33.68 0l-12.462 12.463c-1.488 1.487-3.908 1.488-5.396 0l-12.462-12.463c-9.286-9.285-24.395-9.286-33.68 0l-22.231 22.232c-1.875 1.875-2.929 4.418-2.929 7.071v439.449c0 2.652 1.054 5.196 2.929 7.071l22.231 22.231c9.285 9.286 24.394 9.286 33.68 0l12.462-12.462c1.487-1.488 3.907-1.489 5.395 0l12.462 12.463c9.285 9.286 24.394 9.286 33.68 0l12.462-12.462c1.486-1.488 3.907-1.489 5.395 0l12.462 12.463c9.285 9.286 24.394 9.286 33.68 0l12.462-12.462c1.486-1.488 3.907-1.489 5.395 0l12.462 12.463c9.285 9.286 24.394 9.286 33.68 0l12.462-12.462c1.486-1.488 3.907-1.489 5.395 0l12.462 12.463c9.287 9.287 24.395 9.286 33.68 0l12.462-12.462c.973-.973 2.108-1.119 2.698-1.119.589 0 1.723.145 2.695 1.116l12.467 12.468c4.642 4.642 10.738 6.962 16.836 6.962s12.198-2.322 16.841-6.965l22.231-22.231c1.875-1.875 2.929-4.418 2.929-7.071v-439.453c.005-2.652-1.049-5.196-2.924-7.071zm-361.768-8.089c1.487-1.489 3.908-1.488 5.395 0l12.462 12.463c9.285 9.284 24.394 9.285 33.68 0l12.462-12.462c1.487-1.489 3.908-1.488 5.395 0l12.462 12.463c9.285 9.284 24.394 9.285 33.68 0l12.462-12.462c1.487-1.489 3.908-1.488 5.395 0l12.462 12.463c9.285 9.284 24.394 9.285 33.68 0l12.462-12.462c1.487-1.489 3.908-1.488 5.395 0l12.462 12.463c4.498 4.498 10.479 6.975 16.84 6.975s12.342-2.478 16.84-6.976l12.462-12.462c1.486-1.488 3.906-1.489 5.396 0l12.462 12.462c4.498 4.498 10.477 6.976 16.837 6.977h.004c6.359 0 12.338-2.477 16.836-6.974l12.467-12.468c1.486-1.485 3.906-1.484 5.393.003l19.303 19.302v25.858h-137c-5.523 0-10 4.477-10 10s4.477 10 10 10h137v339.449h-364v-339.452h137c5.523 0 10-4.477 10-10s-4.477-10-10-10h-137v-25.858zm325.394 469.77c-1.487 1.488-3.906 1.488-5.393.003l-12.467-12.468c-4.498-4.498-10.476-6.974-16.836-6.974-.001 0-.003 0-.004 0-6.36.001-12.339 2.479-16.837 6.977l-12.462 12.462c-1.487 1.488-3.907 1.489-5.396 0l-12.462-12.463c-4.498-4.498-10.479-6.975-16.84-6.975-6.362 0-12.342 2.478-16.84 6.976l-12.462 12.462c-1.488 1.487-3.908 1.488-5.396 0l-12.463-12.463c-9.286-9.285-24.395-9.285-33.68 0l-12.462 12.462c-1.488 1.487-3.908 1.488-5.396 0l-12.463-12.463c-9.286-9.285-24.395-9.285-33.68 0l-12.462 12.462c-1.488 1.487-3.908 1.488-5.396 0l-12.463-12.463c-9.286-9.285-24.395-9.285-33.68 0l-12.459 12.465c-1.488 1.487-3.908 1.487-5.396 0l-19.303-19.302v-25.858h364v25.858z"/><path d="m132.262 255.992c0 68.225 55.505 123.729 123.729 123.729s123.729-55.505 123.729-123.729-55.505-123.729-123.729-123.729-123.729 55.504-123.729 123.729zm69.3 88.264 26.764-26.764c7.39-7.39 17.215-11.46 27.666-11.46s20.276 4.07 27.666 11.46l26.764 26.764c-15.833 9.799-34.481 15.465-54.43 15.465s-38.598-5.666-54.43-15.465zm64.43-102.387c0-13.583 11.051-24.635 24.635-24.635h5.355v5.355c0 13.583-11.051 24.635-24.635 24.635h-5.355zm-20 5.356h-5.355c-13.583 0-24.635-11.051-24.635-24.635v-5.355h5.355c13.583 0 24.635 11.051 24.635 24.635zm10-94.963c57.197 0 103.729 46.533 103.729 103.729 0 30.007-12.812 57.073-33.247 76.031l-28.674-28.673c-8.773-8.772-19.82-14.431-31.809-16.463v-19.662h5.355c24.612 0 44.635-20.023 44.635-44.635v-15.355c0-5.523-4.477-10-10-10h-15.355c-13.963 0-26.444 6.449-34.635 16.52-8.191-10.071-20.672-16.52-34.635-16.52h-15.355c-5.523 0-10 4.477-10 10v15.355c0 24.612 20.023 44.635 44.635 44.635h5.355v19.662c-11.988 2.031-23.036 7.691-31.809 16.463l-28.673 28.673c-20.435-18.958-33.247-46.024-33.247-76.031 0-57.196 46.533-103.729 103.73-103.729z"/><circle cx="255.992" cy="76.267" r="10"/></g></g></svg>