<?xml version="1.0" encoding="utf-8"?>
<!-- Generator: Adobe Illustrator 25.2.0, SVG Export Plug-In . SVG Version: 6.00 Build 0)  -->
<svg version="1.0" xmlns="http://www.w3.org/2000/svg" xmlns:xlink="http://www.w3.org/1999/xlink" x="0px" y="0px"
	 viewBox="0 0 19 19.8" style="enable-background:new 0 0 19 19.8;" xml:space="preserve">
<style type="text/css">
	.st0{display:none;}
	.st1{display:inline;}
	.st2{fill:none;}
	.st3{fill:#4285F4;}
	.st4{fill:#34A853;}
	.st5{fill:#FBBC04;}
	.st6{fill:#EA4335;}
</style>
<g id="Layer_1" class="st0">
	<g id="Group_3051" class="st1">
		<path id="calendar" d="M16.6,2.5h-0.8V0.8C15.8,0.4,15.5,0,15,0c0,0,0,0,0,0h-0.8c-0.4,0-0.8,0.4-0.8,0.8c0,0,0,0,0,0v1.7H5.5V0.8
			C5.5,0.4,5.2,0,4.7,0H4C3.6,0,3.2,0.4,3.2,0.8v1.7H2.4C1,2.5,0,3.6,0,5c0,0,0,0,0,0v12.3c0,1.3,1,2.4,2.4,2.5c0,0,0,0,0,0h14.2
			c1.3,0,2.4-1.1,2.4-2.4c0,0,0,0,0,0V5C19.1,3.7,18,2.5,16.6,2.5C16.6,2.5,16.6,2.5,16.6,2.5z M17.4,17.3c0,0.4-0.3,0.8-0.8,0.8
			c0,0,0,0,0,0H2.4c-0.4,0-0.8-0.4-0.8-0.8c0,0,0,0,0,0v-9h15.8L17.4,17.3z"/>
		<path id="Path_212" d="M11,11.7h3.6c0.3,0,0.6,0.2,0.6,0.6c0,0,0,0,0,0l0,0v3.4c0,0.3-0.3,0.6-0.6,0.6H11c-0.3,0-0.6-0.3-0.6-0.6
			l0,0v-3.3C10.4,12,10.7,11.7,11,11.7z"/>
	</g>
</g>
<g id="Layer_2">
	<g id="Group_3038">
		<circle id="Ellipse_4" class="st2" cx="9.5" cy="10.5" r="8.1"/>
		<g id="Google_G_Logo">
			<path id="Path_24" class="st3" d="M15.8,10.6c0-0.4,0-0.9-0.1-1.3h-6v2.5h3.5c-0.1,0.8-0.6,1.5-1.3,1.9v1.6h2.1
				C15.1,14.1,15.8,12.4,15.8,10.6L15.8,10.6z"/>
			<path id="Path_25" class="st4" d="M9.6,16.9c1.6,0.1,3.1-0.5,4.2-1.5l-2.1-1.6c-1.8,1.2-4.2,0.6-5.4-1.2c0,0,0,0,0,0
				C6.3,12.3,6.1,12,6,11.7H3.9v1.7C5,15.5,7.2,16.9,9.6,16.9z"/>
			<path id="Path_26" class="st5" d="M6,11.7C5.8,10.9,5.8,10,6,9.2V7.6H3.9C3,9.4,3,11.5,3.9,13.3L6,11.7z"/>
			<path id="Path_27" class="st6" d="M9.6,6.6c0.9,0,1.8,0.3,2.5,1l1.8-1.8c-1.2-1.1-2.7-1.7-4.3-1.7C7.2,4.1,5,5.4,3.9,7.6L6,9.2
				C6.5,7.7,8,6.6,9.6,6.6z"/>
		</g>
	</g>
</g>
</svg>
