<svg id="Layer_1" data-name="Layer 1" xmlns="http://www.w3.org/2000/svg" viewBox="0 0 18.97 19.8"><g id="Group_3051" data-name="Group 3051"><path id="calendar" d="M16.6,2.47h-.79V.82A.81.81,0,0,0,15,0h-.79a.8.8,0,0,0-.79.82V2.47H5.54V.82A.82.82,0,0,0,4.74,0H4a.81.81,0,0,0-.79.82V2.47H2.37A2.43,2.43,0,0,0,0,5V17.32A2.42,2.42,0,0,0,2.37,19.8H16.6A2.42,2.42,0,0,0,19,17.32V5A2.43,2.43,0,0,0,16.6,2.47Zm.79,14.85a.81.81,0,0,1-.79.83H2.37a.81.81,0,0,1-.79-.83v-9h15.8Z"/><path id="Path_212" data-name="Path 212" d="M11,11.7h3.63a.58.58,0,0,1,.59.57h0v3.36a.58.58,0,0,1-.58.58H11a.58.58,0,0,1-.58-.58h0V12.28A.58.58,0,0,1,11,11.7Z"/></g></svg>