<?xml version="1.0" encoding="utf-8"?>
<!-- Generator: Adobe Illustrator 25.2.0, SVG Export Plug-In . SVG Version: 6.00 Build 0)  -->
<svg version="1.0" id="Layer_2" xmlns="http://www.w3.org/2000/svg" xmlns:xlink="http://www.w3.org/1999/xlink" x="0px" y="0px"
	 viewBox="0 0 19 19.8" style="enable-background:new 0 0 19 19.8;" xml:space="preserve">
<style type="text/css">
	.st0{fill:#4285F4;}
	.st1{fill:#34A853;}
	.st2{fill:#FBBC04;}
	.st3{fill:#EA4335;}
</style>
<g id="Group_3038">
	<g id="Google_G_Logo">
		<path id="Path_24" class="st0" d="M15.8,10.6c0-0.4,0-0.9-0.1-1.3h-6v2.5h3.5c-0.1,0.8-0.6,1.5-1.3,1.9v1.6h2.1
			C15.1,14.1,15.8,12.4,15.8,10.6L15.8,10.6z"/>
		<path id="Path_25" class="st1" d="M9.6,16.9c1.6,0.1,3.1-0.5,4.2-1.5l-2.1-1.6c-1.8,1.2-4.2,0.6-5.4-1.2c0,0,0,0,0,0
			C6.3,12.3,6.1,12,6,11.7H3.9v1.7C5,15.5,7.2,16.9,9.6,16.9z"/>
		<path id="Path_26" class="st2" d="M6,11.7C5.8,10.9,5.8,10,6,9.2V7.6H3.9C3,9.4,3,11.5,3.9,13.3L6,11.7z"/>
		<path id="Path_27" class="st3" d="M9.6,6.6c0.9,0,1.8,0.3,2.5,1l1.8-1.8c-1.2-1.1-2.7-1.7-4.3-1.7C7.2,4.1,5,5.4,3.9,7.6L6,9.2
			C6.5,7.7,8,6.6,9.6,6.6z"/>
	</g>
</g>
</svg>
