<svg id="Layer_1" data-name="Layer 1" xmlns="http://www.w3.org/2000/svg" viewBox="0 0 27.83 22.41"><g id="camera"><path id="Path_6024" data-name="Path 6024" d="M19.22,16.05l2.92-1.14A8.36,8.36,0,0,1,8.22,16.59L6.05,18.41a11.19,11.19,0,0,0,15.76,1.41,11,11,0,0,0,2.6-3.15l.78,2,2.64-1-2.71-6.93-6.93,2.71Z"/><path id="Path_6025" data-name="Path 6025" d="M14.64,0a11.22,11.22,0,0,0-11,8.86L2.17,7.06,0,8.88l4.75,5.65L10.52,9.8,8.72,7.61,6.44,9.48a8.38,8.38,0,0,1,16-1.43L25,7A11.16,11.16,0,0,0,14.64,0Z"/></g></svg>