<svg id="Layer_1" data-name="Layer 1" xmlns="http://www.w3.org/2000/svg" viewBox="0 0 36.7 24.71"><path d="M13.12,2C11.47,2,2,11.08,2,12.87s9.47,9.84,11.12,9.84H31.71a3.12,3.12,0,0,0,3-3.23V5.24a3.12,3.12,0,0,0-3-3.24H13.12m0-2H31.71a5.13,5.13,0,0,1,5,5.24V19.48a5.12,5.12,0,0,1-5,5.23H13.12c-.73,0-1.62-.28-3.58-1.65A49.65,49.65,0,0,1,5.63,20,42.58,42.58,0,0,1,2,16.5c-1.43-1.58-2-2.64-2-3.63s.79-2.31,2-3.73A49,49,0,0,1,5.55,5.33C6.92,4,8.31,2.77,9.45,1.87,11.43.32,12.35,0,13.12,0Z"/><polygon points="23.91 12.23 28.27 7.87 26.95 6.55 22.59 10.91 18.23 6.55 16.91 7.87 21.27 12.23 16.91 16.59 18.23 17.92 22.59 13.56 26.95 17.92 28.27 16.59 23.91 12.23"/></svg>