<svg id="Layer_1" data-name="Layer 1" xmlns="http://www.w3.org/2000/svg" viewBox="0 0 17.15 17.15"><defs><style>.cls-1{fill:#1c1c1c;}</style></defs><path id="direct" class="cls-1" d="M7.12,14a.54.54,0,0,0-.78,0h0L4.89,15.42a.54.54,0,0,0,0,.78.56.56,0,0,0,.78,0l1.45-1.45A.54.54,0,0,0,7.12,14ZM3.19,10a.56.56,0,0,0-.78,0L1,11.48a.56.56,0,0,0,0,.79.56.56,0,0,0,.78,0l1.45-1.45a.57.57,0,0,0,0-.79Zm2.62,1.31a.56.56,0,0,0-.78,0L1.35,15a.56.56,0,0,0,0,.78.56.56,0,0,0,.79,0l3.67-3.67A.56.56,0,0,0,5.81,11.34ZM17.13.73l-5.25,16a.55.55,0,0,1-.7.35.59.59,0,0,1-.3-.24L7.35,10.81a.53.53,0,0,1,0-.6L8.65,8.5,7,9.77a.56.56,0,0,1-.61,0L.28,6.28a.56.56,0,0,1-.2-.76.54.54,0,0,1,.3-.24L16.43,0a.55.55,0,0,1,.7.35.53.53,0,0,1,0,.35Z"/></svg>