<svg id="Layer_1" data-name="Layer 1" xmlns="http://www.w3.org/2000/svg" xmlns:xlink="http://www.w3.org/1999/xlink" viewBox="0 0 23.68 30.36"><defs><style>.cls-1{fill:none;}.cls-2{fill:#f5c4b3;}.cls-3{fill:url(#linear-gradient);}.cls-4{fill:#3f0f1b;}.cls-5{fill:#561326;}.cls-6{fill:url(#linear-gradient-2);}.cls-7{fill:#832621;}.cls-8{clip-path:url(#clip-path);}.cls-9{fill:#d14a4a;}.cls-10{fill:#fff;}.cls-11{fill:url(#linear-gradient-3);}.cls-12{fill:url(#linear-gradient-4);}.cls-13{fill:url(#linear-gradient-5);}.cls-14{fill:url(#linear-gradient-6);}.cls-15{fill:url(#linear-gradient-7);}.cls-16{fill:url(#linear-gradient-8);}.cls-17{fill:url(#linear-gradient-9);}.cls-18{fill:url(#linear-gradient-10);}.cls-19{fill:url(#linear-gradient-11);}</style><linearGradient id="linear-gradient" x1="-649.19" y1="455.94" x2="-648.19" y2="455.94" gradientTransform="matrix(3.18, 0, 0, -5.26, 2084.83, 2420.01)" gradientUnits="userSpaceOnUse"><stop offset="0" stop-color="#ffaa8b"/><stop offset="1" stop-color="#ffaa8b" stop-opacity="0"/></linearGradient><linearGradient id="linear-gradient-2" x1="-648.86" y1="456.03" x2="-647.86" y2="456.03" gradientTransform="matrix(3.18, 0, 0, -5.27, 2061.13, 2422.33)" gradientUnits="userSpaceOnUse"><stop offset="0" stop-color="#ffaa8b" stop-opacity="0"/><stop offset="1" stop-color="#ffaa8b"/></linearGradient><clipPath id="clip-path"><path class="cls-1" d="M15.9,24.62a34.21,34.21,0,0,0-8.09,0,4.08,4.08,0,0,0,8.09,0Z"/></clipPath><linearGradient id="linear-gradient-3" x1="-627.22" y1="476.14" x2="-627.22" y2="477.17" gradientTransform="matrix(2.97, 0, 0, -6.64, 1872.12, 3186.06)" gradientUnits="userSpaceOnUse"><stop offset="0" stop-color="#ffaa8b" stop-opacity="0.7"/><stop offset="0.1" stop-color="#ffaa8b" stop-opacity="0.58"/><stop offset="0.29" stop-color="#ffaa8b" stop-opacity="0.38"/><stop offset="0.47" stop-color="#ffaa8b" stop-opacity="0.21"/><stop offset="0.63" stop-color="#ffaa8b" stop-opacity="0.1"/><stop offset="0.77" stop-color="#ffaa8b" stop-opacity="0.03"/><stop offset="0.87" stop-color="#ffaa8b" stop-opacity="0"/></linearGradient><linearGradient id="linear-gradient-4" x1="-378.59" y1="334.05" x2="-379.59" y2="334.05" gradientTransform="matrix(2.37, 0, 0, -2.37, 1299.81, 809.11)" gradientUnits="userSpaceOnUse"><stop offset="0" stop-color="#248157"/><stop offset="1" stop-color="#24816a" stop-opacity="0"/></linearGradient><linearGradient id="linear-gradient-5" x1="85.56" y1="152.35" x2="84.55" y2="152.35" gradientTransform="matrix(1.3, 0, 0, -1.3, 291.84, 216.69)" xlink:href="#linear-gradient-4"/><linearGradient id="linear-gradient-6" x1="-678.62" y1="191.18" x2="-677.56" y2="191.18" gradientTransform="matrix(3.53, 0, 0, -1.44, 2398.95, 294.52)" xlink:href="#linear-gradient-3"/><linearGradient id="linear-gradient-7" x1="-852.42" y1="334.05" x2="-853.42" y2="334.05" gradientTransform="matrix(2.37, 0, 0, -2.37, 1309.65, 809.11)" gradientUnits="userSpaceOnUse"><stop offset="0" stop-color="#312a01"/><stop offset="1" stop-color="#24816a" stop-opacity="0"/></linearGradient><linearGradient id="linear-gradient-8" x1="-776.25" y1="153.07" x2="-777.26" y2="153.07" gradientTransform="matrix(1.3, 0, 0, -1.3, 302.37, 217.98)" xlink:href="#linear-gradient-7"/><linearGradient id="linear-gradient-9" x1="-852.42" y1="334.05" x2="-853.42" y2="334.05" gradientTransform="matrix(2.37, 0, 0, -2.37, 1299.46, 809.11)" xlink:href="#linear-gradient-7"/><linearGradient id="linear-gradient-10" x1="-776.25" y1="153.07" x2="-777.26" y2="153.07" gradientTransform="matrix(1.3, 0, 0, -1.3, 292.18, 217.98)" xlink:href="#linear-gradient-7"/><linearGradient id="linear-gradient-11" x1="-676.77" y1="191.68" x2="-677.84" y2="191.68" gradientTransform="matrix(3.52, 0, 0, -1.44, 2399.86, 295.62)" xlink:href="#linear-gradient-3"/></defs><g id="Group_2936" data-name="Group 2936"><path id="Path_5972" data-name="Path 5972" class="cls-2" d="M23.48,20.94c-.27.85-2.25,2.81-3,1.44L21,17.87h0a2.29,2.29,0,0,1,1.54-.24.85.85,0,0,1,.22.09C23.85,18.26,23.8,20,23.48,20.94Z"/><path id="Path_5973" data-name="Path 5973" class="cls-3" d="M23.48,20.94c-.27.85-2.25,2.81-3,1.44L21,17.87h0a2.29,2.29,0,0,1,1.54-.24.85.85,0,0,1,.22.09C23.85,18.26,23.8,20,23.48,20.94Z"/><path id="Path_5974" data-name="Path 5974" class="cls-2" d="M2.51,14.51s.75,7.58,1,9.25,2,6.77,8.73,6.6c4.88-.23,8-1.67,8.5-8.61s.54-8.9.54-8.9l-1.6-4.73L18.13,6,12.5,5.4l-4.88.06L4.39,5.8l-.63,2Z"/><path id="Path_5975" data-name="Path 5975" class="cls-4" d="M22.52,17.62a2.29,2.29,0,0,0-1.54.25V14.73a3.94,3.94,0,0,0-.51-1.92L18.59,9.45a6.3,6.3,0,0,0,1.3-1.61A7,7,0,0,0,20.74,5a24.78,24.78,0,0,1,2.9,3.48A51.56,51.56,0,0,1,22.52,17.62Z"/><path id="Path_5976" data-name="Path 5976" class="cls-4" d="M20.74,5a6.86,6.86,0,0,1-.89,2.82,6.18,6.18,0,0,1-1.3,1.62h0l-.08-.16h0l-.24,0L16.17,9l-.44-.06c-1.48-.2-3.49-.47-5.86-.77-.3.32-.58.61-.85.87H9c-.1.1-.2.18-.29.26-2.33,2-3.85,1.54-5.33,1.38-.13,1.31-.51,6.57-.54,7.16v0a2.07,2.07,0,0,0-1.77-.16l-.15.09c-.16-1.07-1-7-.93-7.35A10.34,10.34,0,0,1,1.92,6.61C1.16,7,1,6.77,1,6.77A8.16,8.16,0,0,0,2.64,5.05,9.16,9.16,0,0,1,8.36,1.83a9.18,9.18,0,0,1,2.51.07,59,59,0,0,1,7.88,1.87,5.22,5.22,0,0,1,2,1.2Z"/><path id="Path_5977" data-name="Path 5977" class="cls-4" d="M2.85,17.81v.06a1.81,1.81,0,0,0-1.9,0l0-.18.16-.09a2.12,2.12,0,0,1,1.77.16Z"/><path id="Path_5978" data-name="Path 5978" class="cls-4" d="M8.93,4.65a3.7,3.7,0,0,0,.84,5.13,5.41,5.41,0,0,0,2.74,1,9.19,9.19,0,0,0,3.76-.25,6.62,6.62,0,0,0,4.22-8.1,5.91,5.91,0,0,0-.63-1.35,3.24,3.24,0,0,1-.81,1.79A4.64,4.64,0,0,0,18.86,0a6.22,6.22,0,0,1-4.73,2.3A2.34,2.34,0,0,0,14.71.49c-.2.48-3.09,1.29-3.85,1.41Z"/><path id="Path_5979" data-name="Path 5979" class="cls-5" d="M20.74,5a6.86,6.86,0,0,1-.89,2.82,5.8,5.8,0,0,1-1.3,1.62h0a5.81,5.81,0,0,1-.76.54,6.67,6.67,0,0,1-2.85.9,12.34,12.34,0,0,1-1.49,0c-.25,0-.5-.06-.74-.1L12,10.66l.73.05h.74a10.1,10.1,0,0,0,1.45-.1,7,7,0,0,0,2.69-.94,6.26,6.26,0,0,0,.62-.43,6.9,6.9,0,0,0,1.4-1.56,7.45,7.45,0,0,0,.67-1.28,5.59,5.59,0,0,0,.28-.78A3.06,3.06,0,0,0,20.74,5Z"/><path id="Path_5980" data-name="Path 5980" class="cls-5" d="M17.89,6.31a7.27,7.27,0,0,1-1,1.89,6.91,6.91,0,0,1-1.56,1.54,5.19,5.19,0,0,1-2,.84,4.88,4.88,0,0,1-2.15-.09h.54a2.44,2.44,0,0,0,.54,0l.54-.06.53-.11a5.86,5.86,0,0,0,1.88-.87,8.52,8.52,0,0,0,1.55-1.39,12.41,12.41,0,0,0,1.2-1.76Z"/><path id="Path_5981" data-name="Path 5981" class="cls-5" d="M7.22,6a4.35,4.35,0,0,0,.29,1.86A2.54,2.54,0,0,0,8,8.64a5.4,5.4,0,0,0,.73.63,2.05,2.05,0,0,1-.91-.42,2.22,2.22,0,0,1-.38-.37A2.59,2.59,0,0,1,7.18,8,2.37,2.37,0,0,1,7,7,2.24,2.24,0,0,1,7.22,6Z"/><path id="Path_5982" data-name="Path 5982" class="cls-5" d="M8.69,5.17a4,4,0,0,0-.35,2,3.39,3.39,0,0,0,.23,1c.06.16.13.32.2.47s.17.3.25.46a2.48,2.48,0,0,1-.71-.8,2.77,2.77,0,0,1-.34-1,2.64,2.64,0,0,1,.14-1.08,2.26,2.26,0,0,1,.57-.92Z"/><path id="Path_5983" data-name="Path 5983" class="cls-2" d="M2.85,17.77a2,2,0,0,0-1.77-.16C0,18.15,0,19.85.34,20.84s2.25,2.8,3,1.44"/><path id="Path_5984" data-name="Path 5984" class="cls-6" d="M3.32,22.28c-.73,1.36-2.69-.59-3-1.44S0,18.33.92,17.7l.16-.09a2,2,0,0,1,1.76.16v0Z"/><path id="Path_5985" data-name="Path 5985" class="cls-4" d="M9.25,15.17s.06-1.2-.54-1.27-4.34-.74-4.42,2.3C5.06,15.48,6.22,14.74,9.25,15.17Z"/><path id="Path_5986" data-name="Path 5986" class="cls-4" d="M14.5,15.17S14.44,14,15,13.9s4.34-.74,4.43,2.3C18.69,15.48,17.51,14.74,14.5,15.17Z"/><path id="Path_5987" data-name="Path 5987" class="cls-7" d="M15.9,24.62a34.21,34.21,0,0,0-8.09,0,4.08,4.08,0,0,0,8.09,0Z"/><g class="cls-8"><g id="Group_2899" data-name="Group 2899"><path id="Path_5988" data-name="Path 5988" class="cls-9" d="M15.36,27c-.88,1.38-2.19,2.69-3.62,2.63a4.38,4.38,0,0,1-3.39-2.5A5.64,5.64,0,0,1,15.36,27Z"/><path id="Path_5989" data-name="Path 5989" class="cls-10" d="M14.92,23.73c0,1-.24,1-.24,1-.9.46-4.36.87-5.67,0-.14-.09-.16-.53-.18-.85a.29.29,0,0,1,.2-.09C11.19,23.62,13.94,23.42,14.92,23.73Z"/></g></g><path id="Path_5991" data-name="Path 5991" class="cls-11" d="M12.16,15.78h-1c.16,3.22-1.21,5.07-.86,5.78a1.61,1.61,0,0,0,2.18.67,1.55,1.55,0,0,0,.67-.67C13.51,20.85,12.16,19.91,12.16,15.78Z"/><path id="Path_5992" data-name="Path 5992" class="cls-10" d="M8.79,18.76C8.2,17.44,6.17,16.3,5,18.37a.52.52,0,0,0,0,.54c.35.53,1.37,1.64,3.56.57a.54.54,0,0,0,.29-.7v0Z"/><path id="Path_5993" data-name="Path 5993" class="cls-12" d="M8.12,18.44a1.18,1.18,0,0,1-2.32.46,1.18,1.18,0,1,1,2.32-.46Z"/><path id="Path_5994" data-name="Path 5994" class="cls-13" d="M7.6,18.57a.64.64,0,0,1-.54.74.37.37,0,0,1-.21,0,.65.65,0,1,1,.76-.73Z"/><path id="Path_5995" data-name="Path 5995" class="cls-10" d="M7.38,18.68a.22.22,0,1,0,.44-.07.22.22,0,0,0-.25-.18.16.16,0,0,0-.09,0A.23.23,0,0,0,7.38,18.68Z"/><path id="Path_5996" data-name="Path 5996" class="cls-10" d="M6.32,18.15a.43.43,0,0,0,.3.54.45.45,0,0,0,.23,0,.45.45,0,0,0,0-.86.44.44,0,0,0-.55.29s0,0,0,0Z"/><path id="Path_5997" data-name="Path 5997" class="cls-14" d="M4.92,18.83A2.09,2.09,0,0,0,6.47,19.9a5.12,5.12,0,0,0,2-.24,2.94,2.94,0,0,1-.95.48,2.28,2.28,0,0,1-1.07.1,1.76,1.76,0,0,1-1-.47A1.52,1.52,0,0,1,4.92,18.83Z"/><path id="Path_5998" data-name="Path 5998" class="cls-4" d="M8.75,19.26a.66.66,0,0,0-.14-.67,4.78,4.78,0,0,0-.47-.54,2.15,2.15,0,0,0-1.21-.6,1.75,1.75,0,0,0-1.3.25,2.27,2.27,0,0,0-.54.48,1.17,1.17,0,0,0-.19.3.56.56,0,0,0,0,.36.63.63,0,0,1-.06-.38A1.51,1.51,0,0,1,5,18.11a1.78,1.78,0,0,1,.47-.61A1.84,1.84,0,0,1,7,17.11a2.07,2.07,0,0,1,1.35.77,2.73,2.73,0,0,1,.39.66A.71.71,0,0,1,8.75,19.26Z"/><path id="Path_5999" data-name="Path 5999" class="cls-10" d="M15,18.76c.59-1.32,2.62-2.46,3.84-.39a.52.52,0,0,1,0,.54c-.35.53-1.37,1.64-3.56.57a.53.53,0,0,1-.28-.71Z"/><g id="Group_2901" data-name="Group 2901"><path id="Path_6000" data-name="Path 6000" class="cls-15" d="M15.64,18.44A1.18,1.18,0,1,0,17,17.51a1.24,1.24,0,0,0-.47,0A1.16,1.16,0,0,0,15.64,18.44Z"/><path id="Path_6001" data-name="Path 6001" class="cls-16" d="M16.15,18.57a.65.65,0,0,0,1.28.21.65.65,0,0,0-.54-.75.67.67,0,0,0-.2,0A.64.64,0,0,0,16.15,18.57Z"/><path id="Path_6002" data-name="Path 6002" class="cls-10" d="M16.37,18.68a.22.22,0,1,1-.22-.22.21.21,0,0,1,.22.21Z"/><path id="Path_6003" data-name="Path 6003" class="cls-10" d="M17.43,18.15a.44.44,0,0,1-.3.54.49.49,0,0,1-.24,0,.44.44,0,0,1-.31-.32.45.45,0,0,1,.3-.54.39.39,0,0,1,.24,0A.41.41,0,0,1,17.43,18.15Z"/></g><g id="Group_2902" data-name="Group 2902"><path id="Path_6000-2" data-name="Path 6000-2" class="cls-17" d="M5.45,18.44a1.18,1.18,0,1,0,.93-.93A1.19,1.19,0,0,0,5.45,18.44Z"/><path id="Path_6001-2" data-name="Path 6001-2" class="cls-18" d="M6,18.57A.65.65,0,1,0,6.71,18a.74.74,0,0,0-.21,0A.66.66,0,0,0,6,18.57Z"/><path id="Path_6002-2" data-name="Path 6002-2" class="cls-10" d="M6.19,18.68A.22.22,0,1,1,6,18.46a.21.21,0,0,1,.22.21Z"/><path id="Path_6003-2" data-name="Path 6003-2" class="cls-10" d="M7.25,18.15a.44.44,0,0,1-.3.54.49.49,0,0,1-.24,0,.45.45,0,0,1,0-.86.39.39,0,0,1,.24,0A.41.41,0,0,1,7.25,18.15Z"/></g><path id="Path_6004" data-name="Path 6004" class="cls-19" d="M18.82,18.83a1.49,1.49,0,0,1-.49.94,1.83,1.83,0,0,1-1,.47,2.47,2.47,0,0,1-1.08-.09,3.21,3.21,0,0,1-.94-.48,5.31,5.31,0,0,0,2,.23A2.06,2.06,0,0,0,18.82,18.83Z"/><path id="Path_6005" data-name="Path 6005" class="cls-4" d="M15,19.25a.69.69,0,0,1,0-.73,2.94,2.94,0,0,1,.39-.66,2.1,2.1,0,0,1,1.35-.77,1.83,1.83,0,0,1,1.51.39,2,2,0,0,1,.48.61,1.42,1.42,0,0,1,.14.36.59.59,0,0,1-.07.37.55.55,0,0,0,0-.36,1.17,1.17,0,0,0-.19-.3,2.73,2.73,0,0,0-.54-.48,1.77,1.77,0,0,0-1.31-.25,2.24,2.24,0,0,0-1.21.6,6,6,0,0,0-.46.54A.65.65,0,0,0,15,19.25Z"/></g></svg>