<svg id="Layer_1" data-name="Layer 1" xmlns="http://www.w3.org/2000/svg" viewBox="0 0 40 40"><defs><style>.cls-1{fill:none;}</style></defs><g id="face_ID" data-name="face ID"><rect id="Rectangle_1671" data-name="Rectangle 1671" class="cls-1" width="40" height="40"/><g id="iconfinder_face_ID_2639811" data-name="iconfinder face ID 2639811"><path id="Path_2067" data-name="Path 2067" d="M19.8,30.86A9.17,9.17,0,0,1,14.13,29a1.46,1.46,0,1,1,1.75-2.33,6.32,6.32,0,0,0,7.71,0A1.45,1.45,0,0,1,25.33,29,8.48,8.48,0,0,1,19.8,30.86Z"/><path id="Path_2068" data-name="Path 2068" d="M28.1,20.09a1.38,1.38,0,0,1-1.46-1.29V15.15a1.46,1.46,0,1,1,2.91,0v3.49A1.45,1.45,0,0,1,28.1,20.09Z"/><path id="Path_2069" data-name="Path 2069" d="M11.66,20.09A1.38,1.38,0,0,1,10.2,18.8V15.15a1.38,1.38,0,0,1,1.29-1.46h.17A1.37,1.37,0,0,1,13.11,15v3.66A1.45,1.45,0,0,1,11.66,20.09Z"/><path id="Path_2070" data-name="Path 2070" d="M18.2,24.46a1.46,1.46,0,0,1,0-2.91c.15,0,.15,0,.15-.15V15a1.46,1.46,0,0,1,2.91,0h0v6.4a3,3,0,0,1-2.91,3.06Z"/><g id="Group_539" data-name="Group 539"><path id="Path_2071" data-name="Path 2071" d="M37.55,11.66a1.37,1.37,0,0,1-1.45-1.29.49.49,0,0,1,0-.17V5.4a2.37,2.37,0,0,0-.44-1.31,2.37,2.37,0,0,0-1.31-.44h-4.8A1.36,1.36,0,0,1,28.1,2.36a.43.43,0,0,1,0-.16A1.38,1.38,0,0,1,29.39.74h5A4.63,4.63,0,0,1,37.7,2.05,4.65,4.65,0,0,1,39,5.4v4.8A1.47,1.47,0,0,1,37.55,11.66Z"/><path id="Path_2072" data-name="Path 2072" d="M2.2,11.66A1.38,1.38,0,0,1,.74,10.37v-5A4.61,4.61,0,0,1,5.28.74H10.2A1.38,1.38,0,0,1,11.66,2V2.2a1.38,1.38,0,0,1-1.29,1.45.49.49,0,0,1-.17,0H5.4a1.44,1.44,0,0,0-1.16.44A1.82,1.82,0,0,0,3.65,5.4v4.8a1.38,1.38,0,0,1-1.28,1.46Z"/><path id="Path_2073" data-name="Path 2073" d="M34.35,39H29.56a1.46,1.46,0,1,1,0-2.91h4.79a1.67,1.67,0,0,0,1.17-.44,1.78,1.78,0,0,0,.58-1.16V29.7a1.46,1.46,0,1,1,2.91,0h0v4.8a4.61,4.61,0,0,1-1.31,3.34A7.06,7.06,0,0,1,34.35,39Z"/><path id="Path_2074" data-name="Path 2074" d="M10.2,39H5.4A4.65,4.65,0,0,1,2.05,37.7,5.17,5.17,0,0,1,.74,34.35v-4.8A1.37,1.37,0,0,1,2,28.1a.49.49,0,0,1,.17,0,1.36,1.36,0,0,1,1.45,1.29.43.43,0,0,1,0,.16v4.8A1.69,1.69,0,0,0,5.27,36.1H10.2a1.46,1.46,0,1,1,0,2.91Z"/></g></g></g></svg>