<svg id="Group_2700" data-name="Group 2700" xmlns="http://www.w3.org/2000/svg" viewBox="0 0 40 40"><path id="Path_186" data-name="Path 186" d="M16.06,22.18a.67.67,0,0,0-.77-.53.67.67,0,0,0-.54.71,16.11,16.11,0,0,1-5,13.89.66.66,0,0,0,.87,1l0,0A17.45,17.45,0,0,0,16.06,22.18Z"/><path id="Path_187" data-name="Path 187" d="M6.37,22.79a.19.19,0,0,0,0-.08,14.59,14.59,0,0,1-.24-2.07.66.66,0,0,0-1.32.05,15.66,15.66,0,0,0,.29,2.37s0,.06,0,.09a6.51,6.51,0,0,1-2.2,6.17.67.67,0,0,0-.1.93.67.67,0,0,0,.93.1l0,0A7.84,7.84,0,0,0,6.37,22.79Z"/><path id="Path_188" data-name="Path 188" d="M10.08,28.2a.67.67,0,0,0-.86.38h0a11.31,11.31,0,0,1-3.38,4.67.66.66,0,0,0,.83,1,12.71,12.71,0,0,0,3.78-5.21A.66.66,0,0,0,10.08,28.2Z"/><path id="Path_189" data-name="Path 189" d="M4,9a.65.65,0,0,0,.92-.14h0a18.45,18.45,0,0,1,23-5.69A.66.66,0,1,0,28.48,2l0,0A19.75,19.75,0,0,0,3.81,8.11.66.66,0,0,0,4,9Z"/><path id="Path_190" data-name="Path 190" d="M1.7,23.61a.08.08,0,0,0,0,0,18.18,18.18,0,0,1,1.67-12,.67.67,0,0,0-.27-.9.66.66,0,0,0-.89.27l0,0A19.51,19.51,0,0,0,.4,23.87l0,.07c0,.26.11.52.17.77a.65.65,0,0,0,.64.5.44.44,0,0,0,.16,0,.65.65,0,0,0,.48-.8h0Q1.78,24,1.7,23.61Z"/><path id="Path_191" data-name="Path 191" d="M17,5.07A15,15,0,0,0,5,17.2a.66.66,0,0,0,.54.77.68.68,0,0,0,.78-.55h0a13.66,13.66,0,0,1,10.93-11A13.89,13.89,0,0,1,33.6,17.06s0,0,0,.06c.12.6.22,1.19.31,1.76a.65.65,0,0,0,.66.56h.1a.67.67,0,0,0,.57-.74h0c-.09-.61-.19-1.25-.33-1.89a.14.14,0,0,0,0-.06A15.23,15.23,0,0,0,17,5.07Z"/><path id="Path_192" data-name="Path 192" d="M25.34,18.93a5.45,5.45,0,0,0-10.67,0,.66.66,0,0,0,1.29.3v0A4.13,4.13,0,0,1,24,19.11s0,.05,0,.08a26.36,26.36,0,0,1,.51,5,.66.66,0,0,0,.66.66h0a.66.66,0,0,0,.66-.66h0A27.43,27.43,0,0,0,25.35,19S25.34,19,25.34,18.93Z"/><path id="Path_193" data-name="Path 193" d="M20.62,20.12a.66.66,0,0,0-1.3.25h0a20.7,20.7,0,0,1-4.78,17.89.66.66,0,0,0,1,.87A22,22,0,0,0,20.62,20.12Z"/><path id="Path_194" data-name="Path 194" d="M39.61,15.85s0,0,0,0a19.62,19.62,0,0,0-8-12.21.66.66,0,0,0-.75,1.08,18.39,18.39,0,0,1,7.48,11.45.43.43,0,0,1,0,.05,18.77,18.77,0,0,1,.36,4,.65.65,0,0,0,.65.67h0a.66.66,0,0,0,.66-.64A20.76,20.76,0,0,0,39.61,15.85Z"/><path id="Path_195" data-name="Path 195" d="M30.23,17.94a10.44,10.44,0,1,0-20.5,4l0,.14a.2.2,0,0,0,0,.11,11.75,11.75,0,0,1,.14,3.4.68.68,0,0,0,.58.76.69.69,0,0,0,.76-.59v0a13,13,0,0,0-.18-3.93.56.56,0,0,0,0-.12A9.1,9.1,0,0,1,28.9,18.17v0a31,31,0,0,1,.21,11.2.67.67,0,0,0,.56.77h.11a.67.67,0,0,0,.66-.57A32.08,32.08,0,0,0,30.23,18S30.23,18,30.23,17.94Z"/><path id="Path_196" data-name="Path 196" d="M34.88,21.63a.66.66,0,0,0-.62.7h0a35,35,0,0,1-1.11,11.21.66.66,0,0,0,1.27.34,36.21,36.21,0,0,0,1.15-11.63.65.65,0,0,0-.68-.62Z"/><path id="Path_197" data-name="Path 197" d="M29.2,31.88a.64.64,0,0,0-.8.46h0a31.08,31.08,0,0,1-2,5.45.66.66,0,0,0,.3.88.65.65,0,0,0,.88-.3h0a31.93,31.93,0,0,0,2.13-5.69.66.66,0,0,0-.47-.8Z"/><path id="Path_198" data-name="Path 198" d="M25.15,26.83a.66.66,0,0,0-.73.58A25.68,25.68,0,0,1,20.1,39a.66.66,0,0,0,1.09.74,26.93,26.93,0,0,0,4.54-12.15A.66.66,0,0,0,25.15,26.83Z"/></svg>