<svg id="Group_2697" data-name="Group 2697" xmlns="http://www.w3.org/2000/svg" viewBox="0 0 16 12"><path id="Path_183" data-name="Path 183" d="M.33,1c2.2,1.86,6.05,5.14,7.19,6.16a.67.67,0,0,0,.94,0l0,0c1.14-1,5-4.3,7.19-6.16a.34.34,0,0,0,0-.46,1.32,1.32,0,0,0-1-.51H1.33a1.32,1.32,0,0,0-1,.51A.34.34,0,0,0,.33,1Z"/><path id="Path_184" data-name="Path 184" d="M15.81,2a.36.36,0,0,0-.36,0C13,4.09,9.91,6.74,8.93,7.62a1.34,1.34,0,0,1-1.86,0C6,6.68,2.54,3.72.55,2a.33.33,0,0,0-.47,0A.34.34,0,0,0,0,2.28v8.39A1.34,1.34,0,0,0,1.33,12H14.67A1.34,1.34,0,0,0,16,10.67V2.28A.35.35,0,0,0,15.81,2Z"/></svg>