<svg id="Layer_1" data-name="Layer 1" xmlns="http://www.w3.org/2000/svg" viewBox="0 0 49.9 38.72"><defs><style>.cls-1{fill:#fff;}.cls-2{fill:#ff5f00;}.cls-3{fill:#eb001b;}.cls-4{fill:#f79e1b;}</style></defs><g id="mastercard-seeklogo.com"><path id="Path_5115" data-name="Path 5115" class="cls-1" d="M9.08,38.64V36.07A1.51,1.51,0,0,0,7.7,34.44H7.45A1.69,1.69,0,0,0,6,35.17a1.51,1.51,0,0,0-1.37-.73,1.39,1.39,0,0,0-1.2.6v-.51h-.9v4.11h.9V36.37c0-.73.38-1.07,1-1.07s.9.38.9,1.07v2.27h.9V36.37A.94.94,0,0,1,7,35.31H7.2c.6,0,.9.38.9,1.07v2.27ZM22.4,34.53H21V33.29h-.9v1.24h-.82v.81h.82v1.89c0,.94.38,1.5,1.41,1.5a2.39,2.39,0,0,0,1.11-.3l-.25-.78a1.41,1.41,0,0,1-.77.22c-.43,0-.6-.26-.6-.69V35.34H22.4v-.81ZM30,34.44A1.2,1.2,0,0,0,29,35v-.51h-.9v4.11H29V36.33c0-.69.3-1.07.85-1.07a2.1,2.1,0,0,1,.56.08l.26-.86A3,3,0,0,0,30,34.44Zm-11.52.43a2.94,2.94,0,0,0-1.68-.43c-1,0-1.71.52-1.71,1.33s.52,1.07,1.42,1.2L17,37c.47.09.73.22.73.43s-.34.51-.94.51a2.31,2.31,0,0,1-1.37-.42l-.43.68a3.05,3.05,0,0,0,1.76.52c1.2,0,1.88-.56,1.88-1.33s-.56-1.12-1.41-1.24l-.43,0c-.39,0-.69-.13-.69-.38s.3-.47.78-.47a2.91,2.91,0,0,1,1.28.34l.39-.73Zm23.9-.43a1.23,1.23,0,0,0-1.08.6v-.51h-.9v4.11h.9V36.33c0-.69.3-1.07.86-1.07a2.1,2.1,0,0,1,.56.08l.26-.86A3,3,0,0,0,42.41,34.44ZM30.93,36.58a2.06,2.06,0,0,0,2,2.15h.22a2.15,2.15,0,0,0,1.46-.48l-.43-.72a1.75,1.75,0,0,1-1.07.38,1.22,1.22,0,0,1-1.25-1.18.76.76,0,0,1,0-.15A1.25,1.25,0,0,1,33,35.26h0a1.75,1.75,0,0,1,1.07.38l.43-.73a2.14,2.14,0,0,0-1.46-.47,2.06,2.06,0,0,0-2.18,1.93.81.81,0,0,0,0,.22Zm8.31,0v-2h-.9V35a1.58,1.58,0,0,0-1.29-.6,2.15,2.15,0,0,0,0,4.29,1.47,1.47,0,0,0,1.29-.61v.52h.9Zm-3.3,0a1.24,1.24,0,1,1,2.48-.15v.15a1.24,1.24,0,0,1-1.16,1.32,1.23,1.23,0,0,1-1.32-1.16A.43.43,0,0,1,35.94,36.58ZM25.18,34.44a2.15,2.15,0,0,0,.05,4.29,2.67,2.67,0,0,0,1.67-.56l-.43-.65a2,2,0,0,1-1.2.43A1.16,1.16,0,0,1,24,37h3v-.35a1.88,1.88,0,0,0-1.57-2.16l-.31,0Zm0,.77a1,1,0,0,1,1,1v0H24.07a1.1,1.1,0,0,1,1.12-1ZM47.5,36.58V32.9h-.9v2.15a1.53,1.53,0,0,0-1.28-.6,2.14,2.14,0,0,0,0,4.28,1.43,1.43,0,0,0,1.28-.6v.51h.9Zm-3.3,0a1.25,1.25,0,1,1,2.49-.15v.15a1.25,1.25,0,0,1-2.49.16Zm-30.07,0v-2h-.9V35a1.58,1.58,0,0,0-1.29-.6,2.15,2.15,0,0,0,0,4.29,1.45,1.45,0,0,0,1.29-.61v.52h.9Zm-3.34,0a1.24,1.24,0,1,1,2.48-.15.38.38,0,0,1,0,.15,1.24,1.24,0,1,1-2.48.16A.43.43,0,0,1,10.79,36.58Z"/><rect id="Rectangle_794" data-name="Rectangle 794" class="cls-2" x="18.21" y="3.3" width="13.49" height="24.25"/><path id="Path_5116" data-name="Path 5116" class="cls-3" d="M19.06,15.42A15.48,15.48,0,0,1,24.93,3.3a15.42,15.42,0,1,0,0,24.24A15.39,15.39,0,0,1,19.06,15.42Z"/><path id="Path_5117" data-name="Path 5117" class="cls-4" d="M49.9,15.42A15.4,15.4,0,0,1,25,27.54a15.44,15.44,0,0,0,2.54-21.7A14.54,14.54,0,0,0,25,3.3,15.4,15.4,0,0,1,49.9,15.42Z"/></g></svg>