<svg id="Layer_1" data-name="Layer 1" xmlns="http://www.w3.org/2000/svg" viewBox="0 0 27.95 24.02"><g id="news"><path id="Path_215" data-name="Path 215" d="M25.79,3.77A4.08,4.08,0,0,0,21.72,0H4.09A4.09,4.09,0,0,0,0,4.09V19.94A4.09,4.09,0,0,0,4.09,24H23.86A4.09,4.09,0,0,0,28,19.94V7.37A4.1,4.1,0,0,0,25.79,3.77ZM23.6,19.94a1.87,1.87,0,0,1-1.87,1.87H4.09a1.88,1.88,0,0,1-1.88-1.87V4.09A1.87,1.87,0,0,1,4.09,2.22H21.72A1.86,1.86,0,0,1,23.6,4.09Z"/><path id="Path_216" data-name="Path 216" d="M4.44,8.29h0a.58.58,0,0,0,.58-.57v-2L6.79,8.05a.57.57,0,0,0,.46.24h.12A.58.58,0,0,0,8,7.72V3.93a.58.58,0,0,0-.58-.58h0a.57.57,0,0,0-.57.58V6L5,3.59a.57.57,0,0,0-.46-.24H4.44a.58.58,0,0,0-.58.58V7.71a.58.58,0,0,0,.58.58Z"/><path id="Path_217" data-name="Path 217" d="M11.48,7.14H9.68V6.36h1.46a.57.57,0,0,0,.58-.57v0a.57.57,0,0,0-.58-.57H9.68V4.55H11.4A.58.58,0,0,0,12,4v0a.58.58,0,0,0-.57-.58H9.05a.57.57,0,0,0-.57.58V7.71a.57.57,0,0,0,.57.58h2.42a.58.58,0,0,0,0-1.16Z"/><path id="Path_218" data-name="Path 218" d="M14.06,8.29h.07a.58.58,0,0,0,.54-.39l.72-2.14.72,2.14a.58.58,0,0,0,.55.39h.07a.58.58,0,0,0,.54-.39l1.29-3.79a.57.57,0,0,0-.37-.73l-.18,0H18a.58.58,0,0,0-.55.39l-.71,2.15L16,3.74a.58.58,0,0,0-.55-.39h-.08a.58.58,0,0,0-.55.39l-.71,2.15-.71-2.15a.58.58,0,0,0-.55-.39h-.06a.57.57,0,0,0-.57.57.58.58,0,0,0,0,.19L13.51,7.9A.58.58,0,0,0,14.06,8.29Z"/><path id="Path_219" data-name="Path 219" d="M20.46,8.29c1.27,0,1.84-.74,1.84-1.47,0-1.15-1-1.45-1.58-1.63S20,4.91,20,4.75s.23-.2.58-.2a1.41,1.41,0,0,1,.66.17A.58.58,0,0,0,22,4.53l0,0a.59.59,0,0,0-.18-.79h0a2.61,2.61,0,0,0-1.28-.34c-1.23,0-1.78.7-1.78,1.4,0,1.11.95,1.4,1.57,1.59s.74.28.74.47-.34.28-.65.28a1.24,1.24,0,0,1-.84-.32.54.54,0,0,0-.4-.17h0a.57.57,0,0,0-.41.17l0,0a.56.56,0,0,0,0,.81h0A2.54,2.54,0,0,0,20.46,8.29Z"/><path id="Path_220" data-name="Path 220" d="M10.41,10H4.93a1.11,1.11,0,1,0,0,2.21h5.48a1.11,1.11,0,1,0,0-2.21Z"/><path id="Path_221" data-name="Path 221" d="M10.41,13.66H4.93a1.11,1.11,0,1,0,0,2.21h5.48a1.11,1.11,0,1,0,0-2.21Z"/><path id="Path_222" data-name="Path 222" d="M10.41,17.34H4.93a1.11,1.11,0,0,0,0,2.22h5.48a1.11,1.11,0,0,0,0-2.22Z"/><path id="Path_223" data-name="Path 223" d="M21.66,9.82H13.21a.64.64,0,0,0-.64.64v8.61a.64.64,0,0,0,.64.64h8.45a.63.63,0,0,0,.64-.64V10.46A.63.63,0,0,0,21.66,9.82Z"/></g></svg>