<svg id="Layer_1" data-name="Layer 1" xmlns="http://www.w3.org/2000/svg" viewBox="0 0 20 20"><path id="rugby-balls" d="M13.14.23A22.18,22.18,0,0,1,16.3,0c.51,0,1,0,1.51.05A2.33,2.33,0,0,1,20,2.19a22.2,22.2,0,0,1-.17,4.68ZM.23,13.13a20.94,20.94,0,0,0-.17,4.68A2.32,2.32,0,0,0,2.2,20c.49,0,1,.05,1.51.05h0a20.81,20.81,0,0,0,3.16-.23ZM19.53,8.2a15.72,15.72,0,0,1-3.84,7.46l0,0A15.7,15.7,0,0,1,8.2,19.52L.48,11.8A15.72,15.72,0,0,1,4.32,4.34l0,0A15.83,15.83,0,0,1,11.8.48Zm-5.39.05-.8-.8L14,6.83A.56.56,0,0,0,14,6a.55.55,0,0,0-.77,0l-.62.62-.8-.8a.56.56,0,0,0-.79,0,.56.56,0,0,0,0,.78l.8.8-.91.91-.81-.8a.54.54,0,0,0-.78,0,.56.56,0,0,0,0,.78l.8.8-.92.91-.8-.8a.56.56,0,1,0-.8.77l0,0,.8.8-.92.91-.8-.8a.56.56,0,0,0-.79,0,.58.58,0,0,0,0,.78l.8.8L6,13.17A.57.57,0,0,0,6,14a.56.56,0,0,0,.79,0l.62-.62.8.8A.56.56,0,1,0,9,13.35l-.8-.8.92-.91.8.8a.56.56,0,0,0,.79,0,.57.57,0,0,0,0-.79l-.8-.8.91-.91.8.8a.57.57,0,0,0,.79,0,.56.56,0,0,0,0-.79l-.8-.8.91-.91.8.8a.56.56,0,0,0,.79,0,.56.56,0,0,0,0-.79h0Z"/></svg>