<svg id="Layer_1" data-name="Layer 1" xmlns="http://www.w3.org/2000/svg" viewBox="0 0 28.39 27.57"><defs><style>.cls-1{fill:#888;}.cls-2{fill:#717171;}.cls-3{fill:#aaa;opacity:0.5;isolation:isolate;}</style></defs><g id="Group_2937" data-name="Group 2937"><path id="Path_6030" data-name="Path 6030" class="cls-1" d="M28.12,15.76C26,16.6,24.75,17.22,23,17.1c0,1.4,0,5.46.54,7.19.64,2.11.86,3.51-1.73,3.25s-14.12,0-14.89,0a2.81,2.81,0,0,1-.76-.08,1.89,1.89,0,0,1-1-.54,2.78,2.78,0,0,1-.35-2.75A34,34,0,0,0,5.38,17c-1.65.11-2.87-.44-4.78-1.2l-.35-.15A.39.39,0,0,1,0,15.18c1.1-5.57,1.21-10,3.21-12.25A5.5,5.5,0,0,1,5,1.76,18.89,18.89,0,0,1,7.07,1l3-1S10,1.61,14.2,1.64h.1a8.67,8.67,0,0,0,3.08-.42c1-.47.95-1.1.95-1.1l1.23.41,1,.35.75.25a10.05,10.05,0,0,1,3.86,1.94c2,2.28,2.11,6.67,3.2,12.23A.4.4,0,0,1,28.12,15.76Z"/><path id="Path_6031" data-name="Path 6031" class="cls-2" d="M10.43,10.35H7.27A.38.38,0,0,1,6.89,10h0a.37.37,0,0,1,.38-.37h3.16a.37.37,0,0,1,.37.37h0A.37.37,0,0,1,10.43,10.35Z"/><path id="Path_6032" data-name="Path 6032" class="cls-3" d="M5.5,12l-.1,5c-1.66.11-2.88-.44-4.78-1.2a11.86,11.86,0,0,0,3.79.53C4.85,16.09,5.5,12,5.5,12Z"/><path id="Path_6033" data-name="Path 6033" class="cls-3" d="M22.9,12.1l.1,5c1.66.11,2.88-.44,4.79-1.2a12.51,12.51,0,0,1-3.8.53C23.56,16.22,22.9,12.1,22.9,12.1Z"/></g></svg>