<?xml version="1.0" encoding="utf-8"?>
<!-- Generator: Adobe Illustrator 25.2.0, SVG Export Plug-In . SVG Version: 6.00 Build 0)  -->
<svg version="1.0" id="Layer_1" xmlns="http://www.w3.org/2000/svg" xmlns:xlink="http://www.w3.org/1999/xlink" x="0px" y="0px"
	 viewBox="0 0 40 40" style="enable-background:new 0 0 40 40;" xml:space="preserve">
<style type="text/css">
	.st0{fill:#FFFFFF;}
	.st1{fill:#1DA1F2;}
</style>
<g>
	<path class="st0" d="M31.8,11.7c-1,0.6-2,1-3.1,1.2c-1.8-1.9-4.9-2-6.8-0.2c-0.9,0.9-1.5,2.2-1.5,3.5c0,0.4,0,0.7,0.1,1.1
		c-3.8-0.2-7.4-2-9.9-5c-1.3,2.2-0.6,5,1.5,6.4c-0.8,0-1.5-0.2-2.2-0.6v0.1c0,2.3,1.7,4.2,3.9,4.7c-0.4,0.1-0.9,0.2-1.3,0.2
		c-0.3,0-0.6,0-0.9-0.1c0.6,1.9,2.4,3.3,4.5,3.3c-1.7,1.4-3.8,2.1-6,2.1c-0.4,0-0.7,0-1.1-0.1c2.2,1.4,4.8,2.2,7.4,2.2
		c7.5,0.1,13.7-6,13.7-13.5v-0.2c0-0.2,0-0.4,0-0.6c0.9-0.7,1.7-1.5,2.4-2.6c-0.9,0.4-1.8,0.7-2.8,0.8
		C30.7,13.8,31.4,12.8,31.8,11.7z"/>
	<path class="st1" d="M20,0C9,0,0,9,0,20s9,20,20,20s20-9,20-20S31,0,20,0z M30.1,16.2c0,0.2,0,0.4,0,0.6V17
		c0,7.5-6.2,13.6-13.7,13.5c0,0-0.1,0-0.1,0s0,0,0.1,0c-2.6,0-5.2-0.8-7.4-2.2c0.4,0.1,0.7,0.1,1.1,0.1c2.2,0,4.3-0.7,6-2.1
		c-2.1,0-3.9-1.4-4.5-3.3c0.3,0.1,0.6,0.1,0.9,0.1c0.4,0,0.9-0.1,1.3-0.2c-2.2-0.5-3.9-2.4-3.9-4.7v-0.1c0.7,0.4,1.4,0.6,2.2,0.6
		c-2.1-1.4-2.8-4.2-1.5-6.4c2.5,3,6.1,4.8,9.9,5c-0.1-0.4-0.1-0.7-0.1-1.1c0-1.3,0.6-2.6,1.5-3.5c1.9-1.8,5-1.7,6.8,0.2
		c1.1-0.2,2.1-0.6,3.1-1.2c-0.4,1.1-1.1,2.1-2.1,2.7c1-0.1,1.9-0.4,2.8-0.8C31.8,14.7,31,15.5,30.1,16.2z"/>
</g>
</svg>
