<?xml version="1.0" encoding="utf-8"?>
<!-- Generator: Adobe Illustrator 25.2.0, SVG Export Plug-In . SVG Version: 6.00 Build 0)  -->
<svg version="1.0" id="Layer_1" xmlns="http://www.w3.org/2000/svg" xmlns:xlink="http://www.w3.org/1999/xlink" x="0px" y="0px"
	 viewBox="0 0 40 40" style="enable-background:new 0 0 40 40;" xml:space="preserve">
<style type="text/css">
	.st0{fill-rule:evenodd;clip-rule:evenodd;fill:#1977F3;}
	.st1{fill-rule:evenodd;clip-rule:evenodd;fill:#FEFEFE;}
</style>
<g id="Group_3037">
	<g id="facebook-logo_logotyp.us">
		<path id="Path_6820" class="st0" d="M40,20C40,9,31,0,20,0S0,9,0,20c0,9.8,7.2,18.2,16.9,19.8v-14h-5.1V20h5.1v-4.4
			c0-5,3-7.8,7.5-7.8c1.5,0,3,0.2,4.5,0.4v4.9h-2.5c-2.5,0-3.3,1.6-3.3,3.1V20h5.6l-0.9,5.8h-4.7v14C32.9,38.2,40,29.8,40,20z"/>
		<path id="Path_6821" class="st1" d="M27.8,25.8l0.9-5.8h-5.5v-3.8c0-1.6,0.8-3.1,3.3-3.1h2.5V8.2c-1.5-0.2-3-0.4-4.5-0.4
			c-4.6,0-7.6,2.8-7.6,7.8V20h-5.1v5.8h5.1v14c2.1,0.3,4.2,0.3,6.3,0v-14L27.8,25.8z"/>
	</g>
</g>
</svg>
