<?xml version="1.0" encoding="utf-8"?>
<!-- Generator: Adobe Illustrator 25.2.0, SVG Export Plug-In . SVG Version: 6.00 Build 0)  -->
<svg version="1.0" id="Layer_1" xmlns="http://www.w3.org/2000/svg" xmlns:xlink="http://www.w3.org/1999/xlink" x="0px" y="0px"
	 viewBox="0 0 40 40" style="enable-background:new 0 0 40 40;" xml:space="preserve">
<style type="text/css">
	.st0{fill:#4285F4;}
	.st1{fill:#34A853;}
	.st2{fill:#FBBC04;}
	.st3{fill:#EA4335;}
</style>
<g id="Group_3038">
	<g id="Google_G_Logo">
		<path id="Path_24" class="st0" d="M35.5,20.4c0-1.1-0.1-2.1-0.3-3.2H20.3v6.1h8.5c-0.4,2-1.5,3.7-3.1,4.8v4h5.1
			C33.9,29,35.6,24.8,35.5,20.4L35.5,20.4z"/>
		<path id="Path_25" class="st1" d="M20.3,35.8c3.8,0.1,7.6-1.2,10.5-3.8l-5.1-4c-4.4,2.8-10.4,1.6-13.2-2.9l0,0
			c-0.4-0.7-0.8-1.4-1-2.1H6.2v4.1C8.9,32.4,14.3,35.8,20.3,35.8z"/>
		<path id="Path_26" class="st2" d="M11.5,23c-0.7-1.9-0.7-4.1,0-6v-4.1H6.2C4,17.4,4,22.6,6.2,27.1L11.5,23z"/>
		<path id="Path_27" class="st3" d="M20.3,10.5c2.3,0,4.4,0.8,6.1,2.4l4.5-4.5C28,5.7,24.2,4.2,20.3,4.2c-6,0-11.4,3.4-14.1,8.7
			l5.2,4.1C12.7,13.2,16.3,10.5,20.3,10.5z"/>
	</g>
</g>
</svg>
