<?xml version="1.0" encoding="utf-8"?>
<!-- Generator: Adobe Illustrator 25.2.0, SVG Export Plug-In . SVG Version: 6.00 Build 0)  -->
<svg version="1.0" id="Layer_1" xmlns="http://www.w3.org/2000/svg" xmlns:xlink="http://www.w3.org/1999/xlink" x="0px" y="0px"
	 viewBox="0 0 40 40" style="enable-background:new 0 0 40 40;" xml:space="preserve">
<style type="text/css">
	.st0{fill:#999999;}
	.st1{fill:#FFFFFF;}
</style>
<g id="Group_3039">
	<circle id="Ellipse_5-2" class="st0" cx="20" cy="20" r="20"/>
	<path id="path4" class="st1" d="M30.3,26.4c-0.4,0.9-0.9,1.7-1.4,2.5s-1.2,1.5-1.8,2.2c-0.6,0.6-1.5,1-2.3,1
		c-0.7,0-1.5-0.2-2.2-0.5s-1.5-0.5-2.3-0.5s-1.6,0.2-2.4,0.5c-0.7,0.3-1.4,0.5-2.1,0.5c-0.9,0-1.8-0.4-2.4-1.1
		c-0.7-0.7-1.4-1.5-1.9-2.3c-0.9-1.2-1.5-2.6-2-4c-0.5-1.5-0.8-3.1-0.9-4.8c0-1.6,0.4-3.2,1.1-4.6c0.6-1,1.4-1.8,2.4-2.4
		c1-0.6,2.1-0.9,3.2-0.9c0.9,0.1,1.7,0.2,2.5,0.6c0.6,0.3,1.3,0.5,2,0.6c0.8-0.2,1.5-0.4,2.2-0.7c1-0.4,2-0.6,3-0.5c2,0,3.8,1,5,2.6
		c-2.8,1.5-3.8,5-2.3,7.8c0.3,0.6,0.7,1.1,1.2,1.5c0.5,0.5,1.2,0.9,1.8,1.2C30.6,25.6,30.4,26,30.3,26.4L30.3,26.4z M25.2,6.4
		c0,1.4-0.5,2.7-1.4,3.7c-0.9,1.3-2.5,2-4.1,2c0-0.2,0-0.3,0-0.5c0-1.4,0.6-2.7,1.5-3.7c0.5-0.6,1.1-1,1.8-1.4
		c0.7-0.3,1.4-0.5,2.1-0.6C25.1,6,25.1,6.2,25.2,6.4L25.2,6.4z"/>
</g>
</svg>
