<svg id="Layer_1" data-name="Layer 1" xmlns="http://www.w3.org/2000/svg" viewBox="0 0 28.99 15.77"><defs><style>.cls-1{fill:#1c1c1c;}</style></defs><g id="Group_3055" data-name="Group 3055"><path id="Path_6017" data-name="Path 6017" class="cls-1" d="M13.28,7c-.9-.1-1.32-.22-1.32-.61,0-.61.88-.67,1.26-.67a1.76,1.76,0,0,1,1.39.6l.09.14L16,5.87l-.08-.18a2.46,2.46,0,0,0-1.89-1.33V3.53H12.5v.82c-1.34.22-2.13,1-2.13,2.05,0,1.79,1.66,2,2.77,2.09s1.44.36,1.44.74c0,.75-1.07.81-1.4.81a1.81,1.81,0,0,1-1.65-.85L11.46,9,10,9.62l.08.18a2.83,2.83,0,0,0,2.4,1.67v.89h1.55v-.94a2.25,2.25,0,0,0,2.17-2.19C16.22,7.39,14.45,7.17,13.28,7Z"/><path d="M28.94,3.64,25.48.27c-.06-.06-.87-.58-.94,0V11.82h0v2.24H1.7V1.83H21.09a.85.85,0,0,0,0-1.7H0V15.77H26.25V9.32A.88.88,0,0,0,26.19,9V3.24l1.58,1.55a.17.17,0,0,0,.23,0l.94-.92a.17.17,0,0,0,0-.12A.16.16,0,0,0,28.94,3.64Z"/></g></svg>