<svg id="visa-seeklogo.com" xmlns="http://www.w3.org/2000/svg" xmlns:xlink="http://www.w3.org/1999/xlink" viewBox="0 0 57.02 18.41"><defs><style>.cls-1{fill:url(#linear-gradient);}</style><linearGradient id="linear-gradient" x1="-913.23" y1="520.19" x2="-913.15" y2="521.21" gradientTransform="matrix(57.02, 0, 0, -18.41, 52098.6, 9596.2)" gradientUnits="userSpaceOnUse"><stop offset="0" stop-color="#222357"/><stop offset="1" stop-color="#254aa5"/></linearGradient></defs><path id="Path_5114" data-name="Path 5114" class="cls-1" d="M29.49,5.89c0,2.56,2.29,4,4,4.84s2.4,1.44,2.39,2.22c0,1.2-1.43,1.72-2.76,1.74a9.65,9.65,0,0,1-4.73-1.12l-.83,3.9a14,14,0,0,0,5.12.94c4.84,0,8-2.39,8-6.09,0-4.7-6.5-5-6.46-7.06,0-.64.62-1.32,1.95-1.49a8.71,8.71,0,0,1,4.55.8L41.59.79A12.47,12.47,0,0,0,37.27,0c-4.55,0-7.75,2.42-7.78,5.89M49.37.33a2.09,2.09,0,0,0-2,1.3L40.5,18.14h4.84l1-2.66h5.9l.56,2.66H57L53.3.32H49.37M50,5.14l1.4,6.68H47.62L50,5.14M23.63.32,19.82,18.14h4.6L28.23.32h-4.6m-6.82,0L12,12.45,10.07,2.14A2.16,2.16,0,0,0,8,.32H.11L0,.84A19.33,19.33,0,0,1,4.55,2.36,2,2,0,0,1,5.64,3.92L9.31,18.14h4.87L21.65.32H16.81"/></svg>