<svg id="Layer_1" data-name="Layer 1" xmlns="http://www.w3.org/2000/svg" viewBox="0 0 35 31"><defs><style>.cls-1{fill:#a86a3f;}.cls-2{fill:#3db39e;}.cls-3{fill:#78cabb;}.cls-4{fill:#5abeac;}.cls-5{fill:#8cd2c5;}.cls-6{fill:#c47e4d;}.cls-7{fill:#efc75e;}.cls-8{fill:#d7b354;}.cls-9{fill:#b27245;}.cls-10{fill:#ca8b5f;}</style></defs><g id="wallet"><path id="Path_5103" data-name="Path 5103" class="cls-1" d="M2.73,3.89H30.07A2.74,2.74,0,0,1,32.8,6.63v3.3a2.74,2.74,0,0,1-2.73,2.75H2.73A2.75,2.75,0,0,1,0,9.93V6.63A2.74,2.74,0,0,1,2.73,3.89Z"/><path id="Path_5104" data-name="Path 5104" class="cls-2" d="M8.73,6.83,25.82,2.27A1.1,1.1,0,0,1,27.16,3L30,13.59a1.09,1.09,0,0,1-.76,1.34L7,20.89a1.08,1.08,0,0,1-1.33-.77L3.57,12.38Z"/><path id="Path_5105" data-name="Path 5105" class="cls-3" d="M27.1,13.16l-3.71,1a.54.54,0,0,1-.3-1h0l3.18-.85L24.6,5.88l-3.18.85a.54.54,0,1,1-.28-1.05l3.71-1a.51.51,0,0,1,.64.33l0,.06,2,7.42a.51.51,0,0,1-.33.64ZM11.72,17.31,8,18.3A.52.52,0,0,1,7.36,18s0,0,0-.06l-2-7.42a.51.51,0,0,1,.33-.64h.06l3.7-1a.54.54,0,1,1,.31,1h0l-3.19.85,1.7,6.38,3.19-.86a.51.51,0,0,1,.64.33s0,0,0,.06a.53.53,0,0,1-.37.65Z"/><path id="Path_5106" data-name="Path 5106" class="cls-4" d="M.22,10.67C5.11,7.87,18.3.15,18.3.15a1.11,1.11,0,0,1,1.51.39L25.3,10a1.08,1.08,0,0,1-.4,1.48h0L4.78,23a1.11,1.11,0,0,1-1.51-.39S1.73,19.49.19,16.85C.19,10.67.22,12.71.22,10.67Z"/><path id="Path_5107" data-name="Path 5107" class="cls-5" d="M22.5,9.68,18.65,3a.5.5,0,0,0-.7-.21l0,0L14.59,4.77a.54.54,0,0,0,.55.93L18,4.05l3.3,5.72-2.86,1.65a.54.54,0,0,0,.55.93l3.33-1.92a.55.55,0,0,0,.2-.73ZM7.94,17.46,5.08,19.11l-3.3-5.72,2.86-1.64a.54.54,0,0,0-.55-.94L.77,12.74a.51.51,0,0,0-.21.7.05.05,0,0,0,0,0l3.84,6.65a.53.53,0,0,0,.71.21l0,0L8.49,18.4a.52.52,0,0,0,.21-.71s0,0,0,0A.53.53,0,0,0,8,17.45Zm1.4-9.7a4.41,4.41,0,1,0,6,1.62,4.41,4.41,0,0,0-6-1.62ZM22.5,9.68,18.65,3a.5.5,0,0,0-.7-.21l0,0L14.59,4.77a.54.54,0,0,0,.55.93L18,4.05l3.3,5.72-2.86,1.65a.54.54,0,0,0,.55.93l3.33-1.92a.55.55,0,0,0,.2-.73v0ZM7.94,17.46,5.08,19.11l-3.3-5.72,2.86-1.64a.54.54,0,0,0-.55-.94L.77,12.74a.51.51,0,0,0-.21.7.05.05,0,0,0,0,0l3.84,6.65a.53.53,0,0,0,.71.21l0,0L8.49,18.4a.52.52,0,0,0,.21-.71s0,0,0,0A.53.53,0,0,0,8,17.45Zm1.4-9.7a4.41,4.41,0,1,0,6,1.62,4.41,4.41,0,0,0-6-1.62Z"/><path id="Path_5108" data-name="Path 5108" class="cls-6" d="M31.17,31H2.73A2.75,2.75,0,0,1,0,28.25V8.47H31.17a2.75,2.75,0,0,1,2.73,2.75v17A2.75,2.75,0,0,1,31.17,31ZM2.19,8.47H0V6.27A2.2,2.2,0,0,0,2.19,8.47Z"/><path id="Path_5109" data-name="Path 5109" class="cls-1" d="M33.9,24.24H29.5a3.85,3.85,0,0,1,0-7.7h4.4a1.1,1.1,0,0,1,1.1,1.1h0v5.5A1.1,1.1,0,0,1,33.9,24.24Z"/><path id="Path_5110" data-name="Path 5110" class="cls-7" d="M29.5,18.2a2.2,2.2,0,1,1-2.2,2.2,2.2,2.2,0,0,1,2.2-2.2Z"/><path id="Path_5111" data-name="Path 5111" class="cls-8" d="M30.05,22.05a2.23,2.23,0,0,1-1.81-3.47,2.13,2.13,0,0,0-.93,1.82,2.2,2.2,0,0,0,2.2,2.2h0a2.29,2.29,0,0,0,1.81-.94A2.21,2.21,0,0,1,30.05,22.05Z"/><path id="Path_5112" data-name="Path 5112" class="cls-9" d="M31.17,29.9H2.73A2.74,2.74,0,0,1,0,27.15v1.1A2.74,2.74,0,0,0,2.73,31H31.17a2.74,2.74,0,0,0,2.73-2.75v-1.1A2.74,2.74,0,0,1,31.17,29.9Z"/><path id="Path_5113" data-name="Path 5113" class="cls-10" d="M31.17,8.74h-29A2.2,2.2,0,0,1,0,6.54v1.1a2.2,2.2,0,0,0,2.19,2.2h29a2.75,2.75,0,0,1,2.73,2.75v-1.1A2.74,2.74,0,0,0,31.17,8.74Z"/></g></svg>